<!-- svg  Женя-->

<svg display="none" xmlns="http://www.w3.org/2000/svg">
  <!-- Английская версия -->
  <symbol id="eng-v" viewBox="0 0 16 12">
    <path d="M1.784 10.432V6.592H6.152V5.024H1.784V2.368H6.52V0.799999H0.12V12H6.6V10.432H1.784ZM12.2885 4.368C11.1525 4.368 10.3525 4.88 9.8725 5.728H9.8405V4.608H8.2725V12H9.8405V8.464C9.8405 6.624 10.6565 5.936 11.8085 5.936C12.8645 5.936 13.5045 6.464 13.5045 7.728V12H15.0725V7.456C15.0725 5.216 13.8725 4.368 12.2885 4.368Z"/>
  </symbol>

  <!-- Версия для чтения -->
  <symbol id="read" viewBox="0 0 30 13">
    <path fill-rule="evenodd" clip-rule="evenodd" d="M12.8903 6.55733C12.8596 9.63753 10.3531 12.125 7.26562 12.125C4.15903 12.125 1.64062 9.60659 1.64062 6.5C1.64062 6.42148 1.64223 6.34334 1.64542 6.26562H0.703125C0.314801 6.26562 0 5.95084 0 5.5625C0 5.17416 0.314801 4.85938 0.703125 4.85938H1.88365C2.58579 2.55308 4.72973 0.875 7.26562 0.875C9.84987 0.875 12.0271 2.6177 12.6862 4.99201C13.8328 4.37021 15.2297 4.37021 16.3763 4.99203C17.0354 2.6177 19.2126 0.875 21.7969 0.875C24.3328 0.875 26.4766 2.55308 27.1788 4.85938H28.3594C28.7477 4.85938 29.0625 5.17416 29.0625 5.5625C29.0625 5.95084 28.7477 6.26562 28.3594 6.26562H27.4172C27.4202 6.34334 27.4219 6.42148 27.4219 6.5C27.4219 9.60659 24.9035 12.125 21.7969 12.125C18.7094 12.125 16.2029 9.63753 16.1722 6.55733C15.2406 5.72344 13.8219 5.72344 12.8903 6.55733ZM11.4844 6.5C11.4844 8.82995 9.59557 10.7188 7.26562 10.7188C4.93568 10.7188 3.04688 8.82995 3.04688 6.5C3.04688 4.17005 4.93568 2.28125 7.26562 2.28125C9.59557 2.28125 11.4844 4.17005 11.4844 6.5ZM21.7969 10.7188C24.1268 10.7188 26.0156 8.82995 26.0156 6.5C26.0156 4.17005 24.1268 2.28125 21.7969 2.28125C19.4669 2.28125 17.5781 4.17005 17.5781 6.5C17.5781 8.82995 19.4669 10.7188 21.7969 10.7188Z" />
 </symbol>

  <!-- Поиск -->
  <symbol id="search" viewBox="0 0 17 17">
    <g clip-path="url(#clip0_1317_1291)">
    <path d="M15.5513 15.0735L11.7433 11.1129C12.7224 9.94901 13.2589 8.48455 13.2589 6.95999C13.2589 3.39801 10.3608 0.5 6.79886 0.5C3.23688 0.5 0.338867 3.39801 0.338867 6.95999C0.338867 10.522 3.23688 13.42 6.79886 13.42C8.13608 13.42 9.41038 13.0167 10.4999 12.251L14.3368 16.2416C14.4972 16.4082 14.7129 16.5 14.9441 16.5C15.1629 16.5 15.3704 16.4166 15.528 16.2649C15.8628 15.9428 15.8735 15.4085 15.5513 15.0735ZM6.79886 2.18522C9.43173 2.18522 11.5736 4.32713 11.5736 6.95999C11.5736 9.59286 9.43173 11.7348 6.79886 11.7348C4.16599 11.7348 2.02408 9.59286 2.02408 6.95999C2.02408 4.32713 4.16599 2.18522 6.79886 2.18522Z"/>
    </g>
    <defs>
    <clipPath id="clip0_1317_1291">
    <rect width="16" height="16" fill="white" transform="translate(0.0625 0.5)"/>
    </clipPath>
    </defs>
  </symbol>

  <!-- Личный кабинет -->
  <symbol id="lk" viewBox="0 0 17 17">
    <g clip-path="url(#clip0_1317_1293)">
    <path d="M10.6525 8.29771C11.3412 7.73842 11.8447 6.96986 12.0927 6.09922C12.3408 5.22857 12.321 4.29924 12.0362 3.44082C11.7514 2.5824 11.2157 1.83768 10.5039 1.31051C9.79207 0.78334 8.93958 0.5 8.0653 0.5C7.19102 0.5 6.33853 0.78334 5.62671 1.31051C4.9149 1.83768 4.37923 2.5824 4.09442 3.44082C3.8096 4.29924 3.78983 5.22857 4.03787 6.09922C4.28591 6.96986 4.78939 7.73842 5.4781 8.29771C4.17692 8.83539 3.06077 9.7657 2.27369 10.9686C1.48661 12.1715 1.06473 13.5918 1.0625 15.0461V15.773C1.0625 15.9658 1.13625 16.1507 1.26753 16.2871C1.3988 16.4234 1.57685 16.5 1.7625 16.5H14.3625C14.5482 16.5 14.7262 16.4234 14.8575 16.2871C14.9888 16.1507 15.0625 15.9658 15.0625 15.773V15.0461C15.0607 13.5924 14.6397 12.1726 13.8536 10.9698C13.0676 9.76701 11.9526 8.8363 10.6525 8.29771ZM5.2625 4.86865C5.2625 4.29353 5.42672 3.73133 5.73439 3.25314C6.04205 2.77495 6.47935 2.40224 6.99099 2.18215C7.50262 1.96207 8.06561 1.90448 8.60875 2.01668C9.1519 2.12888 9.65081 2.40583 10.0424 2.81249C10.434 3.21916 10.7007 3.73729 10.8087 4.30136C10.9167 4.86542 10.8613 5.45009 10.6494 5.98143C10.4374 6.51277 10.0786 6.96691 9.6181 7.28643C9.15764 7.60594 8.61629 7.77648 8.0625 7.77648C7.31989 7.77648 6.6077 7.47012 6.0826 6.9248C5.5575 6.37947 5.2625 5.63985 5.2625 4.86865ZM2.4625 15.0461C2.4625 13.5037 3.0525 12.0244 4.1027 10.9338C5.15291 9.84312 6.57729 9.2304 8.0625 9.2304C9.54771 9.2304 10.9721 9.84312 12.0223 10.9338C13.0725 12.0244 13.6625 13.5037 13.6625 15.0461H2.4625Z" />
    </g>
    <defs>
    <clipPath id="clip0_1317_1293">
    <rect width="16" height="16" fill="white" transform="translate(0.0625 0.5)"/>
    </clipPath>
    </defs>
 </symbol>

   <!-- Настройки -->
  <symbol id="settings" viewBox="0 0 17 17">
    <g clip-path="url(#clip0_1317_8028)">
    <path d="M15.3598 9.77172L14.6942 9.22378C14.2383 8.84844 14.2391 8.15081 14.6942 7.77622L15.3598 7.22828C15.8335 6.83831 15.9546 6.16963 15.6479 5.63822L14.3336 3.36178C14.0268 2.83041 13.3869 2.60103 12.8125 2.81622L12.0052 3.11869C11.4522 3.32581 10.8484 2.97647 10.7515 2.39491L10.6098 1.54447C10.5089 0.939281 9.99038 0.5 9.37681 0.5H6.74822C6.13463 0.5 5.61606 0.939281 5.51522 1.5445L5.37347 2.39491C5.27638 2.9775 4.67181 3.32547 4.11984 3.11872L3.3125 2.81622C2.73803 2.60103 2.09828 2.83044 1.79144 3.36178L0.477157 5.63819C0.170376 6.16953 0.291501 6.83825 0.76522 7.22825L1.43081 7.77619C1.88681 8.15156 1.88591 8.84912 1.43081 9.22375L0.765188 9.77169C0.291501 10.1617 0.170345 10.8304 0.477126 11.3617L1.79144 13.6382C2.09825 14.1695 2.73788 14.3989 3.3125 14.1838L4.11981 13.8813C4.67291 13.6741 5.27653 14.0237 5.37344 14.6051L5.51519 15.4554C5.61606 16.0607 6.13463 16.5 6.74819 16.5H9.37678C9.99035 16.5 10.5089 16.0607 10.6098 15.4555L10.7515 14.6051C10.8485 14.0227 11.4531 13.6745 12.0051 13.8813L12.8125 14.1838C13.3871 14.399 14.0268 14.1696 14.3336 13.6382L15.6479 11.3617C15.9546 10.8304 15.8335 10.1617 15.3598 9.77172ZM13.251 13.0132L12.4437 12.7107C11.1531 12.2273 9.74463 13.0429 9.51853 14.3996L9.37681 15.25H6.74822L6.60647 14.3996C6.37994 13.0403 4.96941 12.2282 3.68131 12.7107L2.87397 13.0132L1.55969 10.7368L2.22528 10.1888C3.28931 9.31291 3.28709 7.68528 2.22528 6.81116L1.55969 6.26322L2.874 3.98678L3.68131 4.28925C4.97194 4.77269 6.38038 3.95706 6.60647 2.60041L6.74819 1.75H9.37678L9.5185 2.60041C9.74506 3.95984 11.1557 4.77169 12.4437 4.28925L13.251 3.98678L14.5656 6.26291C14.5656 6.26291 14.5655 6.263 14.5653 6.26319L13.8997 6.81112C12.8357 7.687 12.8378 9.31466 13.8997 10.1888L14.5653 10.7367L13.251 13.0132ZM8.0625 5.41666C6.36234 5.41666 4.97916 6.79984 4.97916 8.5C4.97916 10.2002 6.36234 11.5833 8.0625 11.5833C9.76266 11.5833 11.1458 10.2002 11.1458 8.5C11.1458 6.79984 9.76266 5.41666 8.0625 5.41666ZM8.0625 10.3333C7.05159 10.3333 6.22916 9.51091 6.22916 8.5C6.22916 7.48909 7.05159 6.66666 8.0625 6.66666C9.07341 6.66666 9.89584 7.48909 9.89584 8.5C9.89584 9.51091 9.07341 10.3333 8.0625 10.3333Z"/>
    </g>
    <defs>
    <clipPath id="clip0_1317_8028">
    <rect width="16" height="16" fill="white" transform="translate(0.0625 0.5)"/>
    </clipPath>
    </defs>
 </symbol>
 
  <!-- Логотип -->
 <symbol viewBox="0 0 144 21" id="logo">
    <g clip-path="url(#ca)">
    <path d="M5.691 3.668c3.093 0 5.577 2.359 5.577 5.556 0 3.144-2.535 5.555-5.425 5.555-1.369 0-2.687-.42-3.65-1.573H2.09v8.071H.012V10.062c0-3.878 2.18-6.394 5.679-6.394zm-.05 9.224c2.027 0 3.447-1.677 3.447-3.72 0-1.992-1.369-3.67-3.448-3.67-2.079 0-3.498 1.625-3.498 3.67 0 2.043 1.47 3.72 3.498 3.72zm7.554-3.668c0-3.197 2.586-5.556 5.628-5.556 3.043 0 5.629 2.359 5.629 5.556 0 3.196-2.586 5.555-5.629 5.555-3.042 0-5.628-2.359-5.628-5.555zm5.628 3.668c2.08 0 3.448-1.625 3.448-3.668 0-2.044-1.42-3.669-3.448-3.669s-3.447 1.625-3.447 3.669c0 2.043 1.369 3.668 3.447 3.668zm13.234 1.887c-3.245 0-5.679-2.359-5.679-5.555 0-3.197 2.384-5.556 5.629-5.556 2.484 0 4.766 1.363 5.374 4.036h-2.13c-.506-1.415-1.774-2.149-3.194-2.149-2.18 0-3.498 1.677-3.498 3.72 0 2.045 1.369 3.67 3.55 3.67 1.419 0 2.686-.682 3.193-2.202h2.13c-.76 2.726-2.992 4.036-5.375 4.036zm13.031-1.52l-3.397-7.337h-.05v8.647h-1.978V3.88h3.144l3.346 7.284h.05l3.347-7.285h3.144v10.639h-1.977V5.922h-.051l-3.397 7.337h-2.18zm9.837-4.035c0-3.197 2.586-5.556 5.628-5.556 3.042 0 5.628 2.359 5.628 5.556 0 3.196-2.586 5.555-5.628 5.555-3.042 0-5.628-2.359-5.628-5.555zm5.679 3.668c2.079 0 3.448-1.625 3.448-3.668 0-2.044-1.42-3.669-3.448-3.669-2.08 0-3.448 1.625-3.448 3.669-.05 2.043 1.369 3.668 3.448 3.668zm6.642 1.729v-2.2h.05c.406 0 .863-.158 1.167-.525.406-.419.558-1.258.76-2.41l.305-1.73c.355-1.939 1.014-3.93 3.853-3.93h4.006v10.69h-2.079V5.818h-1.623c-1.622 0-1.926.472-2.332 2.725l-.253 1.572c-.254 1.468-.609 2.726-1.319 3.512-.557.629-1.318.943-2.383.943h-.152v.052zM79.72 9.224c0-3.197 2.585-5.556 5.627-5.556 3.043 0 5.629 2.359 5.629 5.556 0 3.196-2.586 5.555-5.629 5.555-3.042 0-5.628-2.359-5.628-5.555zm5.627 3.668c2.08 0 3.448-1.625 3.448-3.668 0-2.044-1.42-3.669-3.448-3.669-2.078 0-3.447 1.625-3.447 3.669 0 2.043 1.42 3.668 3.447 3.668zm8.063 4.245h-1.978v-4.56h1.318c.609-.68.913-1.729 1.166-2.934l.457-1.992c.405-1.886 1.217-3.825 3.752-3.825h4.006v8.752h1.47v4.559h-1.978v-2.568h-8.264v2.568h.05zm6.692-4.507V5.817h-1.926c-1.268 0-1.674 1.048-1.927 2.149l-.456 2.044c-.254 1.153-.609 2.096-1.015 2.463v.157h5.324zm10.699 2.149c-3.296 0-5.679-2.359-5.679-5.555 0-3.197 2.383-5.556 5.578-5.556 2.484 0 5.425 1.677 5.425 5.713V9.8h-8.975c.203 1.782 1.572 3.092 3.6 3.092 1.217 0 2.637-.472 3.043-1.52h2.129c-.608 2.358-2.991 3.407-5.121 3.407zM107.252 0h2.129v2.201h-2.129V0zm6.794 8.175c-.304-1.624-1.521-2.672-3.346-2.672-1.775 0-3.043 1.153-3.398 2.672h6.744zM111.866 0h2.129v2.201h-2.129V0zm14.045 3.878v4.245h1.724l2.434-4.245h2.281l-3.042 5.084 3.245 5.555h-2.332l-2.586-4.507h-1.775v4.507h-1.927V10.01h-1.724l-2.585 4.507h-2.333l3.245-5.555-3.042-5.084h2.282l2.433 4.245h1.724V3.878h1.978zm8.113 5.87l-.051-5.87h2.079v3.04h.05c.862-1.1 1.978-1.625 3.296-1.625 2.535 0 4.564 1.94 4.564 4.664 0 2.778-2.079 4.822-4.969 4.822-2.84 0-4.969-2.097-4.969-5.031zm4.969 3.144c1.622 0 2.839-1.205 2.839-2.83 0-1.624-1.217-2.882-2.839-2.882-1.623 0-2.789 1.205-2.789 2.882s1.166 2.83 2.789 2.83z"/>
    </g>
    <defs>
    <clipPath id="ca">
    <path d="M0 0h144v21H0z"/>
    </clipPath>
    </defs>
 </symbol>

  <!-- Шеврон -->
  <symbol viewBox="0 0 12 12" id="chevron-right">
    <path d="M4.207.293a1 1 0 00-1.414 1.414L4.207.293zM8.5 6l.707.707a1 1 0 000-1.414L8.5 6zm-5.707 4.293a1 1 0 101.414 1.414l-1.414-1.414zm0-8.586l5 5 1.414-1.414-5-5-1.414 1.414zm5 3.586l-5 5 1.414 1.414 5-5-1.414-1.414z"/>
  </symbol>

    <!-- Стрелка влево -->
  <symbol viewBox="0 0 9 9" id="left-arrow">
    <g clip-path="url(#clip0_3225_41956)">
    <path fill-rule="evenodd" clip-rule="evenodd" d="M3.71886 5.70069L5.52594 7.61406L4.07192 8.98731L0.0234375 4.70069L4.07192 0.414062L5.52594 1.78731L3.71886 3.70069H8.59893V5.70069H3.71886Z"/>
    </g>
    <defs>
    <clipPath id="clip0_3225_41956">
    <rect width="9" height="9" fill="white"/>
    </clipPath>
    </defs>
  </symbol>

  <!-- Образование -->
  <symbol viewBox="0 0 24 24" id="education">
    <g >
    <path d="M23.5308 6.01657L12.234 2.03074C12.0826 1.9773 11.9175 1.9773 11.7661 2.03074L0.469219 6.01657C0.188344 6.11566 0.000375562 6.38097 5.61892e-07 6.67882C-0.000374438 6.97666 0.186985 7.2424 0.467626 7.34215L11.7645 11.3583C11.8407 11.3853 11.9204 11.3989 12 11.3989C12.0797 11.3989 12.1593 11.3853 12.2355 11.3583L23.5324 7.34215C23.813 7.2424 24.0003 6.97666 24 6.67882C23.9996 6.38097 23.8117 6.11566 23.5308 6.01657V6.01657Z" />
    <path d="M22.3113 15.4019V9.2688L20.905 9.76872V15.4019C20.4815 15.6457 20.196 16.1025 20.196 16.6263C20.196 17.1501 20.4815 17.607 20.905 17.8508V21.3062C20.905 21.6945 21.2198 22.0093 21.6082 22.0093C21.9965 22.0093 22.3113 21.6945 22.3113 21.3062V17.8508C22.7348 17.6071 23.0203 17.1502 23.0203 16.6264C23.0203 16.1026 22.7349 15.6457 22.3113 15.4019Z" />
    <path d="M11.9999 12.8051C11.7586 12.8051 11.5209 12.7641 11.2934 12.6833L4.94263 10.4255V13.5197C4.94263 14.2766 5.73233 14.9168 7.2898 15.4223C8.64735 15.8629 10.3201 16.1056 11.9999 16.1056C13.6798 16.1056 15.3525 15.8629 16.7101 15.4223C18.2675 14.9168 19.0573 14.2766 19.0573 13.5197V10.4255L12.7065 12.6833C12.479 12.7641 12.2413 12.8051 11.9999 12.8051V12.8051Z" />
    </g>
    <defs>
    <clipPath id="clip0_1502_11620">
    <rect width="24" height="24" fill="white"/>
    </clipPath>
    </defs>
  </symbol>

  <!-- Семья -->
  <symbol viewBox="0 0 24 24" id="family">
    <g clip-path="url(#clip0_1229_18838)">
    <path d="M5.59833 7.48132C7.66101 7.48132 9.33899 5.80316 9.33899 3.74066C9.33899 1.67798 7.66083 0 5.59833 0C3.53583 0 1.85767 1.67798 1.85767 3.74066C1.85767 5.80316 3.53564 7.48132 5.59833 7.48132Z" fill="#8C64D8"/>
    <path d="M11.9992 17.4562C9.53552 17.4562 7.53125 19.4606 7.53125 21.9243V23.2969C7.53125 23.6852 7.84601 24 8.23438 24H15.7655C16.1539 24 16.4686 23.6852 16.4686 23.2969V21.925C16.4686 19.461 14.464 17.4562 11.9992 17.4562Z" fill="#8C64D8"/>
    <path d="M6.12506 21.9243C6.12506 19.6269 7.45093 17.6336 9.37756 16.6686C8.08447 15.8143 7.22974 14.3481 7.22974 12.6859C7.22974 11.5166 7.65289 10.4445 8.35364 9.61395C7.53973 9.15179 6.59949 8.88739 5.59845 8.88739C2.51147 8.88757 0 11.3989 0 14.4858V23.2969C0 23.6852 0.314758 24 0.703125 24H6.24591C6.16791 23.7799 6.12506 23.5433 6.12506 23.2969V21.9243Z" fill="#8C64D8"/>
    <path d="M12 16.0499C13.855 16.0499 15.364 14.5408 15.364 12.6859C15.364 10.8311 13.855 9.3219 12 9.3219C10.145 9.3219 8.63599 10.8311 8.63599 12.6859C8.63599 14.541 10.145 16.0499 12 16.0499Z" fill="#8C64D8"/>
    <path d="M18.4016 7.48132C20.4641 7.48132 22.1422 5.80316 22.1422 3.74066C22.1422 1.67798 20.4642 0 18.4016 0C16.3389 0 14.6609 1.67798 14.6609 3.74066C14.6609 5.80316 16.3391 7.48132 18.4016 7.48132Z" fill="#8C64D8"/>
    <path d="M18.4017 8.88757C17.4008 8.88757 16.4604 9.15179 15.6465 9.61395C16.3472 10.4445 16.7704 11.5166 16.7704 12.6859C16.7704 14.3483 15.9156 15.8145 14.6226 16.6686C16.5492 17.6336 17.8751 19.6269 17.8751 21.9243V23.2969C17.8751 23.5433 17.8322 23.7799 17.7542 24H23.297C23.6854 24 24.0001 23.6852 24.0001 23.2969V14.4858C24.0001 11.3989 21.4886 8.88757 18.4017 8.88757Z" fill="#8C64D8"/>
    </g>
    <defs>
    <clipPath id="clip0_1229_18838">
    <rect width="24" height="24" fill="white"/>
    </clipPath>
    </defs>
 </symbol>

   <!-- Поделиться -->
  <symbol viewBox="0 0 16 17" id="share">
    <path d="M11.9999 10.5001C11.5805 10.501 11.1673 10.6012 10.794 10.7924C10.4207 10.9835 10.0979 11.2603 9.85192 11.6001L6.50859 9.37139C6.71928 8.8096 6.71928 8.1905 6.50859 7.62872L9.85192 5.40005C10.2272 5.90881 10.7716 6.26707 11.3873 6.41047C12.003 6.55387 12.6496 6.47301 13.2111 6.18242C13.7725 5.89183 14.2119 5.41056 14.4504 4.82507C14.6888 4.23957 14.7106 3.58824 14.512 2.9881C14.3133 2.38795 13.9071 1.87832 13.3664 1.55078C12.8257 1.22324 12.1859 1.09925 11.5619 1.20109C10.938 1.30293 10.3708 1.62392 9.96235 2.1064C9.55386 2.58887 9.3308 3.20121 9.33326 3.83338C9.33758 3.93053 9.34737 4.02735 9.36259 4.12338L5.76859 6.51939C5.38558 6.17411 4.91068 5.94729 4.4014 5.8664C3.89212 5.78551 3.37031 5.85401 2.89916 6.06361C2.42802 6.27321 2.02775 6.61492 1.74683 7.04735C1.46592 7.47978 1.31641 7.98439 1.31641 8.50005C1.31641 9.01572 1.46592 9.52032 1.74683 9.95275C2.02775 10.3852 2.42802 10.7269 2.89916 10.9365C3.37031 11.1461 3.89212 11.2146 4.4014 11.1337C4.91068 11.0528 5.38558 10.826 5.76859 10.4807L9.36259 12.8767C9.34737 12.9728 9.33758 13.0696 9.33326 13.1667C9.33326 13.6941 9.48965 14.2097 9.78267 14.6482C10.0757 15.0868 10.4922 15.4286 10.9794 15.6304C11.4667 15.8322 12.0029 15.885 12.5202 15.7821C13.0374 15.6793 13.5126 15.4253 13.8855 15.0523C14.2585 14.6794 14.5125 14.2042 14.6154 13.687C14.7182 13.1697 14.6654 12.6335 14.4636 12.1462C14.2618 11.659 13.92 11.2425 13.4814 10.9495C13.0429 10.6564 12.5273 10.5001 11.9999 10.5001V10.5001ZM11.9999 2.50005C12.2636 2.50005 12.5214 2.57825 12.7407 2.72476C12.96 2.87127 13.1308 3.07951 13.2318 3.32314C13.3327 3.56678 13.3591 3.83486 13.3076 4.09351C13.2562 4.35215 13.1292 4.58972 12.9427 4.77619C12.7563 4.96266 12.5187 5.08965 12.26 5.1411C12.0014 5.19255 11.7333 5.16614 11.4897 5.06522C11.246 4.96431 11.0378 4.79341 10.8913 4.57415C10.7448 4.35488 10.6666 4.09709 10.6666 3.83338C10.6666 3.47976 10.8071 3.14062 11.0571 2.89058C11.3072 2.64053 11.6463 2.50005 11.9999 2.50005V2.50005ZM3.99992 9.83339C3.73621 9.83339 3.47843 9.75519 3.25916 9.60868C3.0399 9.46217 2.869 9.25393 2.76808 9.0103C2.66717 8.76666 2.64076 8.49857 2.69221 8.23993C2.74366 7.98129 2.87064 7.74371 3.05711 7.55724C3.24358 7.37077 3.48116 7.24378 3.7398 7.19234C3.99844 7.14089 4.26653 7.1673 4.51017 7.26821C4.7538 7.36913 4.96204 7.54003 5.10855 7.75929C5.25506 7.97856 5.33326 8.23634 5.33326 8.50005C5.33326 8.85367 5.19278 9.19281 4.94273 9.44286C4.69268 9.69291 4.35355 9.83339 3.99992 9.83339ZM11.9999 14.5001C11.7362 14.5001 11.4784 14.4219 11.2592 14.2753C11.0399 14.1288 10.869 13.9206 10.7681 13.677C10.6672 13.4333 10.6408 13.1652 10.6922 12.9066C10.7437 12.648 10.8706 12.4104 11.0571 12.2239C11.2436 12.0374 11.4812 11.9105 11.7398 11.859C11.9984 11.8076 12.2665 11.834 12.5102 11.9349C12.7538 12.0358 12.962 12.2067 13.1086 12.426C13.2551 12.6452 13.3333 12.903 13.3333 13.1667C13.3333 13.5203 13.1928 13.8595 12.9427 14.1095C12.6927 14.3596 12.3535 14.5001 11.9999 14.5001Z" />
 </symbol>

    <!-- Шеврон -->
  <symbol viewBox="0 0 24 24" id="сhevron">
    <path fill-rule="evenodd" clip-rule="evenodd" d="M3.29289 7.29289C3.68342 6.90237 4.31658 6.90237 4.70711 7.29289L12 14.5858L19.2929 7.29289C19.6834 6.90237 20.3166 6.90237 20.7071 7.29289C21.0976 7.68342 21.0976 8.31658 20.7071 8.70711L13.4142 16C12.6332 16.781 11.3668 16.781 10.5858 16L3.29289 8.70711C2.90237 8.31658 2.90237 7.68342 3.29289 7.29289Z" />
  </symbol>

  <!-- Шеврон вверх -->
  <symbol viewBox="0 0 10 7" id="сhevron-up">
    <path fill-rule="evenodd" clip-rule="evenodd" d="M0.585693 1.85367L1.99991 0.439453L5.2928 3.73235L8.58569 0.439453L9.99991 1.85367L5.2928 6.56077L0.585693 1.85367Z" fill="#8C64D8"/>
  </symbol>

    <!-- Шеврон вправо -->
  <symbol viewBox="0 0 14 24" id="сhevron-right">
    <path fill-rule="evenodd" clip-rule="evenodd" d="M10.4771 11.9456L0.238549 1.7071L1.65276 0.292883L13.3055 11.9456L1.65277 23.5984L0.238551 22.1842L10.4771 11.9456Z"/>
  </symbol>

  <!-- Крестик -->
  <symbol viewBox="0 0 14 24" id="close">
    <path d="M1.67181 0.578097C1.36977 0.276051 0.880053 0.276051 0.578006 0.578097C0.27596 0.880143 0.275961 1.36986 0.578007 1.6719L5.90647 7.00037L0.577853 12.329C0.275807 12.631 0.275807 13.1207 0.577853 13.4228C0.879899 13.7248 1.36961 13.7248 1.67166 13.4228L7.00028 8.09417L12.3289 13.4228C12.6309 13.7248 13.1206 13.7248 13.4227 13.4228C13.7247 13.1207 13.7247 12.631 13.4227 12.329L8.09408 7.00037L13.4225 1.67191C13.7246 1.36986 13.7246 0.880148 13.4225 0.578102C13.1205 0.276056 12.6308 0.276056 12.3287 0.578102L7.00028 5.90656L1.67181 0.578097Z"/>
  </symbol>


  <!-- девайс десктоп -->
  <symbol viewBox="0 0 40 40" id="device-desktop">
    <path d="M37.7522 0H2.24768C1.00854 0 0.000488281 1.00812 0.000488281 2.24727V12.3964C0.000488281 13.6368 1.00854 14.6459 2.24768 14.6459H3.94291L3.96439 17.9201C3.96635 18.2134 4.13236 18.4809 4.39439 18.6128C4.50541 18.6687 4.62572 18.6962 4.74557 18.6962C4.90846 18.6962 5.07057 18.6452 5.20697 18.5455L10.5371 14.6458H16.8063L19.3549 18.3571C19.5006 18.5693 19.7416 18.6961 19.999 18.6961C20.2564 18.6961 20.4973 18.5693 20.6431 18.3571L23.1917 14.6458H29.463L34.7909 18.5453C35.0275 18.7186 35.3413 18.7445 35.6033 18.6129C35.8653 18.4811 36.0314 18.2138 36.0335 17.9205L36.0568 14.6458H37.7524C38.9916 14.6458 39.9996 13.6366 39.9996 12.3963V2.24727C39.9994 1.00812 38.9913 0 37.7522 0V0ZM38.4369 12.3964C38.4369 12.7752 38.1297 13.0834 37.7522 13.0834H35.2809C34.8516 13.0834 34.5027 13.4298 34.4996 13.8591L34.4817 16.383L30.1796 13.2342C30.0456 13.1362 29.8841 13.0834 29.7181 13.0834H22.7803C22.5228 13.0834 22.282 13.2102 22.1362 13.4223L19.9988 16.5348L17.8615 13.4223C17.7158 13.2102 17.4749 13.0834 17.2174 13.0834H10.2817C10.1159 13.0834 9.95432 13.1362 9.82041 13.2341L5.51682 16.3828L5.50025 13.8596C5.49744 13.4301 5.14846 13.0834 4.719 13.0834H2.24768C1.8701 13.0834 1.56299 12.7752 1.56299 12.3965V2.24727C1.56299 1.86969 1.87018 1.5625 2.24768 1.5625H37.7522C38.1298 1.5625 38.4369 1.86969 38.4369 2.24727V12.3964Z" fill="#8C64D8"/>
    <path d="M37.2871 32.4829C37.6758 31.8387 37.8998 31.0845 37.8998 30.2788C37.8998 27.9175 35.9797 25.9964 33.6197 25.9964C31.2584 25.9964 29.3373 27.9175 29.3373 30.2788C29.3373 31.0846 29.5616 31.8389 29.9505 32.4832C29.3827 32.7443 28.8781 33.1175 28.4625 33.5716C27.8589 31.8207 26.4965 30.3902 24.7518 29.7181C25.4087 28.7783 25.7955 27.6366 25.7955 26.4056C25.7955 23.209 23.1949 20.6084 19.9984 20.6084C16.802 20.6084 14.2014 23.209 14.2014 26.4056C14.2014 27.6368 14.5884 28.7787 15.2454 29.7186C13.5005 30.3908 12.1381 31.8211 11.5345 33.5718C11.1189 33.1176 10.6144 32.7445 10.0466 32.4833C10.4354 31.839 10.6595 31.0847 10.6595 30.2789C10.6595 27.9175 8.73945 25.9964 6.37938 25.9964C4.01813 25.9964 2.09711 27.9175 2.09711 30.2789C2.09711 31.0847 2.32133 31.8389 2.71023 32.4832C1.10398 33.2222 0 34.8563 0 36.6878V39.2188C0 39.6503 0.349766 40 0.78125 40H16.4906C16.9221 40 17.2719 39.6503 17.2719 39.2188C17.2719 38.7873 16.9221 38.4375 16.4906 38.4375H12.7566V36.6876V35.5914C12.7566 33.3878 14.3209 31.4635 16.4461 30.9819C17.4281 31.746 18.6605 32.2028 19.9984 32.2028C21.3363 32.2028 22.5689 31.7459 23.551 30.9816C25.6759 31.4627 27.2401 33.3874 27.2401 35.5914V36.6876V38.4375H23.5061C23.0746 38.4375 22.7248 38.7873 22.7248 39.2188C22.7248 39.6503 23.0746 40 23.5061 40H39.2177C39.6491 40 39.9989 39.6503 39.9989 39.2188V36.6876C39.9991 34.8559 38.8944 33.2217 37.2871 32.4829V32.4829ZM6.37953 27.5588C7.87805 27.5588 9.09719 28.7789 9.09719 30.2787C9.09719 31.7773 7.87805 32.9964 6.37953 32.9964C4.87984 32.9964 3.65977 31.7773 3.65977 30.2787C3.65977 28.779 4.87984 27.5588 6.37953 27.5588ZM1.56266 38.4375V36.6876C1.56266 35.2963 2.52516 34.0772 3.8482 33.7283C4.55781 34.25 5.43313 34.5589 6.37953 34.5589C7.32539 34.5589 8.20008 34.25 8.9093 33.7285C10.232 34.0776 11.1942 35.2965 11.1942 36.6876V38.4375H1.56266ZM15.764 26.4056C15.764 24.0706 17.6636 22.1709 19.9985 22.1709C22.3334 22.1709 24.233 24.0705 24.233 26.4056C24.233 28.7406 22.3334 30.6402 19.9985 30.6402C17.6636 30.6402 15.764 28.7405 15.764 26.4056ZM33.6197 27.5588C35.1182 27.5588 36.3373 28.7789 36.3373 30.2787C36.3373 31.7773 35.1182 32.9964 33.6197 32.9964C32.12 32.9964 30.8998 31.7773 30.8998 30.2787C30.8998 28.779 32.12 27.5588 33.6197 27.5588V27.5588ZM28.8027 36.6876C28.8027 35.2963 29.7652 34.0772 31.0883 33.7283C31.7979 34.25 32.6732 34.5589 33.6196 34.5589C34.5655 34.5589 35.4402 34.25 36.1495 33.7284C37.4734 34.0773 38.4365 35.2963 38.4365 36.6875V38.4375H28.8027V36.6876Z" fill="#8C64D8"/>
    <path d="M35.143 4.36035H14.7988C14.3673 4.36035 14.0176 4.71012 14.0176 5.1416C14.0176 5.57309 14.3673 5.92285 14.7988 5.92285H35.1431C35.5746 5.92285 35.9244 5.57309 35.9244 5.1416C35.9244 4.71012 35.5745 4.36035 35.143 4.36035Z" fill="#8C64D8"/>
    <path d="M4.85352 5.92285H10.6621C11.0936 5.92285 11.4434 5.57309 11.4434 5.1416C11.4434 4.71012 11.0936 4.36035 10.6621 4.36035H4.85352C4.42203 4.36035 4.07227 4.71012 4.07227 5.1416C4.07227 5.57309 4.42203 5.92285 4.85352 5.92285V5.92285Z" fill="#8C64D8"/>
    <path d="M35.1432 8.7207H29.3369C28.9054 8.7207 28.5557 9.07047 28.5557 9.50195C28.5557 9.93344 28.9054 10.2832 29.3369 10.2832H35.1432C35.5747 10.2832 35.9245 9.93344 35.9245 9.50195C35.9245 9.07047 35.5747 8.7207 35.1432 8.7207V8.7207Z" fill="#8C64D8"/>
    <path d="M25.1978 8.7207H4.85352C4.42203 8.7207 4.07227 9.07047 4.07227 9.50195C4.07227 9.93344 4.42203 10.2832 4.85352 10.2832H25.1978C25.6293 10.2832 25.9791 9.93344 25.9791 9.50195C25.9791 9.07047 25.6293 8.7207 25.1978 8.7207Z" fill="#8C64D8"/>
    <path d="M19.9985 38.4375C19.5671 38.4375 19.2173 38.7873 19.2173 39.2188C19.2173 39.6502 19.5671 40 19.9985 40H20.003C20.4345 40 20.7821 39.6502 20.7821 39.2188C20.7821 38.7873 20.43 38.4375 19.9985 38.4375Z" fill="#8C64D8"/>
  </symbol>

  <!-- девайс планшет -->
  <symbol viewBox="0 0 40 40" id="device-tablet">
    <g clip-path="url(#clip0_1701_11795)">
    <path d="M37.9053 2.67805C37.4297 2.62981 36.9508 2.72796 36.5326 2.95939C36.3284 2.29699 35.8373 1.76148 35.195 1.50094C34.5526 1.24039 33.8272 1.28241 33.2193 1.61538C32.8808 0.567296 31.8555 -0.101389 30.7599 0.0113848C30.047 0.0924272 29.4121 0.499785 29.0413 1.11405C28.487 0.703751 27.7773 0.565239 27.1094 0.737023C26.4416 0.908807 25.8868 1.37257 25.5993 1.99938H19.0339C18.9123 1.99848 18.7932 1.96461 18.6893 1.90138L15.9939 0.288718C15.6841 0.10145 15.3293 0.00147534 14.9673 -0.000615226H5.09461C3.87465 -0.0169584 2.83579 0.882902 2.67794 2.09272C2.62977 2.56846 2.72792 3.04757 2.95927 3.46605C2.29669 3.66997 1.761 4.16115 1.50053 4.80361C1.24005 5.44607 1.28244 6.17162 1.61594 6.77939C0.566229 7.11663 -0.103403 8.14348 0.0112731 9.24005C0.0920198 9.95308 0.499455 10.5881 1.11394 10.9587C0.775631 11.4253 0.620475 11.9999 0.67794 12.5734C0.773187 13.3705 1.27262 14.0622 1.99927 14.4034V20.9661C1.99811 21.0871 1.964 21.2056 1.90061 21.3087L0.27394 24.0181C0.0969073 24.3269 0.00231934 24.6761 -0.000726874 25.0321V34.9047C-0.0160836 36.1244 0.883753 37.1626 2.09327 37.3207C2.56874 37.3676 3.04727 37.2696 3.46594 37.0394C3.67002 37.702 4.16134 38.2377 4.80389 38.4981C5.44645 38.7586 6.17208 38.7162 6.77994 38.3827C7.08882 39.3473 7.98641 40.0012 8.99927 39.9994C9.80296 39.9996 10.5473 39.5762 10.9579 38.8854C11.5127 39.2957 12.2229 39.4341 12.8911 39.2622C13.5594 39.0903 14.1146 38.6264 14.4026 37.9994H20.9646C21.0862 38.0003 21.2054 38.0342 21.3093 38.0974L24.0046 39.7114C24.3147 39.898 24.6694 39.9972 25.0313 39.9987H34.9039C36.1239 40.0151 37.1628 39.1152 37.3206 37.9054C37.3686 37.4299 37.2705 36.951 37.0393 36.5327C37.7019 36.3288 38.2375 35.8376 38.498 35.1952C38.7585 34.5527 38.7161 33.8272 38.3826 33.2194C39.4318 32.8822 40.1013 31.8562 39.9873 30.7601C39.9065 30.047 39.4991 29.412 38.8846 29.0414C39.2229 28.5748 39.3781 28.0002 39.3206 27.4267C39.2246 26.6306 38.7253 25.94 37.9993 25.5994V19.0327C38.0007 18.9114 38.0345 18.7926 38.0973 18.6887L39.7119 15.9941C39.8985 15.6837 39.9978 15.3288 39.9993 14.9667V5.09405C40.0146 3.87434 39.1148 2.83613 37.9053 2.67805V2.67805ZM1.33794 9.10805C1.30705 8.8255 1.39787 8.54315 1.58768 8.33158C1.77749 8.12001 2.04837 7.99922 2.33261 7.99939H6.66594C7.03413 7.99939 7.33261 7.70091 7.33261 7.33272C7.33261 6.96453 7.03413 6.66605 6.66594 6.66605H3.66594C3.38174 6.66673 3.11068 6.54645 2.9205 6.33527C2.73031 6.12409 2.63896 5.84196 2.66927 5.55939C2.75458 5.02807 3.22359 4.64439 3.76127 4.66605H7.99927C8.36746 4.66605 8.66594 4.36758 8.66594 3.99939C8.66594 3.6312 8.36746 3.33272 7.99927 3.33272H4.99927C4.71508 3.33339 4.44402 3.21311 4.25383 3.00193C4.06364 2.79075 3.97229 2.50863 4.00261 2.22605C4.08764 1.69458 4.55682 1.31075 5.09461 1.33272H14.9673C15.0888 1.33364 15.2077 1.36776 15.3113 1.43138L18.0073 3.04605C18.3175 3.23208 18.6722 3.3311 19.0339 3.33272H25.3326V9.25872L24.1779 8.31339C23.3115 7.65204 22.0927 7.71904 21.3039 8.47139C20.7183 9.03936 20.5147 9.89521 20.7819 10.6661H18.5466C18.0219 10.6683 17.5191 10.8766 17.1466 11.2461L10.8726 17.4687L10.8593 17.4821L10.5819 17.7567C10.2567 18.0746 9.73608 18.0711 9.41527 17.7487C9.12246 17.4548 9.0939 16.9889 9.34861 16.6614L11.1819 14.4214C11.345 14.222 11.3786 13.9466 11.2683 13.7139C11.158 13.4811 10.9235 13.3328 10.6659 13.3327H3.09461C2.55779 13.3537 2.08986 12.9705 2.00461 12.4401C1.97413 12.1577 2.06512 11.8757 2.25489 11.6645C2.44466 11.4532 2.7153 11.3326 2.99927 11.3327H6.66594C7.03413 11.3327 7.33261 11.0342 7.33261 10.6661C7.33261 10.2979 7.03413 9.99939 6.66594 9.99939H2.42794C1.89166 10.0201 1.42407 9.63778 1.33794 9.10805V9.10805ZM27.9993 21.7707L21.9126 27.8067C21.7902 27.9291 21.6244 27.9981 21.4513 27.9987H18.2273L12.1919 21.9147C12.0692 21.7922 12 21.6261 11.9993 21.4527V18.2261L18.0839 12.1921C18.2066 12.0691 18.373 11.9998 18.5466 11.9994H21.7733L27.8086 18.0834C27.9304 18.2066 27.9988 18.3728 27.9993 18.5461V21.7707ZM12.4339 37.9941C12.1532 38.0244 11.873 37.9331 11.6639 37.7434C11.4539 37.5529 11.3337 37.2829 11.3326 36.9994V36.9894V33.3327C11.3326 32.9645 11.0341 32.6661 10.6659 32.6661C10.2977 32.6661 9.99927 32.9645 9.99927 33.3327V36.9994V37.0087V37.5721C10.0176 38.1108 9.63111 38.5785 9.09861 38.6621C8.8185 38.6925 8.53879 38.6013 8.33061 38.4114C8.12009 38.2207 7.99978 37.9501 7.99927 37.6661V36.3327V36.3194V33.3327C7.99927 32.9645 7.7008 32.6661 7.33261 32.6661C6.96442 32.6661 6.66594 32.9645 6.66594 33.3327V36.3327V36.3407C6.66416 36.6234 6.54282 36.8921 6.33194 37.0804C6.12106 37.2687 5.84035 37.3589 5.55927 37.3287C5.02806 37.2437 4.64432 36.7749 4.66594 36.2374V34.9994V34.9894V31.9994C4.66594 31.6312 4.36746 31.3327 3.99927 31.3327C3.63108 31.3327 3.33261 31.6312 3.33261 31.9994V34.9994V35.0054C3.33137 35.2883 3.21036 35.5574 2.99957 35.7461C2.78877 35.9348 2.50792 36.0254 2.22661 35.9954C1.69555 35.9104 1.31168 35.4421 1.33261 34.9047V25.0321C1.33363 24.912 1.36505 24.7941 1.42394 24.6894L3.04594 21.9921C3.23158 21.6819 3.33058 21.3275 3.33261 20.9661V14.6661H9.25794L8.31194 15.8214C7.70205 16.5632 7.65868 17.6197 8.2057 18.409C8.75273 19.1984 9.75722 19.5287 10.6659 19.2181V21.4527C10.6681 21.9774 10.8765 22.4802 11.2459 22.8527L17.4633 29.1194C17.4706 29.1274 17.4779 29.1347 17.4859 29.1421L17.7573 29.4154C17.9909 29.6532 18.0588 30.008 17.9296 30.3152C17.8004 30.6225 17.4993 30.822 17.1659 30.8214C16.9845 30.8222 16.8082 30.7613 16.6659 30.6487L14.4266 28.8161C14.2273 28.6496 13.9494 28.614 13.7146 28.7249C13.4797 28.8358 13.3307 29.073 13.3326 29.3327V36.9041C13.3511 37.4421 12.9656 37.9096 12.4339 37.9941V37.9941ZM38.6606 30.8907C38.6915 31.1733 38.6007 31.4556 38.4109 31.6672C38.2211 31.8788 37.9502 31.9996 37.6659 31.9994H33.3326C32.9644 31.9994 32.6659 32.2979 32.6659 32.6661C32.6659 33.0342 32.9644 33.3327 33.3326 33.3327H36.3326C36.6168 33.332 36.8879 33.4523 37.078 33.6635C37.2682 33.8747 37.3596 34.1568 37.3293 34.4394C37.244 34.9707 36.775 35.3544 36.2373 35.3327H31.9993C31.6311 35.3327 31.3326 35.6312 31.3326 35.9994C31.3326 36.3676 31.6311 36.6661 31.9993 36.6661H34.9993C35.2835 36.6654 35.5545 36.7857 35.7447 36.9968C35.9349 37.208 36.0263 37.4901 35.9959 37.7727C35.9109 38.3042 35.4417 38.688 34.9039 38.6661H25.0313C24.9098 38.6651 24.7908 38.631 24.6873 38.5674L21.9913 36.9527C21.681 36.7667 21.3264 36.6677 20.9646 36.6661H14.6659V30.7387L15.8206 31.6841C16.6863 32.348 17.9069 32.2809 18.6946 31.5261C19.2804 30.9588 19.4848 30.1036 19.2186 29.3327H21.4519C21.9766 29.3305 22.4794 29.1222 22.8519 28.7527L29.1239 22.5327L29.1473 22.5101L29.4186 22.2434C29.7438 21.9255 30.2645 21.929 30.5853 22.2514C30.8781 22.5454 30.9066 23.0112 30.6519 23.3387L28.8186 25.5787C28.6566 25.7778 28.6234 26.0523 28.7331 26.2843C28.8428 26.5164 29.0759 26.6648 29.3326 26.6661H36.9039C37.4408 26.6451 37.9087 27.0283 37.9939 27.5587C38.0244 27.8411 37.9334 28.123 37.7437 28.3343C37.5539 28.5456 37.2833 28.6662 36.9993 28.6661H33.3326C32.9644 28.6661 32.6659 28.9645 32.6659 29.3327C32.6659 29.7009 32.9644 29.9994 33.3326 29.9994H37.5726C38.1081 29.9797 38.5746 30.3618 38.6606 30.8907V30.8907ZM38.6659 14.9667C38.6649 15.0881 38.6311 15.207 38.5679 15.3107L36.9526 18.0067C36.7667 18.3168 36.6676 18.6712 36.6659 19.0327V25.3327H30.7386L31.6846 24.1774C32.3713 23.3191 32.3027 22.0818 31.5253 21.3047C30.9429 20.7459 30.1008 20.5518 29.3326 20.7994V18.5461C29.3304 18.0214 29.1221 17.5186 28.7526 17.1461L22.5326 10.8701L22.5199 10.8574L22.2446 10.5801C22.0884 10.4258 22.0012 10.2149 22.0027 9.99537C22.0042 9.77582 22.0943 9.56619 22.2526 9.41405C22.5506 9.12975 23.0101 9.10159 23.3406 9.34739L25.5799 11.1801C25.7791 11.3412 26.0529 11.374 26.2845 11.2644C26.516 11.1548 26.6643 10.9222 26.6659 10.6661V3.09472C26.6453 2.55779 27.0287 2.08994 27.5593 2.00472C27.8415 1.97444 28.1233 2.06553 28.3344 2.25527C28.5455 2.44502 28.666 2.71554 28.6659 2.99939V6.66605C28.6659 7.03424 28.9644 7.33272 29.3326 7.33272C29.7008 7.33272 29.9993 7.03424 29.9993 6.66605V2.42805C29.9783 1.89102 30.3619 1.423 30.8926 1.33805C31.1748 1.30777 31.4566 1.39886 31.6677 1.58861C31.8789 1.77835 31.9994 2.04887 31.9993 2.33272V6.66605C31.9993 7.03424 32.2977 7.33272 32.6659 7.33272C33.0341 7.33272 33.3326 7.03424 33.3326 6.66605V3.66605C33.3321 3.38197 33.4525 3.11109 33.6636 2.92105C33.8748 2.73101 34.1568 2.63975 34.4393 2.67005C34.9705 2.75506 35.3542 3.22385 35.3326 3.76139V7.99939C35.3326 8.36758 35.6311 8.66605 35.9993 8.66605C36.3675 8.66605 36.6659 8.36758 36.6659 7.99939V4.99939C36.6655 4.71531 36.7858 4.44443 36.997 4.25439C37.2081 4.06435 37.4901 3.97308 37.7726 4.00339C38.3034 4.08864 38.6869 4.55687 38.6659 5.09405V14.9667Z" />
    </g>
    <defs>
    <clipPath id="clip0_1701_11795">
    <rect width="40" height="40" fill="white"/>
    </clipPath>
    </defs>
  </symbol>


    <!-- девайс мобилка -->
  <symbol viewBox="0 0 40 40" id="device-mobile">
    <path d="M39.9277 32.3838C39.74 31.4805 39.209 30.7087 38.4323 30.2103C37.6556 29.7123 36.7331 29.5515 35.8334 29.7571L31.6641 30.7117V29.0073C32.5003 28.2197 33.371 27.1912 33.9902 26.2513C35.076 24.603 35.8444 22.793 36.2741 20.8726C36.785 18.5877 36.796 16.1689 36.3055 13.8767C36.2152 13.455 35.7999 13.1858 35.3781 13.2764C34.9561 13.3665 34.6875 13.7818 34.7775 14.2039C35.2213 16.2769 35.2115 18.465 34.7491 20.5314C34.361 22.2666 33.6664 23.902 32.6852 25.3916C32.3944 25.8332 32.0416 26.2964 31.6641 26.739V18.0793C31.6641 17.6478 31.3144 17.298 30.8829 17.298H24.7028V8.95514C24.7028 8.52484 24.3546 8.17542 23.9243 8.17389L16.9629 8.15039C16.962 8.15039 16.9614 8.15039 16.9604 8.15039C16.7535 8.15039 16.5552 8.23218 16.409 8.37836C16.2619 8.52484 16.1792 8.72382 16.1792 8.93164V13.2715H9.99817C9.56696 13.2715 9.21692 13.6213 9.21692 14.0528V21.7893H7.4762V20.7282C7.4762 20.297 7.12646 19.9473 6.69495 19.9473H5.89355C5.75714 19.1962 5.6781 18.4333 5.65948 17.6716C5.61371 15.8195 5.90729 14.0073 6.53168 12.2849C6.67725 11.8833 6.84265 11.4829 7.02301 11.0953C7.2052 10.7041 7.03552 10.2393 6.64459 10.0571C6.25336 9.87555 5.78857 10.0446 5.60669 10.4359C5.4068 10.8649 5.22369 11.308 5.06287 11.7524C4.37195 13.6582 4.04724 15.6629 4.09729 17.71C4.11591 18.4583 4.18732 19.2072 4.30847 19.9473H0.78125C0.349731 19.9473 0 20.297 0 20.7285V34.4608C0 34.8923 0.349731 35.2421 0.78125 35.2421H6.69495C7.12646 35.2421 7.4762 34.8923 7.4762 34.4608V33.718H10.415L22.3196 38.3872C23.4311 38.8233 24.5953 39.0427 25.7657 39.0427C26.546 39.0427 27.3297 38.9451 28.1015 38.7488L37.4323 36.3773C39.2035 35.9272 40.2994 34.173 39.9277 32.3838V32.3838ZM30.1019 18.8605V31.0694L28.0133 31.5476C27.7887 31.5989 27.5616 31.6395 27.3334 31.6712C26.463 31.7911 25.575 31.7658 24.7137 31.5952C24.7101 31.5943 24.7064 31.5937 24.7028 31.5928V30.4081C25.2985 29.5194 25.4959 28.3927 25.1837 27.3643C25.0967 27.0774 24.9731 26.8006 24.816 26.5452C24.7803 26.4872 24.743 26.4304 24.7043 26.3749C24.704 26.374 24.7034 26.3734 24.7028 26.3724V18.8602H30.1019V18.8605ZM17.7417 9.71564L23.1406 9.73364V25.1316L20.1233 23.8828L17.7417 22.8968V9.71564ZM10.7794 14.834H16.1783V22.2495L15.2094 21.8485C15.1144 21.8091 15.0128 21.789 14.9106 21.789H10.7794V14.834ZM5.9137 33.6796H1.5625V21.5095H5.24841C5.24994 21.5095 5.25177 21.5098 5.2536 21.5098C5.25513 21.5098 5.25635 21.5095 5.25787 21.5095H5.9137V33.6796ZM37.0474 34.863L27.7167 37.2346C26.106 37.6438 24.437 37.5391 22.89 36.9327L10.8481 32.2095C10.7571 32.1738 10.6604 32.1558 10.5627 32.1558H7.4762V23.3518H14.7549L19.8099 25.4441L22.576 26.5891C23.5547 26.995 24.0231 28.1431 23.6218 29.1205C23.5413 29.3168 23.4415 29.5032 23.309 29.6696C22.8198 30.2869 22.0145 30.5591 21.2613 30.376C21.2552 30.3745 21.2491 30.373 21.243 30.3715C21.1978 30.3602 21.153 30.347 21.1084 30.3324L15.8517 28.3115C15.809 28.295 15.7864 28.2865 15.7864 28.2865C15.3839 28.1315 14.9319 28.3326 14.7769 28.7354C14.6222 29.1379 14.823 29.5902 15.2258 29.7449C15.2258 29.7449 18.1897 30.8845 20.4498 31.756C20.4953 31.7737 20.5405 31.7902 20.5859 31.8055L22.3215 32.4729C22.8461 32.6746 23.3682 32.8754 23.9142 33.0149C24.8413 33.2517 25.8035 33.3469 26.7593 33.2947C27.2983 33.2654 27.8363 33.191 28.3624 33.0707L31.0574 32.454C31.0602 32.4534 31.0629 32.4521 31.0657 32.4515L36.1823 31.2803C36.669 31.1689 37.1686 31.2559 37.5885 31.5253C38.009 31.7951 38.2962 32.2129 38.3978 32.7018C38.5992 33.6701 38.006 34.6195 37.0474 34.863V34.863Z" fill="#8C64D8"/>
    <path d="M9.99041 6.57226C10.1772 6.57226 10.3646 6.50574 10.5138 6.37085C11.9078 5.11169 13.5726 4.10736 15.3288 3.46618C17.2316 2.7716 19.3175 2.47528 21.3613 2.60956C22.824 2.70569 24.2571 3.01788 25.6206 3.53729C26.0234 3.69079 26.4751 3.48877 26.6286 3.08533C26.7824 2.68219 26.5801 2.23083 26.1766 2.07733C24.6678 1.50238 23.0821 1.15692 21.4638 1.05041C19.2049 0.902098 16.8981 1.22986 14.793 1.99859C12.8499 2.70782 11.0082 3.81897 9.46673 5.21118C9.14629 5.50049 9.12127 5.99457 9.41057 6.3147C9.56469 6.48559 9.77709 6.57226 9.99041 6.57226V6.57226Z" fill="#8C64D8"/>
    <path d="M27.7254 12.1479C27.8734 12.2763 28.0559 12.3392 28.2375 12.3392C28.4557 12.3392 28.673 12.2483 28.8277 12.0707L35.2553 4.67167C35.5385 4.34605 35.5037 3.85258 35.1781 3.56968C34.8522 3.28679 34.359 3.32127 34.0761 3.64689L27.6482 11.0459C27.365 11.3715 27.3998 11.865 27.7254 12.1479Z" fill="#8C64D8"/>
    <path d="M33.4858 8.80762C32.4042 8.80762 31.5244 9.68744 31.5244 10.769C31.5244 11.8505 32.4042 12.7303 33.4858 12.7303C34.5673 12.7303 35.4471 11.8502 35.4471 10.769C35.4471 9.68744 34.5673 8.80762 33.4858 8.80762V8.80762ZM33.4858 11.1678C33.2657 11.1678 33.0869 10.989 33.0869 10.769C33.0869 10.5493 33.2657 10.3701 33.4858 10.3701C33.7055 10.3701 33.8846 10.5493 33.8846 10.769C33.8846 10.989 33.7055 11.1678 33.4858 11.1678Z" fill="#8C64D8"/>
    <path d="M29.1474 7.06824C30.2289 7.06824 31.1088 6.18842 31.1088 5.10687C31.1088 4.02533 30.2289 3.14551 29.1474 3.14551C28.0659 3.14551 27.186 4.02533 27.186 5.10687C27.186 6.18842 28.0659 7.06824 29.1474 7.06824V7.06824ZM29.1474 4.7077C29.3674 4.7077 29.5463 4.88684 29.5463 5.10687C29.5463 5.3266 29.3674 5.50574 29.1474 5.50574C28.9274 5.50574 28.7485 5.3266 28.7485 5.10687C28.7485 4.88684 28.9274 4.7077 29.1474 4.7077Z" fill="#8C64D8"/>
    <path d="M7.21316 8.40813C7.33828 8.70842 7.6462 8.90679 7.97243 8.8897C8.295 8.87291 8.5776 8.65471 8.67739 8.34832C8.7781 8.03917 8.66823 7.687 8.40975 7.48955C8.14638 7.28875 7.77651 7.27623 7.50063 7.45964C7.19454 7.6632 7.07186 8.06908 7.21316 8.40813Z" fill="#8C64D8"/>
  </symbol>

  <!-- телеграмм иконка-->
  <symbol viewBox="0 0 16 17" id="telegramm-icon">
    <path fill-rule="evenodd" clip-rule="evenodd" d="M8 16.5C12.4183 16.5 16 12.9183 16 8.5C16 4.08172 12.4183 0.5 8 0.5C3.58172 0.5 0 4.08172 0 8.5C0 12.9183 3.58172 16.5 8 16.5ZM4.98211 9.19916L2.83152 8.39649C2.61309 8.31464 2.61119 8.00627 2.829 7.92227L11.6551 4.51744C11.8422 4.44507 12.0352 4.609 11.9945 4.80549L10.4106 12.4243C10.3733 12.6042 10.1624 12.6858 10.0135 12.5776L7.85133 11.0078C7.72001 10.9125 7.54103 10.9176 7.41537 11.02L6.2166 11.9972C6.07744 12.111 5.86778 12.0476 5.81452 11.8762L4.98211 9.19916ZM9.88341 6.18322L5.68036 8.77188C5.51927 8.87131 5.44342 9.06585 5.49547 9.24797L5.94991 10.8448C5.98217 10.9579 6.14641 10.9463 6.16206 10.8294L6.28022 9.95373C6.30249 9.78887 6.38114 9.63699 6.50307 9.52349L9.9718 6.29914C10.0367 6.23897 9.95895 6.13683 9.88341 6.18322Z" fill="#DAEF14"/>
  </symbol>

  <!--city-->
  <symbol id="city" width="16" height="16" viewBox="0 0 16 16" fill="none" xmlns="http://www.w3.org/2000/svg">
    <g clip-path="url(#clip0_4701_2170)">
    <path d="M14.8094 15.0625V10.0616H9.42325V15.0625H8.48575V9.12412H11.6476V3.77744H10.5937V1.68272H9.40106V0H8.46356V1.68272H7.27094V3.77744H6.217V15.0625H5.2795V5.87219H1.19059V15.0625H0V16H16V15.0625H14.8094ZM9.51091 4.93469H10.4484V5.87219H9.51091V4.93469ZM9.51091 7.02941H10.4484V7.96691H9.51091V7.02941ZM3.68309 14.6948H2.74559V13.7573H3.68309V14.6948ZM3.68309 12.4522H2.74559V11.5147H3.68309V12.4522ZM3.68309 10.2096H2.74559V9.27206H3.68309V10.2096ZM3.68309 7.96691H2.74559V7.02941H3.68309V7.96691ZM8.35369 7.96691H7.41619V7.02941H8.35369V7.96691ZM8.35369 5.87219H7.41619V4.93469H8.35369V5.87219ZM8.46353 2.83994H9.40103V3.77744H8.46353V2.83994ZM11.5312 15.0625H10.5937V11.3H11.5312V15.0625ZM13.639 15.0625H12.7015V11.3H13.639V15.0625Z" fill="#8C64D8"/>
    </g>
    <defs>
    <clipPath id="clip0_4701_2170">
    <rect width="16" height="16" fill="white"/>
    </clipPath>
    </defs>
  </symbol>

  <!--zigzag-->
  <symbol id="zigzag" width="3798" height="1680" viewBox="0 0 3798 1680" fill="none" xmlns="http://www.w3.org/2000/svg">
    <path d="M2250.88 147.37L2578.83 76.5164L2461.87 443.639L2657.89 700.08L2932.01 512.367L3032.47 481.076L3790.03 683.377" stroke="#8C64D8" stroke-width="60"/>
    <path d="M1646.64 521.781L1458.4 801.077L1372.4 796.018L1178.57 414.75L837.309 335.474L728.013 768.263L13.0004 1111.86" stroke="#8C64D8" stroke-width="60"/>
  </symbol>

  <!--tg-->
  <symbol id="tg" width="24" height="24" viewBox="0 0 24 24" fill="none" xmlns="http://www.w3.org/2000/svg">
    <path d="M5.24728 11.8447L8.47316 13.0487L9.72177 17.0643C9.80167 17.3214 10.1162 17.4165 10.3249 17.2458L12.1231 15.78C12.3115 15.6264 12.58 15.6187 12.777 15.7617L16.0202 18.1164C16.2435 18.2787 16.5599 18.1563 16.6159 17.8865L18.9917 6.45824C19.0529 6.16349 18.7632 5.91761 18.4826 6.02615L5.2435 11.1334C4.91679 11.2594 4.91963 11.722 5.24728 11.8447ZM9.52055 12.4078L15.8251 8.52483C15.9384 8.45525 16.055 8.60845 15.9577 8.69871L10.7546 13.5352C10.5717 13.7055 10.4537 13.9333 10.4203 14.1806L10.2431 15.4941C10.2196 15.6694 9.97326 15.6869 9.92487 15.5171L9.24321 13.122C9.16513 12.8488 9.27891 12.557 9.52055 12.4078Z" fill="#252525"/>
  </symbol>

  <!--vk-->
  <symbol id="vk" width="24" height="24" viewBox="0 0 24 24" fill="none" xmlns="http://www.w3.org/2000/svg">
    <path d="M12.6598 16.7754C7.85485 16.7754 5.11419 13.4814 5 8H7.40687C7.48593 12.0232 9.2603 13.7273 10.6658 14.0787V8H12.9322V11.4698C14.3201 11.3204 15.7781 9.73928 16.27 8H18.5364C18.1587 10.1433 16.5775 11.7245 15.4531 12.3745C16.5775 12.9016 18.3784 14.2807 19.0635 16.7754H16.5687C16.0329 15.1064 14.6978 13.8151 12.9322 13.6395V16.7754H12.6598Z" fill="black"/>
  </symbol>

  <!--ok-->
  <symbol id="ok" width="24" height="24" viewBox="0 0 24 24" fill="none" xmlns="http://www.w3.org/2000/svg">
    <path fill-rule="evenodd" clip-rule="evenodd" d="M14.6108 11.3466C13.9426 12.0199 13.0225 12.4393 12.0039 12.4393C10.9852 12.4393 10.0651 12.0199 9.39697 11.3466C8.72882 10.6733 8.31259 9.74614 8.31259 8.71965C8.31259 7.69316 8.72882 6.766 9.39697 6.09272C10.0651 5.41943 10.9852 5 12.0039 5C13.0225 5 13.9426 5.41943 14.6108 6.09272C15.2789 6.766 15.6952 7.69316 15.6952 8.71965C15.6952 9.74614 15.2789 10.6733 14.6108 11.3466ZM12.0039 7.01987C11.5438 7.01987 11.1276 7.20751 10.8209 7.51656C10.5142 7.82561 10.328 8.24503 10.328 8.70861C10.328 9.17219 10.5142 9.59161 10.8209 9.90066C11.1276 10.2097 11.5438 10.3974 12.0039 10.3974C12.4639 10.3974 12.8802 10.2097 13.1868 9.90066C13.4935 9.59161 13.6798 9.17219 13.6798 8.70861C13.6798 8.24503 13.4935 7.82561 13.1868 7.51656C12.8802 7.21854 12.4639 7.01987 12.0039 7.01987ZM15.8814 12.4503L16.9658 13.9404C17.0205 14.0177 17.0096 14.117 16.9329 14.1722C16.0238 14.9227 14.9613 15.4194 13.855 15.6843L15.9471 19.7461C16.0019 19.8675 15.9252 20 15.7938 20H13.5593C13.4935 20 13.4278 19.9558 13.395 19.8896L12.0039 16.5342L10.6018 19.8786C10.5799 19.9448 10.5142 19.989 10.4375 19.989H8.20305C8.07161 19.989 7.99494 19.8455 8.04971 19.7351L10.1418 15.6843C9.03551 15.4194 7.98399 14.9227 7.0639 14.1722C6.99818 14.117 6.97627 14.0066 7.03104 13.9404L8.11543 12.4503C8.18115 12.362 8.29068 12.351 8.36736 12.4172C9.38602 13.2892 10.6457 13.8631 11.9929 13.8631C13.3402 13.8631 14.5889 13.3002 15.6185 12.4172C15.7061 12.351 15.8266 12.362 15.8814 12.4503Z" fill="black"/>
  </symbol>

  <!--star-->
  <symbol id="star" width="24" height="24" viewBox="0 0 24 24" fill="none" xmlns="http://www.w3.org/2000/svg">
    <path fill-rule="evenodd" clip-rule="evenodd" d="M11.7602 4C11.72 7.24308 11.4986 9.06587 10.2822 10.2822C9.06587 11.4986 7.2431 11.72 4 11.7602V12.2397C7.2431 12.28 9.06587 12.5014 10.2822 13.7178C11.4986 14.9341 11.72 16.7569 11.7602 20H12.2398C12.28 16.7569 12.5014 14.9341 13.7178 13.7178C14.9341 12.5014 16.7569 12.28 20 12.2397V11.7602C16.7569 11.7199 14.9341 11.4986 13.7178 10.2822C12.5014 9.06587 12.28 7.24308 12.2398 4H11.7602Z" fill="#252525"/>
  </symbol>

  <!--r-->
  <symbol id="r" width="24" height="24" viewBox="0 0 24 24" fill="none" xmlns="http://www.w3.org/2000/svg">
    <path d="M15.4088 13.1469C16.2743 12.4391 16.8298 11.4707 16.8298 10.2552V9.72648C16.8298 7.59198 15.1231 6.02369 13.0186 6.02369L7 6L7.00361 17.9773L9.84634 18V13.9347H12.7683L14.673 18H18L15.4088 13.1469ZM13.925 10.11C13.925 10.9599 13.2451 11.4423 12.4067 11.4423H9.84647V8.56603H12.4067C13.2451 8.56603 13.925 9.16311 13.925 10.0133V10.11Z" fill="#252525"/>
  </symbol>

  <!--tik-tok-->
  <symbol id="tik-tok" width="24" height="24" viewBox="0 0 24 24" fill="none" xmlns="http://www.w3.org/2000/svg">
    <path d="M17.1422 8.63595C15.8826 8.63595 14.8578 7.61116 14.8578 6.35156C14.8578 6.15741 14.7004 6 14.5063 6H12.6235C12.4293 6 12.2719 6.15741 12.2719 6.35156V14.0711C12.2719 14.8116 11.6694 15.414 10.9289 15.414C10.1884 15.414 9.58595 14.8116 9.58595 14.0711C9.58595 13.3306 10.1884 12.7281 10.9289 12.7281C11.1231 12.7281 11.2805 12.5707 11.2805 12.3765V10.4937C11.2805 10.2996 11.1231 10.1422 10.9289 10.1422C8.7625 10.1422 7 11.9047 7 14.0711C7.00002 16.2375 8.7625 18 10.9289 18C13.0953 18 14.8579 16.2375 14.8579 14.0711V10.6541C15.5576 11.0272 16.3361 11.2219 17.1422 11.2219C17.3364 11.2219 17.4938 11.0645 17.4938 10.8703V8.98751C17.4937 8.79335 17.3363 8.63595 17.1422 8.63595Z" fill="#252525"/>
  </symbol>






    <!-- <svg class="icon device-mobile">
          <use href="./assets/svg/sprite-version2.svg#device-mobile"></use>
      </svg> -->
</svg>