<svg width="24" height="24" fill="none" xmlns="http://www.w3.org/2000/svg"><g clip-path="url(#clip0_1229_18931)" fill="#8C64D8"><path d="M5.598 7.481a3.745 3.745 0 003.74-3.74A3.745 3.745 0 005.599 0a3.745 3.745 0 00-3.74 3.74 3.745 3.745 0 003.74 3.741zM12 17.456a4.473 4.473 0 00-4.469 4.468v1.373c0 .388.315.703.703.703h7.531a.703.703 0 00.704-.703v-1.372a4.474 4.474 0 00-4.47-4.469z"/><path d="M6.125 21.924a5.88 5.88 0 013.253-5.255 4.77 4.77 0 01-2.148-3.983 4.75 4.75 0 011.124-3.072 5.563 5.563 0 00-2.756-.727A5.605 5.605 0 000 14.486v8.81c0 .39.315.704.703.704h5.543a2.101 2.101 0 01-.12-.703v-1.373z"/><path d="M12 16.05a3.368 3.368 0 003.364-3.364A3.368 3.368 0 0012 9.322a3.368 3.368 0 00-3.364 3.364A3.368 3.368 0 0012 16.05zm6.402-8.569a3.745 3.745 0 003.74-3.74A3.745 3.745 0 0018.402 0a3.745 3.745 0 00-3.74 3.74 3.745 3.745 0 003.74 3.741z"/><path d="M18.401 8.888c-1 0-1.941.264-2.755.726a4.75 4.75 0 011.124 3.072 4.77 4.77 0 01-2.148 3.983 5.88 5.88 0 013.253 5.255v1.373a2.1 2.1 0 01-.121.703h5.543a.703.703 0 00.703-.703v-8.811a5.605 5.605 0 00-5.6-5.598z"/></g><defs><clipPath id="clip0_1229_18931"><path fill="#fff" d="M0 0h24v24H0z"/></clipPath></defs></svg>