<svg width="24" height="24" fill="none" xmlns="http://www.w3.org/2000/svg"><g clip-path="url(#clip0_1229_18925)" fill="#8C64D8"><path d="M23.53 6.017L12.235 2.03a.703.703 0 00-.468 0L.47 6.017a.703.703 0 00-.001 1.325l11.296 4.016a.703.703 0 00.472 0l11.296-4.016a.703.703 0 00-.001-1.325zm-1.219 9.385V9.269l-1.406.5v5.633a1.411 1.411 0 000 2.449v3.455a.703.703 0 001.406 0v-3.455a1.411 1.411 0 000-2.45z"/><path d="M12 12.805c-.242 0-.48-.04-.707-.122l-6.35-2.258v3.095c0 .757.79 1.397 2.347 1.902 1.357.44 3.03.684 4.71.684 1.68 0 3.352-.243 4.71-.684 1.557-.505 2.347-1.145 2.347-1.902v-3.095l-6.35 2.258a2.107 2.107 0 01-.707.122z"/></g><defs><clipPath id="clip0_1229_18925"><path fill="#fff" d="M0 0h24v24H0z"/></clipPath></defs></svg>