<svg width="56" height="56" viewBox="0 0 56 56" fill="none" xmlns="http://www.w3.org/2000/svg">
<g clip-path="url(#clip0_1447_11766)">
<path d="M54.8357 1.95044C54.7361 1.56463 54.4354 1.26385 54.0495 1.1643C45.1163 -1.13941 35.722 -0.000797331 27.5975 4.3695C25.812 5.32995 24.1235 6.42755 22.5431 7.64819C18.0212 6.03534 12.9912 7.14831 9.56639 10.5731L2.72148 17.4176C2.29466 17.8448 2.29466 18.5374 2.72148 18.9647L10.3376 26.5803C10.3376 26.5807 10.338 26.5807 10.338 26.5812L11.3202 27.563L10.4166 34.2024C10.3705 34.5412 10.485 34.8817 10.7268 35.1235L11.5223 35.9191L4.98802 42.4927C4.56206 42.9212 4.56419 43.6138 4.99272 44.0393C5.42125 44.4653 6.11382 44.4631 6.53935 44.035L13.069 37.4657L18.5347 42.9319L9.325 52.101C8.8969 52.5274 8.89519 53.22 9.32115 53.6481C9.5352 53.8625 9.8159 53.9702 10.0966 53.9702C10.3756 53.9702 10.6546 53.8638 10.8682 53.6515L20.0818 44.4785L20.8765 45.2736C21.0832 45.48 21.3618 45.5936 21.6498 45.5936C21.6989 45.5936 21.748 45.5906 21.7976 45.5838L28.437 44.6802L29.4192 45.6624C29.4192 45.6624 29.4192 45.6628 29.4197 45.6628L37.0353 53.2789C37.2489 53.4925 37.5288 53.5989 37.8086 53.5989C38.0889 53.5989 38.3688 53.4925 38.5824 53.2789L45.4269 46.434C48.8517 43.0092 49.9651 37.9792 48.3518 33.4573C49.5724 31.8769 50.67 30.188 51.6305 28.4029C56.0012 20.278 57.1394 10.8837 54.8357 1.95044V1.95044ZM10.6559 23.8054L5.04186 18.1913L11.113 12.1202C13.612 9.62078 17.1479 8.61419 20.5124 9.33795C16.1297 13.2605 12.7408 18.2042 10.6559 23.8054ZM22.0398 43.3429L12.6571 33.9601L13.2634 29.5061L26.4939 42.7366L22.0398 43.3429ZM43.8802 44.887L37.8086 50.9581L32.1951 45.3441C37.7963 43.2592 42.7395 39.8702 46.662 35.4875C47.3858 38.8521 46.3792 42.3876 43.8802 44.887V44.887ZM30.6134 43.5877L30.4831 43.6326L12.3674 25.5169L12.4123 25.3866C18.1365 8.7492 35.8181 -0.928776 52.8733 3.12664C56.9283 20.1815 47.2512 37.8635 30.6134 43.5877Z" fill="#8C64D8"/>
<path d="M42.6376 12.0227L28.2821 15.8692C27.9048 15.9704 27.61 16.2652 27.5088 16.6429C27.4075 17.0202 27.5156 17.4231 27.7916 17.6995L29.9244 19.8319L25.6268 24.1291C25.1999 24.5564 25.1999 25.2489 25.6268 25.6762C26.054 26.103 26.7466 26.103 27.1738 25.6762L32.2444 20.6052C32.6716 20.1784 32.6716 19.4858 32.2444 19.0586L30.6781 17.4923L41.3742 14.6263L38.5082 25.322L36.9419 23.7557C36.7369 23.5506 36.4587 23.4357 36.1686 23.4357C35.8785 23.4357 35.6 23.5506 35.3949 23.7557L26.6671 32.4839C26.2399 32.9112 26.2399 33.6037 26.6671 34.031C26.8807 34.2446 27.1606 34.351 27.4404 34.351C27.7203 34.351 28.0001 34.2446 28.2137 34.031L36.1682 26.0761L38.3006 28.2085C38.577 28.4849 38.9799 28.5926 39.3572 28.4917C39.7348 28.3905 40.0296 28.0957 40.1305 27.7184L43.977 13.3625C44.0782 12.9853 43.9706 12.5824 43.6941 12.3059C43.4177 12.0295 43.0148 11.9214 42.6376 12.0227V12.0227Z" fill="#8C64D8"/>
<path d="M10.4987 45.5012C10.0719 45.074 9.37933 45.074 8.95209 45.5012L0.320435 54.1329C-0.106812 54.5597 -0.106812 55.2523 0.320435 55.6795C0.534058 55.8931 0.813904 55.9999 1.09375 55.9999C1.3736 55.9999 1.65387 55.8931 1.86707 55.6795L10.4987 47.0479C10.926 46.621 10.926 45.9285 10.4987 45.5012V45.5012Z" fill="#8C64D8"/>
<path d="M2.75342 47.3678C3.04095 47.3678 3.32294 47.252 3.52673 47.0474C3.7301 46.844 3.84717 46.5629 3.84717 46.274C3.84717 45.9865 3.7301 45.7045 3.52673 45.5012C3.32294 45.2974 3.04095 45.1803 2.75342 45.1803C2.4646 45.1803 2.18347 45.2974 1.9801 45.5012C1.77673 45.7045 1.65967 45.9865 1.65967 46.274C1.65967 46.5629 1.77673 46.844 1.9801 47.0474C2.18347 47.252 2.46545 47.3678 2.75342 47.3678Z" fill="#8C64D8"/>
<path d="M22.0315 27.7244L22.0221 27.7325C21.5722 28.1363 21.535 28.828 21.9387 29.2774C22.1545 29.518 22.4531 29.6406 22.7531 29.6406C23.0133 29.6406 23.2743 29.5483 23.4832 29.3603L23.4926 29.3522C23.9421 28.9484 23.9797 28.2572 23.5759 27.8077C23.1722 27.3578 22.4809 27.3206 22.0315 27.7244V27.7244Z" fill="#8C64D8"/>
</g>
<defs>
<clipPath id="clip0_1447_11766">
<rect width="56" height="56" fill="white"/>
</clipPath>
</defs>
</svg>
