<svg width="56" height="56" viewBox="0 0 56 56" fill="none" xmlns="http://www.w3.org/2000/svg">
<path d="M37.8839 41.7645L42.5956 31.6787C44.9391 26.6626 44.5632 20.8795 41.59 16.2089C38.6168 11.5384 33.5363 8.75 27.9997 8.75C22.4632 8.75 17.3827 11.5384 14.4096 16.2089C11.4363 20.8795 11.0605 26.6627 13.404 31.6787L18.1157 41.7645C17.4581 42.365 17.0447 43.2288 17.0447 44.1875C17.0447 45.0273 17.3622 45.794 17.883 46.375C17.3623 46.956 17.0447 47.7227 17.0447 48.5625C17.0447 50.3718 18.5167 51.8438 20.326 51.8438H22.8652C23.3699 54.2153 25.48 56 27.9999 56C30.5197 56 32.6298 54.2153 33.1345 51.8438H35.6737C37.483 51.8438 38.955 50.3718 38.955 48.5625C38.955 47.7227 38.6376 46.956 38.1167 46.375C38.6374 45.794 38.955 45.0273 38.955 44.1875C38.9549 43.2288 38.5415 42.365 37.8839 41.7645ZM20.1291 40.9062L15.3859 30.753C13.3606 26.4179 13.6855 21.42 16.2548 17.3836C18.8243 13.3473 23.2149 10.9375 27.9997 10.9375C32.7846 10.9375 37.1752 13.3473 39.7447 17.3836C42.314 21.42 42.6389 26.4179 40.6137 30.7529L35.8704 40.9062H31.7185V31.7188H33.2497C35.3003 31.7188 36.9685 30.0506 36.9685 28C36.9685 25.9494 35.3003 24.2812 33.2497 24.2812C31.1992 24.2812 29.531 25.9494 29.531 28V29.5312H26.4685V28C26.4685 25.9494 24.8003 24.2812 22.7497 24.2812C20.6992 24.2812 19.031 25.9494 19.031 28C19.031 30.0506 20.6992 31.7188 22.7497 31.7188H24.281V40.9062H20.1291ZM24.281 29.5312H22.7497C21.9054 29.5312 21.2185 28.8444 21.2185 28C21.2185 27.1556 21.9054 26.4688 22.7497 26.4688C23.5941 26.4688 24.281 27.1556 24.281 28V29.5312ZM26.4685 31.7188H29.531V40.9062H26.4685V31.7188ZM31.7185 29.5312V28C31.7185 27.1556 32.4054 26.4688 33.2497 26.4688C34.0941 26.4688 34.781 27.1556 34.781 28C34.781 28.8444 34.0941 29.5312 33.2497 29.5312H31.7185ZM27.9997 53.8125C26.6963 53.8125 25.5812 52.9937 25.1399 51.8438H30.8596C30.4182 52.9937 29.3032 53.8125 27.9997 53.8125ZM35.6736 49.6562H20.3259C19.7228 49.6562 19.2321 49.1656 19.2321 48.5625C19.2321 47.9594 19.7228 47.4688 20.3259 47.4688H23.0779C23.6818 47.4688 24.1716 46.9791 24.1716 46.375C24.1716 45.7709 23.6818 45.2812 23.0779 45.2812H20.3259C19.7228 45.2812 19.2321 44.7906 19.2321 44.1875C19.2321 43.5844 19.7228 43.0938 20.3259 43.0938H35.6736C36.2767 43.0938 36.7674 43.5844 36.7674 44.1875C36.7674 44.7906 36.2767 45.2812 35.6736 45.2812H32.9216C32.3177 45.2812 31.8279 45.7709 31.8279 46.375C31.8279 46.9791 32.3177 47.4688 32.9216 47.4688H35.6736C36.2767 47.4688 36.7674 47.9594 36.7674 48.5625C36.7674 49.1656 36.2767 49.6562 35.6736 49.6562Z" fill="#8C64D8"/>
<path d="M28 6.5625C28.604 6.5625 29.0938 6.07283 29.0938 5.46875V1.09375C29.0938 0.489672 28.604 0 28 0C27.396 0 26.9062 0.489672 26.9062 1.09375V5.46875C26.9062 6.07283 27.396 6.5625 28 6.5625Z" fill="#8C64D8"/>
<path d="M12.768 12.2426C12.9816 12.4562 13.2615 12.5629 13.5414 12.5629C13.8213 12.5629 14.1012 12.4562 14.3148 12.2426C14.7419 11.8155 14.7419 11.1229 14.3148 10.6957L11.2212 7.60213C10.794 7.17502 10.1017 7.17502 9.67434 7.60213C9.24723 8.02924 9.24723 8.7218 9.67434 9.14902L12.768 12.2426Z" fill="#8C64D8"/>
<path d="M7.56055 24.842H3.18555C2.58158 24.842 2.0918 25.3317 2.0918 25.9358C2.0918 26.5399 2.58158 27.0295 3.18555 27.0295H7.56055C8.16452 27.0295 8.6543 26.5399 8.6543 25.9358C8.6543 25.3317 8.16452 24.842 7.56055 24.842Z" fill="#8C64D8"/>
<path d="M12.7874 39.6209L9.69387 42.7145C9.26676 43.1416 9.26676 43.8341 9.69387 44.2613C9.90748 44.475 10.1874 44.5817 10.4673 44.5817C10.7471 44.5817 11.027 44.475 11.2406 44.2613L14.3342 41.1678C14.7613 40.7407 14.7613 40.0481 14.3342 39.6209C13.907 39.1937 13.2146 39.1937 12.7874 39.6209V39.6209Z" fill="#8C64D8"/>
<path d="M44.7782 7.60212L41.6846 10.6958C41.2575 11.1229 41.2575 11.8155 41.6846 12.2427C41.8982 12.4563 42.1781 12.563 42.458 12.563C42.7379 12.563 43.0178 12.4563 43.2314 12.2427L46.3249 9.14912C46.752 8.72201 46.752 8.02945 46.3249 7.60223C45.8978 7.17501 45.2055 7.17501 44.7782 7.60212V7.60212Z" fill="#8C64D8"/>
<path d="M52.814 24.842H48.439C47.835 24.842 47.3452 25.3317 47.3452 25.9358C47.3452 26.5399 47.835 27.0295 48.439 27.0295H52.814C53.4179 27.0295 53.9077 26.5399 53.9077 25.9358C53.9077 25.3317 53.418 24.842 52.814 24.842Z" fill="#8C64D8"/>
<path d="M43.212 39.6209C42.7847 39.1938 42.0924 39.1938 41.6651 39.6209C41.2379 40.048 41.2379 40.7405 41.6651 41.1678L44.7586 44.2613C44.9722 44.4749 45.2521 44.5817 45.532 44.5817C45.8119 44.5817 46.0918 44.4749 46.3054 44.2613C46.7325 43.8342 46.7325 43.1417 46.3054 42.7144L43.212 39.6209Z" fill="#8C64D8"/>
<path d="M28 45.2812C27.7123 45.2812 27.4302 45.3983 27.2267 45.6017C27.0233 45.8052 26.9062 46.0873 26.9062 46.375C26.9062 46.6627 27.0232 46.9448 27.2267 47.1483C27.4303 47.3517 27.7123 47.4688 28 47.4688C28.2877 47.4688 28.5698 47.3517 28.7732 47.1483C28.9766 46.9448 29.0938 46.6627 29.0938 46.375C29.0938 46.0873 28.9767 45.8052 28.7732 45.6017C28.5698 45.3983 28.2877 45.2812 28 45.2812Z" fill="#8C64D8"/>
</svg>
