<svg width="40" height="40" viewBox="0 0 40 40" fill="none" xmlns="http://www.w3.org/2000/svg">
<g clip-path="url(#clip0_1135_4784)">
<path d="M37.7527 0H2.24816C1.00902 0 0.000976562 1.00812 0.000976562 2.24727V12.3964C0.000976562 13.6368 1.00902 14.6459 2.24816 14.6459H3.9434L3.96488 17.9201C3.96684 18.2134 4.13285 18.4809 4.39488 18.6128C4.5059 18.6687 4.62621 18.6962 4.74605 18.6962C4.90895 18.6962 5.07105 18.6452 5.20746 18.5455L10.5376 14.6458H16.8068L19.3554 18.3571C19.5011 18.5693 19.7421 18.6961 19.9995 18.6961C20.2569 18.6961 20.4978 18.5693 20.6436 18.3571L23.1922 14.6458H29.4635L34.7914 18.5453C35.028 18.7186 35.3418 18.7445 35.6038 18.6129C35.8658 18.4811 36.0319 18.2138 36.034 17.9205L36.0573 14.6458H37.7529C38.9921 14.6458 40.0001 13.6366 40.0001 12.3963V2.24727C39.9999 1.00812 38.9918 0 37.7527 0V0ZM38.4374 12.3964C38.4374 12.7752 38.1302 13.0834 37.7527 13.0834H35.2814C34.8521 13.0834 34.5032 13.4298 34.5001 13.8591L34.4821 16.383L30.18 13.2342C30.0461 13.1362 29.8846 13.0834 29.7186 13.0834H22.7807C22.5233 13.0834 22.2825 13.2102 22.1367 13.4223L19.9993 16.5348L17.862 13.4223C17.7163 13.2102 17.4754 13.0834 17.2179 13.0834H10.2822C10.1164 13.0834 9.9548 13.1362 9.8209 13.2341L5.5173 16.3828L5.50074 13.8596C5.49793 13.4301 5.14895 13.0834 4.71949 13.0834H2.24816C1.87059 13.0834 1.56348 12.7752 1.56348 12.3965V2.24727C1.56348 1.86969 1.87066 1.5625 2.24816 1.5625H37.7527C38.1303 1.5625 38.4374 1.86969 38.4374 2.24727V12.3964Z" fill="#8C64D8"/>
<path d="M37.2876 32.4829C37.6763 31.8387 37.9003 31.0844 37.9003 30.2787C37.9003 27.9174 35.9802 25.9963 33.6202 25.9963C31.2588 25.9963 29.3378 27.9174 29.3378 30.2787C29.3378 31.0845 29.562 31.8388 29.951 32.4831C29.3832 32.7443 28.8786 33.1175 28.463 33.5716C27.8594 31.8207 26.497 30.3902 24.7523 29.718C25.4092 28.7783 25.796 27.6366 25.796 26.4055C25.796 23.209 23.1954 20.6084 19.9989 20.6084C16.8024 20.6084 14.2019 23.209 14.2019 26.4055C14.2019 27.6367 14.5888 28.7787 15.2459 29.7185C13.501 30.3908 12.1386 31.8211 11.5349 33.5717C11.1194 33.1176 10.6149 32.7444 10.0471 32.4833C10.4359 31.839 10.66 31.0846 10.66 30.2788C10.66 27.9175 8.73994 25.9964 6.37986 25.9964C4.01861 25.9964 2.0976 27.9175 2.0976 30.2788C2.0976 31.0846 2.32182 31.8389 2.71072 32.4832C1.10447 33.2221 0.000488281 34.8562 0.000488281 36.6877V39.2187C0.000488281 39.6502 0.350254 40 0.781738 40H16.4911C16.9226 40 17.2724 39.6502 17.2724 39.2187C17.2724 38.7873 16.9226 38.4375 16.4911 38.4375H12.7571V36.6876V35.5914C12.7571 33.3877 14.3214 31.4634 16.4466 30.9819C17.4286 31.7459 18.661 32.2027 19.9988 32.2027C21.3368 32.2027 22.5694 31.7459 23.5515 30.9816C25.6763 31.4627 27.2406 33.3873 27.2406 35.5914V36.6876V38.4375H23.5066C23.0751 38.4375 22.7253 38.7873 22.7253 39.2187C22.7253 39.6502 23.0751 40 23.5066 40H39.2181C39.6496 40 39.9994 39.6502 39.9994 39.2187V36.6876C39.9995 34.8559 38.8949 33.2216 37.2876 32.4829ZM6.38002 27.5587C7.87854 27.5587 9.09768 28.7789 9.09768 30.2787C9.09768 31.7773 7.87854 32.9964 6.38002 32.9964C4.88033 32.9964 3.66025 31.7773 3.66025 30.2787C3.66025 28.779 4.88033 27.5587 6.38002 27.5587ZM1.56314 38.4375V36.6876C1.56314 35.2962 2.52564 34.0772 3.84869 33.7283C4.5583 34.2499 5.43361 34.5589 6.38002 34.5589C7.32588 34.5589 8.20057 34.2499 8.90979 33.7284C10.2325 34.0776 11.1947 35.2965 11.1947 36.6876V38.4375H1.56314ZM15.7645 26.4055C15.7645 24.0705 17.6641 22.1709 19.999 22.1709C22.3339 22.1709 24.2335 24.0705 24.2335 26.4055C24.2335 28.7405 22.3339 30.6402 19.999 30.6402C17.6641 30.6402 15.7645 28.7405 15.7645 26.4055ZM33.6202 27.5587C35.1187 27.5587 36.3378 28.7789 36.3378 30.2787C36.3378 31.7773 35.1187 32.9964 33.6202 32.9964C32.1205 32.9964 30.9003 31.7773 30.9003 30.2787C30.9003 28.779 32.1205 27.5587 33.6202 27.5587ZM28.8032 36.6876C28.8032 35.2962 29.7657 34.0772 31.0888 33.7283C31.7984 34.2499 32.6737 34.5589 33.6201 34.5589C34.566 34.5589 35.4407 34.2499 36.1499 33.7284C37.4738 34.0773 38.437 35.2962 38.437 36.6875V38.4375H28.8032V36.6876Z" fill="#8C64D8"/>
<path d="M35.1435 4.36039H14.7993C14.3678 4.36039 14.0181 4.71016 14.0181 5.14164C14.0181 5.57312 14.3678 5.92289 14.7993 5.92289H35.1436C35.5751 5.92289 35.9249 5.57312 35.9249 5.14164C35.9249 4.71016 35.575 4.36039 35.1435 4.36039Z" fill="#8C64D8"/>
<path d="M4.854 5.92289H10.6626C11.0941 5.92289 11.4438 5.57312 11.4438 5.14164C11.4438 4.71016 11.0941 4.36039 10.6626 4.36039H4.854C4.42252 4.36039 4.07275 4.71016 4.07275 5.14164C4.07275 5.57312 4.42252 5.92289 4.854 5.92289Z" fill="#8C64D8"/>
<path d="M35.1437 8.72078H29.3374C28.9059 8.72078 28.5562 9.07055 28.5562 9.50203C28.5562 9.93351 28.9059 10.2833 29.3374 10.2833H35.1437C35.5752 10.2833 35.925 9.93351 35.925 9.50203C35.925 9.07055 35.5752 8.72078 35.1437 8.72078Z" fill="#8C64D8"/>
<path d="M25.1983 8.72078H4.854C4.42252 8.72078 4.07275 9.07055 4.07275 9.50203C4.07275 9.93351 4.42252 10.2833 4.854 10.2833H25.1983C25.6298 10.2833 25.9796 9.93351 25.9796 9.50203C25.9796 9.07055 25.6298 8.72078 25.1983 8.72078Z" fill="#8C64D8"/>
<path d="M19.999 38.4375C19.5675 38.4375 19.2178 38.7873 19.2178 39.2188C19.2178 39.6502 19.5675 40 19.999 40H20.0035C20.435 40 20.7825 39.6502 20.7825 39.2188C20.7825 38.7873 20.4305 38.4375 19.999 38.4375Z" fill="#8C64D8"/>
</g>
<defs>
<clipPath id="clip0_1135_4784">
<rect width="40" height="40" fill="white"/>
</clipPath>
</defs>
</svg>
