<svg width="56" height="56" viewBox="0 0 56 56" fill="none" xmlns="http://www.w3.org/2000/svg">
<g clip-path="url(#clip0_1447_11733)">
<path d="M47.5761 30.6991C47.5715 28.826 47.1301 26.9851 46.2885 25.314L48.2215 23.381C49.6707 21.9318 49.6707 19.5736 48.2215 18.1243C47.4987 17.4014 46.5498 17.0393 45.6002 17.0376C45.5989 16.0466 45.2125 15.1153 44.5117 14.4145C43.7884 13.6913 42.8388 13.329 41.8886 13.3277C41.8873 12.3776 41.5251 11.4279 40.8018 10.7046C40.1014 10.0043 39.1706 9.61791 38.1805 9.61616C38.1786 8.62601 37.7923 7.69525 37.092 6.99483C36.3899 6.29276 35.4564 5.90613 34.4636 5.90613C33.4709 5.90613 32.5374 6.29276 31.8354 6.99483L28.0012 10.829L25.8678 8.69546C25.1657 7.9934 24.2324 7.60677 23.2395 7.60677C22.2466 7.60677 21.3132 7.9934 20.6112 8.69546C19.9104 9.39633 19.5241 10.3276 19.5226 11.3186C18.5732 11.3203 17.6242 11.6824 16.9013 12.4053C16.2009 13.1057 15.8146 14.0364 15.8127 15.0266C14.8226 15.0285 13.8918 15.4148 13.1914 16.1152C11.9946 17.312 11.7873 19.1281 12.567 20.5409C12.03 20.7164 11.525 21.0162 11.0989 21.4423C9.64967 22.8916 9.64967 25.2497 11.0989 26.699L12.647 28.2472L0.347181 40.547C-0.0799198 40.9741 -0.0799198 41.6667 0.347181 42.0939C0.560786 42.3074 0.840672 42.4142 1.12056 42.4142C1.40044 42.4142 1.68044 42.3074 1.89393 42.0939L10.2319 33.756L18.0425 41.5666L5.532 54.0771C5.1049 54.5042 5.1049 55.1968 5.532 55.624C5.74561 55.8375 6.02549 55.9443 6.30538 55.9443C6.58526 55.9443 6.86526 55.8375 7.07875 55.624L23.9882 38.7145C24.2997 38.403 24.6543 38.1506 25.038 37.9607L27.6844 39.7038C29.4347 40.8566 31.5687 41.307 33.6261 40.9738L48.332 55.6798C48.5456 55.8932 48.8255 56.0001 49.1054 56.0001C49.3853 56.0001 49.6653 55.8932 49.8788 55.6798C50.3059 55.2527 50.3059 54.5601 49.8788 54.1329L41.3461 45.6003L42.3776 44.5688C42.8047 44.1417 42.8047 43.4491 42.3776 43.0219C41.9505 42.5949 41.258 42.5949 40.8308 43.0219L39.7993 44.0534L37.3842 41.6384L46.4029 32.6196L48.8181 35.0347L47.7889 36.0639C47.3618 36.4912 47.3618 37.1836 47.7889 37.6108C48.0025 37.8243 48.2824 37.9312 48.5622 37.9312C48.8421 37.9312 49.1221 37.8243 49.3356 37.6108L50.3648 36.5816L54.1322 40.349C54.3458 40.5625 54.6257 40.6693 54.9055 40.6693C55.1854 40.6693 55.4654 40.5625 55.6789 40.349C56.106 39.9219 56.106 39.2293 55.6789 38.8021L47.5761 30.6991ZM33.3822 8.54158C33.671 8.25272 34.0551 8.09359 34.4636 8.09359C34.8721 8.09359 35.2563 8.25272 35.5451 8.54158C35.8341 8.83043 35.9931 9.21455 35.9931 9.62306C35.9931 10.0317 35.834 10.4158 35.5451 10.7046L33.1417 13.1081C32.7146 13.5352 32.7146 14.2278 33.1417 14.655C33.5688 15.0822 34.2613 15.0821 34.6885 14.655L37.092 12.2515C37.3808 11.9625 37.765 11.8035 38.1736 11.8035C38.5821 11.8035 38.9662 11.9627 39.255 12.2515C39.8515 12.8479 39.8515 13.8182 39.255 14.4146L35.5849 18.0847C35.1578 18.5118 35.1578 19.2043 35.5849 19.6315C35.7985 19.8452 36.0784 19.9519 36.3583 19.9519C36.6382 19.9519 36.9182 19.8452 37.1317 19.6315L40.8018 15.9614C41.0907 15.6725 41.4748 15.5134 41.8833 15.5134C42.2919 15.5134 42.676 15.6726 42.9649 15.9614C43.2537 16.2503 43.4129 16.6344 43.4129 17.0429C43.4129 17.4514 43.2537 17.8355 42.9649 18.1244L39.2948 21.7945C38.8676 22.2216 38.8676 22.9142 39.2948 23.3414C39.5084 23.555 39.7882 23.6617 40.0681 23.6617C40.348 23.6617 40.628 23.555 40.8415 23.3414L44.5115 19.6712C45.1078 19.0748 46.0783 19.0749 46.6746 19.6712C47.271 20.2677 47.271 21.238 46.6746 21.8343L37.6343 30.8746C34.7398 33.7692 30.8914 35.3633 26.7978 35.3633C25.6893 35.3633 24.626 35.6552 23.6939 36.2007L17.3633 29.8701C17.8504 29.6861 18.2976 29.3999 18.6769 29.0206C19.3777 28.3197 19.764 27.3884 19.7655 26.3975C20.7149 26.3957 21.664 26.0335 22.3868 25.3106C23.1096 24.5878 23.4718 23.6389 23.4735 22.6893C24.4644 22.688 25.3959 22.3016 26.0966 21.6007C26.8195 20.8779 27.1816 19.9289 27.1833 18.9794C28.1743 18.978 29.1056 18.5916 29.8063 17.8909C30.5084 17.1888 30.895 16.2554 30.895 15.2625C30.895 14.2697 30.5084 13.3363 29.8063 12.6342L29.5477 12.3755L33.3822 8.54158ZM22.158 10.2422C22.4468 9.95336 22.831 9.79422 23.2395 9.79422C23.648 9.79422 24.0321 9.95336 24.3209 10.2422L28.2599 14.1811C28.5488 14.4699 28.7079 14.854 28.7079 15.2625C28.7079 15.671 28.5488 16.0552 28.2599 16.3441C27.971 16.633 27.5869 16.7921 27.1784 16.7921C26.77 16.7921 26.3861 16.6331 26.0973 16.3445C26.0972 16.3443 26.0971 16.3442 26.0969 16.344L22.158 12.4052C21.8691 12.1163 21.71 11.7322 21.71 11.3237C21.71 10.9152 21.869 10.5312 22.158 10.2422V10.2422ZM18.4481 13.952C18.7463 13.6538 19.1379 13.5048 19.5296 13.5048C19.9213 13.5048 20.3131 13.6539 20.6111 13.952L24.55 17.8909C25.1464 18.4873 25.1463 19.4576 24.55 20.0541C24.2611 20.3429 23.877 20.502 23.4685 20.502C23.0601 20.502 22.6762 20.343 22.3873 20.0544C22.3872 20.0543 22.3871 20.0542 22.387 20.0539L18.4482 16.1151C18.1592 15.8262 18.0002 15.4421 18.0002 15.0335C18.0001 14.625 18.1592 14.241 18.4481 13.952V13.952ZM14.7382 17.662C15.0271 17.373 15.4112 17.214 15.8197 17.214C16.2283 17.214 16.6125 17.3731 16.9013 17.662L20.8402 21.6008C21.4366 22.1972 21.4366 23.1676 20.8402 23.7639C20.2437 24.3602 19.2734 24.3603 18.677 23.7639L14.7381 19.825C14.1418 19.2287 14.1418 18.2583 14.7382 17.662V17.662ZM12.6456 22.9891C12.9439 22.6908 13.3355 22.5419 13.7272 22.5419C14.1183 22.5419 14.5097 22.6907 14.8076 22.9881L17.1302 25.3107C17.4191 25.5996 17.5782 25.9837 17.5782 26.3922C17.5782 26.8007 17.4191 27.1848 17.1302 27.4738C16.8414 27.7628 16.4573 27.9218 16.0486 27.9218C15.6405 27.9218 15.2566 27.7629 14.9677 27.4743L14.9672 27.4738L12.6456 25.1523C12.0493 24.5557 12.0493 23.5854 12.6456 22.9891V22.9891ZM11.7787 32.2091L14.1939 29.7939L22.0046 37.6046L19.5895 40.0197L11.7787 32.2091ZM34.7593 39.0133C34.4899 38.744 34.0999 38.6337 33.7297 38.7235C32.0744 39.1219 30.3095 38.8135 28.8877 37.8769L28.2953 37.4867C32.4083 37.1406 36.2291 35.3736 39.1812 32.4214L44.6396 26.9631C45.1091 28.0979 45.3624 29.3107 45.3857 30.5436L35.8377 40.0917L34.7593 39.0133Z" fill="#8C64D8"/>
<path d="M44.3087 39.5443C44.1053 39.7478 43.9883 40.0288 43.9883 40.3176C43.9883 40.6053 44.1053 40.8874 44.3087 41.0908C44.5122 41.2942 44.7944 41.4113 45.082 41.4113C45.3708 41.4113 45.6519 41.2943 45.8553 41.0908C46.0588 40.8874 46.1758 40.6053 46.1758 40.3176C46.1758 40.0287 46.0588 39.7478 45.8553 39.5443C45.6519 39.3409 45.3697 39.2238 45.082 39.2238C44.7944 39.2238 44.5122 39.3409 44.3087 39.5443Z" fill="#8C64D8"/>
<path d="M7.38966 8.93576C7.60327 9.14937 7.88315 9.25612 8.16304 9.25612C8.44293 9.25612 8.72292 9.14937 8.93642 8.93576C9.36352 8.50866 9.36352 7.81611 8.93642 7.3889L3.78813 2.24061C3.36102 1.81351 2.66848 1.81351 2.24127 2.24061C1.81405 2.66771 1.81416 3.36026 2.24127 3.78747L7.38966 8.93576Z" fill="#8C64D8"/>
<path d="M13.3442 5.96257C13.9483 5.96257 14.4379 5.47291 14.4379 4.86884V1.09373C14.4379 0.489662 13.9483 0 13.3442 0C12.7402 0 12.2505 0.489662 12.2505 1.09373V4.86884C12.2505 5.47291 12.7402 5.96257 13.3442 5.96257Z" fill="#8C64D8"/>
<path d="M1.09422 14.4372H4.86933C5.4734 14.4372 5.96306 13.9476 5.96306 13.3435C5.96306 12.7394 5.4734 12.2498 4.86933 12.2498H1.09422C0.490151 12.2498 0.000488281 12.7394 0.000488281 13.3435C0.000488281 13.9476 0.490151 14.4372 1.09422 14.4372V14.4372Z" fill="#8C64D8"/>
<path d="M47.837 9.25613C48.1169 9.25613 48.3969 9.14938 48.6104 8.93577L53.7586 3.78748C54.1857 3.36038 54.1857 2.66783 53.7586 2.24062C53.3315 1.81341 52.639 1.81352 52.2118 2.24062L47.0635 7.38891C46.6364 7.81602 46.6364 8.50856 47.0635 8.93577C47.2772 9.14938 47.5571 9.25613 47.837 9.25613Z" fill="#8C64D8"/>
<path d="M42.6557 5.96257C43.2598 5.96257 43.7495 5.47291 43.7495 4.86884V1.09373C43.7495 0.489662 43.2598 0 42.6557 0C42.0517 0 41.562 0.489662 41.562 1.09373V4.86884C41.562 5.47291 42.0517 5.96257 42.6557 5.96257Z" fill="#8C64D8"/>
<path d="M50.0371 13.3435C50.0371 13.9476 50.5268 14.4372 51.1308 14.4372H54.906C55.51 14.4372 55.9997 13.9476 55.9997 13.3435C55.9997 12.7394 55.51 12.2498 54.906 12.2498H51.1308C50.5268 12.2498 50.0371 12.7394 50.0371 13.3435V13.3435Z" fill="#8C64D8"/>
</g>
<defs>
<clipPath id="clip0_1447_11733">
<rect width="56" height="56" fill="white"/>
</clipPath>
</defs>
</svg>
