<svg width="56" height="56" viewBox="0 0 56 56" fill="none" xmlns="http://www.w3.org/2000/svg">
<g clip-path="url(#clip0_1447_11746)">
<path d="M51.4062 5.6875H50.0938V3.49445C50.0938 1.56757 48.5262 0 46.5993 0C44.6729 0 43.1053 1.56757 43.1053 3.49445V5.6875H31.5081V3.49445C31.5081 1.56757 29.9406 0 28.0141 0C26.0872 0 24.5197 1.56757 24.5197 3.49445V5.6875H12.8947V3.49445C12.8947 1.56757 11.3271 0 9.4007 0C7.47382 0 5.90625 1.56757 5.90625 3.49445V5.6875H4.59375C2.06061 5.6875 0 7.74811 0 10.2812V51.4062C0 53.9394 2.06061 56 4.59375 56H51.4062C53.9394 56 56 53.9394 56 51.4062V10.2812C56 7.74811 53.9394 5.6875 51.4062 5.6875ZM45.2928 3.49445C45.2928 2.77368 45.879 2.1875 46.5993 2.1875C47.3201 2.1875 47.9062 2.77368 47.9062 3.49445V9.63055C47.9062 10.3513 47.3201 10.9375 46.5993 10.9375C45.879 10.9375 45.2928 10.3513 45.2928 9.63055V3.49445ZM26.7072 3.49445C26.7072 2.77368 27.2933 2.1875 28.0141 2.1875C28.7344 2.1875 29.3206 2.77368 29.3206 3.49445V9.63055C29.3206 10.3513 28.7344 10.9375 28.0141 10.9375C27.2933 10.9375 26.7072 10.3513 26.7072 9.63055V3.49445ZM8.09375 3.49445C8.09375 2.77368 8.67993 2.1875 9.4007 2.1875C10.121 2.1875 10.7072 2.77368 10.7072 3.49445V9.63055C10.7072 10.3513 10.121 10.9375 9.4007 10.9375C8.67993 10.9375 8.09375 10.3513 8.09375 9.63055V3.49445ZM4.59375 7.875H5.90625V9.63055C5.90625 11.5574 7.47382 13.125 9.4007 13.125C11.3271 13.125 12.8947 11.5574 12.8947 9.63055V7.875H24.5197V9.63055C24.5197 11.5574 26.0872 13.125 28.0141 13.125C29.9406 13.125 31.5081 11.5574 31.5081 9.63055V7.875H43.1053V9.63055C43.1053 11.5574 44.6729 13.125 46.5993 13.125C48.5262 13.125 50.0938 11.5574 50.0938 9.63055V7.875H51.4062C52.7333 7.875 53.8125 8.95422 53.8125 10.2812V18.8125H32.9219C32.3177 18.8125 31.8281 19.3021 31.8281 19.9062C31.8281 20.5104 32.3177 21 32.9219 21H53.8125V47.0312C53.8125 48.3583 52.7333 49.4375 51.4062 49.4375H4.59375C3.26672 49.4375 2.1875 48.3583 2.1875 47.0312V21H23.0781C23.6823 21 24.1719 20.5104 24.1719 19.9062C24.1719 19.3021 23.6823 18.8125 23.0781 18.8125H2.1875V10.2812C2.1875 8.95422 3.26672 7.875 4.59375 7.875V7.875ZM51.4062 53.8125H4.59375C3.26672 53.8125 2.1875 52.7333 2.1875 51.4062V50.9423C2.88776 51.3746 3.71191 51.625 4.59375 51.625H51.4062C52.2881 51.625 53.1122 51.3746 53.8125 50.9423V51.4062C53.8125 52.7333 52.7333 53.8125 51.4062 53.8125Z" fill="#8C64D8"/>
<path d="M28 21C28.2875 21 28.5699 20.8829 28.7733 20.6796C28.9767 20.4762 29.0938 20.1938 29.0938 19.9062C29.0938 19.6187 28.9767 19.3363 28.7733 19.1329C28.5699 18.9296 28.2875 18.8125 28 18.8125C27.7125 18.8125 27.4301 18.9296 27.2267 19.1329C27.0233 19.3363 26.9062 19.6187 26.9062 19.9062C26.9062 20.1938 27.0233 20.4762 27.2267 20.6796C27.4301 20.8829 27.7125 21 28 21Z" fill="#8C64D8"/>
<path d="M19.6838 30.5246C18.7311 30.663 17.9543 31.318 17.657 32.2336C17.3596 33.1492 17.6027 34.1353 18.2923 34.8073L21.3274 37.7656L20.6109 41.9427C20.4482 42.8917 20.8305 43.8325 21.6094 44.3986C22.3883 44.9642 23.4017 45.0377 24.2536 44.5895L28.0053 42.6174L31.7565 44.5895C32.1274 44.7844 32.5281 44.8809 32.9272 44.8809C33.4458 44.8809 33.9607 44.7181 34.4007 44.3986C35.1796 43.8325 35.5624 42.8917 35.3996 41.9427L34.6832 37.7656L37.7183 34.8073C38.4075 34.1353 38.651 33.1492 38.3536 32.2336C38.0558 31.318 37.2795 30.663 36.3268 30.5246L32.1325 29.9153L30.2569 26.1146C29.8305 25.2515 28.9679 24.7153 28.0053 24.7153C27.0427 24.7153 26.1801 25.2515 25.7541 26.1146L23.8781 29.9153L19.6838 30.5246ZM25.5849 31.3992L27.7152 27.0827C27.7887 26.934 27.9134 26.9028 28.0049 26.9028C28.0967 26.9028 28.2215 26.934 28.295 27.0827L30.4252 31.3992C30.5846 31.7217 30.8922 31.9456 31.2485 31.9973L36.0119 32.6895C36.1759 32.7134 36.2443 32.8223 36.2729 32.9095C36.3011 32.9966 36.3097 33.1248 36.1909 33.2406L32.7443 36.6005C32.4863 36.8521 32.3688 37.214 32.4294 37.5686L33.2433 42.3127C33.2711 42.4764 33.1886 42.5751 33.1147 42.6289C33.0404 42.6827 32.9212 42.731 32.7742 42.6537L28.5137 40.4136C28.3544 40.3299 28.1796 40.288 28.0049 40.288C27.8301 40.288 27.6554 40.3299 27.496 40.4136L23.2355 42.6537C23.0885 42.731 22.9693 42.6827 22.895 42.6289C22.8211 42.5751 22.7386 42.4764 22.7664 42.3127L23.5803 37.5686C23.641 37.214 23.5235 36.8521 23.2659 36.6005L19.8188 33.2406C19.7001 33.1248 19.7086 32.9966 19.7372 32.9095C19.7654 32.8223 19.8338 32.7134 19.9978 32.6895L24.7612 31.9973C25.1175 31.9456 25.4256 31.7217 25.5849 31.3992V31.3992Z" fill="#8C64D8"/>
</g>
<defs>
<clipPath id="clip0_1447_11746">
<rect width="56" height="56" fill="white"/>
</clipPath>
</defs>
</svg>
