<svg width="56" height="56" viewBox="0 0 56 56" fill="none" xmlns="http://www.w3.org/2000/svg">
<path d="M14.875 22.0132C14.392 22.0132 14 21.6212 14 21.1382V17.969C14 17.6942 14.1277 17.437 14.3465 17.2725C15.239 16.597 15.75 15.582 15.75 14.4882V11.8632C15.75 9.93297 14.1803 8.36322 12.25 8.36322C10.3197 8.36322 8.75 9.93297 8.75 11.8632V14.4882C8.75 15.582 9.261 16.597 10.1535 17.2725C10.3723 17.437 10.5 17.696 10.5 17.9707V21.14C10.5 21.623 10.108 22.015 9.625 22.015C9.142 22.015 8.75 21.6212 8.75 21.1382V18.382C7.63175 17.3827 7 15.9862 7 14.4882V11.8632C7 8.96872 9.3555 6.61322 12.25 6.61322C15.1445 6.61322 17.5 8.96872 17.5 11.8632V14.4882C17.5 15.9862 16.8682 17.381 15.75 18.382V21.1382C15.75 21.6212 15.358 22.0132 14.875 22.0132V22.0132Z" fill="#8C64D8"/>
<path d="M13.1303 19.6507C12.7243 19.6507 12.3603 19.3655 12.2746 18.9525C12.1783 18.4782 12.4828 18.0162 12.9571 17.92C14.5741 17.5857 15.7501 16.1437 15.7501 14.4882C15.7501 14.0052 16.1421 13.6132 16.6251 13.6132C17.1081 13.6132 17.5001 14.0052 17.5001 14.4882C17.5001 16.9697 15.7361 19.1327 13.3071 19.6315C13.2476 19.6437 13.1898 19.6507 13.1303 19.6507V19.6507Z" fill="#8C64D8"/>
<path d="M18.1546 23.3852C18.0391 23.3852 17.9218 23.3625 17.8098 23.3135L14.5303 21.9047C14.0858 21.714 13.8811 21.1995 14.0718 20.755C14.2608 20.3087 14.7753 20.1075 15.2198 20.2965L18.4993 21.7052C18.9438 21.896 19.1486 22.4105 18.9578 22.855C18.8161 23.1875 18.4923 23.3852 18.1546 23.3852V23.3852Z" fill="#8C64D8"/>
<path d="M7 33.978C6.87925 33.978 6.755 33.9535 6.63775 33.8992L3.28825 32.3767C2.35375 31.9497 1.75 31.0117 1.75 29.9862V27.5607C1.75 25.1072 3.2025 22.9022 5.4495 21.9432L9.27675 20.2825C9.72475 20.09 10.2357 20.293 10.4282 20.7357C10.619 21.1785 10.416 21.6947 9.97325 21.8872L6.1425 23.5497C4.536 24.2375 3.5 25.8107 3.5 27.5607V29.9862C3.5 30.3275 3.70125 30.6425 4.01275 30.7842L7.36225 32.3067C7.8015 32.5062 7.99575 33.026 7.79625 33.4652C7.64925 33.7872 7.33075 33.978 7 33.978V33.978Z" fill="#8C64D8"/>
<path d="M15.6433 13.4557C13.9003 13.4557 12.2342 12.8555 10.8255 11.7197C10.451 11.417 10.3915 10.8675 10.6925 10.4912C10.9988 10.115 11.55 10.0572 11.9228 10.36C13.0463 11.2647 14.3798 11.753 15.7465 11.7057C15.6625 9.84722 14.126 8.36322 12.25 8.36322C10.3197 8.36322 8.75 9.93297 8.75 11.8632V12.5107C8.75 12.9937 8.358 13.3857 7.875 13.3857C7.392 13.3857 7 12.9955 7 12.5107V11.8632C7 8.96872 9.3555 6.61322 12.25 6.61322C15.1445 6.61322 17.5 8.96872 17.5 11.8632V12.4757C17.5 12.9062 17.1868 13.272 16.7633 13.3402C16.359 13.405 16.009 13.4557 15.6433 13.4557V13.4557Z" fill="#8C64D8"/>
<path d="M46.375 22.0132C45.892 22.0132 45.5 21.6212 45.5 21.1382V17.969C45.5 17.6942 45.6277 17.437 45.8465 17.2725C46.739 16.597 47.25 15.582 47.25 14.4882V11.8632C47.25 9.93299 45.6803 8.36324 43.75 8.36324C41.8197 8.36324 40.25 9.93299 40.25 11.8632V14.4882C40.25 15.582 40.761 16.597 41.6535 17.2725C41.8723 17.437 42 17.696 42 17.9707V21.14C42 21.623 41.608 22.015 41.125 22.015C40.642 22.015 40.25 21.623 40.25 21.14V18.3837C39.1318 17.3845 38.5 15.988 38.5 14.49V11.865C38.5 8.97049 40.8555 6.61499 43.75 6.61499C46.6445 6.61499 49 8.97049 49 11.865V14.49C49 15.988 48.3682 17.3827 47.25 18.3837V21.14C47.25 21.6212 46.858 22.0132 46.375 22.0132V22.0132Z" fill="#8C64D8"/>
<path d="M44.6303 19.6507C44.2243 19.6507 43.8603 19.3655 43.7746 18.9525C43.6783 18.4782 43.9828 18.0162 44.4571 17.92C46.0741 17.5857 47.2501 16.1437 47.2501 14.4882C47.2501 14.0052 47.6421 13.6132 48.1251 13.6132C48.6081 13.6132 49.0001 14.0052 49.0001 14.4882C49.0001 16.9697 47.2361 19.1327 44.8071 19.6315C44.7476 19.6437 44.6898 19.6507 44.6303 19.6507V19.6507Z" fill="#8C64D8"/>
<path d="M38.1026 23.2749C37.7649 23.2749 37.4411 23.0772 37.2994 22.7447C37.1086 22.3019 37.3134 21.7857 37.7579 21.5949L40.7801 20.2964C41.2211 20.1092 41.7374 20.3087 41.9281 20.7549C42.1189 21.1977 41.9141 21.7139 41.4696 21.9047L38.4474 23.2032C38.3354 23.2522 38.2199 23.2749 38.1026 23.2749Z" fill="#8C64D8"/>
<path d="M48.9999 33.978C48.6692 33.978 48.3507 33.7872 48.2037 33.4652C48.0042 33.026 48.1984 32.5062 48.6377 32.3067L51.9872 30.7842C52.2987 30.6425 52.4999 30.3292 52.4999 29.9862V27.5607C52.4999 25.8107 51.4639 24.2375 49.8627 23.5532L46.0267 21.8872C45.5839 21.6947 45.3809 21.1802 45.5717 20.7357C45.7642 20.2912 46.2717 20.0882 46.7232 20.2825L50.5539 21.945C52.7974 22.9022 54.2499 25.1072 54.2499 27.5607V29.9862C54.2499 31.0117 53.6462 31.9497 52.7117 32.3767L49.3622 33.8992C49.2449 33.9517 49.1207 33.978 48.9999 33.978V33.978Z" fill="#8C64D8"/>
<path d="M30.2927 10.8412C27.8042 10.8412 25.2142 9.96445 23.7862 8.67995C23.4257 8.3562 23.396 7.8032 23.7197 7.44445C24.0435 7.0857 24.6017 7.05595 24.9552 7.3797C26.6807 8.9302 30.8142 9.74045 33.182 8.46995C33.6072 8.2407 34.1392 8.39995 34.3667 8.82695C34.596 9.25395 34.435 9.78245 34.0097 10.0117C32.93 10.5874 31.6262 10.8412 30.2927 10.8412Z" fill="#8C64D8"/>
<path d="M27.988 26.7382C25.0847 26.7382 23.571 24.4737 23.1755 23.275C23.0232 22.8147 23.2735 22.3212 23.732 22.169C24.1905 22.0185 24.6822 22.267 24.8345 22.722C24.8712 22.827 25.6465 24.9865 27.988 24.9865C30.3487 24.9865 31.18 22.7605 31.2167 22.666C31.3795 22.2127 31.887 21.9765 32.3332 22.1375C32.7865 22.2985 33.0262 22.7937 32.867 23.2487C32.8162 23.3922 31.607 26.7382 27.988 26.7382V26.7382Z" fill="#8C64D8"/>
<path d="M44.625 33.7382C44.142 33.7382 43.75 33.3462 43.75 32.8632V32.375C43.75 29.7797 42.1137 27.4592 39.6795 26.6035L32.3803 24.0135C31.3303 23.6477 30.625 22.6537 30.625 21.5425V19.39C30.625 18.907 31.017 18.515 31.5 18.515C31.983 18.515 32.375 18.907 32.375 19.39V21.5425C32.375 21.91 32.6112 22.239 32.9612 22.3615L40.2622 24.9532C43.3947 26.054 45.5 29.0377 45.5 32.375V32.865C45.5 33.348 45.108 33.7382 44.625 33.7382Z" fill="#8C64D8"/>
<path d="M11.375 33.7382C10.892 33.7382 10.5 33.3462 10.5 32.8632V32.3907C10.5 31.8447 10.5578 31.297 10.6715 30.7562C11.235 28.091 13.1845 25.8685 15.7535 24.9515L23.037 22.3965C23.3887 22.274 23.625 21.9432 23.625 21.5757V19.3882C23.625 18.9052 24.017 18.5132 24.5 18.5132C24.983 18.5132 25.375 18.9052 25.375 19.3882V21.5757C25.375 22.6852 24.6697 23.6792 23.6162 24.0485L16.338 26.6017C14.3378 27.314 12.8223 29.0447 12.383 31.1185C12.2938 31.5385 12.25 31.9672 12.25 32.3907V32.8632C12.25 33.348 11.858 33.7382 11.375 33.7382V33.7382Z" fill="#8C64D8"/>
<path d="M28 21.4882C27.517 21.4882 27.125 21.0962 27.125 20.6132C27.125 20.1302 27.517 19.7382 28 19.7382C29.8165 19.7382 33.25 18.0932 33.25 11.8632V9.23822C33.25 6.34372 30.8945 3.98822 28 3.98822C25.1055 3.98822 22.75 6.34372 22.75 9.23822V11.8632C22.75 14.8802 23.5567 17.1885 25.081 18.5377C25.4432 18.858 25.4783 19.411 25.1562 19.7732C24.8325 20.1372 24.2813 20.167 23.9225 19.8485C22.589 18.669 21 16.3275 21 11.8632V9.23822C21 5.37772 24.1395 2.23822 28 2.23822C31.8605 2.23822 35 5.37772 35 9.23822V11.8632C35 19.4775 30.422 21.4882 28 21.4882Z" fill="#8C64D8"/>
<path d="M41.3316 49.4882C41.0096 49.4882 40.7016 49.3097 40.5476 49.0017C40.3341 48.5677 40.5109 48.0444 40.9449 47.8292L45.2726 45.6854C45.5159 45.5647 45.8064 45.5647 46.0479 45.6854L48.8759 47.0872L48.4156 43.9652C48.3771 43.6957 48.4646 43.4209 48.6571 43.2267L50.8674 40.9674L47.7524 40.4372C47.4846 40.3917 47.2519 40.2219 47.1241 39.9804L45.6611 37.1839L44.1964 39.9804C44.0686 40.2219 43.8359 40.3917 43.5681 40.4372L40.4549 40.9674L42.6634 43.2267C43.0011 43.5732 42.9941 44.1262 42.6494 44.4639C42.3029 44.8034 41.7481 44.7964 41.4121 44.4499L38.0364 40.9972C37.8089 40.7644 37.7284 40.4249 37.8299 40.1152C37.9314 39.8054 38.1939 39.5779 38.5159 39.5237L42.8489 38.7852L44.8876 34.8932C45.0399 34.6044 45.3391 34.4242 45.6629 34.4242C45.9901 34.4242 46.2859 34.6062 46.4381 34.8932L48.4751 38.7852L52.8099 39.5237C53.1319 39.5779 53.3944 39.8072 53.4959 40.1152C53.5974 40.4232 53.5169 40.7644 53.2894 40.9972L50.2146 44.1384L50.8551 48.4854C50.9006 48.8074 50.7659 49.1294 50.5034 49.3202C50.2409 49.5127 49.8909 49.5424 49.6004 49.3954L45.6629 47.4442L41.7236 49.3954C41.5959 49.4602 41.4629 49.4882 41.3316 49.4882V49.4882Z" fill="#8C64D8"/>
<path d="M22.8832 54.25C22.7012 54.25 22.521 54.194 22.3687 54.0837C22.1062 53.893 21.9697 53.571 22.017 53.2472L22.7835 48.027L19.0945 44.254C18.867 44.0212 18.7865 43.6817 18.888 43.372C18.9895 43.0622 19.252 42.833 19.574 42.7805L24.7785 41.895L27.225 37.2207C27.5295 36.6432 28.4727 36.6432 28.7772 37.2207L31.2237 41.895L36.4282 42.7805C36.7502 42.8347 37.0127 43.064 37.1142 43.372C37.2157 43.68 37.1352 44.0212 36.9077 44.254L33.217 48.027L33.9852 53.2472C34.0307 53.5692 33.896 53.8912 33.6335 54.082C33.371 54.2762 33.021 54.3025 32.7305 54.1572L28.0002 51.814L23.2717 54.1572C23.1492 54.2185 23.0162 54.25 22.8832 54.25V54.25ZM21.513 44.2242L24.3375 47.1135C24.5282 47.3095 24.6175 47.5825 24.579 47.852L23.991 51.8472L27.6117 50.0535C27.855 49.931 28.1455 49.931 28.387 50.0535L32.006 51.8472L31.418 47.852C31.3795 47.5825 31.467 47.3077 31.6595 47.1135L34.4857 44.2242L30.501 43.5452C30.2332 43.4997 30.0005 43.33 29.8727 43.0885L28.0002 39.5097L26.1277 43.0885C26 43.33 25.7672 43.4997 25.4995 43.5452L21.513 44.2242Z" fill="#8C64D8"/>
<path d="M14.8104 49.4883C14.6792 49.4883 14.5479 49.4585 14.4219 49.3973L10.4844 47.446L6.54519 49.399C6.25644 49.5425 5.90819 49.5145 5.64219 49.322C5.37969 49.1313 5.24319 48.8093 5.29044 48.4873L5.93094 44.1403L2.85619 40.999C2.62869 40.7663 2.54819 40.4268 2.64969 40.117C2.75119 39.8073 3.01369 39.578 3.33569 39.5255L7.67044 38.787L9.70919 34.895C9.86144 34.6063 10.1607 34.426 10.4844 34.426C10.8117 34.426 11.1074 34.608 11.2597 34.895L13.2967 38.787L17.6297 39.5255C17.9517 39.5798 18.2142 39.809 18.3157 40.117C18.4172 40.425 18.3367 40.7663 18.1092 40.999L14.7334 44.45C14.3992 44.7965 13.8444 44.8035 13.4962 44.464C13.1514 44.1263 13.1444 43.5733 13.4822 43.2268L15.6907 40.9675L12.5774 40.4373C12.3079 40.3918 12.0769 40.222 11.9492 39.9805L10.4862 37.184L9.02144 39.9805C8.89369 40.222 8.66094 40.3918 8.39319 40.4373L5.27819 40.9675L7.48844 43.2268C7.67919 43.4228 7.76844 43.6958 7.72994 43.9653L7.26969 47.0873L10.0994 45.6855C10.3427 45.5648 10.6332 45.5648 10.8747 45.6855L15.2007 47.8293C15.6347 48.0445 15.8114 48.5678 15.5979 49.0018C15.4404 49.3098 15.1307 49.4883 14.8104 49.4883V49.4883Z" fill="#8C64D8"/>
</svg>
