<svg width="56" height="56" viewBox="0 0 56 56" fill="none" xmlns="http://www.w3.org/2000/svg">
<path d="M46.4494 39.0462C46.4744 38.5938 46.4645 38.086 46.4526 37.484L46.4521 37.4626C46.3767 34.1168 45.9988 31.4387 44.4003 29.2437C42.9204 27.2116 40.5302 25.6722 36.1492 23.9299C35.2839 23.5868 34.4667 23.2629 34.2776 23.0613C34.1917 22.9697 34.1463 22.4805 34.0982 21.9626C34.085 21.8203 34.0708 21.6687 34.0547 21.5063C36.1462 19.7666 37.48 17.1463 37.48 14.2203V12.0205V7.79123C37.48 3.90907 34.136 1.2693 30.8219 0.375417C27.5384 -0.510483 24.5743 0.202415 23.0786 2.18757C20.1413 2.67454 18.4879 5.11615 18.5191 8.97447L18.5196 12.073V14.2201C18.5196 17.1385 19.8463 19.7527 21.9278 21.4924C21.9111 21.6584 21.8967 21.8129 21.8832 21.9578C21.8348 22.4775 21.7891 22.9684 21.7026 23.0607C21.5136 23.2624 20.6966 23.5866 19.8311 23.93C18.5109 24.4547 17.3985 24.9503 16.4303 25.4454C15.8926 25.7203 15.6795 26.3791 15.9545 26.9169C16.1479 27.2952 16.5313 27.5128 16.9289 27.5128C17.0965 27.5128 17.2665 27.474 17.426 27.3926C18.0073 27.0953 18.6493 26.7961 19.3654 26.4882C21.6631 28.7196 24.7569 29.986 27.9734 29.986C31.1965 29.986 34.2958 28.7158 36.5948 26.4781C43.1203 29.2666 44.1304 31.5231 44.2655 37.5085L44.2659 37.527C44.2663 37.5515 44.2667 37.5745 44.2673 37.5986C44.1105 37.5744 43.9498 37.5617 43.7863 37.5617H40.7659C40.3776 36.2836 39.6997 35.1228 38.774 34.1641C37.4202 32.7614 35.5637 32.0331 33.5476 32.1168C31.6407 32.1948 29.7998 32.9773 28.3644 34.3202C28.3644 34.3202 28.0855 34.5811 27.9989 34.6601C27.9118 34.5808 27.6333 34.3209 27.6333 34.3209C26.1989 32.9774 24.3588 32.1947 22.4516 32.1167C20.4332 32.0318 18.5785 32.7611 17.2229 34.1638C16.2989 35.1209 15.6219 36.2819 15.2337 37.5616H12.2104C12.0412 37.5616 11.8755 37.5754 11.7135 37.6015C11.7141 37.5713 11.7148 37.5421 11.7156 37.5115C11.7482 36.0671 11.8372 34.9547 11.9959 34.011C12.096 33.4154 11.6944 32.8513 11.0988 32.7512C10.5029 32.6505 9.93918 33.0527 9.83901 33.6482C9.6624 34.6983 9.56387 35.9101 9.52898 37.461C9.51498 38.0594 9.50241 38.5959 9.53084 39.0759C9.24553 39.5476 9.08105 40.1001 9.08105 40.6904V44.3104C9.08105 46.0373 10.4849 47.4423 12.2103 47.4423H15.3802C16.3181 47.4423 17.1958 47.1796 17.9436 46.724L27.2389 55.693C27.4507 55.8974 27.7244 55.9997 27.9982 55.9997C28.2719 55.9997 28.5456 55.8974 28.7573 55.6931L38.0558 46.7239C38.8036 47.1795 39.6813 47.4422 40.6192 47.4422H43.7861C45.5133 47.4422 46.9185 46.0372 46.9185 44.3103V40.6903C46.9186 40.0878 46.7465 39.5244 46.4494 39.0462V39.0462ZM23.7979 4.30111C24.1547 4.27224 24.4746 4.07059 24.6547 3.76111C25.6218 2.09877 28.1628 1.92358 30.2524 2.48699C32.7613 3.16369 35.293 5.06639 35.293 7.79123V10.9819C32.3776 11.0805 28.6993 10.7362 25.9866 8.88054C25.5063 8.5517 24.8533 8.65712 24.5 9.11937C23.554 10.3582 22.3712 10.6613 20.7068 10.8583V9.05594L20.7062 8.95698C20.6826 6.03584 21.7228 4.46941 23.7979 4.30111V4.30111ZM20.7068 14.2201V13.0593C22.4923 12.8601 24.1742 12.5371 25.5712 11.1967C28.6055 12.9178 32.315 13.2624 35.2928 13.1705V14.2202C35.2928 18.2398 32.0204 21.51 27.9982 21.51C23.9776 21.5099 20.7068 18.2397 20.7068 14.2201ZM27.9734 27.7991C25.6543 27.7991 23.4124 26.9991 21.6206 25.5654C22.3901 25.2409 22.9189 24.9615 23.2984 24.5562C23.7622 24.0612 23.9077 23.5069 23.9939 22.8086C25.2111 23.3781 26.568 23.6971 27.9982 23.6971C29.4224 23.6971 30.7741 23.3809 31.9874 22.8162C32.0734 23.5115 32.2192 24.0639 32.6823 24.5575C33.0589 24.9588 33.5817 25.2367 34.3398 25.5571C32.5459 26.996 30.2986 27.7991 27.9734 27.7991ZM15.3803 45.2555H12.2104C11.691 45.2555 11.2683 44.8317 11.2683 44.3107V40.6907C11.2683 40.1802 11.6997 39.749 12.2104 39.749H15.3803C16.899 39.749 18.1344 40.9841 18.1344 42.5023C18.1344 44.0204 16.899 45.2555 15.3803 45.2555ZM36.4841 45.2017L27.9984 53.3869L19.5154 45.2019C20.0243 44.4253 20.3214 43.4981 20.3214 42.5024C20.3214 40.4946 19.1165 38.7639 17.3924 37.9919C17.6879 37.1242 18.164 36.3382 18.7959 35.6837C20.654 33.761 23.9477 33.8661 26.14 35.9195C26.14 35.9195 27.0977 37.0447 27.9994 37.0148C28.8746 36.9856 29.8579 35.9181 29.8579 35.9181C32.0512 33.8666 35.345 33.7611 37.2002 35.6834C37.8338 36.3398 38.3109 37.126 38.6068 37.9922C36.8828 38.7643 35.6782 40.4948 35.6782 42.5025C35.6782 43.498 35.9753 44.4251 36.4841 45.2017V45.2017ZM44.7315 44.3107C44.7315 44.8317 44.3074 45.2555 43.7862 45.2555H40.6194C39.9085 45.2555 39.2597 44.9848 38.7706 44.5412C38.7663 44.5366 38.7628 44.5317 38.7584 44.5273C38.7305 44.4983 38.7012 44.4716 38.6711 44.4463C38.1734 43.948 37.8653 43.2605 37.8653 42.5023C37.8653 40.9841 39.1007 39.749 40.6194 39.749H43.7862C44.3074 39.749 44.7315 40.1715 44.7315 40.6907V44.3107Z" fill="#8C64D8"/>
<path d="M12.8948 30.4407C13.1755 30.4407 13.4566 30.3336 13.6705 30.1196C14.0975 29.6926 14.0975 29.0002 13.6705 28.573C13.2433 28.1461 12.5511 28.1461 12.1238 28.573L12.1208 28.5761C11.6937 29.0031 11.6953 29.694 12.1224 30.1211C12.3354 30.3343 12.6151 30.4407 12.8948 30.4407V30.4407Z" fill="#8C64D8"/>
</svg>
