<svg width="40" height="40" viewBox="0 0 40 40" fill="none" xmlns="http://www.w3.org/2000/svg">
<g clip-path="url(#clip0_1135_4794)">
<path d="M37.9055 2.67805C37.43 2.62981 36.9511 2.72796 36.5329 2.95939C36.3287 2.29699 35.8375 1.76148 35.1952 1.50094C34.5529 1.24039 33.8275 1.28241 33.2195 1.61538C32.881 0.567296 31.8558 -0.101389 30.7602 0.0113848C30.0473 0.0924271 29.4123 0.499785 29.0415 1.11405C28.4873 0.703751 27.7775 0.565239 27.1097 0.737023C26.4418 0.908807 25.887 1.37257 25.5995 1.99938H19.0342C18.9125 1.99848 18.7934 1.96461 18.6895 1.90138L15.9942 0.288718C15.6843 0.10145 15.3296 0.00147534 14.9675 -0.000615226H5.09485C3.87489 -0.0169584 2.83604 0.882902 2.67818 2.09272C2.63002 2.56846 2.72816 3.04757 2.95952 3.46605C2.29693 3.66997 1.76125 4.16115 1.50077 4.80361C1.2403 5.44607 1.28268 6.17162 1.61618 6.77939C0.566473 7.11663 -0.103159 8.14348 0.0115173 9.24005C0.092264 9.95308 0.499699 10.5881 1.11418 10.9587C0.775875 11.4253 0.620719 11.9999 0.678184 12.5734C0.773431 13.3705 1.27286 14.0622 1.99952 14.4034V20.9661C1.99835 21.0871 1.96424 21.2056 1.90085 21.3087L0.274184 24.0181C0.0971514 24.3269 0.00256348 24.6761 -0.000482732 25.0321V34.9047C-0.0158395 36.1244 0.883997 37.1626 2.09352 37.3207C2.56898 37.3676 3.04751 37.2696 3.46618 37.0394C3.67027 37.702 4.16158 38.2377 4.80414 38.4981C5.44669 38.7586 6.17232 38.7162 6.78018 38.3827C7.08906 39.3473 7.98665 40.0012 8.99952 39.9994C9.80321 39.9996 10.5475 39.5762 10.9582 38.8854C11.513 39.2957 12.2231 39.4341 12.8914 39.2622C13.5596 39.0903 14.1149 38.6264 14.4029 37.9994H20.9649C21.0865 38.0003 21.2056 38.0342 21.3095 38.0974L24.0049 39.7114C24.3149 39.898 24.6697 39.9972 25.0315 39.9987H34.9042C36.1241 40.0151 37.163 39.1152 37.3209 37.9054C37.3689 37.4299 37.2707 36.951 37.0395 36.5327C37.7021 36.3288 38.2378 35.8376 38.4983 35.1952C38.7587 34.5527 38.7164 33.8272 38.3829 33.2194C39.432 32.8822 40.1015 31.8562 39.9875 30.7601C39.9068 30.047 39.4993 29.412 38.8848 29.0414C39.2232 28.5748 39.3783 28.0002 39.3209 27.4267C39.2249 26.6306 38.7255 25.94 37.9995 25.5994V19.0327C38.0009 18.9114 38.0348 18.7926 38.0975 18.6887L39.7122 15.9941C39.8987 15.6837 39.998 15.3288 39.9995 14.9667V5.09405C40.0149 3.87434 39.115 2.83613 37.9055 2.67805ZM1.33818 9.10805C1.3073 8.8255 1.39811 8.54315 1.58792 8.33158C1.77774 8.12002 2.04861 7.99922 2.33285 7.99939H6.66618C7.03437 7.99939 7.33285 7.70091 7.33285 7.33272C7.33285 6.96453 7.03437 6.66605 6.66618 6.66605H3.66618C3.38199 6.66673 3.11093 6.54645 2.92074 6.33527C2.73055 6.12409 2.6392 5.84196 2.66952 5.55939C2.75483 5.02807 3.22384 4.64439 3.76152 4.66605H7.99952C8.36771 4.66605 8.66618 4.36758 8.66618 3.99939C8.66618 3.6312 8.36771 3.33272 7.99952 3.33272H4.99952C4.71532 3.33339 4.44426 3.21311 4.25407 3.00193C4.06389 2.79075 3.97254 2.50863 4.00285 2.22605C4.08788 1.69458 4.55707 1.31075 5.09485 1.33272H14.9675C15.089 1.33364 15.208 1.36776 15.3115 1.43138L18.0075 3.04605C18.3178 3.23208 18.6724 3.3311 19.0342 3.33272H25.3329V9.25872L24.1782 8.31339C23.3117 7.65204 22.0929 7.71904 21.3042 8.47139C20.7185 9.03936 20.515 9.89521 20.7822 10.6661H18.5469C18.0222 10.6683 17.5194 10.8766 17.1469 11.2461L10.8729 17.4687L10.8595 17.4821L10.5822 17.7567C10.257 18.0746 9.73632 18.0711 9.41552 17.7487C9.12271 17.4548 9.09415 16.9889 9.34885 16.6614L11.1822 14.4214C11.3452 14.222 11.3788 13.9466 11.2685 13.7139C11.1582 13.4811 10.9237 13.3328 10.6662 13.3327H3.09485C2.55803 13.3537 2.0901 12.9705 2.00485 12.4401C1.97437 12.1577 2.06537 11.8757 2.25513 11.6645C2.4449 11.4532 2.71554 11.3326 2.99952 11.3327H6.66618C7.03437 11.3327 7.33285 11.0342 7.33285 10.6661C7.33285 10.2979 7.03437 9.99939 6.66618 9.99939H2.42818C1.8919 10.0201 1.42431 9.63778 1.33818 9.10805ZM27.9995 21.7707L21.9128 27.8067C21.7904 27.9291 21.6246 27.9981 21.4515 27.9987H18.2275L12.1922 21.9147C12.0695 21.7922 12.0002 21.6261 11.9995 21.4527V18.2261L18.0842 12.1921C18.2068 12.0691 18.3732 11.9998 18.5469 11.9994H21.7735L27.8089 18.0834C27.9306 18.2066 27.9991 18.3728 27.9995 18.5461V21.7707ZM12.4342 37.9941C12.1535 38.0244 11.8732 37.9331 11.6642 37.7434C11.4541 37.5529 11.3339 37.2829 11.3329 36.9994V36.9894V33.3327C11.3329 32.9645 11.0344 32.6661 10.6662 32.6661C10.298 32.6661 9.99952 32.9645 9.99952 33.3327V36.9994V37.0087V37.5721C10.0178 38.1108 9.63136 38.5785 9.09885 38.6621C8.81874 38.6926 8.53903 38.6013 8.33085 38.4114C8.12033 38.2207 8.00002 37.9501 7.99952 37.6661V36.3327V36.3194V33.3327C7.99952 32.9645 7.70104 32.6661 7.33285 32.6661C6.96466 32.6661 6.66618 32.9645 6.66618 33.3327V36.3327V36.3407C6.66441 36.6234 6.54306 36.8921 6.33218 37.0804C6.12131 37.2687 5.84059 37.3589 5.55952 37.3287C5.02831 37.2437 4.64457 36.7749 4.66618 36.2374V34.9994V34.9894V31.9994C4.66618 31.6312 4.36771 31.3327 3.99952 31.3327C3.63133 31.3327 3.33285 31.6312 3.33285 31.9994V34.9994V35.0054C3.33162 35.2883 3.21061 35.5574 2.99981 35.7461C2.78902 35.9348 2.50816 36.0254 2.22685 35.9954C1.6958 35.9104 1.31193 35.4421 1.33285 34.9047V25.0321C1.33388 24.912 1.3653 24.7941 1.42418 24.6894L3.04618 21.9921C3.23182 21.6819 3.33082 21.3275 3.33285 20.9661V14.6661H9.25818L8.31218 15.8214C7.7023 16.5632 7.65892 17.6197 8.20595 18.409C8.75297 19.1984 9.75746 19.5287 10.6662 19.2181V21.4527C10.6684 21.9774 10.8767 22.4802 11.2462 22.8527L17.4635 29.1194C17.4708 29.1274 17.4782 29.1347 17.4862 29.1421L17.7575 29.4154C17.9911 29.6532 18.0591 30.008 17.9298 30.3152C17.8006 30.6225 17.4995 30.822 17.1662 30.8214C16.9848 30.8222 16.8085 30.7613 16.6662 30.6487L14.4269 28.8161C14.2275 28.6496 13.9496 28.614 13.7148 28.7249C13.48 28.8358 13.3309 29.073 13.3329 29.3327V36.9041C13.3513 37.4421 12.9659 37.9096 12.4342 37.9941ZM38.6609 30.8907C38.6917 31.1733 38.6009 31.4556 38.4111 31.6672C38.2213 31.8788 37.9504 31.9996 37.6662 31.9994H33.3329C32.9647 31.9994 32.6662 32.2979 32.6662 32.6661C32.6662 33.0342 32.9647 33.3327 33.3329 33.3327H36.3329C36.617 33.332 36.8881 33.4523 37.0783 33.6635C37.2685 33.8747 37.3598 34.1568 37.3295 34.4394C37.2442 34.9707 36.7752 35.3544 36.2375 35.3327H31.9995C31.6313 35.3327 31.3329 35.6312 31.3329 35.9994C31.3329 36.3676 31.6313 36.6661 31.9995 36.6661H34.9995C35.2837 36.6654 35.5548 36.7857 35.745 36.9968C35.9352 37.208 36.0265 37.4901 35.9962 37.7727C35.9112 38.3042 35.442 38.688 34.9042 38.6661H25.0315C24.91 38.6651 24.791 38.631 24.6875 38.5674L21.9915 36.9527C21.6813 36.7667 21.3266 36.6677 20.9649 36.6661H14.6662V30.7387L15.8209 31.6841C16.6865 32.348 17.9072 32.2809 18.6949 31.5261C19.2807 30.9588 19.485 30.1036 19.2189 29.3327H21.4522C21.9769 29.3305 22.4797 29.1222 22.8522 28.7527L29.1242 22.5327L29.1475 22.5101L29.4189 22.2434C29.744 21.9255 30.2647 21.929 30.5855 22.2514C30.8783 22.5454 30.9069 23.0112 30.6522 23.3387L28.8189 25.5787C28.6569 25.7778 28.6236 26.0523 28.7333 26.2843C28.843 26.5164 29.0762 26.6648 29.3329 26.6661H36.9042C37.441 26.6451 37.9089 27.0283 37.9942 27.5587C38.0247 27.8411 37.9337 28.123 37.7439 28.3343C37.5541 28.5456 37.2835 28.6662 36.9995 28.6661H33.3329C32.9647 28.6661 32.6662 28.9645 32.6662 29.3327C32.6662 29.7009 32.9647 29.9994 33.3329 29.9994H37.5729C38.1084 29.9797 38.5748 30.3618 38.6609 30.8907ZM38.6662 14.9667C38.6652 15.0881 38.6313 15.207 38.5682 15.3107L36.9529 18.0067C36.7669 18.3168 36.6679 18.6712 36.6662 19.0327V25.3327H30.7389L31.6849 24.1774C32.3715 23.3191 32.3029 22.0818 31.5255 21.3047C30.9432 20.7459 30.1011 20.5518 29.3329 20.7994V18.5461C29.3306 18.0214 29.1223 17.5186 28.7529 17.1461L22.5329 10.8701L22.5202 10.8574L22.2449 10.5801C22.0887 10.4258 22.0014 10.2149 22.0029 9.99537C22.0044 9.77582 22.0946 9.56619 22.2529 9.41405C22.5509 9.12975 23.0104 9.10159 23.3409 9.34739L25.5802 11.1801C25.7793 11.3412 26.0532 11.374 26.2847 11.2644C26.5163 11.1548 26.6645 10.9222 26.6662 10.6661V3.09472C26.6456 2.55779 27.029 2.08994 27.5595 2.00472C27.8417 1.97444 28.1235 2.06553 28.3347 2.25527C28.5458 2.44502 28.6663 2.71554 28.6662 2.99939V6.66605C28.6662 7.03424 28.9647 7.33272 29.3329 7.33272C29.701 7.33272 29.9995 7.03424 29.9995 6.66605V2.42805C29.9786 1.89102 30.3622 1.423 30.8929 1.33805C31.1751 1.30777 31.4569 1.39886 31.668 1.58861C31.8791 1.77835 31.9996 2.04887 31.9995 2.33272V6.66605C31.9995 7.03424 32.298 7.33272 32.6662 7.33272C33.0344 7.33272 33.3329 7.03424 33.3329 6.66605V3.66605C33.3324 3.38197 33.4527 3.11109 33.6639 2.92105C33.875 2.73101 34.1571 2.63975 34.4395 2.67005C34.9707 2.75506 35.3545 3.22385 35.3329 3.76139V7.99939C35.3329 8.36758 35.6313 8.66605 35.9995 8.66605C36.3677 8.66605 36.6662 8.36758 36.6662 7.99939V4.99939C36.6657 4.71531 36.7861 4.44443 36.9972 4.25439C37.2084 4.06435 37.4904 3.97308 37.7729 4.00339C38.3036 4.08864 38.6872 4.55687 38.6662 5.09405V14.9667Z" fill="#8C64D8"/>
</g>
<defs>
<clipPath id="clip0_1135_4794">
<rect width="40" height="40" fill="white"/>
</clipPath>
</defs>
</svg>
