<svg width="40" height="40" viewBox="0 0 40 40" fill="none" xmlns="http://www.w3.org/2000/svg">
<g clip-path="url(#clip0_1135_4826)">
<path d="M39.1126 6.74565L20.4526 0.0789783C20.1579 -0.025024 19.8366 -0.025024 19.5419 0.0789783L0.88657 6.74565C0.357823 6.93624 0.00537109 7.43793 0.00537109 7.99998C0.00537109 8.56203 0.357823 9.06372 0.88657 9.25431L9.9999 12.5103V16.667C9.9999 19.259 18.9766 19.3336 19.9999 19.3336C21.0232 19.3336 29.9999 19.259 29.9999 16.667V12.5103L31.9999 11.8003V13.3336C31.9999 14.07 32.5969 14.667 33.3332 14.667H34.6666C35.403 14.667 35.9999 14.07 35.9999 13.3336V11.3336C35.9979 11.0249 35.9235 10.721 35.7826 10.4463L39.1159 9.25431C39.6447 9.06372 39.9971 8.56203 39.9971 7.99998C39.9971 7.43793 39.6447 6.93624 39.1159 6.74565H39.1126ZM28.6666 15.2003C26.1272 14.0443 20.7766 14.0003 19.9999 14.0003C19.2232 14.0003 13.8726 14.0443 11.3332 15.2003V9.39231C11.7332 8.87898 14.8772 8.00031 19.9999 8.00031C25.1226 8.00031 28.2666 8.87898 28.6666 9.39231V15.2003ZM19.9999 18.0003C15.0666 18.0003 11.9686 17.1856 11.3892 16.667C11.9686 16.1483 15.0679 15.3336 19.9999 15.3336C24.9319 15.3336 28.0312 16.1483 28.6106 16.667C28.0312 17.1856 24.9332 18.0003 19.9999 18.0003ZM32.3126 10.2703L29.9999 11.095V9.33365C29.9999 6.74165 21.0232 6.66698 19.9999 6.66698C18.9766 6.66698 9.9999 6.74165 9.9999 9.33365V11.0943L1.33324 8.00031L20.0092 1.33365L33.3332 6.09498V9.45631C32.9117 9.60611 32.5524 9.89266 32.3126 10.2703ZM34.6666 13.3336H33.3332V11.3336C33.3332 10.9655 33.6317 10.667 33.9999 10.667C34.3681 10.667 34.6666 10.9655 34.6666 11.3336V13.3336ZM34.6666 9.42965V6.57165L38.6666 8.00031L34.6666 9.42965Z" fill="#8C64D8"/>
<path d="M38 20.6669C37.96 20.6668 37.92 20.6704 37.8807 20.6776C31.9656 21.5972 25.986 22.0395 20 22.0003C14.014 22.0395 8.03445 21.5972 2.11933 20.6776C2.0799 20.6709 2.04 20.6673 2 20.6669C1.53333 20.6669 0 21.1956 0 28.0003C0 34.8049 1.53333 35.3336 2 35.3336C2.04003 35.3328 2.07993 35.3287 2.11933 35.3216C6.66447 34.6017 11.2523 34.1834 15.8527 34.0696L14.5513 37.1909C14.3514 37.6907 14.473 38.2618 14.8591 38.6368C15.2452 39.0119 15.8196 39.1167 16.3133 38.9023L16.8233 38.6843L17.044 39.1916C17.2524 39.6835 17.7357 40.0023 18.27 40.0003H18.2867C18.8249 39.9961 19.3075 39.6675 19.5087 39.1683L20.6667 36.3963L21.8207 39.1576C22.0201 39.6616 22.5047 39.9947 23.0467 40.0003H23.0667C23.5973 40.0024 24.078 39.6876 24.288 39.2003L24.5107 38.6889L25.0127 38.9043C25.5086 39.1232 26.0877 39.0189 26.4761 38.6408C26.8645 38.2626 26.9842 37.6865 26.7787 37.1849L25.5027 34.1249C29.6504 34.2718 33.7853 34.6725 37.884 35.3249C37.9223 35.3313 37.9612 35.3342 38 35.3336C38.4667 35.3336 40 34.8049 40 28.0003C40 21.1956 38.4667 20.6669 38 20.6669ZM22.1333 23.3136C22.4102 24.3316 22.5714 25.3775 22.614 26.4316C21.1024 25.7287 19.3295 25.8935 17.9733 26.8629C17.9392 25.6658 17.7858 24.475 17.5153 23.3083C18.3229 23.3252 19.1511 23.3336 20 23.3336C20.7287 23.3336 21.436 23.3256 22.1333 23.3136ZM20.6667 34.0003C18.8257 34.0003 17.3333 32.5079 17.3333 30.6669C17.3333 28.826 18.8257 27.3336 20.6667 27.3336C22.5076 27.3336 24 28.826 24 30.6669C23.9978 32.507 22.5067 33.9981 20.6667 34.0003ZM2 22.3336C2.51081 24.1773 2.73565 26.0884 2.66667 28.0003C2.73565 29.9121 2.51081 31.8233 2 33.6669C1.48919 31.8233 1.26435 29.9121 1.33333 28.0003C1.26435 26.0884 1.48919 24.1773 2 22.3336ZM3.34667 33.7803C3.71133 32.7229 4 30.9536 4 28.0003C4 25.0469 3.71133 23.2776 3.346 22.2189C7.58239 22.804 11.8477 23.1563 16.1227 23.2743C16.5225 24.8167 16.7056 26.4073 16.6667 28.0003C16.6667 28.0969 16.6667 28.1889 16.6627 28.2816C15.8626 29.6093 15.782 31.2498 16.448 32.6496L16.4187 32.7203C12.0448 32.8275 7.68052 33.1818 3.34667 33.7816V33.7803ZM18.2713 38.6669L17.7847 37.5469C17.6383 37.2106 17.2478 37.0557 16.9107 37.2003L15.7887 37.6963L17.352 33.9483C17.9938 34.5986 18.8126 35.0461 19.7067 35.2349L18.2713 38.6669ZM24.4227 37.2003C24.0856 37.0557 23.695 37.2106 23.5487 37.5469L23.0553 38.6556L21.626 35.2336C22.5207 35.0447 23.3402 34.597 23.9827 33.9463L25.5427 37.6796L24.4227 37.2003ZM37.8667 33.9669C33.5835 33.3077 29.2646 32.907 24.9333 32.7669L24.886 32.6523C25.7244 30.8856 25.365 28.7828 23.9873 27.3949C23.9822 26.0124 23.8225 24.6347 23.5113 23.2876C28.3185 23.18 33.1137 22.7609 37.8667 22.0329C38.176 22.5583 38.6667 24.6363 38.6667 28.0003C38.6667 31.3643 38.1727 33.4416 37.8667 33.9669Z" fill="#8C64D8"/>
</g>
<defs>
<clipPath id="clip0_1135_4826">
<rect width="40" height="40" fill="white"/>
</clipPath>
</defs>
</svg>
