<svg width="40" height="40" viewBox="0 0 40 40" fill="none" xmlns="http://www.w3.org/2000/svg">
<path d="M39.9277 32.3838C39.74 31.4805 39.209 30.7087 38.4323 30.2103C37.6556 29.7123 36.7331 29.5515 35.8334 29.7571L31.6641 30.7117V29.0073C32.5003 28.2197 33.371 27.1912 33.9902 26.2513C35.076 24.603 35.8444 22.793 36.2741 20.8726C36.785 18.5877 36.796 16.1689 36.3055 13.8767C36.2152 13.455 35.7999 13.1858 35.3781 13.2764C34.9561 13.3665 34.6875 13.7818 34.7775 14.2039C35.2213 16.2769 35.2115 18.465 34.7491 20.5314C34.361 22.2666 33.6664 23.902 32.6852 25.3916C32.3944 25.8332 32.0416 26.2964 31.6641 26.739V18.0793C31.6641 17.6478 31.3144 17.298 30.8829 17.298H24.7028V8.95514C24.7028 8.52484 24.3546 8.17542 23.9243 8.17389L16.9629 8.15039C16.962 8.15039 16.9614 8.15039 16.9604 8.15039C16.7535 8.15039 16.5552 8.23218 16.409 8.37836C16.2619 8.52484 16.1792 8.72382 16.1792 8.93164V13.2715H9.99817C9.56696 13.2715 9.21692 13.6213 9.21692 14.0528V21.7893H7.4762V20.7282C7.4762 20.297 7.12646 19.9473 6.69495 19.9473H5.89355C5.75714 19.1962 5.6781 18.4333 5.65948 17.6716C5.61371 15.8195 5.90729 14.0073 6.53168 12.2849C6.67725 11.8833 6.84265 11.4829 7.02301 11.0953C7.2052 10.7041 7.03552 10.2393 6.64459 10.0571C6.25336 9.87555 5.78857 10.0446 5.60669 10.4359C5.4068 10.8649 5.22369 11.308 5.06287 11.7524C4.37195 13.6582 4.04724 15.6629 4.09729 17.71C4.11591 18.4583 4.18732 19.2072 4.30847 19.9473H0.78125C0.349731 19.9473 0 20.297 0 20.7285V34.4608C0 34.8923 0.349731 35.2421 0.78125 35.2421H6.69495C7.12646 35.2421 7.4762 34.8923 7.4762 34.4608V33.718H10.415L22.3196 38.3872C23.4311 38.8233 24.5953 39.0427 25.7657 39.0427C26.546 39.0427 27.3297 38.9451 28.1015 38.7488L37.4323 36.3773C39.2035 35.9272 40.2994 34.173 39.9277 32.3838ZM30.1019 18.8605V31.0694L28.0133 31.5476C27.7887 31.5989 27.5616 31.6395 27.3334 31.6712C26.463 31.7911 25.575 31.7658 24.7137 31.5952C24.7101 31.5943 24.7064 31.5937 24.7028 31.5928V30.4081C25.2985 29.5194 25.4959 28.3927 25.1837 27.3643C25.0967 27.0774 24.9731 26.8006 24.816 26.5452C24.7803 26.4872 24.743 26.4304 24.7043 26.3749C24.704 26.374 24.7034 26.3734 24.7028 26.3724V18.8602H30.1019V18.8605ZM17.7417 9.71564L23.1406 9.73364V25.1316L20.1233 23.8828L17.7417 22.8968V9.71564ZM10.7794 14.834H16.1783V22.2495L15.2094 21.8485C15.1144 21.8091 15.0128 21.789 14.9106 21.789H10.7794V14.834ZM5.9137 33.6796H1.5625V21.5095H5.24841C5.24994 21.5095 5.25177 21.5098 5.2536 21.5098C5.25513 21.5098 5.25635 21.5095 5.25787 21.5095H5.9137V33.6796ZM37.0474 34.863L27.7167 37.2346C26.106 37.6438 24.437 37.5391 22.89 36.9327L10.8481 32.2095C10.7571 32.1738 10.6604 32.1558 10.5627 32.1558H7.4762V23.3518H14.7549L19.8099 25.4441L22.576 26.5891C23.5547 26.995 24.0231 28.1431 23.6218 29.1205C23.5413 29.3168 23.4415 29.5032 23.309 29.6696C22.8198 30.2869 22.0145 30.5591 21.2613 30.376C21.2552 30.3745 21.2491 30.373 21.243 30.3715C21.1978 30.3602 21.153 30.347 21.1084 30.3324L15.8517 28.3115C15.809 28.295 15.7864 28.2865 15.7864 28.2865C15.3839 28.1315 14.9319 28.3326 14.7769 28.7354C14.6222 29.1379 14.823 29.5902 15.2258 29.7449C15.2258 29.7449 18.1897 30.8845 20.4498 31.756C20.4953 31.7737 20.5405 31.7902 20.5859 31.8055L22.3215 32.4729C22.8461 32.6746 23.3682 32.8754 23.9142 33.0149C24.8413 33.2517 25.8035 33.3469 26.7593 33.2947C27.2983 33.2654 27.8363 33.191 28.3624 33.0707L31.0574 32.454C31.0602 32.4534 31.0629 32.4521 31.0657 32.4515L36.1823 31.2803C36.669 31.1689 37.1686 31.2559 37.5885 31.5253C38.009 31.7951 38.2962 32.2129 38.3978 32.7018C38.5992 33.6701 38.006 34.6195 37.0474 34.863Z" fill="#8C64D8"/>
<path d="M9.99065 6.57227C10.1774 6.57227 10.3648 6.50574 10.514 6.37086C11.9081 5.1117 13.5728 4.10737 15.3291 3.46619C17.2319 2.77161 19.3177 2.47529 21.3615 2.60956C22.8242 2.70569 24.2573 3.01789 25.6208 3.5373C26.0237 3.6908 26.4753 3.48878 26.6288 3.08533C26.7826 2.6822 26.5803 2.23084 26.1769 2.07734C24.6681 1.50239 23.0824 1.15693 21.464 1.05042C19.2051 0.902105 16.8983 1.22986 14.7932 1.9986C12.8501 2.70783 11.0084 3.81898 9.46697 5.21119C9.14654 5.50049 9.12151 5.99457 9.41082 6.3147C9.56493 6.4856 9.77733 6.57227 9.99065 6.57227Z" fill="#8C64D8"/>
<path d="M27.7256 12.1478C27.8736 12.2763 28.0561 12.3392 28.2377 12.3392C28.4559 12.3392 28.6732 12.2482 28.8279 12.0706L35.2555 4.67164C35.5387 4.34601 35.504 3.85254 35.1783 3.56965C34.8524 3.28675 34.3592 3.32123 34.0763 3.64686L27.6484 11.0458C27.3652 11.3715 27.4 11.8649 27.7256 12.1478Z" fill="#8C64D8"/>
<path d="M33.4858 8.80768C32.4042 8.80768 31.5244 9.6875 31.5244 10.769C31.5244 11.8506 32.4042 12.7304 33.4858 12.7304C34.5673 12.7304 35.4471 11.8503 35.4471 10.769C35.4471 9.6875 34.5673 8.80768 33.4858 8.80768ZM33.4858 11.1679C33.2657 11.1679 33.0869 10.9891 33.0869 10.769C33.0869 10.5493 33.2657 10.3702 33.4858 10.3702C33.7055 10.3702 33.8846 10.5493 33.8846 10.769C33.8846 10.9891 33.7055 11.1679 33.4858 11.1679Z" fill="#8C64D8"/>
<path d="M29.1474 7.06824C30.2289 7.06824 31.1088 6.18842 31.1088 5.10687C31.1088 4.02533 30.2289 3.14551 29.1474 3.14551C28.0659 3.14551 27.186 4.02533 27.186 5.10687C27.186 6.18842 28.0659 7.06824 29.1474 7.06824ZM29.1474 4.7077C29.3674 4.7077 29.5463 4.88684 29.5463 5.10687C29.5463 5.3266 29.3674 5.50574 29.1474 5.50574C28.9274 5.50574 28.7485 5.3266 28.7485 5.10687C28.7485 4.88684 28.9274 4.7077 29.1474 4.7077Z" fill="#8C64D8"/>
<path d="M7.21316 8.40821C7.33828 8.7085 7.6462 8.90686 7.97243 8.88977C8.295 8.87299 8.5776 8.65479 8.67739 8.34839C8.7781 8.03925 8.66823 7.68708 8.40975 7.48963C8.14638 7.28882 7.77651 7.27631 7.50063 7.45972C7.19454 7.66327 7.07186 8.06916 7.21316 8.40821Z" fill="#8C64D8"/>
</svg>
