<svg width="56" height="56" viewBox="0 0 56 56" fill="none" xmlns="http://www.w3.org/2000/svg">
<g clip-path="url(#clip0_761_1184)">
<path d="M23.0559 39.3313H18.5942C17.9903 39.3313 17.5005 38.8415 17.5005 38.2375C17.5005 37.6336 17.9902 37.1438 18.5942 37.1438H23.0559C23.6598 37.1438 24.1496 37.6336 24.1496 38.2375C24.1496 38.8415 23.6598 39.3313 23.0559 39.3313Z" fill="#8C64D8"/>
<path d="M37.406 39.3313H32.9443C32.3404 39.3313 31.8506 38.8415 31.8506 38.2375C31.8506 37.6336 32.3403 37.1438 32.9443 37.1438H37.406C38.0099 37.1438 38.4997 37.6336 38.4997 38.2375C38.4997 38.8415 38.0099 39.3313 37.406 39.3313Z" fill="#8C64D8"/>
<path d="M27.9802 39.3311C27.5239 39.3311 27.1036 39.0362 26.9506 38.6057C26.7997 38.1812 26.9283 37.695 27.2728 37.4037C27.6323 37.0995 28.1568 37.063 28.557 37.3092C28.9399 37.5449 29.1399 38.01 29.0522 38.4506C28.9515 38.956 28.4957 39.3311 27.9802 39.3311V39.3311Z" fill="#8C64D8"/>
<path d="M34.3484 43.6405H21.6519C21.0479 43.6405 20.5581 43.1507 20.5581 42.5468C20.5581 41.9428 21.0478 41.453 21.6519 41.453H34.3484C34.9524 41.453 35.4422 41.9428 35.4422 42.5468C35.4422 43.1507 34.9525 43.6405 34.3484 43.6405Z" fill="#8C64D8"/>
<path d="M32.6505 25.8586C34.1202 24.5657 35.0491 22.6718 35.0491 20.565C35.0491 16.6779 31.8869 13.5155 27.9999 13.5155C24.1129 13.5155 20.9507 16.6779 20.9507 20.565C20.9507 22.6718 21.8796 24.5657 23.3493 25.8586C20.866 26.807 19.0977 29.2142 19.0977 32.0268V33.902C19.0977 34.506 19.5873 34.9958 20.1914 34.9958H35.8085C36.4125 34.9958 36.9023 34.506 36.9023 33.902V32.0268C36.9022 29.2142 35.1338 26.807 32.6505 25.8586V25.8586ZM27.9999 15.703C30.6808 15.703 32.8617 17.884 32.8617 20.565C32.8617 23.246 30.6807 25.4271 27.9999 25.4271C25.3191 25.4271 23.1381 23.246 23.1381 20.565C23.1381 17.884 25.319 15.703 27.9999 15.703ZM34.7148 32.8082H21.285V32.0267C21.285 29.5938 23.2643 27.6145 25.697 27.6145H30.3027C32.7354 27.6145 34.7147 29.5938 34.7147 32.0267V32.8082H34.7148Z" fill="#8C64D8"/>
<path d="M13.2022 54.8313C12.3615 54.8313 11.5309 54.5669 10.8203 54.0505C9.65593 53.2045 9.03501 51.8432 9.15948 50.4092L10.3992 36.1205L0.998898 25.2896C0.0554292 24.2026 -0.242289 22.7365 0.202539 21.3676C0.647148 19.9988 1.74976 18.9877 3.15173 18.6629L17.1222 15.4268L24.5165 3.13809C25.2586 1.90489 26.5609 1.16858 28 1.16858C29.4391 1.16858 30.7414 1.90478 31.4835 3.13809L38.8778 15.4268L52.8482 18.6629C54.2502 18.9877 55.3526 19.9988 55.7974 21.3676C56.2422 22.7366 55.9446 24.2027 55.0012 25.2896L45.6007 36.1205L46.8405 50.4093C46.9649 51.8432 46.344 53.2045 45.1796 54.0505C44.0152 54.8964 42.5289 55.0662 41.2041 54.5048L28 48.9099L14.7959 54.5049C14.2796 54.7236 13.7388 54.8313 13.2022 54.8313V54.8313ZM28 3.35619C27.3351 3.35619 26.7335 3.69634 26.3907 4.26608L18.7575 16.9517C18.6048 17.2055 18.3556 17.3865 18.0672 17.4533L3.64534 20.7941C2.99762 20.9441 2.48826 21.4113 2.28285 22.0437C2.07745 22.6761 2.21493 23.3537 2.65079 23.8558L12.355 35.0367C12.5491 35.2603 12.6442 35.5531 12.6187 35.8481L11.3388 50.5984C11.2812 51.2611 11.5681 51.89 12.106 52.2808C12.6437 52.6715 13.3303 52.7502 13.9424 52.4906L27.5732 46.715C27.846 46.5993 28.1538 46.5993 28.4265 46.715L42.0573 52.4906C42.6694 52.7499 43.3558 52.6715 43.8937 52.2808C44.4317 51.89 44.7186 51.2611 44.661 50.5985L43.3811 35.8481C43.3556 35.5531 43.4506 35.2603 43.6448 35.0367L53.3491 23.8558C53.7849 23.3535 53.9224 22.6762 53.7169 22.0437C53.5114 21.4113 53.002 20.9441 52.3544 20.7941L37.9325 17.4534C37.644 17.3866 37.395 17.2056 37.2423 16.9518L29.609 4.26619C29.2663 3.69634 28.6649 3.35619 28 3.35619V3.35619Z" fill="#8C64D8"/>
</g>
<defs>
<clipPath id="clip0_761_1184">
<rect width="56" height="56" fill="white"/>
</clipPath>
</defs>
</svg>
