<svg width="40" height="40" viewBox="0 0 40 40" fill="none" xmlns="http://www.w3.org/2000/svg">
<g clip-path="url(#clip0_1135_4805)">
<path d="M16.4686 28.0938H13.2817C12.8503 28.0938 12.5005 27.7439 12.5005 27.3125C12.5005 26.8811 12.8503 26.5312 13.2817 26.5312H16.4686C16.9 26.5312 17.2499 26.8811 17.2499 27.3125C17.2499 27.7439 16.9 28.0938 16.4686 28.0938Z" fill="#8C64D8"/>
<path d="M26.7186 28.0938H23.5317C23.1003 28.0938 22.7505 27.7439 22.7505 27.3125C22.7505 26.8811 23.1003 26.5312 23.5317 26.5312H26.7186C27.15 26.5312 27.4999 26.8811 27.4999 27.3125C27.4999 27.7439 27.15 28.0938 26.7186 28.0938Z" fill="#8C64D8"/>
<path d="M19.9861 28.0942C19.6601 28.0942 19.3599 27.8835 19.2506 27.576C19.1429 27.2728 19.2347 26.9256 19.4808 26.7174C19.7376 26.5002 20.1122 26.4741 20.398 26.6499C20.6716 26.8183 20.8144 27.1506 20.7518 27.4653C20.6798 27.8263 20.3543 28.0942 19.9861 28.0942Z" fill="#8C64D8"/>
<path d="M24.5343 31.1721H15.4653C15.0339 31.1721 14.6841 30.8222 14.6841 30.3908C14.6841 29.9594 15.0338 29.6096 15.4653 29.6096H24.5343C24.9657 29.6096 25.3156 29.9594 25.3156 30.3908C25.3156 30.8222 24.9658 31.1721 24.5343 31.1721Z" fill="#8C64D8"/>
<path d="M23.3217 18.4707C24.3715 17.5471 25.035 16.1944 25.035 14.6896C25.035 11.913 22.7763 9.65417 19.9999 9.65417C17.2235 9.65417 14.9647 11.913 14.9647 14.6896C14.9647 16.1944 15.6282 17.5471 16.678 18.4707C14.9042 19.1481 13.6411 20.8675 13.6411 22.8765V24.216C13.6411 24.6474 13.9909 24.9972 14.4224 24.9972H25.5774C26.0088 24.9972 26.3587 24.6474 26.3587 24.216V22.8765C26.3586 20.8675 25.0955 19.1481 23.3217 18.4707ZM19.9999 11.2167C21.9148 11.2167 23.4726 12.7746 23.4726 14.6896C23.4726 16.6046 21.9147 18.1625 19.9999 18.1625C18.085 18.1625 16.5271 16.6046 16.5271 14.6896C16.5271 12.7746 18.0849 11.2167 19.9999 11.2167ZM24.7962 23.4346H15.2035V22.8764C15.2035 21.1387 16.6173 19.7249 18.3549 19.7249H21.6447C23.3824 19.7249 24.7961 21.1387 24.7961 22.8764V23.4346H24.7962Z" fill="#8C64D8"/>
<path d="M9.43014 39.1655C8.82967 39.1655 8.23639 38.9766 7.72881 38.6078C6.89709 38.0035 6.45358 37.0311 6.54248 36.0068L7.42803 25.8006L0.713499 18.0643C0.0395923 17.2879 -0.173064 16.2406 0.14467 15.2629C0.462249 14.2851 1.24983 13.5629 2.25123 13.3309L12.2301 11.0194L17.5118 2.24176C18.0419 1.3609 18.9721 0.834961 20 0.834961C21.028 0.834961 21.9581 1.36082 22.4882 2.24176L27.7698 11.0194L37.7487 13.3309C38.7501 13.5629 39.5376 14.2851 39.8553 15.2629C40.173 16.2407 39.9605 17.2879 39.2865 18.0643L32.5719 25.8006L33.4575 36.0069C33.5464 37.0311 33.1029 38.0035 32.2712 38.6078C31.4394 39.212 30.3778 39.3332 29.4315 38.9322L20 34.9359L10.5685 38.9323C10.1997 39.0886 9.81342 39.1655 9.43014 39.1655ZM20 2.39754C19.5251 2.39754 19.0954 2.64051 18.8505 3.04746L13.3982 12.1086C13.2891 12.2899 13.1112 12.4192 12.9051 12.4669L2.60381 14.8532C2.14115 14.9604 1.77733 15.294 1.63061 15.7457C1.48389 16.1975 1.58209 16.6814 1.89342 17.0401L8.82498 25.0264C8.96365 25.1862 9.03155 25.3954 9.01334 25.6061L8.09912 36.142C8.05803 36.6154 8.26295 37.0646 8.64717 37.3437C9.03123 37.6228 9.52162 37.679 9.95889 37.4936L19.6951 33.3681C19.89 33.2855 20.1098 33.2855 20.3047 33.3681L30.0409 37.4936C30.4781 37.6788 30.9684 37.6228 31.3526 37.3437C31.7369 37.0646 31.9419 36.6154 31.9007 36.1421L30.9865 25.6061C30.9683 25.3954 31.0362 25.1862 31.1748 25.0264L38.1065 17.0401C38.4178 16.6814 38.516 16.1975 38.3692 15.7457C38.2224 15.294 37.8586 14.9604 37.396 14.8532L27.0947 12.467C26.8886 12.4193 26.7107 12.29 26.6016 12.1087L21.1493 3.04754C20.9045 2.64051 20.4749 2.39754 20 2.39754Z" fill="#8C64D8"/>
</g>
<defs>
<clipPath id="clip0_1135_4805">
<rect width="40" height="40" fill="white"/>
</clipPath>
</defs>
</svg>
