<svg width="56" height="56" viewBox="0 0 56 56" fill="none" xmlns="http://www.w3.org/2000/svg">
<path d="M53.1973 23.4393C52.6307 23.4393 52.1719 23.8988 52.1719 24.4646V28.1189C52.1719 30.2158 50.4656 31.9221 48.3686 31.9221H42.5239C42.2519 31.9221 41.9913 32.0298 41.7988 32.222L34.713 39.3081V32.9475C34.713 32.381 34.2538 31.9221 33.6876 31.9221H19.0066C16.9097 31.9221 15.2033 30.2161 15.2033 28.1189V12.6076C15.2033 10.5107 16.9097 8.80469 19.0066 8.80469H48.3686C50.4656 8.80469 52.1719 10.5107 52.1719 12.6076V16.2615C52.1719 16.828 52.6307 17.2869 53.1973 17.2869C53.7631 17.2869 54.2227 16.828 54.2227 16.2615V12.6076C54.2227 9.37987 51.5967 6.75391 48.3686 6.75391H19.0066C15.7785 6.75391 13.1526 9.37987 13.1526 12.6076V25.781H5.68932C3.50235 25.781 1.72266 27.56 1.72266 29.7477V39.1966C1.72266 41.3842 3.50235 43.1633 5.68932 43.1633H8.82541L13.9075 48.2457C14.1039 48.4421 14.3664 48.5463 14.633 48.5463C14.765 48.5463 14.8986 48.5206 15.0252 48.4681C15.4084 48.3095 15.6584 47.9358 15.6584 47.5209V43.1633H23.5763C25.7636 43.1633 27.543 41.3842 27.543 39.1966V33.9729H32.6622V41.7835C32.6622 42.1985 32.9122 42.5721 33.2954 42.7307C33.422 42.7832 33.5553 42.8089 33.6876 42.8089C33.9545 42.8089 34.2166 42.7047 34.4127 42.5083L42.9485 33.9729H48.3686C51.5967 33.9729 54.2227 31.3469 54.2227 28.1189V24.4646C54.2227 23.8988 53.7631 23.4393 53.1973 23.4393V23.4393ZM25.4925 39.1966C25.4925 40.2534 24.6331 41.1125 23.5763 41.1125H14.633C14.0664 41.1125 13.6076 41.572 13.6076 42.1379V45.0455L9.97513 41.4131C9.78287 41.2208 9.52203 41.1125 9.24998 41.1125H5.68932C4.63284 41.1125 3.77344 40.2534 3.77344 39.1966V29.7477C3.77344 28.6912 4.63284 27.8318 5.68932 27.8318H13.1526V28.1189C13.1526 31.3469 15.7785 33.9729 19.0066 33.9729H25.4925V39.1966Z" fill="#8C64D8"/>
<path d="M43.6851 13.4734H23.6899C23.1237 13.4734 22.6646 13.9326 22.6646 14.4988C22.6646 15.0654 23.1237 15.5242 23.6899 15.5242H43.6851C44.2513 15.5242 44.7104 15.0654 44.7104 14.4988C44.7104 13.9326 44.2513 13.4734 43.6851 13.4734V13.4734Z" fill="#8C64D8"/>
<path d="M44.7104 20.0363C44.7104 19.47 44.2513 19.0109 43.6851 19.0109H23.6899C23.1237 19.0109 22.6646 19.47 22.6646 20.0363C22.6646 20.6028 23.1237 21.0616 23.6899 21.0616H43.6851C44.2513 21.0616 44.7104 20.6028 44.7104 20.0363Z" fill="#8C64D8"/>
<path d="M23.6899 24.548C23.1237 24.548 22.6646 25.0072 22.6646 25.5734C22.6646 26.1399 23.1237 26.5988 23.6899 26.5988H35.2256C35.7918 26.5988 36.251 26.1399 36.251 25.5734C36.251 25.0072 35.7918 24.548 35.2256 24.548H23.6899Z" fill="#8C64D8"/>
<path d="M53.1973 19.3377C52.6327 19.3377 52.1719 19.7985 52.1719 20.3631C52.1719 20.928 52.6327 21.3885 53.1973 21.3885C53.7619 21.3885 54.2227 20.928 54.2227 20.3631C54.2227 19.7985 53.7619 19.3377 53.1973 19.3377Z" fill="#8C64D8"/>
</svg>
