<svg width="64" height="64" viewBox="0 0 64 64" fill="none" xmlns="http://www.w3.org/2000/svg">
<path d="M61.4054 38.4865H56.3398V31.9383C56.3398 31.197 55.8456 30.7027 55.1042 30.7027H33.2355V25.39H38.3012C39.7838 25.39 40.8957 24.278 40.8957 22.7954V10.3166C40.8957 8.83402 39.7838 7.72205 38.3012 7.72205H25.6988C24.2162 7.72205 23.1042 8.83402 23.1042 10.3166V22.919C23.1042 24.4016 24.2162 25.5136 25.6988 25.5136H30.7645V30.7027H8.89575C8.15444 30.7027 7.66023 31.197 7.66023 31.9383V38.4865H2.59459C1.11197 38.4865 0 39.5985 0 41.0811V53.6834C0 55.1661 1.11197 56.278 2.59459 56.278H15.1969C16.6795 56.278 17.7915 55.1661 17.7915 53.6834V41.0811C17.7915 39.5985 16.6795 38.4865 15.1969 38.4865H10.1313V33.1738H30.7645V38.4865H25.6988C24.2162 38.4865 23.1042 39.5985 23.1042 41.0811V53.6834C23.1042 55.1661 24.2162 56.278 25.6988 56.278H38.3012C39.7838 56.278 40.8957 55.1661 40.8957 53.6834V41.0811C40.8957 39.5985 39.7838 38.4865 38.3012 38.4865H33.2355V33.1738H53.8687V38.4865H48.8031C47.3205 38.4865 46.2085 39.5985 46.2085 41.0811V53.6834C46.2085 55.1661 47.3205 56.278 48.8031 56.278H61.4054C62.888 56.278 64 55.1661 64 53.6834V41.0811C64 39.5985 62.7645 38.4865 61.4054 38.4865ZM15.3205 41.0811C15.1969 40.9576 15.3205 40.9576 15.3205 41.0811V53.6834C15.3205 53.807 15.3205 53.807 15.1969 53.807H2.59459C2.47104 53.807 2.47104 53.807 2.47104 53.6834V41.0811C2.47104 40.9576 2.47104 40.9576 2.59459 40.9576L15.3205 41.0811ZM38.4247 41.0811C38.3012 40.9576 38.4247 40.9576 38.4247 41.0811V53.6834C38.4247 53.807 38.4247 53.807 38.3012 53.807H25.6988C25.5753 53.807 25.5753 53.807 25.5753 53.6834V41.0811C25.5753 40.9576 25.5753 40.9576 25.6988 40.9576L38.4247 41.0811ZM25.5753 22.7954C25.6988 22.919 25.5753 22.919 25.5753 22.7954V10.3166C25.5753 10.1931 25.5753 10.1931 25.6988 10.1931H38.3012C38.4247 10.1931 38.4247 10.1931 38.4247 10.3166V22.919C38.4247 23.0425 38.4247 23.0425 38.3012 23.0425L25.5753 22.7954ZM61.529 53.5599C61.529 53.6834 61.4054 53.6834 61.529 53.5599L48.8031 53.6834C48.6795 53.6834 48.6795 53.6834 48.6795 53.5599V41.0811C48.6795 40.9576 48.6795 40.9576 48.8031 40.9576H61.4054C61.529 40.9576 61.529 40.9576 61.529 41.0811V53.5599Z" fill="black"/>
</svg>
