<svg width="287" height="280" viewBox="0 0 287 280" fill="none" xmlns="http://www.w3.org/2000/svg">
<path d="M246.097 361L240.202 374.793L256.659 350.349L246.097 361ZM11 127.885L16.5586 113.953L0.438391 138.536L11 127.885ZM402 283.887L396.441 297.819L412.793 273.47L402 283.887ZM50.7747 -80L57.8855 -93.2075L39.982 -69.5828L50.7747 -80ZM377.496 95.9025L370.385 109.11L390.845 89.0612L377.496 95.9025ZM59.7947 297.68L240.202 374.793L251.993 347.207L71.5859 270.094L59.7947 297.68ZM256.659 350.349L21.5616 117.233L0.438391 138.536L235.536 371.651L256.659 350.349ZM5.44135 141.817L396.441 297.819L407.559 269.955L16.5586 113.953L5.44135 141.817ZM412.793 273.47L61.5675 -90.4172L39.982 -69.5828L391.207 294.304L412.793 273.47ZM43.664 -66.7925L370.385 109.11L384.607 82.695L57.8855 -93.2075L43.664 -66.7925ZM390.845 89.0612L376.64 61.3432L349.942 75.0258L364.147 102.744L390.845 89.0612Z" fill="#8C64D8"/>
</svg>
