<svg width="64" height="64" viewBox="0 0 64 64" fill="none" xmlns="http://www.w3.org/2000/svg">
<g clip-path="url(#clip0_1432_4109)">
<path d="M1 64.0004H17.8489C18.1141 64.0004 18.3684 63.895 18.556 63.7075C18.7435 63.5199 18.8489 63.2656 18.8489 63.0004V59.3646C18.8462 57.3985 18.1865 55.4896 16.9747 53.9414C15.7628 52.3932 14.0683 51.2943 12.1604 50.8195C13.2317 50.2149 14.0726 49.2725 14.5518 48.1395C15.0309 47.0064 15.1212 45.7466 14.8087 44.5568C14.4961 43.367 13.7983 42.3142 12.8242 41.563C11.8501 40.8117 10.6545 40.4042 9.42437 40.4042C8.1942 40.4042 6.99868 40.8117 6.02456 41.563C5.05045 42.3142 4.3526 43.367 4.04005 44.5568C3.7275 45.7466 3.81785 47.0064 4.29698 48.1395C4.7761 49.2725 5.61703 50.2149 6.68837 50.8195C4.78048 51.2944 3.086 52.3932 1.87418 53.9415C0.662349 55.4897 0.00268609 57.3985 0 59.3646L0 63.0004C0 63.2656 0.105357 63.5199 0.292893 63.7075C0.48043 63.895 0.734784 64.0004 1 64.0004ZM9.425 42.4072C10.1305 42.4073 10.8201 42.6165 11.4067 43.0084C11.9933 43.4004 12.4504 43.9575 12.7204 44.6093C12.9903 45.2611 13.061 45.9783 12.9233 46.6702C12.7857 47.3621 12.4459 47.9977 11.9471 48.4965C11.4482 48.9954 10.8126 49.3351 10.1207 49.4727C9.42879 49.6103 8.71159 49.5397 8.05981 49.2697C7.40804 48.9997 6.85096 48.5425 6.45901 47.9559C6.06707 47.3694 5.85787 46.6797 5.85787 45.9742C5.85893 45.0285 6.2351 44.1218 6.90384 43.4531C7.57258 42.7844 8.47928 42.4083 9.425 42.4072V42.4072ZM2 59.3646C2.00202 57.5608 2.71949 55.8314 3.995 54.5559C5.27051 53.2803 6.9999 52.5629 8.80375 52.5609H10.0451C11.849 52.5629 13.5784 53.2803 14.8539 54.5559C16.1294 55.8314 16.8469 57.5608 16.8489 59.3646V62.0004H15.3461V58.5222C15.3461 58.257 15.2408 58.0027 15.0532 57.8151C14.8657 57.6276 14.6113 57.5222 14.3461 57.5222C14.0809 57.5222 13.8266 57.6276 13.639 57.8151C13.4515 58.0027 13.3461 58.257 13.3461 58.5222V62.0004H5.50275V58.5222C5.50275 58.257 5.39739 58.0027 5.20986 57.8151C5.02232 57.6276 4.76797 57.5222 4.50275 57.5222C4.23753 57.5222 3.98318 57.6276 3.79564 57.8151C3.60811 58.0027 3.50275 58.257 3.50275 58.5222V62.0004H2V59.3646ZM57.3116 50.8195C58.383 50.2149 59.2239 49.2725 59.703 48.1395C60.1822 47.0064 60.2725 45.7466 59.9599 44.5568C59.6474 43.367 58.9496 42.3142 57.9754 41.563C57.0013 40.8117 55.8058 40.4042 54.5756 40.4042C53.3455 40.4042 52.1499 40.8117 51.1758 41.563C50.2017 42.3142 49.5039 43.367 49.1913 44.5568C48.8788 45.7466 48.9691 47.0064 49.4482 48.1395C49.9274 49.2725 50.7683 50.2149 51.8396 50.8195C49.9317 51.2943 48.2372 52.3932 47.0253 53.9414C45.8135 55.4896 45.1538 57.3985 45.1511 59.3646V63.0004C45.1511 63.2656 45.2565 63.5199 45.444 63.7075C45.6316 63.895 45.8859 64.0004 46.1511 64.0004H63C63.2652 64.0004 63.5196 63.895 63.7071 63.7075C63.8946 63.5199 64 63.2656 64 63.0004V59.3646C63.9973 57.3985 63.3377 55.4897 62.1259 53.9414C60.914 52.3932 59.2195 51.2943 57.3116 50.8195V50.8195ZM54.5755 42.407C55.281 42.407 55.9706 42.6161 56.5573 43.0081C57.1439 43.4 57.6011 43.9571 57.8711 44.6089C58.1411 45.2606 58.2117 45.9779 58.0741 46.6698C57.9365 47.3617 57.5968 47.9973 57.0979 48.4962C56.5991 48.9951 55.9635 49.3348 55.2716 49.4724C54.5796 49.6101 53.8624 49.5395 53.2106 49.2695C52.5588 48.9995 52.0017 48.5423 51.6098 47.9557C51.2178 47.3691 51.0086 46.6795 51.0086 45.974C51.0097 45.0284 51.3858 44.1219 52.0544 43.4533C52.723 42.7846 53.6295 42.4085 54.575 42.4072L54.5755 42.407ZM62 62.0004H60.4972V58.5222C60.4972 58.257 60.3919 58.0027 60.2044 57.8151C60.0168 57.6276 59.7625 57.5222 59.4972 57.5222C59.232 57.5222 58.9777 57.6276 58.7901 57.8151C58.6026 58.0027 58.4972 58.257 58.4972 58.5222V62.0004H50.6539V58.5222C50.6539 58.257 50.5485 58.0027 50.361 57.8151C50.1734 57.6276 49.9191 57.5222 49.6539 57.5222C49.3887 57.5222 49.1343 57.6276 48.9468 57.8151C48.7592 58.0027 48.6539 58.257 48.6539 58.5222V62.0004H47.1511V59.3646C47.1531 57.5608 47.8706 55.8314 49.1461 54.5559C50.4216 53.2803 52.151 52.5629 53.9549 52.5609H55.1964C57.0002 52.5629 58.7296 53.2804 60.005 54.5559C61.2805 55.8314 61.998 57.5608 62 59.3646V62.0004ZM22.575 59.3646V63.0004C22.575 63.2656 22.6804 63.5199 22.8679 63.7075C23.0554 63.895 23.3098 64.0004 23.575 64.0004H40.425C40.6902 64.0004 40.9446 63.895 41.1321 63.7075C41.3196 63.5199 41.425 63.2656 41.425 63.0004V59.3646C41.4223 57.3985 40.7626 55.4897 39.5508 53.9414C38.3389 52.3932 36.6444 51.2943 34.7365 50.8195C35.8078 50.2149 36.6487 49.2725 37.1278 48.1395C37.6069 47.0065 37.6972 45.7467 37.3847 44.5569C37.0721 43.3672 36.3743 42.3144 35.4002 41.5632C34.4261 40.8119 33.2306 40.4045 32.0005 40.4045C30.7704 40.4045 29.5749 40.8119 28.6008 41.5632C27.6267 42.3144 26.9289 43.3672 26.6163 44.5569C26.3038 45.7467 26.3941 47.0065 26.8732 48.1395C27.3523 49.2725 28.1932 50.2149 29.2645 50.8195C27.3564 51.2941 25.6617 52.3929 24.4496 53.9412C23.2376 55.4894 22.5777 57.3984 22.575 59.3646V59.3646ZM32 42.4072C32.7055 42.4072 33.3951 42.6164 33.9818 43.0083C34.5684 43.4003 35.0256 43.9573 35.2956 44.6091C35.5656 45.2609 35.6362 45.9781 35.4986 46.67C35.361 47.362 35.0213 47.9976 34.5224 48.4964C34.0236 48.9953 33.388 49.335 32.6961 49.4727C32.0041 49.6103 31.2869 49.5397 30.6351 49.2697C29.9833 48.9998 29.4262 48.5426 29.0343 47.956C28.6423 47.3694 28.4331 46.6797 28.4331 45.9742C28.4342 45.0286 28.8103 44.1219 29.479 43.4532C30.1477 42.7845 31.0543 42.4083 32 42.4072ZM31.3792 52.5609H32.6208C34.4246 52.5629 36.154 53.2803 37.4295 54.5559C38.705 55.8314 39.4225 57.5608 39.4245 59.3646V62.0004H37.9216V58.5222C37.9216 58.257 37.8163 58.0027 37.6287 57.8151C37.4412 57.6276 37.1868 57.5222 36.9216 57.5222C36.6564 57.5222 36.4021 57.6276 36.2145 57.8151C36.027 58.0027 35.9216 58.257 35.9216 58.5222V62.0004H28.0784V58.5222C28.0784 58.257 27.973 58.0027 27.7855 57.8151C27.5979 57.6276 27.3436 57.5222 27.0784 57.5222C26.8132 57.5222 26.5588 57.6276 26.3713 57.8151C26.1837 58.0027 26.0784 58.257 26.0784 58.5222V62.0004H24.575V59.3646C24.577 57.5607 25.2946 55.8312 26.5702 54.5557C27.8458 53.2802 29.5753 52.5627 31.3792 52.5609V52.5609ZM51.4062 19.054H42.6107C41.7912 17.5746 40.6481 16.2995 39.2668 15.3238C37.8854 14.3481 36.3015 13.697 34.6333 13.4192C36.1288 12.8088 37.3659 11.6978 38.1329 10.2762C38.8999 8.8546 39.1493 7.21067 38.8382 5.62555C38.5272 4.04044 37.6752 2.6126 36.4279 1.58622C35.1805 0.559832 33.6153 -0.00134277 32 -0.00134277C30.3847 -0.00134277 28.8195 0.559832 27.5721 1.58622C26.3248 2.6126 25.4728 4.04044 25.1618 5.62555C24.8507 7.21067 25.1001 8.8546 25.8671 10.2762C26.6341 11.6978 27.8712 12.8088 29.3668 13.4192C27.6985 13.697 26.1146 14.3481 24.7332 15.3238C23.3519 16.2995 22.2088 17.5746 21.3892 19.054H12.5938C11.3344 19.0554 10.1271 19.5563 9.23656 20.4468C8.34607 21.3373 7.84517 22.5446 7.84375 23.804V35.2415L6.99375 34.3464C6.81018 34.1581 6.55985 34.0497 6.29694 34.0446C6.03403 34.0396 5.77972 34.1383 5.58906 34.3194C5.3984 34.5005 5.28675 34.7494 5.27827 35.0122C5.26978 35.275 5.36516 35.5306 5.54375 35.7236L8.05212 38.3655C8.14257 38.4607 8.25088 38.5372 8.37088 38.5905C8.49088 38.6439 8.62021 38.6731 8.7515 38.6765C8.76013 38.6765 8.76863 38.6765 8.77738 38.6765C9.03368 38.6765 9.28018 38.578 9.466 38.4015L12.1075 35.8939C12.2949 35.7101 12.4025 35.4601 12.4072 35.1977C12.4118 34.9353 12.3131 34.6815 12.1324 34.4912C11.9517 34.301 11.7034 34.1893 11.4411 34.1805C11.1788 34.1716 10.9235 34.2662 10.7304 34.4439L9.84375 35.2854V23.804C9.84458 23.0749 10.1346 22.3759 10.6501 21.8604C11.1657 21.3448 11.8647 21.0548 12.5938 21.054H20.5231C20.1691 22.1578 19.9892 23.31 19.99 24.4691V29.2207C19.99 29.486 20.0954 29.7403 20.2829 29.9278C20.4704 30.1154 20.7248 30.2207 20.99 30.2207H31V35.2421L30.15 34.3467C29.9664 34.1585 29.7161 34.0501 29.4532 34.045C29.1903 34.04 28.936 34.1387 28.7453 34.3198C28.5547 34.5009 28.443 34.7498 28.4345 35.0126C28.426 35.2754 28.5214 35.531 28.7 35.724L31.2085 38.3659C31.2989 38.4611 31.4072 38.5376 31.5272 38.591C31.6472 38.6444 31.7766 38.6736 31.9079 38.677C32.0392 38.6804 32.1698 38.6579 32.2924 38.6107C32.415 38.5636 32.5271 38.4928 32.6224 38.4024L35.2641 35.8939C35.4515 35.7101 35.5591 35.4601 35.5638 35.1977C35.5685 34.9353 35.4698 34.6815 35.289 34.4912C35.1083 34.301 34.86 34.1893 34.5977 34.1805C34.3354 34.1716 34.0802 34.2662 33.887 34.4439L33 35.2854V30.2207H43.01C43.2752 30.2207 43.5296 30.1154 43.7171 29.9278C43.9046 29.7403 44.01 29.486 44.01 29.2207V24.4691C44.0108 23.31 43.8309 22.1578 43.4769 21.054H51.4062C52.1353 21.0548 52.8343 21.3448 53.3499 21.8604C53.8654 22.3759 54.1554 23.0749 54.1562 23.804V35.2421L53.3063 34.3467C53.1227 34.1585 52.8723 34.0501 52.6094 34.045C52.3465 34.04 52.0922 34.1387 51.9016 34.3198C51.7109 34.5009 51.5992 34.7498 51.5908 35.0126C51.5823 35.2754 51.6777 35.531 51.8563 35.724L54.3646 38.3659C54.4551 38.4612 54.5636 38.5377 54.6837 38.591C54.8038 38.6444 54.9332 38.6736 55.0646 38.6769C55.0732 38.6769 55.0817 38.6769 55.0905 38.6769C55.3468 38.6768 55.5933 38.5784 55.7791 38.4019L58.4209 35.8934C58.6083 35.7096 58.7159 35.4596 58.7205 35.1972C58.7252 34.9348 58.6265 34.681 58.4458 34.4907C58.2651 34.3005 58.0168 34.1888 57.7545 34.18C57.4922 34.1711 57.2369 34.2657 57.0438 34.4434L56.1572 35.2851V23.8039C56.1558 22.5444 55.6547 21.3369 54.764 20.4464C53.8733 19.5559 52.6657 19.0551 51.4062 19.054ZM31.5019 15.2702H32.4981L33.5095 22.561L32 24.3614L30.4905 22.5614L31.5019 15.2702ZM27.0314 6.96899C27.0314 5.9863 27.3229 5.02569 27.8689 4.20864C28.4148 3.39158 29.1909 2.75478 30.0988 2.37875C31.0067 2.00273 32.0057 1.90437 32.9695 2.09611C33.9333 2.28786 34.8186 2.76109 35.5134 3.45598C36.2083 4.15086 36.6815 5.03619 36.8732 6C37.0649 6.96381 36.9665 7.96282 36.5904 8.87071C36.2143 9.77859 35.5775 10.5546 34.7604 11.1005C33.9433 11.6465 32.9827 11.9379 32 11.9379C30.6827 11.9364 29.4197 11.4124 28.4882 10.4809C27.5567 9.54932 27.0328 8.28634 27.0314 6.96899V6.96899ZM42.01 28.2207H39.4299C39.4299 28.2064 39.4321 28.1922 39.4321 28.1777V23.368C39.4321 23.1028 39.3268 22.8484 39.1392 22.6609C38.9517 22.4733 38.6973 22.368 38.4321 22.368C38.1669 22.368 37.9126 22.4733 37.725 22.6609C37.5375 22.8484 37.4321 23.1028 37.4321 23.368V28.1777C37.4321 28.1922 37.4338 28.2064 37.4344 28.2207H26.5656C26.5656 28.2064 26.5679 28.1922 26.5679 28.1777V23.368C26.5679 23.1028 26.4625 22.8484 26.275 22.6609C26.0874 22.4733 25.8331 22.368 25.5679 22.368C25.3027 22.368 25.0483 22.4733 24.8608 22.6609C24.6732 22.8484 24.5679 23.1028 24.5679 23.368V28.1777C24.5679 28.1922 24.5695 28.2064 24.5701 28.2207H21.99V24.4691C21.9929 22.3303 22.7399 20.2592 24.1028 18.611C25.4658 16.9627 27.3597 15.8401 29.4599 15.4355L28.4485 22.726C28.4293 22.8644 28.4393 23.0054 28.478 23.1397C28.5166 23.274 28.5829 23.3988 28.6728 23.5059L31.2337 26.5602C31.3276 26.6722 31.4449 26.7622 31.5772 26.8239C31.7096 26.8857 31.8539 26.9177 32 26.9177C32.1461 26.9177 32.2904 26.8857 32.4228 26.8239C32.5551 26.7622 32.6724 26.6722 32.7663 26.5602L35.3273 23.5059C35.4171 23.3988 35.4834 23.274 35.522 23.1397C35.5607 23.0054 35.5707 22.8644 35.5515 22.726L34.5401 15.4355C36.6403 15.8401 38.5342 16.9627 39.8972 18.611C41.2601 20.2592 42.0071 22.3303 42.01 24.4691V28.2207Z" fill="black"/>
</g>
<defs>
<clipPath id="clip0_1432_4109">
<rect width="64" height="64" fill="white"/>
</clipPath>
</defs>
</svg>
