<svg width="64" height="64" viewBox="0 0 64 64" fill="none" xmlns="http://www.w3.org/2000/svg">
<g clip-path="url(#clip0_1432_4114)">
<path d="M62.8951 18.3784L47.9072 3.36668C47.191 2.64857 46.2364 2.25256 45.2205 2.25256C44.419 2.25256 43.6401 2.5068 42.9949 2.97369L42.5793 3.21069L23.2944 5.86314C22.8527 5.87952 22.4248 5.94954 22.0159 6.06546L21.3391 5.42922C21.3113 5.40315 21.2829 5.37751 21.254 5.35273C20.5659 4.76067 19.687 4.43468 18.7791 4.43468C17.7635 4.43468 16.8088 4.83069 16.0915 5.54987L1.10563 20.5597C-0.234277 21.9026 -0.373245 24.049 0.781374 25.5528C0.821233 25.6043 0.862815 25.6548 0.906122 25.7032L7.33656 32.882C7.54491 33.7502 7.8306 34.645 8.18761 35.562C6.62794 37.4405 6.72618 40.2406 8.48601 42.001C8.48903 42.0041 8.49205 42.0069 8.49506 42.0099L8.51596 42.0306C9.39911 42.9105 10.5656 43.4004 11.8085 43.4224C11.7855 43.6148 11.7695 43.8085 11.7695 44.0052C11.7695 45.2813 12.2655 46.481 13.1663 47.3848L13.1855 47.4042C13.1885 47.4072 13.1913 47.4102 13.1943 47.4133C14.0986 48.3175 15.3008 48.8159 16.5798 48.8159C16.728 48.8159 16.8745 48.8077 17.0204 48.7943C17.0346 48.8105 17.0499 48.8266 17.0643 48.843C17.0617 48.9079 17.0548 48.9721 17.0548 49.0371C17.0548 50.3135 17.551 51.5136 18.4521 52.4172L18.4719 52.4374C18.4747 52.4402 18.4773 52.4428 18.4801 52.4456C19.3841 53.3497 20.5863 53.8476 21.8653 53.8476C21.8685 53.8476 21.8715 53.8471 21.8748 53.8471L22.3311 54.3035C22.3841 55.5012 22.8699 56.6203 23.7231 57.4735C23.7285 57.4786 23.7341 57.4842 23.7395 57.4896L23.7561 57.506C24.6076 58.3527 25.7228 58.8349 26.9153 58.8877L28.1768 60.1494C29.2073 61.1799 30.5806 61.7474 32.0435 61.7474C33.7271 61.7474 35.2917 60.9905 36.3363 59.6707C36.9042 58.9534 37.2616 58.1299 37.414 57.277L38.2062 58.0694C39.2526 59.1157 40.6981 59.7161 42.1718 59.7161C43.3887 59.7161 44.5789 59.3046 45.5232 58.557C46.5723 57.7268 47.2757 56.5438 47.5119 55.242C48.5236 56.1075 49.8314 56.597 51.1621 56.597C52.3788 56.597 53.5691 56.1853 54.5135 55.4378C55.737 54.4694 56.4907 53.0209 56.581 51.464C56.665 50.0172 56.1727 48.6 55.223 47.5242C56.1014 47.3693 56.9341 47.0002 57.6326 46.4476C58.8564 45.4791 59.6098 44.0306 59.7001 42.4738C59.7906 40.9141 59.2114 39.3885 58.1111 38.2881L56.0787 36.2557C56.1529 36.1821 56.2237 36.1049 56.289 36.0218C60.0948 31.1723 62.1442 27.5645 62.8998 24.3726C62.9591 24.2683 63.0114 24.1597 63.0558 24.0477L63.4755 22.9902C64.3425 21.5217 64.1247 19.6108 62.8951 18.3784ZM11.8945 40.8413C11.3311 40.8413 10.7679 40.6262 10.3376 40.1964L10.3144 40.1734C9.45491 39.3137 9.45491 37.9195 10.3144 37.06L12.0367 35.3377C12.4665 34.9077 13.0297 34.6926 13.5934 34.6926C14.157 34.6926 14.7204 34.9077 15.1507 35.3377L15.1733 35.3608C16.0334 36.2204 16.0334 37.6146 15.1733 38.4743L13.4514 40.1964C13.0213 40.626 12.4579 40.8413 11.8945 40.8413ZM18.1368 45.5851C17.7068 46.0152 17.1434 46.2302 16.5798 46.2302C16.0163 46.2302 15.4529 46.0152 15.0227 45.5851L14.9998 45.5621C14.14 44.7022 14.14 43.3084 14.9998 42.4485L19.0745 38.3739C19.5048 37.9438 20.0682 37.7288 20.6318 37.7288C21.1954 37.7288 21.7588 37.9438 22.1889 38.3739L22.2119 38.3967C23.0716 39.2566 23.0716 40.6508 22.2119 41.5102L18.1368 45.5851ZM23.4219 50.6173C22.9923 51.0471 22.4289 51.2619 21.8653 51.2619C21.3017 51.2619 20.7382 51.0471 20.3084 50.6173L20.2851 50.594C19.4253 49.7343 19.4253 48.3401 20.2851 47.4803L22.9221 44.8429C23.3521 44.4131 23.9153 44.1983 24.479 44.1983C25.0424 44.1983 25.6058 44.4131 26.036 44.8429L26.0593 44.8662C26.9188 45.7258 26.9188 47.1202 26.0593 47.9799L23.4219 50.6173ZM27.1312 56.3126C26.5678 56.3126 26.0046 56.0976 25.5745 55.6677L25.5513 55.6449C24.6912 54.785 24.6912 53.3906 25.5513 52.5309L26.7507 51.3315C27.1807 50.9017 27.7442 50.6867 28.3078 50.6867C28.8712 50.6867 29.4348 50.9017 29.8649 51.3315L29.8879 51.3548C30.7474 52.2147 30.7474 53.6086 29.8879 54.4683L28.6883 55.6677C28.258 56.0976 27.6946 56.3126 27.1312 56.3126ZM34.3093 58.0662C33.731 58.7968 32.8875 59.162 32.0438 59.162C31.3048 59.162 30.5657 58.8817 30.0051 58.3213L29.7824 58.0985C30.0435 57.924 30.2893 57.723 30.5162 57.4959L31.7154 56.2969C32.56 55.4521 33.0183 54.3673 33.0984 53.26L34.0206 54.182C35.0655 55.2265 35.2262 56.9077 34.3093 58.0662ZM56.283 40.116C57.4837 41.3166 57.3988 43.3351 56.0281 44.4202C55.5147 44.8265 54.8991 45.0211 54.2814 45.0211C53.5049 45.0211 52.7256 44.7134 52.1439 44.1315L41.6905 33.6781C41.419 33.4066 41.0635 33.2708 40.7078 33.2708C40.3523 33.2708 39.9964 33.4066 39.7251 33.6781C39.1755 34.2275 39.1755 35.1184 39.7251 35.6676L53.1637 49.1063C54.3642 50.3068 54.2793 52.3254 52.9088 53.4104C52.3953 53.8166 51.7798 54.0113 51.1621 54.0113C50.3856 54.0113 49.6063 53.7034 49.0246 53.1217L35.649 39.7461C35.374 39.4712 35.0136 39.3335 34.6529 39.3335C34.2925 39.3335 33.932 39.4712 33.6569 39.7461C33.1148 40.2882 33.1148 41.167 33.6569 41.7089L44.1734 52.2254C45.3739 53.4259 45.289 55.4445 43.9185 56.5293C43.4051 56.9357 42.7895 57.1302 42.1718 57.1302C41.3953 57.1302 40.6163 56.8226 40.0343 56.2406L29.1668 45.3729C28.9755 44.5167 28.5521 43.7025 27.8874 43.0376L27.864 43.0141C27.1137 42.2643 26.1578 41.7992 25.1249 41.6606C25.3302 41.1222 25.442 40.547 25.442 39.9534C25.442 38.6749 24.9441 37.4724 24.0401 36.5684C24.0375 36.5658 24.0349 36.5632 24.0323 36.5606L24.0121 36.5406C23.1085 35.6391 21.9079 35.1429 20.6316 35.1429C19.7859 35.1429 18.9758 35.3648 18.2614 35.774C18.0569 34.9374 17.6338 34.1678 17.0109 33.5419L16.9954 33.5262C16.9898 33.5206 16.9842 33.5147 16.9786 33.5091C16.0743 32.6049 14.8721 32.1067 13.5931 32.1067C12.314 32.1067 11.1118 32.6051 10.2077 33.5098L10.2002 33.5173C10.0332 32.9977 9.89142 32.4827 9.78089 31.9745C9.74189 31.7967 9.66713 31.6295 9.55617 31.4852L2.83207 23.9781C2.46235 23.4968 2.5063 22.8159 2.93484 22.3863L17.9223 7.37542C18.1577 7.13928 18.4678 7.02013 18.7793 7.02013C19.0596 7.02013 19.3404 7.11687 19.5681 7.31272L19.6868 7.42411C18.6832 8.41154 18.0591 9.78333 18.0591 11.2988C18.0591 14.2921 20.4887 16.7281 23.4795 16.7386L33.0269 16.8597L56.283 40.116ZM61.1676 21.796L60.6524 23.0939C60.5414 23.2382 60.4667 23.4052 60.4277 23.5832C59.6995 26.9251 57.1325 30.7589 54.2551 34.4253C50.5946 30.7647 34.1259 14.2878 34.1259 14.2878L23.4989 14.153C21.9291 14.153 20.6445 12.8684 20.6445 11.2986C20.6445 9.72882 21.9291 8.4445 23.4989 8.4445L43.4247 5.70392C43.4269 5.70371 43.4288 5.70263 43.4303 5.70134L44.4313 5.13038C44.659 4.93454 44.9398 4.8378 45.2201 4.8378C45.5312 4.8378 45.8417 4.95716 46.0771 5.19308L61.0646 20.204C61.4933 20.6338 61.5373 21.3147 61.1676 21.796Z" fill="black"/>
</g>
<defs>
<clipPath id="clip0_1432_4114">
<rect width="64" height="64" fill="white"/>
</clipPath>
</defs>
</svg>
