<svg width="64" height="64" viewBox="0 0 64 64" fill="none" xmlns="http://www.w3.org/2000/svg">
<g clip-path="url(#clip0_1432_4064)">
<path d="M61.8668 24.5334H60.8001C59.3903 24.5163 58.0013 24.1916 56.73 23.582C55.4588 22.9723 54.336 22.0924 53.4401 21.0038C53.2854 20.8448 53.1446 20.6998 53.0198 20.5771C50.8801 18.4534 47.6193 18.1334 45.8668 18.1334H45.5468C45.3571 17.8089 45.0857 17.5397 44.7598 17.3526C44.4338 17.1654 44.0645 17.0669 43.6886 17.0667H43.487C43.4809 16.6401 43.3479 16.225 43.1052 15.8742C42.9038 15.5829 42.6345 15.345 42.3206 15.1811C42.0067 15.0172 41.6577 14.9322 41.3036 14.9334H35.486C35.1323 14.9328 34.7838 15.0183 34.4705 15.1823C34.1572 15.3464 33.8885 15.5842 33.6876 15.8752C33.4448 16.2252 33.3146 16.6408 33.3142 17.0667H33.1009C32.6899 17.064 32.2866 17.1784 31.9381 17.3963C31.5897 17.6143 31.3104 17.9269 31.1329 18.2976C30.9567 18.6561 30.8854 19.057 30.9271 19.4543C30.9688 19.8515 31.1219 20.2289 31.3686 20.543L32.767 22.4H29.486C28.5398 22.386 27.6217 22.7218 26.9079 23.3431C26.1941 23.9644 25.7348 24.8273 25.6182 25.7664C25.5676 26.2863 25.6262 26.8111 25.7902 27.3071C25.9543 27.803 26.2201 28.2592 26.5708 28.6464C26.6188 28.6998 26.6689 28.7531 26.7212 28.8022C26.6689 28.8523 26.6145 28.9088 26.5708 28.9579C26.2202 29.3451 25.9544 29.8013 25.7903 30.2973C25.6263 30.7932 25.5677 31.318 25.6182 31.8379C25.6793 32.4038 25.8705 32.9479 26.1767 33.4277C26.483 33.9075 26.896 34.31 27.3836 34.6038C26.8456 35.3459 26.5972 36.2589 26.6849 37.1712C26.746 37.7371 26.9372 38.2813 27.2434 38.7611C27.5496 39.2409 27.9627 39.6434 28.4502 39.9371C27.9123 40.6792 27.6638 41.5922 27.7516 42.5046C27.8126 43.0586 27.9987 43.5915 28.2958 44.0631C28.5929 44.5346 28.9933 44.9325 29.4668 45.2267C27.1532 48.415 25.6001 52.4107 25.6001 55.36C25.6001 61.0912 30.2657 64 39.4668 64C48.6678 64 53.3334 61.0944 53.3334 55.2971C53.1117 51.8405 51.9104 48.5184 49.87 45.7195C51.0249 45.5797 52.1573 45.2929 53.2396 44.8662C55.6654 44.0138 58.231 43.6294 60.8001 43.7334H61.8668C62.4326 43.7334 62.9752 43.5086 63.3753 43.1085C63.7753 42.7084 64.0001 42.1658 64.0001 41.6V26.6667C64.0001 26.1009 63.7753 25.5583 63.3753 25.1582C62.9752 24.7581 62.4326 24.5334 61.8668 24.5334ZM34.7532 19.2C34.933 19.1995 35.1098 19.1536 35.2671 19.0664C35.4244 18.9792 35.5571 18.8537 35.6529 18.7015C35.7487 18.5493 35.8044 18.3754 35.815 18.1959C35.8255 18.0163 35.7905 17.8371 35.7132 17.6747L35.486 17.0667L41.3793 17.0272L41.0721 17.6768C40.9953 17.8391 40.9606 18.0181 40.9714 18.1974C40.9822 18.3766 41.038 18.5502 41.1337 18.7021C41.2295 18.854 41.362 18.9793 41.519 19.0663C41.6761 19.1534 41.8525 19.1994 42.0321 19.2L43.7057 19.2619L41.3516 22.4H35.4444L33.1041 19.2H34.7532ZM39.4668 61.8667C28.9505 61.8667 27.7334 58.1558 27.7334 55.36C27.7334 53.0454 29.0924 49.1104 31.6673 45.8667H47.3281C49.6513 48.8182 51.2001 52.5504 51.2001 55.36C51.2001 58.1558 49.983 61.8667 39.4668 61.8667ZM61.8668 41.6H60.8001C57.9565 41.5023 55.1198 41.9394 52.4374 42.8886C50.9603 43.4663 49.3855 43.7532 47.7996 43.7334H31.6193C31.203 43.7496 30.7952 43.6123 30.4735 43.3476C30.1518 43.0829 29.9385 42.7093 29.8742 42.2976C29.8512 42.0748 29.8753 41.8495 29.9449 41.6366C30.0144 41.4236 30.128 41.2276 30.2781 41.0613C30.4282 40.895 30.6116 40.762 30.8164 40.6711C31.0211 40.5801 31.2427 40.5332 31.4668 40.5334C31.7497 40.5334 32.021 40.421 32.221 40.2209C32.4211 40.0209 32.5334 39.7496 32.5334 39.4667C32.5334 39.1838 32.4211 38.9125 32.221 38.7124C32.021 38.5124 31.7497 38.4 31.4668 38.4H30.5494C30.1331 38.4163 29.7254 38.279 29.4036 38.0143C29.0819 37.7496 28.8686 37.3759 28.8044 36.9643C28.7813 36.7412 28.8055 36.5157 28.8752 36.3025C28.945 36.0893 29.0588 35.8931 29.2093 35.7268C29.3598 35.5604 29.5435 35.4275 29.7487 35.3368C29.9538 35.246 30.1758 35.1994 30.4001 35.2C30.683 35.2 30.9543 35.0876 31.1543 34.8876C31.3544 34.6876 31.4668 34.4163 31.4668 34.1334C31.4668 33.8505 31.3544 33.5792 31.1543 33.3791C30.9543 33.1791 30.683 33.0667 30.4001 33.0667H29.4828C29.0665 33.0829 28.6587 32.9457 28.337 32.681C28.0152 32.4163 27.802 32.0426 27.7377 31.631C27.7147 31.4078 27.7388 31.1823 27.8086 30.9691C27.8783 30.7559 27.9921 30.5598 28.1426 30.3934C28.2931 30.227 28.4769 30.0942 28.682 30.0034C28.8872 29.9127 29.1091 29.8661 29.3334 29.8667C29.6163 29.8667 29.8876 29.7543 30.0877 29.5543C30.2877 29.3542 30.4001 29.0829 30.4001 28.8C30.4001 28.5171 30.2877 28.2458 30.0877 28.0458C29.8876 27.8457 29.6163 27.7334 29.3334 27.7334C29.1088 27.7345 28.8865 27.6884 28.681 27.598C28.4754 27.5076 28.2911 27.3749 28.1402 27.2086C27.9893 27.0423 27.8751 26.846 27.805 26.6327C27.7349 26.4193 27.7105 26.1936 27.7334 25.9702C27.7976 25.557 28.0119 25.182 28.3352 24.9169C28.6585 24.6518 29.0682 24.5153 29.486 24.5334H44.8001C45.083 24.5334 45.3543 24.421 45.5543 24.2209C45.7544 24.0209 45.8668 23.7496 45.8668 23.4667C45.8668 23.1838 45.7544 22.9125 45.5543 22.7124C45.3543 22.5124 45.083 22.4 44.8001 22.4H44.0193L45.3974 20.5654C45.464 20.4707 45.5228 20.3708 45.5734 20.2667H45.8668C47.2908 20.2667 49.9201 20.5035 51.5201 22.0939C51.6374 22.2102 51.7665 22.3424 51.9073 22.4886C52.9989 23.7871 54.3594 24.8331 55.8947 25.5545C57.4301 26.2758 59.1038 26.6553 60.8001 26.6667H61.8668V41.6Z" fill="black"/>
<path d="M2.13333 50.1331H9.6C11.066 50.1318 12.5045 49.7348 13.7635 48.9838C15.0225 48.2328 16.0554 47.1557 16.7531 45.8664L20.4864 37.8365C21.2101 36.5007 21.4779 34.9651 21.2491 33.4632L19.6704 14.4872C19.5173 13.6482 19.0556 12.8969 18.3763 12.3813C17.697 11.8656 16.8493 11.623 16 11.7011V3.51012C15.9983 3.02046 15.897 2.53627 15.7023 2.087C15.5075 1.63773 15.2234 1.23278 14.8672 0.896789C14.551 0.590693 14.1747 0.353502 13.7622 0.200199C13.3496 0.0468962 12.9098 -0.0191875 12.4704 0.00612252C11.7425 0.0443184 11.0474 0.321365 10.4928 0.794389C9.88745 1.30843 9.48228 2.01909 9.34827 2.80186L5.60427 25.3267C5.3761 26.6939 5.34879 28.087 5.5232 29.4621L6.45653 37.0941C6.45962 37.1245 6.45618 37.1551 6.44643 37.184C6.43667 37.2129 6.42084 37.2393 6.4 37.2616C6.381 37.2841 6.35731 37.3021 6.33059 37.3145C6.30387 37.3268 6.27477 37.3332 6.24533 37.3331H2.13333C1.56754 37.3331 1.02492 37.5578 0.624839 37.9579C0.224761 38.358 0 38.9006 0 39.4664L0 47.9997C0 48.5655 0.224761 49.1081 0.624839 49.5082C1.02492 49.9083 1.56754 50.1331 2.13333 50.1331ZM2.13333 39.4664H6.24533C6.57738 39.4663 6.90561 39.3957 7.20835 39.2593C7.51108 39.1229 7.78143 38.9238 8.00152 38.6752C8.22161 38.4266 8.38643 38.1341 8.48509 37.817C8.58376 37.5 8.61401 37.1656 8.57387 36.836L7.63947 29.2008C7.49123 28.0303 7.51459 26.8445 7.7088 25.6808L11.4496 3.16239C11.5006 2.88767 11.6412 2.63761 11.8494 2.45135C12.0577 2.26509 12.3219 2.15315 12.6005 2.13306C12.9499 2.15103 13.2782 2.30536 13.515 2.56287C13.7518 2.82038 13.878 3.1605 13.8667 3.51012V12.8115C13.1267 13.7044 12.7464 14.8413 12.8 15.9997V31.9997C12.8 32.2826 12.9124 32.5539 13.1124 32.754C13.3125 32.954 13.5838 33.0664 13.8667 33.0664C14.1496 33.0664 14.4209 32.954 14.6209 32.754C14.821 32.5539 14.9333 32.2826 14.9333 31.9997V15.9997C14.8977 15.6565 14.9364 15.3097 15.0468 14.9828C15.1573 14.6559 15.3369 14.3566 15.5733 14.1053C15.5829 14.0979 15.5947 14.0947 15.6043 14.0872C15.8207 13.9095 16.0922 13.8126 16.3723 13.8131C16.6475 13.8132 16.9146 13.9063 17.1303 14.0773C17.3459 14.2482 17.4976 14.487 17.5605 14.7549L19.1381 33.7299C19.3068 34.8132 19.1121 35.9218 18.5845 36.8829L14.8512 44.9053C14.3329 45.8438 13.5722 46.626 12.6486 47.1703C11.7249 47.7146 10.6721 48.001 9.6 47.9997H2.13333V39.4664Z" fill="black"/>
</g>
<defs>
<clipPath id="clip0_1432_4064">
<rect width="64" height="64" fill="white"/>
</clipPath>
</defs>
</svg>
