<svg width="64" height="64" viewBox="0 0 64 64" fill="none" xmlns="http://www.w3.org/2000/svg">
<path d="M32.0079 60C27.3059 60.0001 22.6807 58.8073 18.5652 56.5333C18.4077 56.4424 18.2337 56.3837 18.0533 56.3608C17.8729 56.3379 17.6897 56.3513 17.5145 56.4L8.08654 59.232C7.62541 59.3702 7.13546 59.381 6.66869 59.2632C6.20192 59.1455 5.77572 58.9036 5.43532 58.5632C5.09492 58.2228 4.85302 57.7966 4.73527 57.3298C4.61753 56.8631 4.62833 56.3731 4.76654 55.912L7.59987 46.4853C7.64894 46.3104 7.66242 46.1274 7.63952 45.9471C7.61661 45.7669 7.55779 45.5931 7.46654 45.436C5.23522 41.3766 4.04737 36.8265 4.00971 32.1944C3.97205 27.5624 5.08577 22.9935 7.25078 18.8984C9.4158 14.8033 12.5643 11.3102 16.4134 8.73301C20.2624 6.15581 24.6915 4.57523 29.3025 4.13331L29.4265 5.46664L29.3025 4.13331C36.6839 3.3175 44.087 5.46733 49.8832 10.1099C55.6795 14.7524 59.3941 21.5073 60.2099 28.8886C61.0257 36.27 58.8758 43.6731 54.2333 49.4693C49.5908 55.2656 42.8359 58.9802 35.4545 59.796C34.3108 59.9334 33.1598 60.0016 32.0079 60V60ZM17.8745 53.684C18.5657 53.6872 19.2448 53.8647 19.8492 54.2C25.207 57.1377 31.4447 58.0442 37.417 56.7531C43.3894 55.462 48.6956 52.0598 52.3615 47.1714C56.0274 42.2829 57.8069 36.2361 57.3733 30.1412C56.9398 24.0462 54.3223 18.3122 50.0013 13.9918C45.6804 9.67148 39.946 7.05472 33.8511 6.62198C27.7561 6.18924 21.7095 7.96956 16.8215 11.6361C11.9335 15.3026 8.5321 20.6093 7.24176 26.5818C5.95143 32.5544 6.85877 38.7919 9.7972 44.1493C10.0607 44.6165 10.2275 45.132 10.2878 45.665C10.348 46.198 10.3004 46.7377 10.1479 47.252L7.3212 56.6773L16.7492 53.8493C17.1147 53.7395 17.4943 53.6838 17.8759 53.684H17.8745Z" fill="black"/>
<path d="M36 48H28C26.9391 48 25.9217 47.5785 25.1716 46.8284C24.4214 46.0782 24 45.0608 24 44C24 42.9391 24.4214 41.9217 25.1716 41.1715C25.9217 40.4214 26.9391 40 28 40V34.4386C27.1098 34.1245 26.3595 33.5056 25.8816 32.6916C25.4037 31.8775 25.2292 30.9207 25.3888 29.9903C25.5484 29.0599 26.0319 28.216 26.7538 27.6077C27.4756 26.9995 28.3894 26.6661 29.3333 26.6666H34.6667C35.6106 26.6661 36.5244 26.9995 37.2462 27.6077C37.9681 28.216 38.4516 29.0599 38.6112 29.9903C38.7708 30.9207 38.5963 31.8775 38.1184 32.6916C37.6405 33.5056 36.8902 34.1245 36 34.4386V40C37.0609 40 38.0783 40.4214 38.8284 41.1715C39.5786 41.9217 40 42.9391 40 44C40 45.0608 39.5786 46.0782 38.8284 46.8284C38.0783 47.5785 37.0609 48 36 48ZM28 42.6666C27.6464 42.6666 27.3072 42.8071 27.0572 43.0571C26.8071 43.3072 26.6667 43.6463 26.6667 44C26.6667 44.3536 26.8071 44.6927 27.0572 44.9428C27.3072 45.1928 27.6464 45.3333 28 45.3333H36C36.3536 45.3333 36.6928 45.1928 36.9428 44.9428C37.1929 44.6927 37.3333 44.3536 37.3333 44C37.3333 43.6463 37.1929 43.3072 36.9428 43.0571C36.6928 42.8071 36.3536 42.6666 36 42.6666H34.6667C34.313 42.6666 33.9739 42.5262 33.7239 42.2761C33.4738 42.0261 33.3333 41.6869 33.3333 41.3333V33.3333C33.3333 32.9797 33.4738 32.6405 33.7239 32.3905C33.9739 32.1404 34.313 32 34.6667 32C35.0203 32 35.3594 31.8595 35.6095 31.6094C35.8595 31.3594 36 31.0202 36 30.6666C36 30.313 35.8595 29.9739 35.6095 29.7238C35.3594 29.4738 35.0203 29.3333 34.6667 29.3333H29.3333C28.9797 29.3333 28.6406 29.4738 28.3905 29.7238C28.1405 29.9739 28 30.313 28 30.6666C28 31.0202 28.1405 31.3594 28.3905 31.6094C28.6406 31.8595 28.9797 32 29.3333 32C29.687 32 30.0261 32.1404 30.2761 32.3905C30.5262 32.6405 30.6667 32.9797 30.6667 33.3333V41.3333C30.6667 41.6869 30.5262 42.0261 30.2761 42.2761C30.0261 42.5262 29.687 42.6666 29.3333 42.6666H28Z" fill="black"/>
<path d="M31.9998 25.3333C30.945 25.3333 29.9139 25.0205 29.0368 24.4345C28.1597 23.8484 27.4761 23.0155 27.0725 22.0409C26.6688 21.0664 26.5632 19.994 26.769 18.9595C26.9748 17.9249 27.4827 16.9746 28.2286 16.2287C28.9745 15.4828 29.9248 14.9749 30.9594 14.7691C31.9939 14.5633 33.0663 14.6689 34.0408 15.0726C35.0154 15.4763 35.8483 16.1599 36.4343 17.0369C37.0204 17.914 37.3332 18.9451 37.3332 20C37.3332 21.4145 36.7713 22.771 35.7711 23.7712C34.7709 24.7714 33.4143 25.3333 31.9998 25.3333ZM31.9998 17.3333C31.4724 17.3333 30.9568 17.4897 30.5183 17.7827C30.0798 18.0757 29.738 18.4922 29.5362 18.9795C29.3343 19.4667 29.2815 20.0029 29.3844 20.5202C29.4873 21.0375 29.7413 21.5126 30.1142 21.8856C30.4872 22.2585 30.9623 22.5125 31.4796 22.6154C31.9969 22.7183 32.5331 22.6655 33.0203 22.4636C33.5076 22.2618 33.9241 21.92 34.2171 21.4815C34.5101 21.043 34.6665 20.5274 34.6665 20C34.6665 19.2927 34.3856 18.6144 33.8855 18.1143C33.3854 17.6142 32.7071 17.3333 31.9998 17.3333Z" fill="black"/>
</svg>
