<svg width="64" height="64" viewBox="0 0 64 64" fill="none" xmlns="http://www.w3.org/2000/svg">
<g clip-path="url(#clip0_1432_4077)">
<path d="M59.1434 50.2453C56.6271 48.9877 50.4693 47.0453 49.6266 46.6528C50.4906 43.4859 48.1429 41.2192 45.729 41.9435C45.1959 40.2497 45.2049 38.4319 45.7546 36.7435C46.8266 34.5931 49.0666 30.1184 49.0666 21.3333C49.0666 3.70133 39.7866 0 31.9999 0C24.2133 0 14.9333 3.70133 14.9333 21.3333C14.9333 30.1184 17.1733 34.5931 18.2453 36.7445C18.6041 37.6967 18.7413 38.7181 18.6463 39.7312C15.9445 39.2469 13.7151 42.368 15.6799 45.8667C15.0291 46.3549 14.3032 46.7339 13.5306 46.9888C10.5772 47.9007 7.68098 48.9885 4.85753 50.2464C4.58655 50.3807 4.38535 50.6238 4.30398 50.9151C4.22261 51.2064 4.26873 51.5185 4.43086 51.7739C4.75086 52.272 12.4394 64 31.9999 64C51.5605 64 59.249 52.272 59.5669 51.7728C59.7292 51.5179 59.7758 51.2061 59.6951 50.9148C59.6143 50.6236 59.4138 50.3803 59.1434 50.2453V50.2453ZM7.00366 51.632C13.249 49.0496 14.7722 49.2352 16.9791 47.5563C18.0233 48.5659 19.2239 49.4002 20.5343 50.0267C21.0616 50.2903 21.7027 50.0766 21.9663 49.5493C22.23 49.0221 22.0162 48.381 21.489 48.1173C14.8501 44.7989 17.0954 40.2624 19.1903 42.3573C22.6037 45.7707 25.0143 45.8699 25.2778 45.8699C25.8544 45.8688 26.3235 45.4053 26.3317 44.8288C26.341 44.2463 25.8864 43.7615 25.3045 43.7333C25.2863 43.7333 23.4645 43.6117 20.6986 40.8459L20.6815 40.8299C20.9634 39.1331 20.7814 37.3917 20.1546 35.7899C19.1519 33.7856 17.0666 29.6149 17.0666 21.3333C17.0666 8.59307 22.0906 2.13333 31.9999 2.13333C41.9093 2.13333 46.9333 8.59307 46.9333 21.3333C46.9333 29.6149 44.8479 33.7856 43.8399 35.7899C42.9763 38.1629 42.9895 40.7665 43.8773 43.1307C41.2607 45.6864 39.5221 45.8667 39.4442 45.8667C38.8551 45.8729 38.3825 46.3554 38.3887 46.9445C38.3949 47.5336 38.8775 48.0062 39.4666 48C39.7301 48 42.1407 47.9019 45.5541 44.4875C47.6682 42.3733 49.8879 46.9301 43.2565 50.2475C42.7292 50.5108 42.5153 51.1517 42.7786 51.6789C43.0419 52.2062 43.6828 52.4201 44.2101 52.1568C45.9846 51.3589 47.5304 50.1284 48.7061 48.5781C49.7205 49.0581 53.3034 50.1067 57.0005 51.6363C45.6095 65.3088 18.4533 65.2939 7.00366 51.632V51.632Z" fill="black"/>
<path d="M31.9997 25.6C34.3912 25.6 37.8504 28.9238 40.3763 28.9238C42.5821 28.9238 43.412 26.863 43.7224 24.6838C44.8755 16.6016 40.1619 12.8 31.9997 12.8C23.8376 12.8 19.1251 16.6027 20.2771 24.6838C20.5832 26.831 21.2509 28.0886 22.3773 28.6401C25.2797 30.0662 29.0429 25.6 31.9997 25.6V25.6ZM23.316 26.7243C23.1251 26.6305 22.6504 26.2144 22.3891 24.383C21.4195 17.5915 25.1731 14.9334 31.9997 14.9334C38.8264 14.9334 42.58 17.5926 41.6104 24.383C41.3491 26.2144 40.8744 26.6305 40.6835 26.7243C39.3715 27.3697 35.3064 23.4667 31.9997 23.4667C28.6931 23.4667 24.6301 27.3697 23.316 26.7243Z" fill="black"/>
<path d="M31.9997 28.8C29.4216 28.8 26.6664 30.2006 26.6664 34.1334C26.5645 35.0532 26.9002 35.9674 27.5731 36.6027C28.9235 37.5936 30.5661 36.2667 31.9997 36.2667C33.3725 36.2667 35.1059 37.5734 36.4264 36.6027C37.0993 35.9674 37.435 35.0532 37.3331 34.1334C37.3331 30.2006 34.5779 28.8 31.9997 28.8V28.8ZM35.14 34.8214C34.1214 34.4784 33.0684 34.2477 31.9997 34.1334C30.9311 34.2478 29.8781 34.4785 28.8595 34.8214C28.8133 34.5951 28.7933 34.3642 28.7997 34.1334C28.6907 33.2558 28.9926 32.3769 29.6179 31.7516C30.2433 31.1263 31.1221 30.8244 31.9997 30.9334C32.8773 30.8244 33.7562 31.1263 34.3815 31.7516C35.0069 32.3769 35.3088 33.2558 35.1997 34.1334C35.2062 34.3642 35.1861 34.5951 35.14 34.8214Z" fill="black"/>
</g>
<defs>
<clipPath id="clip0_1432_4077">
<rect width="64" height="64" fill="white"/>
</clipPath>
</defs>
</svg>
