<svg width="64" height="64" viewBox="0 0 64 64" fill="none" xmlns="http://www.w3.org/2000/svg">
<path d="M62.6832 22.8608V20.7322C62.6832 19.635 62.132 18.6261 61.2086 18.0335L34.2706 0.745452C32.7088 -0.256815 30.6963 -0.247815 29.1435 0.768828L2.76668 18.0379C1.85854 18.6323 1.31641 19.6352 1.31641 20.7206V22.8608C1.31641 24.5335 2.67718 25.8944 4.34996 25.8944H7.10313C6.97938 26.2616 6.91125 26.6544 6.91125 27.0629C6.91125 28.6469 7.92065 29.9997 9.3298 30.5122V49.6559H8.03002C6.59125 49.6559 5.4206 50.8265 5.4206 52.2654V55.4687C5.4206 55.5055 5.4246 55.5414 5.4261 55.5779H3.92583C2.48705 55.5779 1.31653 56.7484 1.31653 58.1873V61.3906C1.31653 62.8294 2.48705 63.9999 3.92583 63.9999H60.0741C61.5128 63.9999 62.6834 62.8294 62.6834 61.3906V58.1873C62.6834 56.7484 61.5128 55.5779 60.0741 55.5779H57.9864C57.9879 55.5414 57.9919 55.5055 57.9919 55.4687V52.2654C57.9919 50.8265 56.8214 49.6559 55.3826 49.6559H54.083V30.512C55.4921 29.9996 56.5014 28.6468 56.5014 27.0628C56.5014 26.6543 56.4332 26.2616 56.3095 25.8943H59.6498C61.3225 25.8944 62.6832 24.5335 62.6832 22.8608V22.8608ZM3.81658 22.8608V20.7206C3.81658 20.4814 3.93608 20.2604 4.13608 20.1294L30.5129 2.86024C31.2421 2.38311 32.1871 2.37873 32.9203 2.84936L59.8583 20.1375C60.0618 20.2682 60.1833 20.4904 60.1833 20.7322V22.8608C60.1833 23.1551 59.9439 23.3943 59.6498 23.3943H4.34996C4.05583 23.3943 3.81658 23.1551 3.81658 22.8608V22.8608ZM44.8947 30.5121V49.6558H36.3005V30.512C37.7097 29.9996 38.7189 28.6468 38.7189 27.0628C38.7189 26.6543 38.6508 26.2616 38.5271 25.8943H42.6681C42.5444 26.2615 42.4762 26.6543 42.4762 27.0628C42.4761 28.6469 43.4855 29.9997 44.8947 30.5121V30.5121ZM18.518 49.6559V30.5121C19.9271 29.9996 20.9365 28.6468 20.9365 27.0628C20.9365 26.6543 20.8684 26.2616 20.7446 25.8943H24.8857C24.7619 26.2615 24.6938 26.6543 24.6938 27.0628C24.6938 28.6468 25.7032 29.9996 27.1124 30.5121V49.6558H18.518V49.6559ZM29.6122 49.6559V29.4813C29.6122 28.7911 29.0525 28.2313 28.3621 28.2313C27.7179 28.2313 27.1936 27.7072 27.1936 27.0628C27.1936 26.4184 27.7177 25.8943 28.3621 25.8943H35.0504C35.6946 25.8943 36.2188 26.4184 36.2188 27.0628C36.2188 27.7072 35.6946 28.2313 35.0504 28.2313C34.36 28.2313 33.8003 28.7911 33.8003 29.4813V49.6559H29.6122ZM10.5797 28.2313C9.93543 28.2313 9.41117 27.7072 9.41117 27.0628C9.41117 26.4184 9.93531 25.8943 10.5797 25.8943H17.2679C17.9122 25.8943 18.4365 26.4184 18.4365 27.0628C18.4365 27.7072 17.9123 28.2313 17.2679 28.2313C16.5775 28.2313 16.0179 28.7911 16.0179 29.4813V49.6559H11.8297V29.4813C11.8297 28.7911 11.2701 28.2313 10.5797 28.2313ZM55.4919 52.2654V55.4687C55.4919 55.5288 55.4429 55.5779 55.3826 55.5779H37.3482C36.6578 55.5779 36.0981 56.1377 36.0981 56.8279C36.0981 57.5182 36.6578 58.078 37.3482 58.078H60.0741C60.1343 58.078 60.1833 58.1271 60.1833 58.1873V61.3906C60.1833 61.4509 60.1343 61.4999 60.0741 61.4999H3.92583C3.86558 61.4999 3.81658 61.4509 3.81658 61.3906V58.1873C3.81658 58.1271 3.86558 58.078 3.92583 58.078H26.2311C26.9215 58.078 27.4811 57.5182 27.4811 56.8279C27.4811 56.1377 26.9215 55.5779 26.2311 55.5779H8.03002C7.96977 55.5779 7.92065 55.5288 7.92065 55.4687V52.2654C7.92065 52.2051 7.96965 52.156 8.03002 52.156H55.3826C55.4429 52.156 55.4919 52.205 55.4919 52.2654V52.2654ZM54.0013 27.0629C54.0013 27.7072 53.4772 28.2314 52.8329 28.2314C52.1425 28.2314 51.5829 28.7912 51.5829 29.4815V49.6561H47.3947V29.4813C47.3947 28.7911 46.8351 28.2313 46.1447 28.2313C45.5004 28.2313 44.9762 27.7072 44.9762 27.0628C44.9762 26.4184 45.5003 25.8943 46.1447 25.8943H52.8329C53.4772 25.8944 54.0013 26.4185 54.0013 27.0629V27.0629Z" fill="black"/>
<path d="M14.8437 20.4438H48.9733C49.7482 20.4438 50.4153 19.9443 50.6333 19.2008C50.8514 18.4573 50.5599 17.6765 49.9077 17.2577L33.9608 7.02319C32.6049 6.15292 30.858 6.16092 29.5102 7.04344L13.8962 17.2661C13.2509 17.6886 12.9655 18.4689 13.1859 19.208C13.4062 19.9472 14.0724 20.4438 14.8437 20.4438V20.4438ZM30.8796 9.1351C31.4037 8.79184 32.0831 8.78872 32.6105 9.12735L46.348 17.9438H17.4255L30.8796 9.1351Z" fill="black"/>
<path d="M32.9873 56.3498C32.7823 55.8581 32.2733 55.5421 31.741 55.5817C31.2191 55.6206 30.7693 55.9906 30.6291 56.4943C30.3326 57.5602 31.528 58.4668 32.4746 57.8998C32.9986 57.586 33.2228 56.9145 32.9873 56.3498V56.3498Z" fill="black"/>
</svg>
