<svg width="270" height="44" viewBox="0 0 270 44" fill="none" xmlns="http://www.w3.org/2000/svg">
<path fill-rule="evenodd" clip-rule="evenodd" d="M0 0.140381H23.5912L23.6684 4.69509C23.7287 8.252 24.8238 13.6465 27.7465 18.0032C30.5114 22.1246 34.9485 25.4377 42.4402 25.4377C49.9318 25.4377 54.369 22.1246 57.1339 18.0032C60.0566 13.6465 61.1517 8.252 61.212 4.69509L61.2891 0.140381H84.8804V43.1366H75.614V9.4068H70.067C69.3928 13.6869 67.8217 18.7047 64.8291 23.1656C60.5227 29.5848 53.3291 34.7041 42.4402 34.7041C31.5513 34.7041 24.3577 29.5848 20.0513 23.1656C17.0587 18.7047 15.4875 13.6869 14.8133 9.4068H9.26642V43.1366H0V0.140381Z" fill="#9F7BE1"/>
<path d="M120.307 6.13074C123.639 6.13074 126.315 8.67093 126.315 12.1143C126.315 15.5012 123.584 18.0979 120.471 18.0979C118.997 18.0979 117.577 17.6463 116.539 16.4044H116.43V25.0975H114.19V13.0175C114.19 8.84028 116.539 6.13074 120.307 6.13074ZM120.253 16.0657C122.437 16.0657 123.967 14.2594 123.967 12.0579C123.967 9.91281 122.492 8.10645 120.253 8.10645C118.014 8.10645 116.484 9.85636 116.484 12.0579C116.484 14.2594 118.068 16.0657 120.253 16.0657Z" fill="#252525"/>
<path d="M128.391 12.1143C128.391 8.67094 131.176 6.13074 134.453 6.13074C137.73 6.13074 140.516 8.67094 140.516 12.1143C140.516 15.5577 137.73 18.0979 134.453 18.0979C131.176 18.0979 128.391 15.5577 128.391 12.1143ZM134.453 16.0657C136.693 16.0657 138.167 14.3158 138.167 12.1143C138.167 9.91281 136.638 8.1629 134.453 8.1629C132.269 8.1629 130.74 9.91281 130.74 12.1143C130.74 14.3158 132.214 16.0657 134.453 16.0657Z" fill="#252525"/>
<path d="M148.707 18.0979C145.212 18.0979 142.59 15.5577 142.59 12.1143C142.59 8.67094 145.157 6.13074 148.653 6.13074C151.329 6.13074 153.786 7.59841 154.442 10.4773H152.148C151.602 8.95318 150.236 8.1629 148.707 8.1629C146.359 8.1629 144.939 9.96926 144.939 12.1708C144.939 14.3723 146.413 16.1222 148.762 16.1222C150.291 16.1222 151.656 15.3883 152.203 13.7513H154.496C153.677 16.6867 151.274 18.0979 148.707 18.0979Z" fill="#252525"/>
<path d="M162.744 16.4608L159.084 8.55795H159.03V17.872H156.9V6.35645H160.286L163.89 14.2028H163.945L167.55 6.35645H170.936V17.8156H168.806V8.55795H168.751L165.092 16.4608H162.744Z" fill="#252525"/>
<path d="M173.339 12.1143C173.339 8.67094 176.125 6.13074 179.402 6.13074C182.679 6.13074 185.464 8.67094 185.464 12.1143C185.464 15.5577 182.679 18.0979 179.402 18.0979C176.125 18.0979 173.339 15.5577 173.339 12.1143ZM179.456 16.0657C181.696 16.0657 183.17 14.3158 183.17 12.1143C183.17 9.91281 181.641 8.1629 179.456 8.1629C177.217 8.1629 175.742 9.91281 175.742 12.1143C175.688 14.3158 177.217 16.0657 179.456 16.0657Z" fill="#252525"/>
<path d="M186.611 17.9284V15.5575H186.666C187.103 15.5575 187.594 15.3882 187.922 14.993C188.359 14.5415 188.523 13.6383 188.741 12.3964L189.069 10.5336C189.451 8.44498 190.161 6.29993 193.22 6.29993H197.534V17.8155H195.295V8.44498H193.547C191.8 8.44498 191.472 8.95302 191.035 11.3803L190.762 13.0738C190.489 14.6544 190.106 16.0091 189.342 16.8559C188.741 17.5332 187.922 17.8719 186.775 17.8719H186.611V17.9284Z" fill="#252525"/>
<path d="M200.046 12.1143C200.046 8.67094 202.831 6.13074 206.108 6.13074C209.385 6.13074 212.171 8.67094 212.171 12.1143C212.171 15.5577 209.385 18.0979 206.108 18.0979C202.831 18.0979 200.046 15.5577 200.046 12.1143ZM206.108 16.0657C208.347 16.0657 209.822 14.3158 209.822 12.1143C209.822 9.91281 208.293 8.1629 206.108 8.1629C203.869 8.1629 202.394 9.91281 202.394 12.1143C202.394 14.3158 203.924 16.0657 206.108 16.0657Z" fill="#252525"/>
<path d="M214.792 20.6379H212.662V15.7269H214.082C214.738 14.993 215.065 13.8641 215.339 12.5657L215.83 10.4207C216.267 8.38853 217.141 6.29993 219.872 6.29993H224.186V15.7269H225.77V20.6379H223.64V17.8719H214.738V20.6379H214.792ZM222.002 15.7833V8.44498H219.926C218.561 8.44498 218.124 9.57396 217.851 10.7594L217.359 12.9609C217.086 14.2028 216.704 15.2188 216.267 15.614V15.7833H222.002Z" fill="#252525"/>
<path d="M233.526 18.0979C229.976 18.0979 227.409 15.5577 227.409 12.1143C227.409 8.67094 229.976 6.13074 233.417 6.13074C236.093 6.13074 239.26 7.9371 239.26 12.2837V12.7353H229.594C229.812 14.6545 231.287 16.0657 233.471 16.0657C234.782 16.0657 236.311 15.5577 236.748 14.4287H239.042C238.387 16.9689 235.82 18.0979 233.526 18.0979ZM229.703 2.17932H231.997V4.55017H229.703V2.17932ZM237.021 10.9853C236.694 9.23543 235.383 8.10645 233.417 8.10645C231.505 8.10645 230.14 9.34832 229.757 10.9853H237.021ZM234.673 2.17932H236.967V4.55017H234.673V2.17932Z" fill="#252525"/>
<path d="M249.801 6.35645V10.9288H251.658L254.279 6.35645H256.737L253.46 11.832L256.955 17.8156H254.443L251.658 12.961H249.746V17.8156H247.671V12.961H245.814L243.028 17.8156H240.516L244.011 11.832L240.735 6.35645H243.192L245.814 10.9288H247.671V6.35645H249.801Z" fill="#252525"/>
<path d="M258.539 12.6787L258.484 6.35645H260.723V9.63048H260.778C261.706 8.44505 262.908 7.88056 264.328 7.88056C267.059 7.88056 269.243 9.96917 269.243 12.9045C269.243 15.8963 267.004 18.0978 263.891 18.0978C260.833 18.0978 258.539 15.8398 258.539 12.6787ZM263.891 16.0656C265.639 16.0656 266.95 14.7673 266.95 13.0174C266.95 11.2675 265.639 9.91272 263.891 9.91272C262.143 9.91272 260.887 11.211 260.887 13.0174C260.887 14.8238 262.143 16.0656 263.891 16.0656Z" fill="#252525"/>
<path d="M118.74 30.4295H118.145V33.6044H114.984V34.143H118.145V37.318H118.74V34.143H121.901V33.6044H118.74V30.4295ZM136.268 28.1759H135.035L132.738 36.34H132.71L130.145 28.1759H129.011L126.459 36.34H126.431L124.121 28.1759H122.902L125.907 38.0975H126.998L129.563 30.0043H129.606L132.171 38.0975H133.263L136.268 28.1759ZM139.365 31.3366C137.324 31.3366 135.822 32.7965 135.822 34.8234C135.822 36.8502 137.324 38.3101 139.365 38.3101C141.42 38.3101 142.909 36.8502 142.909 34.8234C142.909 32.7965 141.42 31.3366 139.365 31.3366ZM139.365 32.343C140.782 32.343 141.831 33.321 141.831 34.8234C141.831 36.3258 140.782 37.3038 139.365 37.3038C137.948 37.3038 136.899 36.3258 136.899 34.8234C136.899 33.321 137.948 32.343 139.365 32.343ZM147.663 31.3508H147.493C146.388 31.3508 145.594 32.0453 145.324 33.0233H145.296V31.5492H144.276V38.0975H145.296V35.0218C145.296 33.406 146.076 32.5272 147.465 32.5272H147.663V31.3508ZM149.837 28.1759H148.817V38.0975H149.837V28.1759ZM154.487 38.3101C155.678 38.3101 156.514 37.7574 156.967 36.9353H156.996V38.0975H158.016V28.1759H156.996V32.7115H156.967C156.514 31.8894 155.678 31.3366 154.487 31.3366C152.687 31.3366 151.241 32.6548 151.241 34.8234C151.241 36.992 152.687 38.3101 154.487 38.3101ZM154.685 37.3038C153.254 37.3038 152.318 36.2691 152.318 34.8234C152.318 33.3777 153.254 32.343 154.685 32.343C156.117 32.343 157.052 33.3777 157.052 34.8234C157.052 36.2691 156.117 37.3038 154.685 37.3038Z" fill="#252525"/>
</svg>
