<svg width="270" height="43" viewBox="0 0 270 43" fill="none" xmlns="http://www.w3.org/2000/svg">
<path fill-rule="evenodd" clip-rule="evenodd" d="M20.0396 0.279297H38.363V33.6384H46.4247V12.6296L61.5453 0.279297H85.1584V42.9975H75.892V9.54571H64.8487L55.6912 17.0255V42.9048H29.0965V9.54571H22.5859L9.26642 17.4634V42.9975H0V12.1917L20.0396 0.279297Z" fill="#C2FBE3"/>
<path d="M120.585 6.13062C123.917 6.13062 126.593 8.67081 126.593 12.1142C126.593 15.5011 123.862 18.0978 120.749 18.0978C119.274 18.0978 117.854 17.6462 116.817 16.4043H116.707V25.0974H114.468V13.0174C114.468 8.84016 116.817 6.13062 120.585 6.13062ZM120.531 16.0656C122.715 16.0656 124.244 14.2592 124.244 12.0577C124.244 9.91269 122.77 8.10632 120.531 8.10632C118.291 8.10632 116.762 9.85624 116.762 12.0577C116.762 14.2592 118.346 16.0656 120.531 16.0656Z" fill="white"/>
<path d="M128.669 12.1142C128.669 8.67081 131.454 6.13062 134.731 6.13062C138.008 6.13062 140.794 8.67081 140.794 12.1142C140.794 15.5576 138.008 18.0978 134.731 18.0978C131.454 18.0978 128.669 15.5576 128.669 12.1142ZM134.731 16.0656C136.97 16.0656 138.445 14.3157 138.445 12.1142C138.445 9.91269 136.916 8.16277 134.731 8.16277C132.547 8.16277 131.017 9.91269 131.017 12.1142C131.017 14.3157 132.492 16.0656 134.731 16.0656Z" fill="white"/>
<path d="M148.985 18.0978C145.49 18.0978 142.868 15.5576 142.868 12.1142C142.868 8.67081 145.435 6.13062 148.93 6.13062C151.607 6.13062 154.064 7.59828 154.72 10.4772H152.426C151.88 8.95306 150.514 8.16277 148.985 8.16277C146.637 8.16277 145.217 9.96914 145.217 12.1706C145.217 14.3721 146.691 16.1221 149.04 16.1221C150.569 16.1221 151.934 15.3882 152.48 13.7512H154.774C153.955 16.6865 151.552 18.0978 148.985 18.0978Z" fill="white"/>
<path d="M163.021 16.4608L159.362 8.55795H159.307V17.872H157.177V6.35645H160.564L164.168 14.2028H164.223L167.827 6.35645H171.214V17.8156H169.084V8.55795H169.029L165.37 16.4608H163.021Z" fill="white"/>
<path d="M173.617 12.1142C173.617 8.67081 176.403 6.13062 179.679 6.13062C182.956 6.13062 185.742 8.67081 185.742 12.1142C185.742 15.5576 182.956 18.0978 179.679 18.0978C176.403 18.0978 173.617 15.5576 173.617 12.1142ZM179.734 16.0656C181.973 16.0656 183.448 14.3157 183.448 12.1142C183.448 9.91269 181.919 8.16277 179.734 8.16277C177.495 8.16277 176.02 9.91269 176.02 12.1142C175.966 14.3157 177.495 16.0656 179.734 16.0656Z" fill="white"/>
<path d="M186.889 17.9283V15.5574H186.944C187.38 15.5574 187.872 15.3881 188.2 14.9929C188.637 14.5413 188.8 13.6382 189.019 12.3963L189.347 10.5335C189.729 8.44486 190.439 6.2998 193.497 6.2998H197.812V17.8154H195.573V8.44486H193.825C192.077 8.44486 191.75 8.9529 191.313 11.3802L191.04 13.0737C190.767 14.6542 190.384 16.009 189.62 16.8557C189.019 17.5331 188.2 17.8718 187.053 17.8718H186.889V17.9283Z" fill="white"/>
<path d="M200.324 12.1142C200.324 8.67081 203.109 6.13062 206.386 6.13062C209.663 6.13062 212.448 8.67081 212.448 12.1142C212.448 15.5576 209.663 18.0978 206.386 18.0978C203.109 18.0978 200.324 15.5576 200.324 12.1142ZM206.386 16.0656C208.625 16.0656 210.1 14.3157 210.1 12.1142C210.1 9.91269 208.571 8.16277 206.386 8.16277C204.147 8.16277 202.672 9.91269 202.672 12.1142C202.672 14.3157 204.201 16.0656 206.386 16.0656Z" fill="white"/>
<path d="M215.07 20.6378H212.94V15.7268H214.36C215.016 14.9929 215.343 13.8639 215.616 12.5656L216.108 10.4206C216.545 8.38841 217.419 6.2998 220.149 6.2998H224.464V15.7268H226.048V20.6378H223.918V17.8718H215.016V20.6378H215.07ZM222.279 15.7832V8.44486H220.204C218.839 8.44486 218.402 9.57384 218.129 10.7593L217.637 12.9608C217.364 14.2026 216.982 15.2187 216.545 15.6139V15.7832H222.279Z" fill="white"/>
<path d="M233.804 18.0978C230.254 18.0978 227.687 15.5576 227.687 12.1142C227.687 8.67082 230.254 6.13062 233.694 6.13062C236.371 6.13062 239.538 7.93698 239.538 12.2835V12.7351H229.871C230.09 14.6544 231.564 16.0656 233.749 16.0656C235.06 16.0656 236.589 15.5576 237.026 14.4286H239.32C238.664 16.9688 236.098 18.0978 233.804 18.0978ZM229.981 2.1792H232.274V4.55005H229.981V2.1792ZM237.299 10.9852C236.971 9.2353 235.661 8.10633 233.694 8.10633C231.783 8.10633 230.418 9.3482 230.035 10.9852H237.299ZM234.951 2.1792H237.244V4.55005H234.951V2.1792Z" fill="white"/>
<path d="M250.079 6.35645V10.9288H251.935L254.557 6.35645H257.015L253.738 11.832L257.233 17.8156H254.721L251.935 12.961H250.024V17.8156H247.949V12.961H246.092L243.306 17.8156H240.794L244.289 11.832L241.012 6.35645H243.47L246.092 10.9288H247.949V6.35645H250.079Z" fill="white"/>
<path d="M258.817 12.6787L258.762 6.35645H261.001V9.63048H261.056C261.984 8.44505 263.186 7.88056 264.606 7.88056C267.337 7.88056 269.521 9.96917 269.521 12.9045C269.521 15.8963 267.282 18.0978 264.169 18.0978C261.11 18.0978 258.817 15.8398 258.817 12.6787ZM264.169 16.0656C265.917 16.0656 267.227 14.7673 267.227 13.0174C267.227 11.2675 265.917 9.91272 264.169 9.91272C262.421 9.91272 261.165 11.211 261.165 13.0174C261.165 14.8238 262.421 16.0656 264.169 16.0656Z" fill="white"/>
<path d="M120.591 31.5491H114.539V32.4846H117.048V38.0974H118.068V32.4846H120.591V31.5491ZM123.9 31.3365C121.902 31.3365 120.569 32.7397 120.569 34.8374C120.569 36.9068 121.902 38.31 123.971 38.31C125.615 38.31 126.451 37.4171 126.933 36.7367L126.196 36.0706C125.799 36.595 125.176 37.3179 123.957 37.3179C122.582 37.3179 121.632 36.4107 121.604 34.965H127.047V34.7807C127.047 32.8389 126.04 31.3365 123.9 31.3365ZM123.843 32.2862C125.105 32.2862 125.842 32.9948 125.941 34.1854H121.646C121.802 32.9382 122.709 32.2862 123.843 32.2862ZM131.964 38.0974H133.268L130.618 34.6532L132.942 31.5491H131.638L130.008 33.8736L128.378 31.5491H127.06L129.384 34.6532L126.748 38.0974H128.052L130.008 35.4611L131.964 38.0974ZM139.102 31.5491V34.1571H135.29V31.5491H134.269V38.0974H135.29V35.1067H139.102V38.0974H140.123V31.5491H139.102ZM145.027 31.3365C142.986 31.3365 141.484 32.7964 141.484 34.8233C141.484 36.8501 142.986 38.31 145.027 38.31C147.082 38.31 148.571 36.8501 148.571 34.8233C148.571 32.7964 147.082 31.3365 145.027 31.3365ZM145.027 32.3429C146.445 32.3429 147.494 33.3208 147.494 34.8233C147.494 36.3257 146.445 37.3037 145.027 37.3037C143.61 37.3037 142.561 36.3257 142.561 34.8233C142.561 33.3208 143.61 32.3429 145.027 32.3429ZM155.567 31.5491H150.238V36.3966C150.238 36.9635 150.039 37.2186 149.572 37.2186H149.076V38.1541H149.699C150.635 38.1541 151.258 37.6155 151.258 36.4107V32.5129H154.547V38.0974H155.567V31.5491ZM160.474 31.3365C158.433 31.3365 156.931 32.7964 156.931 34.8233C156.931 36.8501 158.433 38.31 160.474 38.31C162.53 38.31 164.018 36.8501 164.018 34.8233C164.018 32.7964 162.53 31.3365 160.474 31.3365ZM160.474 32.3429C161.892 32.3429 162.941 33.3208 162.941 34.8233C162.941 36.3257 161.892 37.3037 160.474 37.3037C159.057 37.3037 158.008 36.3257 158.008 34.8233C158.008 33.3208 159.057 32.3429 160.474 32.3429ZM169.58 31.5491H165.385V38.0974H166.406V32.5129H169.58V31.5491ZM170.562 38.0974H171.611L175.338 33.1082H175.367V38.0974H176.401V31.5491H175.367L171.625 36.5383H171.596V31.5491H170.562V38.0974ZM178.216 38.0974H179.265L182.993 33.1082H183.021V38.0974H184.056V31.5491H183.021L179.279 36.5383H179.251V31.5491H178.216V38.0974Z" fill="white"/>
</svg>
