<svg width="269" height="46" viewBox="0 0 269 46" fill="none" xmlns="http://www.w3.org/2000/svg">
<path fill-rule="evenodd" clip-rule="evenodd" d="M9.26642 16.2057V45.0348H0V16.1635H4.63321C0 16.1635 6.98805e-07 16.1609 2.79522e-06 16.1583L1.22291e-05 16.1528L5.2061e-05 16.1409L0.000235497 16.1137C0.000411247 16.0941 0.000702299 16.0715 0.00116491 16.0461C0.00208978 15.9953 0.00370227 15.933 0.00645381 15.8598C0.0119517 15.7137 0.0220319 15.5237 0.0404084 15.2957C0.0770293 14.8416 0.147358 14.2276 0.283249 13.5053C0.551477 12.0796 1.09547 10.1228 2.22525 8.12106C4.65611 3.8141 9.43395 0 17.6487 0C25.8635 0 30.6414 3.8141 33.0722 8.12106C34.202 10.1228 34.746 12.0796 35.0142 13.5053C35.1501 14.2276 35.2205 14.8416 35.2571 15.2957C35.2755 15.5237 35.2855 15.7137 35.291 15.8598C35.2938 15.933 35.2954 15.9953 35.2963 16.0461C35.2968 16.0715 35.2971 16.0941 35.2973 16.1137L35.2974 16.1409L35.2975 16.1528L35.2975 16.1583C35.2975 16.1609 35.2975 16.1635 30.6643 16.1635H35.2975V30.6524C35.2984 30.6729 35.3006 30.7137 35.3053 30.7725C35.3169 30.9166 35.3431 31.1574 35.4002 31.4607C35.5179 32.0863 35.7457 32.8645 36.1596 33.5979C36.8161 34.761 38.2129 36.417 42.3475 36.417C46.4821 36.417 47.879 34.761 48.5355 33.5979C48.9494 32.8645 49.1772 32.0863 49.2949 31.4607C49.352 31.1574 49.3781 30.9166 49.3897 30.7725C49.3945 30.7137 49.3966 30.6728 49.3976 30.6524V16.1635H54.0308C49.3976 16.1635 49.3976 16.1609 49.3976 16.1583L49.3976 16.1528L49.3976 16.1409L49.3978 16.1137C49.398 16.0941 49.3983 16.0715 49.3987 16.0461C49.3996 15.9953 49.4013 15.933 49.404 15.8598C49.4095 15.7137 49.4196 15.5237 49.438 15.2957C49.4746 14.8416 49.5449 14.2276 49.6808 13.5053C49.949 12.0796 50.493 10.1228 51.6228 8.12106C54.0537 3.8141 58.8315 0 67.0463 0C75.2611 0 80.0389 3.8141 82.4698 8.12106C83.5996 10.1228 84.1436 12.0796 84.4118 13.5053C84.5477 14.2276 84.618 14.8416 84.6546 15.2957C84.673 15.5237 84.6831 15.7137 84.6886 15.8598C84.6914 15.933 84.693 15.9953 84.6939 16.0461C84.6944 16.0715 84.6946 16.0941 84.6948 16.1137L84.695 16.1409L84.695 16.1528L84.695 16.1583C84.6951 16.1609 84.6951 16.1635 80.0618 16.1635H84.6951V45.0348H75.4286V16.2058C75.4277 16.1815 75.425 16.1248 75.4182 16.0405C75.404 15.8641 75.3726 15.5772 75.3052 15.2186C75.1666 14.4824 74.8972 13.5566 74.4 12.6757C73.577 11.2175 71.8471 9.26642 67.0463 9.26642C62.2456 9.26642 60.5156 11.2175 59.6926 12.6757C59.1954 13.5566 58.926 14.4824 58.7875 15.2186C58.72 15.5772 58.6886 15.8641 58.6744 16.0405C58.6676 16.1248 58.6649 16.1815 58.664 16.2058V30.7002H54.0308C58.664 30.7002 58.664 30.7028 58.664 30.7054L58.664 30.7109L58.6639 30.7226L58.6637 30.7492C58.6636 30.7682 58.6633 30.7899 58.6629 30.8142C58.662 30.8628 58.6604 30.9218 58.6578 30.9906C58.6527 31.1281 58.6432 31.3055 58.6262 31.5173C58.5921 31.9392 58.527 32.507 58.4015 33.174C58.1541 34.4891 57.6518 36.2983 56.6053 38.1525C54.3409 42.1644 49.8962 45.6834 42.3475 45.6834C34.7989 45.6834 30.3541 42.1644 28.0898 38.1525C27.0433 36.2983 26.5409 34.4891 26.2935 33.174C26.168 32.507 26.1029 31.9392 26.0689 31.5172C26.0518 31.3055 26.0424 31.1281 26.0372 30.9906C26.0346 30.9218 26.0331 30.8628 26.0322 30.8142C26.0318 30.7899 26.0315 30.7682 26.0313 30.7492L26.0311 30.7226L26.0311 30.7109L26.0311 30.7054C26.0311 30.7028 26.0311 30.7002 30.6494 30.7002H26.0311V16.2057C26.0301 16.1813 26.0274 16.1247 26.0206 16.0405C26.0064 15.8641 25.9751 15.5772 25.9076 15.2186C25.7691 14.4824 25.4996 13.5566 25.0024 12.6757C24.1794 11.2175 22.4495 9.26642 17.6487 9.26642C12.848 9.26642 11.1181 11.2175 10.2951 12.6757C9.79789 13.5566 9.52841 14.4824 9.3899 15.2186C9.32243 15.5772 9.29107 15.8641 9.27685 16.0405C9.27006 16.1247 9.26737 16.1813 9.26642 16.2057Z" fill="#FDA65E"/>
<path d="M119.389 7.33398C122.721 7.33398 125.397 9.87418 125.397 13.3176C125.397 16.7045 122.666 19.3011 119.553 19.3011C118.078 19.3011 116.658 18.8495 115.621 17.6077H115.511V26.3008H113.272V14.2207C113.272 10.0435 115.621 7.33398 119.389 7.33398ZM119.335 17.269C121.519 17.269 123.048 15.4626 123.048 13.2611C123.048 11.1161 121.574 9.30969 119.335 9.30969C117.095 9.30969 115.566 11.0596 115.566 13.2611C115.566 15.4626 117.15 17.269 119.335 17.269Z" fill="#252525"/>
<path d="M127.473 13.3176C127.473 9.87418 130.258 7.33398 133.535 7.33398C136.812 7.33398 139.598 9.87418 139.598 13.3176C139.598 16.7609 136.812 19.3011 133.535 19.3011C130.258 19.3011 127.473 16.7609 127.473 13.3176ZM133.535 17.269C135.774 17.269 137.249 15.5191 137.249 13.3176C137.249 11.1161 135.72 9.36614 133.535 9.36614C131.351 9.36614 129.821 11.1161 129.821 13.3176C129.821 15.5191 131.296 17.269 133.535 17.269Z" fill="#252525"/>
<path d="M147.789 19.3011C144.294 19.3011 141.672 16.7609 141.672 13.3176C141.672 9.87418 144.239 7.33398 147.734 7.33398C150.411 7.33398 152.868 8.80165 153.524 11.6805H151.23C150.684 10.1564 149.318 9.36614 147.789 9.36614C145.441 9.36614 144.021 11.1725 144.021 13.374C144.021 15.5755 145.495 17.3254 147.844 17.3254C149.373 17.3254 150.738 16.5916 151.284 14.9546H153.578C152.759 17.8899 150.356 19.3011 147.789 19.3011Z" fill="#252525"/>
<path d="M161.825 17.6642L158.166 9.76132H158.111V19.0754H155.981V7.55981H159.368L162.972 15.4062H163.027L166.631 7.55981H170.018V19.0189H167.888V9.76132H167.833L164.174 17.6642H161.825Z" fill="#252525"/>
<path d="M172.421 13.3176C172.421 9.87418 175.207 7.33398 178.483 7.33398C181.76 7.33398 184.546 9.87418 184.546 13.3176C184.546 16.7609 181.76 19.3011 178.483 19.3011C175.207 19.3011 172.421 16.7609 172.421 13.3176ZM178.538 17.269C180.777 17.269 182.252 15.5191 182.252 13.3176C182.252 11.1161 180.723 9.36614 178.538 9.36614C176.299 9.36614 174.824 11.1161 174.824 13.3176C174.77 15.5191 176.299 17.269 178.538 17.269Z" fill="#252525"/>
<path d="M185.693 19.1316V16.7608H185.747C186.184 16.7608 186.676 16.5914 187.004 16.1963C187.441 15.7447 187.604 14.8415 187.823 13.5996L188.151 11.7368C188.533 9.64823 189.243 7.50317 192.301 7.50317H196.616V19.0187H194.377V9.64823H192.629C190.881 9.64823 190.554 10.1563 190.117 12.5836L189.844 14.277C189.571 15.8576 189.188 17.2124 188.424 18.0591C187.823 18.7365 187.004 19.0752 185.857 19.0752H185.693V19.1316Z" fill="#252525"/>
<path d="M199.128 13.3176C199.128 9.87418 201.913 7.33398 205.19 7.33398C208.467 7.33398 211.252 9.87418 211.252 13.3176C211.252 16.7609 208.467 19.3011 205.19 19.3011C201.913 19.3011 199.128 16.7609 199.128 13.3176ZM205.19 17.269C207.429 17.269 208.904 15.5191 208.904 13.3176C208.904 11.1161 207.375 9.36614 205.19 9.36614C202.951 9.36614 201.476 11.1161 201.476 13.3176C201.476 15.5191 203.005 17.269 205.19 17.269Z" fill="#252525"/>
<path d="M213.874 21.8412H211.744V16.9301H213.164C213.82 16.1963 214.147 15.0673 214.42 13.769L214.912 11.6239C215.349 9.59178 216.223 7.50317 218.953 7.50317H223.268V16.9301H224.852V21.8412H222.722V19.0752H213.82V21.8412H213.874ZM221.083 16.9866V9.64823H219.008C217.643 9.64823 217.206 10.7772 216.933 11.9626L216.441 14.1641C216.168 15.406 215.786 16.4221 215.349 16.8172V16.9866H221.083Z" fill="#252525"/>
<path d="M232.608 19.3011C229.058 19.3011 226.491 16.7609 226.491 13.3176C226.491 9.87418 229.058 7.33399 232.498 7.33399C235.175 7.33399 238.342 9.14035 238.342 13.4869V13.9385H228.675C228.894 15.8578 230.368 17.269 232.553 17.269C233.864 17.269 235.393 16.7609 235.83 15.632H238.124C237.468 18.1722 234.901 19.3011 232.608 19.3011ZM228.785 3.38257H231.078V5.75342H228.785V3.38257ZM236.103 12.1886C235.775 10.4387 234.465 9.3097 232.498 9.3097C230.587 9.3097 229.221 10.5516 228.839 12.1886H236.103ZM233.755 3.38257H236.048V5.75342H233.755V3.38257Z" fill="#252525"/>
<path d="M248.883 7.55981V12.1322H250.739L253.361 7.55981H255.819L252.542 13.0354L256.037 19.0189H253.525L250.739 14.1643H248.828V19.0189H246.752V14.1643H244.896L242.11 19.0189H239.598L243.093 13.0354L239.816 7.55981H242.274L244.896 12.1322H246.752V7.55981H248.883Z" fill="#252525"/>
<path d="M257.621 13.8821L257.566 7.55981H259.805V10.8338H259.86C260.788 9.64842 261.99 9.08393 263.41 9.08393C266.141 9.08393 268.325 11.1725 268.325 14.1079C268.325 17.0997 266.086 19.3012 262.973 19.3012C259.914 19.3012 257.621 17.0432 257.621 13.8821ZM262.973 17.269C264.721 17.269 266.031 15.9707 266.031 14.2208C266.031 12.4709 264.721 11.1161 262.973 11.1161C261.225 11.1161 259.969 12.4144 259.969 14.2208C259.969 16.0271 261.225 17.269 262.973 17.269Z" fill="#252525"/>
<path d="M119.594 38.4787V32.7525H119.183H115.753H114.732V36.0975C114.732 37.1747 114.52 37.8692 114.165 38.4787H113.329V41.1434H114.25V39.4283H119.495V41.1434H120.402V38.4787H119.594ZM115.753 36.1542V33.688H118.573V38.4787H115.257C115.554 37.8834 115.753 37.2031 115.753 36.1542ZM124.315 32.5399C122.274 32.5399 120.771 33.9998 120.771 36.0266C120.771 38.0535 122.274 39.5134 124.315 39.5134C126.37 39.5134 127.858 38.0535 127.858 36.0266C127.858 33.9998 126.37 32.5399 124.315 32.5399ZM124.315 33.5462C125.732 33.5462 126.781 34.5242 126.781 36.0266C126.781 37.5291 125.732 38.507 124.315 38.507C122.897 38.507 121.848 37.5291 121.848 36.0266C121.848 34.5242 122.897 33.5462 124.315 33.5462ZM132.386 39.5134C134.583 39.5134 135.958 38.0535 135.958 35.9983C135.958 33.9998 134.625 32.6391 132.684 32.6391C131.337 32.6391 130.217 33.2911 129.735 34.4959H129.693C129.806 33.1919 130.26 32.1714 131.139 31.7036C131.932 31.2926 133.435 31.0375 134.002 30.8815C134.824 30.6548 135.292 30.2296 135.292 29.3224H134.285C134.257 29.6626 133.917 29.9177 133.477 30.0453C132.811 30.2296 131.45 30.4705 130.586 30.9524C129.168 31.7745 128.772 33.6313 128.772 35.2046C128.772 38.3228 130.373 39.5134 132.386 39.5134ZM132.414 38.507C131.054 38.507 129.934 37.5858 129.934 36.0408C129.934 34.51 131.054 33.5887 132.414 33.5887C133.775 33.5887 134.88 34.51 134.88 36.055C134.88 37.5858 133.789 38.507 132.414 38.507ZM137.336 42.1355H138.357V38.1385H138.385C138.839 38.9606 139.675 39.5134 140.866 39.5134C142.666 39.5134 144.111 38.1952 144.111 36.0266C144.111 33.858 142.666 32.5399 140.866 32.5399C139.675 32.5399 138.839 33.0927 138.385 33.9147H138.357V32.7525H137.336V42.1355ZM140.667 38.507C139.236 38.507 138.3 37.4724 138.3 36.0266C138.3 34.5809 139.236 33.5462 140.667 33.5462C142.099 33.5462 143.034 34.5809 143.034 36.0266C143.034 37.4724 142.099 38.507 140.667 38.507ZM148.565 32.5399C146.524 32.5399 145.022 33.9998 145.022 36.0266C145.022 38.0535 146.524 39.5134 148.565 39.5134C150.62 39.5134 152.109 38.0535 152.109 36.0266C152.109 33.9998 150.62 32.5399 148.565 32.5399ZM148.565 33.5462C149.982 33.5462 151.031 34.5242 151.031 36.0266C151.031 37.5291 149.982 38.507 148.565 38.507C147.148 38.507 146.099 37.5291 146.099 36.0266C146.099 34.5242 147.148 33.5462 148.565 33.5462Z" fill="#252525"/>
</svg>
