<svg width="270" height="49" viewBox="0 0 270 49" fill="none" xmlns="http://www.w3.org/2000/svg">
<path fill-rule="evenodd" clip-rule="evenodd" d="M85.6217 0.830322V46.3071H76.3553V20.9885L44.3475 48.4465L9.26642 28.0447V46.3071H0V11.9362L43.3128 37.1252L85.6217 0.830322Z" fill="#DFEF18"/>
<path d="M120.316 9.13062C123.647 9.13062 126.324 11.6708 126.324 15.1142C126.324 18.5011 123.593 21.0978 120.48 21.0978C119.005 21.0978 117.585 20.6462 116.547 19.4043H116.438V28.0974H114.199V16.0174C114.199 11.8402 116.547 9.13062 120.316 9.13062ZM120.261 19.0656C122.446 19.0656 123.975 17.2592 123.975 15.0577C123.975 12.9127 122.501 11.1063 120.261 11.1063C118.022 11.1063 116.493 12.8562 116.493 15.0577C116.493 17.2592 118.077 19.0656 120.261 19.0656Z" fill="white"/>
<path d="M128.4 15.1142C128.4 11.6708 131.185 9.13062 134.462 9.13062C137.739 9.13062 140.524 11.6708 140.524 15.1142C140.524 18.5576 137.739 21.0978 134.462 21.0978C131.185 21.0978 128.4 18.5576 128.4 15.1142ZM134.462 19.0656C136.701 19.0656 138.176 17.3157 138.176 15.1142C138.176 12.9127 136.647 11.1628 134.462 11.1628C132.277 11.1628 130.748 12.9127 130.748 15.1142C130.748 17.3157 132.223 19.0656 134.462 19.0656Z" fill="white"/>
<path d="M148.716 21.0978C145.22 21.0978 142.599 18.5576 142.599 15.1142C142.599 11.6708 145.166 9.13062 148.661 9.13062C151.337 9.13062 153.795 10.5983 154.45 13.4772H152.157C151.61 11.9531 150.245 11.1628 148.716 11.1628C146.367 11.1628 144.947 12.9691 144.947 15.1706C144.947 17.3721 146.422 19.1221 148.77 19.1221C150.3 19.1221 151.665 18.3882 152.211 16.7512H154.505C153.686 19.6865 151.283 21.0978 148.716 21.0978Z" fill="white"/>
<path d="M162.752 19.4608L159.093 11.5579H159.038V20.872H156.908V9.35645H160.294L163.899 17.2028H163.954L167.558 9.35645H170.944V20.8156H168.814V11.5579H168.76L165.101 19.4608H162.752Z" fill="white"/>
<path d="M173.348 15.1142C173.348 11.6708 176.133 9.13062 179.41 9.13062C182.687 9.13062 185.473 11.6708 185.473 15.1142C185.473 18.5576 182.687 21.0978 179.41 21.0978C176.133 21.0978 173.348 18.5576 173.348 15.1142ZM179.465 19.0656C181.704 19.0656 183.179 17.3157 183.179 15.1142C183.179 12.9127 181.649 11.1628 179.465 11.1628C177.226 11.1628 175.751 12.9127 175.751 15.1142C175.696 17.3157 177.226 19.0656 179.465 19.0656Z" fill="white"/>
<path d="M186.62 20.9283V18.5574H186.674C187.111 18.5574 187.603 18.3881 187.93 17.9929C188.367 17.5413 188.531 16.6382 188.75 15.3963L189.077 13.5335C189.46 11.4449 190.17 9.2998 193.228 9.2998H197.543V20.8154H195.303V11.4449H193.556C191.808 11.4449 191.48 11.9529 191.043 14.3802L190.77 16.0737C190.497 17.6542 190.115 19.009 189.35 19.8557C188.75 20.5331 187.93 20.8718 186.783 20.8718H186.62V20.9283Z" fill="white"/>
<path d="M200.054 15.1142C200.054 11.6708 202.84 9.13062 206.117 9.13062C209.394 9.13062 212.179 11.6708 212.179 15.1142C212.179 18.5576 209.394 21.0978 206.117 21.0978C202.84 21.0978 200.054 18.5576 200.054 15.1142ZM206.117 19.0656C208.356 19.0656 209.831 17.3157 209.831 15.1142C209.831 12.9127 208.301 11.1628 206.117 11.1628C203.878 11.1628 202.403 12.9127 202.403 15.1142C202.403 17.3157 203.932 19.0656 206.117 19.0656Z" fill="white"/>
<path d="M214.801 23.6378H212.671V18.7268H214.091C214.746 17.9929 215.074 16.8639 215.347 15.5656L215.839 13.4206C216.276 11.3884 217.149 9.2998 219.88 9.2998H224.195V18.7268H225.779V23.6378H223.649V20.8718H214.746V23.6378H214.801ZM222.01 18.7832V11.4449H219.935C218.569 11.4449 218.132 12.5738 217.859 13.7593L217.368 15.9608C217.095 17.2026 216.712 18.2187 216.276 18.6139V18.7832H222.01Z" fill="white"/>
<path d="M233.534 21.0978C229.984 21.0978 227.417 18.5576 227.417 15.1142C227.417 11.6708 229.984 9.13062 233.425 9.13062C236.101 9.13062 239.269 10.937 239.269 15.2835V15.7351H229.602C229.821 17.6544 231.295 19.0656 233.48 19.0656C234.791 19.0656 236.32 18.5576 236.757 17.4286H239.051C238.395 19.9688 235.828 21.0978 233.534 21.0978ZM229.711 5.1792H232.005V7.55005H229.711V5.1792ZM237.03 13.9852C236.702 12.2353 235.391 11.1063 233.425 11.1063C231.514 11.1063 230.148 12.3482 229.766 13.9852H237.03ZM234.681 5.1792H236.975V7.55005H234.681V5.1792Z" fill="white"/>
<path d="M249.809 9.35645V13.9288H251.666L254.288 9.35645H256.745L253.468 14.832L256.964 20.8156H254.452L251.666 15.961H249.755V20.8156H247.679V15.961H245.822L243.037 20.8156H240.525L244.02 14.832L240.743 9.35645H243.201L245.822 13.9288H247.679V9.35645H249.809Z" fill="white"/>
<path d="M258.547 15.6787L258.493 9.35645H260.732V12.6305H260.787C261.715 11.4451 262.917 10.8806 264.337 10.8806C267.067 10.8806 269.252 12.9692 269.252 15.9045C269.252 18.8963 267.013 21.0978 263.9 21.0978C260.841 21.0978 258.547 18.8398 258.547 15.6787ZM263.9 19.0656C265.647 19.0656 266.958 17.7673 266.958 16.0174C266.958 14.2675 265.647 12.9127 263.9 12.9127C262.152 12.9127 260.896 14.211 260.896 16.0174C260.896 17.8238 262.152 19.0656 263.9 19.0656Z" fill="white"/>
<path d="M118.267 41.31C120.464 41.31 121.839 39.8501 121.839 37.7949C121.839 35.7964 120.506 34.4357 118.565 34.4357C117.218 34.4357 116.098 35.0877 115.616 36.2925H115.574C115.687 34.9885 116.141 33.968 117.02 33.5003C117.813 33.0892 119.316 32.8341 119.883 32.6782C120.705 32.4514 121.172 32.0262 121.172 31.1191H120.166C120.138 31.4592 119.798 31.7144 119.358 31.8419C118.692 32.0262 117.331 32.2671 116.467 32.749C115.049 33.5711 114.653 35.4279 114.653 37.0012C114.653 40.1194 116.254 41.31 118.267 41.31ZM118.295 40.3037C116.935 40.3037 115.815 39.3824 115.815 37.8374C115.815 36.3067 116.935 35.3854 118.295 35.3854C119.656 35.3854 120.761 36.3067 120.761 37.8516C120.761 39.3824 119.67 40.3037 118.295 40.3037ZM123.217 41.0974H124.266L127.994 36.1082H128.022V41.0974H129.057V34.5491H128.022L124.28 39.5383H124.252V34.5491H123.217V41.0974ZM133.026 41.31C135.053 41.31 135.932 40.5305 135.932 39.3115C135.932 38.2768 135.294 37.7099 134.203 37.6107V37.5823C135.195 37.4547 135.762 36.8736 135.762 36.0374C135.762 34.9318 134.769 34.3365 133.125 34.3365C132.076 34.3365 131.127 34.5916 130.517 34.8184L130.872 35.7397C131.424 35.5271 132.232 35.2862 133.083 35.2862C134.075 35.2862 134.684 35.5838 134.684 36.25C134.684 36.9728 134.061 37.1996 133.069 37.1996H131.892V38.1067H133.125C134.273 38.1067 134.897 38.376 134.897 39.2265C134.897 40.0769 134.132 40.3604 133.069 40.3604C132.048 40.3604 131.311 40.0769 130.744 39.7934L130.305 40.6864C130.985 41.0549 131.878 41.31 133.026 41.31ZM142.141 34.5491V37.1571H138.329V34.5491H137.308V41.0974H138.329V38.1067H142.141V41.0974H143.162V34.5491H142.141ZM147.854 34.3365C145.855 34.3365 144.523 35.7397 144.523 37.8374C144.523 39.9068 145.855 41.31 147.924 41.31C149.569 41.31 150.405 40.4171 150.887 39.7367L150.15 39.0706C149.753 39.595 149.129 40.3179 147.91 40.3179C146.535 40.3179 145.586 39.4107 145.557 37.965H151V37.7807C151 35.8389 149.994 34.3365 147.854 34.3365ZM147.797 35.2862C149.058 35.2862 149.795 35.9948 149.895 37.1854H145.6C145.756 35.9382 146.663 35.2862 147.797 35.2862ZM155.361 41.31C156.197 41.31 156.906 41.0832 157.6 40.658L157.104 39.7792C156.552 40.1052 155.985 40.3179 155.333 40.3179C153.844 40.3179 152.881 39.2123 152.881 37.8233C152.881 36.4342 153.844 35.3287 155.333 35.3287C155.985 35.3287 156.552 35.5413 157.104 35.8673L157.6 34.9885C156.906 34.5633 156.197 34.3365 155.361 34.3365C153.263 34.3365 151.803 35.7397 151.803 37.8233C151.803 39.9068 153.263 41.31 155.361 41.31Z" fill="white"/>
</svg>
