<svg width="270" height="43" viewBox="0 0 270 43" fill="none" xmlns="http://www.w3.org/2000/svg">
<path fill-rule="evenodd" clip-rule="evenodd" d="M39.855 0.409424V33.6011H43.011C43.5478 33.4721 44.0439 33.2447 44.4738 32.7533C44.9942 32.1585 46.0349 30.4616 45.9713 26.0698C45.8519 17.8364 50.1134 11.3111 56.4431 7.03582C62.6674 2.83171 70.9533 0.705416 79.7005 0.705318L84.3337 0.705266V42.6822H75.0673V10.2191C69.6692 10.808 65.0305 12.4177 61.6297 14.7147C57.3957 17.5745 55.1707 21.3812 55.2367 25.9355C55.3213 31.7738 53.9527 35.992 51.4477 38.8551C48.9398 41.7214 45.9116 42.5132 44.2601 42.7994L43.8674 42.8675H30.5886V10.6425C22.6617 12.4022 17.628 17.0615 14.391 22.5296C10.3959 29.2786 9.15075 37.318 9.27456 42.5731L0.0107169 42.7913C-0.143466 36.2471 1.33574 26.3931 6.41702 17.8093C11.632 8.99967 20.642 1.59961 34.9353 0.714182L39.855 0.409424Z" fill="#0399FF"/>
<path d="M120.493 6.13074C123.825 6.13074 126.501 8.67093 126.501 12.1143C126.501 15.5012 123.77 18.0979 120.657 18.0979C119.183 18.0979 117.763 17.6463 116.725 16.4044H116.616V25.0975H114.376V13.0175C114.376 8.84028 116.725 6.13074 120.493 6.13074ZM120.439 16.0657C122.623 16.0657 124.153 14.2594 124.153 12.0579C124.153 9.91281 122.678 8.10645 120.439 8.10645C118.2 8.10645 116.67 9.85636 116.67 12.0579C116.67 14.2594 118.254 16.0657 120.439 16.0657Z" fill="#252525"/>
<path d="M128.577 12.1143C128.577 8.67094 131.363 6.13074 134.639 6.13074C137.916 6.13074 140.702 8.67094 140.702 12.1143C140.702 15.5577 137.916 18.0979 134.639 18.0979C131.363 18.0979 128.577 15.5577 128.577 12.1143ZM134.639 16.0657C136.879 16.0657 138.353 14.3158 138.353 12.1143C138.353 9.91281 136.824 8.1629 134.639 8.1629C132.455 8.1629 130.926 9.91281 130.926 12.1143C130.926 14.3158 132.4 16.0657 134.639 16.0657Z" fill="#252525"/>
<path d="M148.893 18.0979C145.398 18.0979 142.776 15.5577 142.776 12.1143C142.776 8.67094 145.343 6.13074 148.839 6.13074C151.515 6.13074 153.973 7.59841 154.628 10.4773H152.334C151.788 8.95318 150.423 8.1629 148.893 8.1629C146.545 8.1629 145.125 9.96926 145.125 12.1708C145.125 14.3723 146.599 16.1222 148.948 16.1222C150.477 16.1222 151.843 15.3883 152.389 13.7513H154.683C153.863 16.6867 151.46 18.0979 148.893 18.0979Z" fill="#252525"/>
<path d="M162.93 16.4609L159.27 8.55807H159.216V17.8721H157.086V6.35657H160.472L164.076 14.203H164.131L167.736 6.35657H171.122V17.8157H168.992V8.55807H168.937L165.278 16.4609H162.93Z" fill="#252525"/>
<path d="M173.525 12.1143C173.525 8.67094 176.311 6.13074 179.588 6.13074C182.865 6.13074 185.65 8.67094 185.65 12.1143C185.65 15.5577 182.865 18.0979 179.588 18.0979C176.311 18.0979 173.525 15.5577 173.525 12.1143ZM179.642 16.0657C181.882 16.0657 183.356 14.3158 183.356 12.1143C183.356 9.91281 181.827 8.1629 179.642 8.1629C177.403 8.1629 175.928 9.91281 175.928 12.1143C175.874 14.3158 177.403 16.0657 179.642 16.0657Z" fill="#252525"/>
<path d="M186.797 17.9285V15.5577H186.852C187.289 15.5577 187.78 15.3883 188.108 14.9932C188.545 14.5416 188.709 13.6384 188.927 12.3965L189.255 10.5337C189.637 8.4451 190.347 6.30005 193.406 6.30005H197.72V17.8156H195.481V8.4451H193.733C191.986 8.4451 191.658 8.95314 191.221 11.3804L190.948 13.0739C190.675 14.6545 190.292 16.0092 189.528 16.856C188.927 17.5334 188.108 17.8721 186.961 17.8721H186.797V17.9285Z" fill="#252525"/>
<path d="M200.232 12.1143C200.232 8.67094 203.017 6.13074 206.294 6.13074C209.571 6.13074 212.357 8.67094 212.357 12.1143C212.357 15.5577 209.571 18.0979 206.294 18.0979C203.017 18.0979 200.232 15.5577 200.232 12.1143ZM206.294 16.0657C208.533 16.0657 210.008 14.3158 210.008 12.1143C210.008 9.91281 208.479 8.1629 206.294 8.1629C204.055 8.1629 202.58 9.91281 202.58 12.1143C202.58 14.3158 204.11 16.0657 206.294 16.0657Z" fill="#252525"/>
<path d="M214.978 20.6381H212.848V15.727H214.268C214.924 14.9932 215.251 13.8642 215.525 12.5659L216.016 10.4208C216.453 8.38866 217.327 6.30005 220.058 6.30005H224.372V15.727H225.956V20.6381H223.826V17.8721H214.924V20.6381H214.978ZM222.188 15.7835V8.4451H220.112C218.747 8.4451 218.31 9.57408 218.037 10.7595L217.545 12.961C217.272 14.2029 216.89 15.219 216.453 15.6141V15.7835H222.188Z" fill="#252525"/>
<path d="M233.712 18.0979C230.162 18.0979 227.595 15.5577 227.595 12.1143C227.595 8.67094 230.162 6.13074 233.603 6.13074C236.279 6.13074 239.447 7.9371 239.447 12.2837V12.7353H229.78C229.998 14.6545 231.473 16.0657 233.657 16.0657C234.968 16.0657 236.497 15.5577 236.934 14.4287H239.228C238.573 16.9689 236.006 18.0979 233.712 18.0979ZM229.889 2.17932H232.183V4.55017H229.889V2.17932ZM237.207 10.9853C236.88 9.23543 235.569 8.10645 233.603 8.10645C231.691 8.10645 230.326 9.34832 229.943 10.9853H237.207ZM234.859 2.17932H237.153V4.55017H234.859V2.17932Z" fill="#252525"/>
<path d="M249.987 6.35657V10.9289H251.844L254.465 6.35657H256.923L253.646 11.8321L257.141 17.8157H254.629L251.844 12.9611H249.932V17.8157H247.857V12.9611H246L243.214 17.8157H240.702L244.198 11.8321L240.921 6.35657H243.378L246 10.9289H247.857V6.35657H249.987Z" fill="#252525"/>
<path d="M258.725 12.6788L258.67 6.35657H260.909V9.6306H260.964C261.892 8.44517 263.094 7.88069 264.514 7.88069C267.245 7.88069 269.429 9.96929 269.429 12.9046C269.429 15.8964 267.19 18.0979 264.077 18.0979C261.019 18.0979 258.725 15.84 258.725 12.6788ZM264.077 16.0658C265.825 16.0658 267.136 14.7674 267.136 13.0175C267.136 11.2676 265.825 9.91284 264.077 9.91284C262.329 9.91284 261.073 11.2112 261.073 13.0175C261.073 14.8239 262.329 16.0658 264.077 16.0658Z" fill="#252525"/>
<path d="M115.284 38.0975H116.332L120.06 33.1084H120.089V38.0975H121.123V31.5492H120.089L116.347 36.5384H116.318V31.5492H115.284V38.0975ZM122.272 38.0975H123.307L124.639 33.1367H124.667L126.297 37.0062H127.063L128.678 33.1367H128.707L130.039 38.0975H131.074L129.259 31.5492H128.31L126.68 35.5179H126.652L125.036 31.5492H124.086L122.272 38.0975ZM137.853 31.5492H133.246H132.226V38.0975H133.246V32.5131H136.832V38.0975H137.853V31.5492ZM142.465 38.3101C143.655 38.3101 144.492 37.7574 144.945 36.9353H144.973V38.0975H145.994V31.5492H144.973V32.7115H144.945C144.492 31.8894 143.655 31.3366 142.465 31.3366C140.665 31.3366 139.219 32.6548 139.219 34.8234C139.219 36.992 140.665 38.3101 142.465 38.3101ZM142.663 37.3038C141.232 37.3038 140.296 36.2691 140.296 34.8234C140.296 33.3777 141.232 32.343 142.663 32.343C144.095 32.343 145.03 33.3777 145.03 34.8234C145.03 36.2691 144.095 37.3038 142.663 37.3038ZM153.212 38.0975L149.881 34.5399L152.9 31.5492H151.497L148.804 34.3982V31.5492H147.784V38.0975H148.804V34.795L151.809 38.0975H153.212ZM159.325 31.5492H153.273V32.4847H155.782V38.0975H156.802V32.4847H159.325V31.5492Z" fill="#252525"/>
</svg>
