<svg width="270" height="48" viewBox="0 0 270 48" fill="none" xmlns="http://www.w3.org/2000/svg">
<path fill-rule="evenodd" clip-rule="evenodd" d="M85.6217 0V45.4768H76.3553V20.1581L44.3475 47.6162L9.26642 27.2144V45.4768H0V11.1059L43.3128 36.2949L85.6217 0Z" fill="#DFEF18"/>
<path d="M120.316 8.30038C123.647 8.30038 126.324 10.8406 126.324 14.284C126.324 17.6709 123.593 20.2675 120.48 20.2675C119.005 20.2675 117.585 19.8159 116.547 18.5741H116.438V27.2672H114.199V15.1871C114.199 11.0099 116.547 8.30038 120.316 8.30038ZM120.261 18.2354C122.446 18.2354 123.975 16.429 123.975 14.2275C123.975 12.0825 122.5 10.2761 120.261 10.2761C118.022 10.2761 116.493 12.026 116.493 14.2275C116.493 16.429 118.077 18.2354 120.261 18.2354Z" fill="white"/>
<path d="M128.4 14.284C128.4 10.8406 131.185 8.30038 134.462 8.30038C137.739 8.30038 140.524 10.8406 140.524 14.284C140.524 17.7273 137.739 20.2675 134.462 20.2675C131.185 20.2675 128.4 17.7273 128.4 14.284ZM134.462 18.2354C136.701 18.2354 138.176 16.4855 138.176 14.284C138.176 12.0825 136.646 10.3325 134.462 10.3325C132.277 10.3325 130.748 12.0825 130.748 14.284C130.748 16.4855 132.223 18.2354 134.462 18.2354Z" fill="white"/>
<path d="M148.716 20.2675C145.22 20.2675 142.599 17.7273 142.599 14.284C142.599 10.8406 145.166 8.30038 148.661 8.30038C151.337 8.30038 153.795 9.76805 154.45 12.6469H152.156C151.61 11.1228 150.245 10.3325 148.716 10.3325C146.367 10.3325 144.947 12.1389 144.947 14.3404C144.947 16.5419 146.422 18.2918 148.77 18.2918C150.299 18.2918 151.665 17.558 152.211 15.921H154.505C153.686 18.8563 151.283 20.2675 148.716 20.2675Z" fill="white"/>
<path d="M162.752 18.6305L159.093 10.7277H159.038V20.0417H156.908V8.52615H160.294L163.899 16.3725H163.953L167.558 8.52615H170.944V19.9853H168.814V10.7277H168.76L165.1 18.6305H162.752Z" fill="white"/>
<path d="M173.348 14.284C173.348 10.8406 176.133 8.30038 179.41 8.30038C182.687 8.30038 185.472 10.8406 185.472 14.284C185.472 17.7273 182.687 20.2675 179.41 20.2675C176.133 20.2675 173.348 17.7273 173.348 14.284ZM179.465 18.2354C181.704 18.2354 183.179 16.4855 183.179 14.284C183.179 12.0825 181.649 10.3325 179.465 10.3325C177.225 10.3325 175.751 12.0825 175.751 14.284C175.696 16.4855 177.225 18.2354 179.465 18.2354Z" fill="white"/>
<path d="M186.62 20.0981V17.7272H186.674C187.111 17.7272 187.603 17.5579 187.93 17.1627C188.367 16.7111 188.531 15.808 188.75 14.5661L189.077 12.7033C189.46 10.6147 190.17 8.4696 193.228 8.4696H197.543V19.9852H195.303V10.6147H193.556C191.808 10.6147 191.48 11.1227 191.043 13.55L190.77 15.2435C190.497 16.824 190.115 18.1788 189.35 19.0255C188.75 19.7029 187.93 20.0416 186.783 20.0416H186.62V20.0981Z" fill="white"/>
<path d="M200.054 14.284C200.054 10.8406 202.84 8.30038 206.117 8.30038C209.394 8.30038 212.179 10.8406 212.179 14.284C212.179 17.7273 209.394 20.2675 206.117 20.2675C202.84 20.2675 200.054 17.7273 200.054 14.284ZM206.117 18.2354C208.356 18.2354 209.831 16.4855 209.831 14.284C209.831 12.0825 208.301 10.3325 206.117 10.3325C203.878 10.3325 202.403 12.0825 202.403 14.284C202.403 16.4855 203.932 18.2354 206.117 18.2354Z" fill="white"/>
<path d="M214.801 22.8076H212.671V17.8966H214.091C214.746 17.1627 215.074 16.0337 215.347 14.7354L215.838 12.5904C216.275 10.5582 217.149 8.4696 219.88 8.4696H224.195V17.8966H225.778V22.8076H223.648V20.0416H214.746V22.8076H214.801ZM222.01 17.953V10.6147H219.935C218.569 10.6147 218.132 11.7436 217.859 12.9291L217.368 15.1306C217.095 16.3724 216.712 17.3885 216.275 17.7837V17.953H222.01Z" fill="white"/>
<path d="M233.534 20.2675C229.984 20.2675 227.417 17.7273 227.417 14.284C227.417 10.8406 229.984 8.30039 233.425 8.30039C236.101 8.30039 239.269 10.1067 239.269 14.4533V14.9049H229.602C229.82 16.8242 231.295 18.2354 233.48 18.2354C234.79 18.2354 236.32 17.7273 236.757 16.5984H239.05C238.395 19.1386 235.828 20.2675 233.534 20.2675ZM229.711 4.34897H232.005V6.71982H229.711V4.34897ZM237.03 13.155C236.702 11.4051 235.391 10.2761 233.425 10.2761C231.514 10.2761 230.148 11.518 229.766 13.155H237.03ZM234.681 4.34897H236.975V6.71982H234.681V4.34897Z" fill="white"/>
<path d="M249.809 8.52615V13.0985H251.666L254.288 8.52615H256.745L253.468 14.0017L256.964 19.9853H254.451L251.666 15.1307H249.755V19.9853H247.679V15.1307H245.822L243.037 19.9853H240.525L244.02 14.0017L240.743 8.52615H243.201L245.822 13.0985H247.679V8.52615H249.809Z" fill="white"/>
<path d="M258.547 14.8484L258.493 8.52615H260.732V11.8002H260.787C261.715 10.6148 262.917 10.0503 264.337 10.0503C267.067 10.0503 269.252 12.1389 269.252 15.0742C269.252 18.066 267.013 20.2675 263.9 20.2675C260.841 20.2675 258.547 18.0096 258.547 14.8484ZM263.9 18.2354C265.647 18.2354 266.958 16.937 266.958 15.1871C266.958 13.4372 265.647 12.0824 263.9 12.0824C262.152 12.0824 260.896 13.3808 260.896 15.1871C260.896 16.9935 262.152 18.2354 263.9 18.2354Z" fill="white"/>
<path d="M118.267 40.4798C116.254 40.4798 114.653 39.2892 114.653 36.171C114.653 34.5977 115.049 32.7409 116.467 31.9188C117.331 31.4369 118.692 31.196 119.358 31.0117C119.798 30.8841 120.138 30.629 120.166 30.2888H121.172C121.172 31.196 120.705 31.6212 119.883 31.848C119.316 32.0039 117.813 32.259 117.02 32.67C116.141 33.1378 115.687 34.1583 115.574 35.4623H115.616C116.098 34.2575 117.218 33.6055 118.564 33.6055C120.506 33.6055 121.839 34.9662 121.839 36.9647C121.839 39.0199 120.464 40.4798 118.267 40.4798ZM118.295 39.4734C119.67 39.4734 120.761 38.5522 120.761 37.0214C120.761 35.4764 119.656 34.5551 118.295 34.5551C116.934 34.5551 115.815 35.4764 115.815 37.0072C115.815 38.5522 116.934 39.4734 118.295 39.4734ZM123.217 40.2672V33.7189H124.252V38.7081H124.28L128.022 33.7189H129.057V40.2672H128.022V35.278H127.994L124.266 40.2672H123.217ZM133.026 40.4798C131.878 40.4798 130.985 40.2247 130.305 39.8561L130.744 38.9632C131.311 39.2467 132.048 39.5301 133.069 39.5301C134.132 39.5301 134.897 39.2467 134.897 38.3962C134.897 37.5458 134.273 37.2765 133.125 37.2765H131.892V36.3694H133.069C134.061 36.3694 134.684 36.1426 134.684 35.4197C134.684 34.7536 134.075 34.4559 133.083 34.4559C132.232 34.4559 131.424 34.6969 130.872 34.9095L130.517 33.9882C131.127 33.7614 132.076 33.5063 133.125 33.5063C134.769 33.5063 135.762 34.1016 135.762 35.2071C135.762 36.0434 135.195 36.6245 134.202 36.7521V36.7804C135.294 36.8796 135.932 37.4466 135.932 38.4813C135.932 39.7002 135.053 40.4798 133.026 40.4798ZM142.141 33.7189H143.162V40.2672H142.141V37.2765H138.328V40.2672H137.308V33.7189H138.328V36.3269H142.141V33.7189ZM147.853 33.5063C149.994 33.5063 151 35.0087 151 36.9505V37.1348H145.557C145.586 38.5805 146.535 39.4876 147.91 39.4876C149.129 39.4876 149.753 38.7648 150.15 38.2403L150.887 38.9065C150.405 39.5868 149.569 40.4798 147.924 40.4798C145.855 40.4798 144.523 39.0766 144.523 37.0072C144.523 34.9095 145.855 33.5063 147.853 33.5063ZM147.797 34.4559C146.663 34.4559 145.756 35.1079 145.6 36.3552H149.895C149.795 35.1646 149.058 34.4559 147.797 34.4559ZM155.361 40.4798C153.263 40.4798 151.803 39.0766 151.803 36.993C151.803 34.9095 153.263 33.5063 155.361 33.5063C156.197 33.5063 156.906 33.7331 157.6 34.1583L157.104 35.0371C156.552 34.7111 155.985 34.4984 155.333 34.4984C153.844 34.4984 152.881 35.604 152.881 36.993C152.881 38.3821 153.844 39.4876 155.333 39.4876C155.985 39.4876 156.552 39.275 157.104 38.949L157.6 39.8278C156.906 40.253 156.197 40.4798 155.361 40.4798Z" fill="white"/>
</svg>
