<svg width="275" height="53" viewBox="0 0 275 53" fill="none" xmlns="http://www.w3.org/2000/svg">
<path fill-rule="evenodd" clip-rule="evenodd" d="M0 0.295898L48.7582 41.0376L98.6216 1.56702L85.3981 50.3527L76.4544 47.9284L82.3198 26.2893L48.6001 52.981L15.0725 24.9658L20.3027 48.1197L11.264 50.1614L0 0.295898Z" fill="#FE5F57"/>
<path d="M125.988 11.1311C129.32 11.1311 131.996 13.6713 131.996 17.1147C131.996 20.5016 129.265 23.0983 126.152 23.0983C124.677 23.0983 123.257 22.6467 122.22 21.4048H122.111V30.0979H119.871V18.0179C119.871 13.8406 122.22 11.1311 125.988 11.1311ZM125.934 21.0661C128.118 21.0661 129.647 19.2597 129.647 17.0582C129.647 14.9132 128.173 13.1068 125.934 13.1068C123.694 13.1068 122.165 14.8567 122.165 17.0582C122.165 19.2597 123.749 21.0661 125.934 21.0661Z" fill="#252525"/>
<path d="M134.072 17.1147C134.072 13.6713 136.857 11.1311 140.134 11.1311C143.411 11.1311 146.197 13.6713 146.197 17.1147C146.197 20.5581 143.411 23.0983 140.134 23.0983C136.857 23.0983 134.072 20.5581 134.072 17.1147ZM140.134 21.0661C142.374 21.0661 143.848 19.3162 143.848 17.1147C143.848 14.9132 142.319 13.1633 140.134 13.1633C137.95 13.1633 136.42 14.9132 136.42 17.1147C136.42 19.3162 137.895 21.0661 140.134 21.0661Z" fill="#252525"/>
<path d="M154.388 23.0983C150.893 23.0983 148.271 20.5581 148.271 17.1147C148.271 13.6713 150.838 11.1311 154.334 11.1311C157.01 11.1311 159.467 12.5988 160.123 15.4777H157.829C157.283 13.9535 155.917 13.1633 154.388 13.1633C152.04 13.1633 150.62 14.9696 150.62 17.1711C150.62 19.3726 152.094 21.1225 154.443 21.1225C155.972 21.1225 157.337 20.3887 157.884 18.7517H160.177C159.358 21.687 156.955 23.0983 154.388 23.0983Z" fill="#252525"/>
<path d="M168.424 21.4613L164.765 13.5584H164.711V22.8725H162.581V11.3569H165.967L169.571 19.2033H169.626L173.231 11.3569H176.617V22.816H174.487V13.5584H174.432L170.773 21.4613H168.424Z" fill="#252525"/>
<path d="M179.02 17.1147C179.02 13.6713 181.806 11.1311 185.083 11.1311C188.359 11.1311 191.145 13.6713 191.145 17.1147C191.145 20.5581 188.359 23.0983 185.083 23.0983C181.806 23.0983 179.02 20.5581 179.02 17.1147ZM185.137 21.0661C187.376 21.0661 188.851 19.3162 188.851 17.1147C188.851 14.9132 187.322 13.1633 185.137 13.1633C182.898 13.1633 181.423 14.9132 181.423 17.1147C181.369 19.3162 182.898 21.0661 185.137 21.0661Z" fill="#252525"/>
<path d="M192.292 22.9287V20.5579H192.347C192.784 20.5579 193.275 20.3886 193.603 19.9934C194.04 19.5418 194.204 18.6386 194.422 17.3968L194.75 15.534C195.132 13.4453 195.842 11.3003 198.9 11.3003H203.215V22.8159H200.976V13.4453H199.228C197.48 13.4453 197.153 13.9534 196.716 16.3807L196.443 18.0742C196.17 19.6547 195.787 21.0095 195.023 21.8562C194.422 22.5336 193.603 22.8723 192.456 22.8723H192.292V22.9287Z" fill="#252525"/>
<path d="M205.727 17.1147C205.727 13.6713 208.512 11.1311 211.789 11.1311C215.066 11.1311 217.852 13.6713 217.852 17.1147C217.852 20.5581 215.066 23.0983 211.789 23.0983C208.512 23.0983 205.727 20.5581 205.727 17.1147ZM211.789 21.0661C214.029 21.0661 215.503 19.3162 215.503 17.1147C215.503 14.9132 213.974 13.1633 211.789 13.1633C209.55 13.1633 208.076 14.9132 208.076 17.1147C208.076 19.3162 209.605 21.0661 211.789 21.0661Z" fill="#252525"/>
<path d="M220.473 25.6383H218.343V20.7272H219.763C220.419 19.9934 220.746 18.8644 221.019 17.5661L221.511 15.4211C221.948 13.3889 222.822 11.3003 225.552 11.3003H229.867V20.7272H231.451V25.6383H229.321V22.8723H220.419V25.6383H220.473ZM227.682 20.7837V13.4453H225.607C224.242 13.4453 223.805 14.5743 223.532 15.7597L223.04 17.9613C222.767 19.2031 222.385 20.2192 221.948 20.6143V20.7837H227.682Z" fill="#252525"/>
<path d="M239.207 23.0983C235.657 23.0983 233.09 20.5581 233.09 17.1147C233.09 13.6713 235.657 11.1311 239.098 11.1311C241.774 11.1311 244.941 12.9375 244.941 17.284V17.7356H235.274C235.493 19.6549 236.968 21.0661 239.152 21.0661C240.463 21.0661 241.992 20.5581 242.429 19.4291H244.723C244.068 21.9693 241.501 23.0983 239.207 23.0983ZM235.384 7.17969H237.678V9.55054H235.384V7.17969ZM242.702 15.9857C242.374 14.2358 241.064 13.1068 239.098 13.1068C237.186 13.1068 235.821 14.3487 235.438 15.9857H242.702ZM240.354 7.17969H242.648V9.55054H240.354V7.17969Z" fill="#252525"/>
<path d="M255.482 11.3569V15.9293H257.339L259.96 11.3569H262.418L259.141 16.8325L262.636 22.816H260.124L257.339 17.9614H255.427V22.816H253.352V17.9614H251.495L248.709 22.816H246.197L249.692 16.8325L246.415 11.3569H248.873L251.495 15.9293H253.352V11.3569H255.482Z" fill="#252525"/>
<path d="M264.22 17.6792L264.165 11.3569H266.404V14.631H266.459C267.388 13.4455 268.589 12.8811 270.009 12.8811C272.74 12.8811 274.924 14.9697 274.924 17.905C274.924 20.8968 272.685 23.0983 269.572 23.0983C266.514 23.0983 264.22 20.8403 264.22 17.6792ZM269.572 21.0661C271.32 21.0661 272.631 19.7678 272.631 18.0179C272.631 16.268 271.32 14.9132 269.572 14.9132C267.825 14.9132 266.568 16.2115 266.568 18.0179C266.568 19.8243 267.825 21.0661 269.572 21.0661Z" fill="#252525"/>
<path d="M126.207 43.0979L122.876 39.5403L125.895 36.5496H124.492L121.799 39.3985V36.5496H120.778V43.0979H121.799V39.7954L124.804 43.0979H126.207ZM127.09 45.9327H128.111V41.9356H128.139C128.593 42.7577 129.429 43.3105 130.619 43.3105C132.42 43.3105 133.865 41.9923 133.865 39.8238C133.865 37.6552 132.42 36.337 130.619 36.337C129.429 36.337 128.593 36.8898 128.139 37.7119H128.111V36.5496H127.09V45.9327ZM130.421 42.3042C128.99 42.3042 128.054 41.2695 128.054 39.8238C128.054 38.378 128.99 37.3433 130.421 37.3433C131.853 37.3433 132.788 38.378 132.788 39.8238C132.788 41.2695 131.853 42.3042 130.421 42.3042ZM138.106 36.337C136.108 36.337 134.776 37.7402 134.776 39.8379C134.776 41.9073 136.108 43.3105 138.177 43.3105C139.821 43.3105 140.658 42.4176 141.14 41.7372L140.403 41.071C140.006 41.5955 139.382 42.3183 138.163 42.3183C136.788 42.3183 135.839 41.4112 135.81 39.9655H141.253V39.7812C141.253 37.8394 140.247 36.337 138.106 36.337ZM138.05 37.2866C139.311 37.2866 140.048 37.9953 140.147 39.1859H135.853C136.009 37.9386 136.916 37.2866 138.05 37.2866ZM145.413 43.3105C146.603 43.3105 147.44 42.7577 147.893 41.9356H147.921V43.0979H148.942V36.5496H147.921V37.7119H147.893C147.44 36.8898 146.603 36.337 145.413 36.337C143.613 36.337 142.167 37.6552 142.167 39.8238C142.167 41.9923 143.613 43.3105 145.413 43.3105ZM145.611 42.3042C144.18 42.3042 143.244 41.2695 143.244 39.8238C143.244 38.378 144.18 37.3433 145.611 37.3433C147.043 37.3433 147.978 38.378 147.978 39.8238C147.978 41.2695 147.043 42.3042 145.611 42.3042ZM155.837 36.5496H149.785V37.4851H152.293V43.0979H153.314V37.4851H155.837V36.5496ZM156.808 43.0979H157.857L161.585 38.1087H161.613V43.0979H162.648V36.5496H161.613L157.871 41.5388H157.843V36.5496H156.808V43.0979ZM168.672 39.6678V39.6537C169.48 39.4978 169.891 38.9308 169.891 38.1796C169.891 37.0882 169.083 36.5496 167.907 36.5496H164.463V43.0979H167.85C169.041 43.0979 170.075 42.5026 170.075 41.2411C170.075 40.334 169.565 39.7812 168.672 39.6678ZM167.68 37.4142C168.445 37.4142 168.828 37.726 168.828 38.3213C168.828 38.9166 168.445 39.271 167.637 39.271H165.483V37.4142H167.68ZM167.737 42.2333H165.483V40.1072H167.793C168.601 40.1072 169.012 40.4757 169.012 41.1703C169.012 41.8364 168.573 42.2333 167.737 42.2333Z" fill="#252525"/>
</svg>
