<svg width="270" height="45" viewBox="0 0 270 45" fill="none" xmlns="http://www.w3.org/2000/svg">
<path fill-rule="evenodd" clip-rule="evenodd" d="M47.3514 0.81604H85.0657V41.8663H75.7993V10.0825H56.6178V44.4609H28.9112V22.3141H9.26642V41.8663H0V13.0477H38.1776V35.1944H47.3514V0.81604Z" fill="#7AE9FD"/>
<path d="M120.493 7.13074C123.824 7.13074 126.5 9.67093 126.5 13.1143C126.5 16.5012 123.77 19.0979 120.656 19.0979C119.182 19.0979 117.762 18.6463 116.724 17.4044H116.615V26.0975H114.376V14.0175C114.376 9.84028 116.724 7.13074 120.493 7.13074ZM120.438 17.0657C122.623 17.0657 124.152 15.2594 124.152 13.0579C124.152 10.9128 122.677 9.10645 120.438 9.10645C118.199 9.10645 116.67 10.8564 116.67 13.0579C116.67 15.2594 118.253 17.0657 120.438 17.0657Z" fill="#252525"/>
<path d="M128.576 13.1143C128.576 9.67094 131.362 7.13074 134.639 7.13074C137.916 7.13074 140.701 9.67094 140.701 13.1143C140.701 16.5577 137.916 19.0979 134.639 19.0979C131.362 19.0979 128.576 16.5577 128.576 13.1143ZM134.639 17.0657C136.878 17.0657 138.353 15.3158 138.353 13.1143C138.353 10.9128 136.823 9.1629 134.639 9.1629C132.454 9.1629 130.925 10.9128 130.925 13.1143C130.925 15.3158 132.399 17.0657 134.639 17.0657Z" fill="#252525"/>
<path d="M148.893 19.0979C145.397 19.0979 142.776 16.5577 142.776 13.1143C142.776 9.67094 145.343 7.13074 148.838 7.13074C151.514 7.13074 153.972 8.59841 154.627 11.4773H152.333C151.787 9.95318 150.422 9.1629 148.893 9.1629C146.544 9.1629 145.124 10.9693 145.124 13.1708C145.124 15.3723 146.599 17.1222 148.947 17.1222C150.476 17.1222 151.842 16.3883 152.388 14.7513H154.682C153.863 17.6867 151.459 19.0979 148.893 19.0979Z" fill="#252525"/>
<path d="M162.929 17.4608L159.27 9.55795H159.215V18.872H157.085V7.35645H160.471L164.076 15.2028H164.13L167.735 7.35645H171.121V18.8156H168.991V9.55795H168.936L165.277 17.4608H162.929Z" fill="#252525"/>
<path d="M173.524 13.1143C173.524 9.67094 176.31 7.13074 179.587 7.13074C182.864 7.13074 185.649 9.67094 185.649 13.1143C185.649 16.5577 182.864 19.0979 179.587 19.0979C176.31 19.0979 173.524 16.5577 173.524 13.1143ZM179.641 17.0657C181.881 17.0657 183.355 15.3158 183.355 13.1143C183.355 10.9128 181.826 9.1629 179.641 9.1629C177.402 9.1629 175.927 10.9128 175.927 13.1143C175.873 15.3158 177.402 17.0657 179.641 17.0657Z" fill="#252525"/>
<path d="M186.796 18.9284V16.5575H186.851C187.288 16.5575 187.779 16.3882 188.107 15.993C188.544 15.5415 188.708 14.6383 188.926 13.3964L189.254 11.5336C189.636 9.44498 190.346 7.29993 193.405 7.29993H197.719V18.8155H195.48V9.44498H193.733C191.985 9.44498 191.657 9.95302 191.22 12.3803L190.947 14.0738C190.674 15.6544 190.292 17.0091 189.527 17.8559C188.926 18.5332 188.107 18.8719 186.96 18.8719H186.796V18.9284Z" fill="#252525"/>
<path d="M200.231 13.1143C200.231 9.67094 203.017 7.13074 206.294 7.13074C209.57 7.13074 212.356 9.67094 212.356 13.1143C212.356 16.5577 209.57 19.0979 206.294 19.0979C203.017 19.0979 200.231 16.5577 200.231 13.1143ZM206.294 17.0657C208.533 17.0657 210.007 15.3158 210.007 13.1143C210.007 10.9128 208.478 9.1629 206.294 9.1629C204.054 9.1629 202.58 10.9128 202.58 13.1143C202.58 15.3158 204.109 17.0657 206.294 17.0657Z" fill="#252525"/>
<path d="M214.978 21.6379H212.848V16.7269H214.268C214.923 15.993 215.251 14.8641 215.524 13.5657L216.015 11.4207C216.452 9.38853 217.326 7.29993 220.057 7.29993H224.371V16.7269H225.955V21.6379H223.825V18.8719H214.923V21.6379H214.978ZM222.187 16.7833V9.44498H220.112C218.746 9.44498 218.309 10.574 218.036 11.7594L217.545 13.9609C217.271 15.2028 216.889 16.2188 216.452 16.614V16.7833H222.187Z" fill="#252525"/>
<path d="M233.711 19.0979C230.161 19.0979 227.594 16.5577 227.594 13.1143C227.594 9.67094 230.161 7.13074 233.602 7.13074C236.278 7.13074 239.446 8.9371 239.446 13.2837V13.7353H229.779C229.997 15.6545 231.472 17.0657 233.657 17.0657C234.967 17.0657 236.497 16.5577 236.933 15.4287H239.227C238.572 17.9689 236.005 19.0979 233.711 19.0979ZM229.888 3.17932H232.182V5.55017H229.888V3.17932ZM237.207 11.9853C236.879 10.2354 235.568 9.10645 233.602 9.10645C231.69 9.10645 230.325 10.3483 229.943 11.9853H237.207ZM234.858 3.17932H237.152V5.55017H234.858V3.17932Z" fill="#252525"/>
<path d="M249.986 7.35645V11.9288H251.843L254.464 7.35645H256.922L253.645 12.832L257.141 18.8156H254.628L251.843 13.961H249.931V18.8156H247.856V13.961H245.999L243.214 18.8156H240.701L244.197 12.832L240.92 7.35645H243.378L245.999 11.9288H247.856V7.35645H249.986Z" fill="#252525"/>
<path d="M258.724 13.6787L258.669 7.35645H260.909V10.6305H260.963C261.892 9.44505 263.093 8.88056 264.513 8.88056C267.244 8.88056 269.429 10.9692 269.429 13.9045C269.429 16.8963 267.189 19.0978 264.076 19.0978C261.018 19.0978 258.724 16.8398 258.724 13.6787ZM264.076 17.0656C265.824 17.0656 267.135 15.7673 267.135 14.0174C267.135 12.2675 265.824 10.9127 264.076 10.9127C262.329 10.9127 261.073 12.211 261.073 14.0174C261.073 15.8238 262.329 17.0656 264.076 17.0656Z" fill="#252525"/>
<path d="M120.711 39.0975L117.381 35.5399L120.4 32.5492H118.996L116.303 35.3982V32.5492H115.283V39.0975H116.303V35.795L119.308 39.0975H120.711ZM123.944 39.3101C125.135 39.3101 125.971 38.7574 126.424 37.9353H126.453V39.0975H127.473V32.5492H126.453V33.7115H126.424C125.971 32.8894 125.135 32.3366 123.944 32.3366C122.144 32.3366 120.698 33.6548 120.698 35.8234C120.698 37.992 122.144 39.3101 123.944 39.3101ZM124.142 38.3038C122.711 38.3038 121.775 37.2691 121.775 35.8234C121.775 34.3777 122.711 33.343 124.142 33.343C125.574 33.343 126.509 34.3777 126.509 35.8234C126.509 37.2691 125.574 38.3038 124.142 38.3038ZM129.263 41.9323H130.283V37.9353H130.312C130.765 38.7574 131.602 39.3101 132.792 39.3101C134.592 39.3101 136.038 37.992 136.038 35.8234C136.038 33.6548 134.592 32.3366 132.792 32.3366C131.602 32.3366 130.765 32.8894 130.312 33.7115H130.283V32.5492H129.263V41.9323ZM132.594 38.3038C131.162 38.3038 130.227 37.2691 130.227 35.8234C130.227 34.3777 131.162 33.343 132.594 33.343C134.025 33.343 134.961 34.3777 134.961 35.8234C134.961 37.2691 134.025 38.3038 132.594 38.3038ZM140.52 34.973H138.422V32.5492H137.402V39.0975H140.506C141.866 39.0975 142.745 38.2471 142.745 37.0282C142.745 35.7667 141.866 34.973 140.52 34.973ZM140.407 38.1762H138.422V35.8943H140.407C141.257 35.8943 141.668 36.3053 141.668 37.0423C141.668 37.751 141.257 38.1762 140.407 38.1762ZM146.798 32.3366C144.8 32.3366 143.468 33.7398 143.468 35.8376C143.468 37.9069 144.8 39.3101 146.869 39.3101C148.513 39.3101 149.35 38.4172 149.832 37.7369L149.095 37.0707C148.698 37.5951 148.074 38.318 146.855 38.318C145.48 38.318 144.531 37.4109 144.502 35.9651H149.945V35.7809C149.945 33.8391 148.939 32.3366 146.798 32.3366ZM146.742 33.2863C148.003 33.2863 148.74 33.995 148.839 35.1856H144.545C144.701 33.9383 145.608 33.2863 146.742 33.2863ZM151.313 41.9323H152.333V37.9353H152.361C152.815 38.7574 153.651 39.3101 154.842 39.3101C156.642 39.3101 158.088 37.992 158.088 35.8234C158.088 33.6548 156.642 32.3366 154.842 32.3366C153.651 32.3366 152.815 32.8894 152.361 33.7115H152.333V32.5492H151.313V41.9323ZM154.643 38.3038C153.212 38.3038 152.276 37.2691 152.276 35.8234C152.276 34.3777 153.212 33.343 154.643 33.343C156.075 33.343 157.01 34.3777 157.01 35.8234C157.01 37.2691 156.075 38.3038 154.643 38.3038ZM162.244 39.3101C163.434 39.3101 164.27 38.7574 164.724 37.9353H164.752V39.0975H165.773V32.5492H164.752V33.7115H164.724C164.27 32.8894 163.434 32.3366 162.244 32.3366C160.444 32.3366 158.998 33.6548 158.998 35.8234C158.998 37.992 160.444 39.3101 162.244 39.3101ZM162.442 38.3038C161.01 38.3038 160.075 37.2691 160.075 35.8234C160.075 34.3777 161.01 33.343 162.442 33.343C163.874 33.343 164.809 34.3777 164.809 35.8234C164.809 37.2691 163.874 38.3038 162.442 38.3038Z" fill="#252525"/>
</svg>
