<svg width="61" height="61" viewBox="0 0 61 61" fill="none" xmlns="http://www.w3.org/2000/svg">
<path fill-rule="evenodd" clip-rule="evenodd" d="M32.4631 41.0618C32.4631 41.0618 33.1835 40.9818 33.5538 40.5765C33.894 40.2063 33.884 39.5084 33.884 39.5084C33.884 39.5084 33.8339 36.2465 35.3248 35.7662C36.7957 35.2909 38.6793 38.918 40.6779 40.3139C42.1913 41.3695 43.3395 41.1393 43.3395 41.1393L48.6852 41.0643C48.6852 41.0643 51.4793 40.8867 50.1535 38.6529C50.046 38.4703 49.3831 36.9994 46.1812 33.9751C42.8292 30.8133 43.2795 31.3261 47.3144 25.8554C49.7733 22.5234 50.7564 20.4897 50.4487 19.6192C50.156 18.7887 48.3475 19.0088 48.3475 19.0088L42.3289 19.0464C42.3289 19.0464 41.8837 18.9838 41.5535 19.1864C41.2283 19.3841 41.0232 19.8418 41.0232 19.8418C41.0232 19.8418 40.0676 22.4183 38.7968 24.6121C36.1203 29.2399 35.0471 29.485 34.6094 29.1948C33.5913 28.5269 33.8464 26.5057 33.8464 25.0724C33.8464 20.5873 34.5143 18.7187 32.5432 18.2359C31.8878 18.0733 31.4075 17.9682 29.734 17.9507C27.5877 17.9282 25.7692 17.9582 24.7411 18.471C24.0557 18.8112 23.5279 19.5717 23.8506 19.6142C24.2483 19.6692 25.1488 19.8618 25.6266 20.5222C26.242 21.3752 26.2194 23.2914 26.2194 23.2914C26.2194 23.2914 26.5747 28.5695 25.394 29.2223C24.581 29.6726 23.4678 28.7546 21.0789 24.5571C19.8557 22.4083 18.9302 20.0294 18.9302 20.0294C18.9302 20.0294 18.7551 19.5892 18.4349 19.349C18.0496 19.0614 17.5093 18.9713 17.5093 18.9713L11.791 19.0088C11.791 19.0088 10.933 19.0339 10.6178 19.4116C10.3376 19.7493 10.5953 20.4472 10.5953 20.4472C10.5953 20.4472 15.0729 31.0984 20.1434 36.4641C24.7911 41.3845 30.0692 41.0618 30.0692 41.0618H32.4631Z" fill="#3F3F55"/>
</svg>
