<svg width="29" height="29" viewBox="0 0 29 29" fill="none" xmlns="http://www.w3.org/2000/svg">
<path d="M14.5047 7.64602e-07C11.6367 -0.000930414 8.83279 0.848692 6.44766 2.44141C4.06253 4.03412 2.2033 6.29838 1.1051 8.94783C0.00691223 11.5973 -0.280908 14.5129 0.278046 17.3259C0.837 20.139 2.21762 22.723 4.24529 24.7514C6.27297 26.7797 8.85661 28.1612 11.6695 28.721C14.4823 29.2809 17.398 28.994 20.0478 27.8967C22.6976 26.7994 24.9625 24.9409 26.556 22.5563C28.1495 20.1716 29 17.368 29 14.5C29 10.6552 27.473 6.96776 24.7547 4.24861C22.0365 1.52947 18.3495 0.00124908 14.5047 7.64602e-07ZM21.8253 20.0458H20.0364C19.3537 20.0458 19.156 19.5138 17.9414 18.3227C16.8774 17.3153 16.4208 17.1834 16.1571 17.1834C15.5875 17.1834 15.6864 17.3717 15.6864 19.3631C15.6864 19.7963 15.5451 20.0458 14.4058 20.0458C12.5227 20.0458 10.4325 18.9159 8.94952 16.8351C6.73215 13.7797 6.12484 11.4682 6.12484 11.0021C6.12484 10.7432 6.22841 10.5313 6.73686 10.5313H8.52582C8.9966 10.5313 9.15666 10.7244 9.33556 11.214C10.2112 13.7185 11.6895 15.9218 12.292 15.9218C12.5227 15.9218 12.6216 15.8182 12.6216 15.2532V12.664C12.5557 11.4729 11.9107 11.374 11.9107 10.9503C11.9142 10.8927 11.9293 10.8364 11.9551 10.7848C11.9809 10.7332 12.0169 10.6873 12.0609 10.65C12.1048 10.6126 12.1559 10.5845 12.211 10.5673C12.2661 10.5502 12.3241 10.5443 12.3815 10.5502H15.2062C15.5828 10.5502 15.7146 10.7479 15.7146 11.1951V14.6742C15.7146 15.0461 15.8841 15.1779 15.9971 15.1779C16.2231 15.1779 16.4161 15.0461 16.8304 14.6365C17.7335 13.5521 18.4741 12.3421 19.0289 11.0445C19.0916 10.8927 19.2014 10.7651 19.3421 10.6803C19.4828 10.5956 19.6469 10.5582 19.8104 10.5737H21.5664C22.1078 10.5737 22.2208 10.8468 22.1078 11.2187C21.8818 12.2403 19.7021 15.2579 19.6974 15.2627C19.5091 15.5592 19.4338 15.7334 19.6974 16.0442C19.801 16.1854 22.0984 18.3274 22.4373 19.3678C22.6021 19.7963 22.3432 20.0458 21.8347 20.0458H21.8253Z" fill="#8C64D8"/>
</svg>
