<svg width="16" height="17" viewBox="0 0 16 17" fill="none" xmlns="http://www.w3.org/2000/svg">
<g clip-path="url(#clip0_905_2616)">
<path d="M8.51781 5.67377H0.78125C0.57405 5.67377 0.375336 5.59146 0.228823 5.44494C0.08231 5.29843 0 5.09972 0 4.89252C0 4.68532 0.08231 4.4866 0.228823 4.34009C0.375336 4.19358 0.57405 4.11127 0.78125 4.11127H8.51875C8.72595 4.11127 8.92466 4.19358 9.07118 4.34009C9.21769 4.4866 9.3 4.68532 9.3 4.89252C9.3 5.09972 9.21769 5.29843 9.07118 5.44494C8.92466 5.59146 8.72595 5.67377 8.51875 5.67377H8.51781Z" fill="#8C64D8"/>
<path d="M15.2187 5.67377H13.2631C13.0559 5.67377 12.8572 5.59146 12.7107 5.44494C12.5642 5.29843 12.4819 5.09972 12.4819 4.89252C12.4819 4.68532 12.5642 4.4866 12.7107 4.34009C12.8572 4.19358 13.0559 4.11127 13.2631 4.11127H15.2187C15.4259 4.11127 15.6247 4.19358 15.7712 4.34009C15.9177 4.4866 16 4.68532 16 4.89252C16 5.09972 15.9177 5.29843 15.7712 5.44494C15.6247 5.59146 15.4259 5.67377 15.2187 5.67377Z" fill="#8C64D8"/>
<path d="M15.2188 12.8888H7.48219C7.27499 12.8888 7.07628 12.8065 6.92977 12.66C6.78325 12.5135 6.70094 12.3147 6.70094 12.1075C6.70094 11.9003 6.78325 11.7016 6.92977 11.5551C7.07628 11.4086 7.27499 11.3263 7.48219 11.3263H15.2188C15.426 11.3263 15.6247 11.4086 15.7712 11.5551C15.9177 11.7016 16 11.9003 16 12.1075C16 12.3147 15.9177 12.5135 15.7712 12.66C15.6247 12.8065 15.426 12.8888 15.2188 12.8888Z" fill="#8C64D8"/>
<path d="M2.73688 12.8888H0.78125C0.57405 12.8888 0.375336 12.8065 0.228823 12.66C0.08231 12.5135 0 12.3147 0 12.1075C0 11.9003 0.08231 11.7016 0.228823 11.5551C0.375336 11.4086 0.57405 11.3263 0.78125 11.3263H2.73688C2.94408 11.3263 3.14279 11.4086 3.2893 11.5551C3.43581 11.7016 3.51813 11.9003 3.51813 12.1075C3.51813 12.3147 3.43581 12.5135 3.2893 12.66C3.14279 12.8065 2.94408 12.8888 2.73688 12.8888Z" fill="#8C64D8"/>
<path d="M5.10968 15.2038C4.48586 15.2038 3.87602 15.0189 3.35729 14.6724C2.83857 14.3258 2.43426 13.8332 2.19549 13.2569C1.95672 12.6806 1.89421 12.0464 2.01587 11.4346C2.13754 10.8227 2.43791 10.2607 2.879 9.81955C3.32009 9.37841 3.88209 9.07798 4.49393 8.95626C5.10577 8.83453 5.73996 8.89698 6.31631 9.13569C6.89265 9.3744 7.38527 9.77867 7.73186 10.2974C8.07844 10.816 8.26343 11.4259 8.26343 12.0497C8.26285 12.886 7.93041 13.6878 7.3391 14.2792C6.74779 14.8706 5.94596 15.2031 5.10968 15.2038ZM5.10968 10.4584C4.79488 10.4584 4.48712 10.5517 4.22534 10.7265C3.96356 10.9014 3.75952 11.15 3.63902 11.4408C3.51852 11.7316 3.48697 12.0517 3.54837 12.3604C3.60978 12.6692 3.76136 12.9528 3.98397 13.1754C4.20657 13.398 4.49019 13.5496 4.79895 13.611C5.10771 13.6724 5.42775 13.6409 5.71858 13.5204C6.00941 13.3999 6.25798 13.1958 6.43284 12.934C6.6077 12.6723 6.70099 12.3645 6.70093 12.0497C6.70027 11.6279 6.53241 11.2235 6.23414 10.9252C5.93586 10.627 5.53151 10.4591 5.10968 10.4584Z" fill="#8C64D8"/>
<path d="M10.8903 8.04659C10.2665 8.04659 9.6567 7.86161 9.13801 7.51504C8.61933 7.16846 8.21507 6.67587 7.97634 6.09954C7.73762 5.52321 7.67516 4.88903 7.79686 4.2772C7.91856 3.66537 8.21895 3.10337 8.66006 2.66227C9.10116 2.22117 9.66316 1.92077 10.275 1.79907C10.8868 1.67737 11.521 1.73983 12.0973 1.97855C12.6737 2.21728 13.1662 2.62154 13.5128 3.14023C13.8594 3.65891 14.0444 4.26871 14.0444 4.89253C14.0438 5.72886 13.7113 6.53077 13.1199 7.12215C12.5286 7.71352 11.7266 8.04601 10.8903 8.04659ZM10.8903 3.30128C10.5755 3.30128 10.2678 3.39463 10.0061 3.56953C9.74432 3.74442 9.54033 3.99301 9.41987 4.28385C9.29942 4.57469 9.26792 4.89471 9.32936 5.20345C9.39079 5.5122 9.54241 5.79578 9.76502 6.01836C9.98764 6.24093 10.2713 6.39248 10.58 6.45386C10.8888 6.51524 11.2088 6.48367 11.4996 6.36316C11.7904 6.24265 12.039 6.03861 12.2138 5.77684C12.3886 5.51507 12.4819 5.20732 12.4819 4.89253C12.4812 4.47065 12.3133 4.06625 12.015 3.76796C11.7166 3.46968 11.3122 3.30186 10.8903 3.30128Z" fill="#8C64D8"/>
</g>
<defs>
<clipPath id="clip0_905_2616">
<rect width="16" height="16" fill="white" transform="translate(0 0.5)"/>
</clipPath>
</defs>
</svg>
