<svg width="14" height="16" viewBox="0 0 14 16" fill="none" xmlns="http://www.w3.org/2000/svg">
<path d="M10.9999 9.99993C10.5805 10.0009 10.1673 10.1011 9.79396 10.2922C9.42065 10.4834 9.09785 10.7602 8.85192 11.0999L5.50859 8.87126C5.71928 8.30948 5.71928 7.69038 5.50859 7.1286L8.85192 4.89993C9.22719 5.40868 9.77157 5.76695 10.3873 5.91035C11.003 6.05375 11.6496 5.97289 12.2111 5.6823C12.7725 5.39171 13.2119 4.91044 13.4504 4.32494C13.6888 3.73945 13.7106 3.08812 13.512 2.48797C13.3133 1.88783 12.9071 1.3782 12.3664 1.05066C11.8257 0.723114 11.1859 0.599124 10.5619 0.700964C9.93801 0.802803 9.37085 1.1238 8.96235 1.60627C8.55386 2.08875 8.3308 2.70109 8.33326 3.33326C8.33758 3.4304 8.34737 3.52722 8.36259 3.62326L4.76859 6.01926C4.38558 5.67399 3.91068 5.44717 3.4014 5.36628C2.89212 5.28539 2.37031 5.35389 1.89916 5.56349C1.42802 5.77309 1.02775 6.1148 0.746832 6.54723C0.465917 6.97966 0.316406 7.48426 0.316406 7.99993C0.316406 8.51559 0.465917 9.0202 0.746832 9.45263C1.02775 9.88506 1.42802 10.2268 1.89916 10.4364C2.37031 10.646 2.89212 10.7145 3.4014 10.6336C3.91068 10.5527 4.38558 10.3259 4.76859 9.9806L8.36259 12.3766C8.34737 12.4726 8.33758 12.5695 8.33326 12.6666C8.33326 13.194 8.48965 13.7096 8.78267 14.1481C9.07569 14.5866 9.49216 14.9284 9.97943 15.1303C10.4667 15.3321 11.0029 15.3849 11.5202 15.282C12.0374 15.1791 12.5126 14.9252 12.8855 14.5522C13.2585 14.1793 13.5125 13.7041 13.6154 13.1868C13.7182 12.6696 13.6654 12.1334 13.4636 11.6461C13.2618 11.1588 12.92 10.7424 12.4814 10.4493C12.0429 10.1563 11.5273 9.99993 10.9999 9.99993ZM10.9999 1.99993C11.2636 1.99993 11.5214 2.07813 11.7407 2.22464C11.96 2.37115 12.1308 2.57938 12.2318 2.82302C12.3327 3.06665 12.3591 3.33474 12.3076 3.59338C12.2562 3.85202 12.1292 4.0896 11.9427 4.27607C11.7563 4.46254 11.5187 4.58953 11.26 4.64098C11.0014 4.69242 10.7333 4.66602 10.4897 4.5651C10.246 4.46419 10.0378 4.29329 9.8913 4.07402C9.74479 3.85476 9.66659 3.59697 9.66659 3.33326C9.66659 2.97964 9.80707 2.6405 10.0571 2.39045C10.3072 2.14041 10.6463 1.99993 10.9999 1.99993ZM2.99992 9.33326C2.73621 9.33326 2.47843 9.25506 2.25916 9.10856C2.0399 8.96205 1.869 8.75381 1.76808 8.51017C1.66717 8.26654 1.64076 7.99845 1.69221 7.73981C1.74366 7.48117 1.87064 7.24359 2.05711 7.05712C2.24358 6.87065 2.48116 6.74366 2.7398 6.69222C2.99844 6.64077 3.26653 6.66717 3.51017 6.76809C3.7538 6.86901 3.96204 7.0399 4.10855 7.25917C4.25506 7.47844 4.33326 7.73622 4.33326 7.99993C4.33326 8.35355 4.19278 8.69269 3.94273 8.94274C3.69268 9.19279 3.35355 9.33326 2.99992 9.33326ZM10.9999 13.9999C10.7362 13.9999 10.4784 13.9217 10.2592 13.7752C10.0399 13.6287 9.869 13.4205 9.76808 13.1768C9.66717 12.9332 9.64076 12.6651 9.69221 12.4065C9.74366 12.1478 9.87064 11.9103 10.0571 11.7238C10.2436 11.5373 10.4812 11.4103 10.7398 11.3589C10.9984 11.3074 11.2665 11.3338 11.5102 11.4348C11.7538 11.5357 11.962 11.7066 12.1086 11.9258C12.2551 12.1451 12.3333 12.4029 12.3333 12.6666C12.3333 13.0202 12.1928 13.3594 11.9427 13.6094C11.6927 13.8595 11.3535 13.9999 10.9999 13.9999Z" fill="#8C64D8"/>
</svg>
