<svg width="945" height="561" viewBox="0 0 945 561" fill="none" xmlns="http://www.w3.org/2000/svg">
<path d="M945 458.408H719.078V160.401C719.078 125.995 705.407 92.9978 681.074 68.6723V68.6723C630.425 18.0385 548.322 18.0385 497.673 68.6723V68.6723C473.34 92.9978 459.669 125.995 459.669 160.402V407.602C459.669 440.132 446.744 471.329 423.738 494.328V494.328C375.851 542.2 298.227 542.2 250.34 494.328V494.328C227.334 471.329 214.409 440.132 214.409 407.602V160.401C214.409 125.995 200.738 92.9978 176.405 68.6723V68.6723C125.756 18.0385 43.6534 18.0384 -6.99612 68.6722L-45 106.664" stroke="#DAEF14" stroke-width="60"/>
</svg>
