<svg width="925" height="704" fill="none" xmlns="http://www.w3.org/2000/svg"><path opacity=".23" d="M65.218 633.124l-.866.5.428.741.798-.308-.36-.933zm-.12-.207l-.736-.677-.497.541.367.636.866-.5zm-59.11-11.183l-.5-.866-.867.5.5.866.866-.5zm42 72.746l-.867.5.5.866.866-.5-.5-.866zM36.45 643.776l-.866.5.5.866.866-.5-.5-.866zm-10.08-17.459l-.5-.866-.866.5.5.866.866-.5zm27.84 48.22l-.866.5.5.866.866-.5-.5-.866zm-11.16-19.33l-.5-.866-.866.5.5.866.866-.5zm23.034-22.583l-.12-.207-1.732 1 .12.207 1.732-1zm-.25.969c3.107-3.384 4.856-7.164 5.21-11.154.355-3.984-.687-8.094-3.02-12.135l-1.732 1c2.167 3.754 3.072 7.457 2.76 10.958-.31 3.497-1.842 6.876-4.69 9.978l1.473 1.353zm2.19-23.289c-3.618-6.267-8.77-9.735-14.727-10.622-5.918-.882-12.503.802-19.023 4.566l1 1.732c6.263-3.616 12.39-5.115 17.728-4.32 5.3.789 9.948 3.856 13.29 9.644l1.732-1zm-33.75-6.056l-28.787 16.62 1 1.732 28.787-16.62-1-1.732zM5.121 622.234l42 72.746 1.732-1-42-72.746-1.732 1zm43.366 73.112l30.762-17.76-1-1.732-30.761 17.76 1 1.732zm30.762-17.76c6.419-3.706 11.564-8.832 14.029-14.944 2.48-6.152 2.196-13.192-2.057-20.559l-1.732 1c3.967 6.871 4.168 13.269 1.933 18.811-2.25 5.582-7.018 10.406-13.173 13.96l1 1.732zm11.972-35.503c-3.275-5.673-7.384-9.135-11.975-10.67-4.585-1.531-9.523-1.098-14.388.778l.72 1.866c4.541-1.752 8.991-2.097 13.034-.747 4.035 1.349 7.793 4.43 10.877 9.773l1.732-1zm-50.945-22.64c2.832-1.636 5.51-2.253 7.798-1.873 2.252.374 4.27 1.737 5.792 4.372l1.732-1c-1.778-3.08-4.276-4.86-7.196-5.345-2.885-.479-6.035.329-9.126 2.114l1 1.732zm13.59 2.499c1.502 2.602 1.767 5.044.975 7.251-.803 2.238-2.752 4.399-6.005 6.277l1 1.732c3.503-2.022 5.871-4.502 6.888-7.333 1.027-2.862.612-5.917-1.126-8.927l-1.732 1zm-5.03 13.528l-12.886 7.44 1 1.732 12.886-7.44-1-1.732zm-11.52 7.806l-10.08-17.459-1.732 1 10.08 17.459 1.732-1zM26.87 627.183l13.406-7.74-1-1.732-13.406 7.74 1 1.732zm42.012 37.728l-15.172 8.76 1 1.732 15.172-8.76-1-1.732zm-13.806 9.126l-11.16-19.33-1.732 1 11.16 19.33 1.732-1zM43.55 656.073l14.653-8.46-1-1.732-14.653 8.46 1 1.732zm14.653-8.46c3.884-2.242 7.212-2.985 9.905-2.549 2.654.429 4.852 2.029 6.468 4.828l1.732-1c-1.864-3.228-4.535-5.261-7.88-5.802-3.306-.535-7.108.414-11.225 2.791l1 1.732zm16.373 2.279c1.61 2.788 1.857 5.525.931 8.031-.936 2.535-3.122 4.965-6.625 6.988l1 1.732c3.772-2.177 6.356-4.926 7.501-8.027 1.156-3.129.795-6.484-1.075-9.724l-1.732 1zm37.433-89.37l-.5-.866-.547.316.051.63.996-.08zm3.986 49.383l-.574.82 1.742 1.218-.171-2.118-.997.08zm-40.463-28.323l.574-.819-.522-.366-.552.319.5.866zm-16.627 9.6l-.5-.866-1.41.814 1.363.889.547-.837zm58.695 38.304l.997-.085-.042-.486-.408-.267-.547.838zm2.011 23.642l-.997.085.134 1.568 1.363-.787-.5-.866zm14.861-8.58l.5.866.549-.317-.053-.632-.996.083zm-7.706-92.546l.997-.083-.131-1.572-1.366.789.5.866zm-15.753 8.6l3.985 49.384 1.994-.161-3.986-49.383-1.993.16zm5.555 48.484l-40.462-28.323-1.147 1.638 40.462 28.324 1.147-1.639zm-41.536-28.37l-16.627 9.6 1 1.732 16.627-9.6-1-1.732zm-16.674 11.303l58.696 38.304 1.093-1.675-58.696-38.303-1.093 1.674zm58.246 37.552l2.01 23.642 1.993-.17-2.01-23.642-1.993.17zm3.507 24.423l14.861-8.58-1-1.732-14.861 8.58 1 1.732zm15.357-9.529l-7.705-92.546-1.993.166 7.705 92.546 1.993-.166zm-9.202-93.329l-14.757 8.52 1 1.732 14.757-8.52-1-1.732zm6.231 3.515l-.815-.578-.571.805.797.582.589-.809zm12.2 8.892l-.589.808.853.621.575-.885-.839-.544zm15.766 7.386l-.5-.866-.866.5.5.866.866-.5zm7.08 12.263l-.866.5.5.866.866-.5-.5-.866zm-.685 19.934l-.011-1-1.05.011.063 1.048.998-.059zm.916 15.267l-.998.06.057.944.946-.004-.005-1zm18.049-54.9l-.866.5.439.762.812-.339-.385-.923zm-.12-.207l-.671-.742-.6.542.405.7.866-.5zm-30.685-30.828c-11.18 6.454-18.624 14.971-23.336 21.615l1.631 1.157c4.607-6.496 11.853-14.775 22.705-21.04l-1-1.732zm-23.11 23.002l12.2 8.891 1.178-1.617-12.2-8.891-1.178 1.617zm13.628 8.627c3.695-5.692 9.409-12.512 16.806-16.782l-1-1.732c-7.775 4.489-13.698 11.594-17.483 17.425l1.677 1.089zm16.806-16.782c3.977-2.296 7.329-3.308 9.974-3.187 2.57.118 4.552 1.306 5.915 3.667l1.732-1c-1.697-2.939-4.29-4.515-7.555-4.665-3.191-.146-6.936 1.068-11.066 3.453l1 1.732zm15.889.48c1.595 2.761 1.484 5.688-.347 8.752-1.866 3.123-5.517 6.365-10.958 9.506l1 1.732c5.575-3.218 9.559-6.671 11.675-10.212 2.151-3.599 2.368-7.305.362-10.778l-1.732 1zm-11.305 18.258l-6.963 4.02 1 1.732 6.963-4.02-1-1.732zm-7.329 5.386l7.08 12.263 1.732-1-7.08-12.263-1.732 1zm8.446 12.629l6.963-4.02-1-1.732-6.963 4.02 1 1.732zm6.963-4.02c6.297-3.635 11.624-5.672 15.842-5.925 2.093-.126 3.878.19 5.372.935 1.488.742 2.752 1.941 3.761 3.688l1.732-1c-1.181-2.045-2.72-3.541-4.601-4.478-1.874-.935-4.023-1.283-6.384-1.142-4.687.282-10.341 2.506-16.722 6.19l1 1.732zm24.975-1.302c1.664 2.882 1.739 5.801.3 8.685-1.467 2.941-4.549 5.916-9.347 8.686l1 1.732c4.972-2.87 8.425-6.094 10.137-9.526 1.741-3.489 1.638-7.119-.358-10.577l-1.732 1zm-9.047 17.371c-7.195 4.154-15.403 5.921-24.087 6.019l.022 1.999c8.938-.1 17.503-1.92 25.065-6.286l-1-1.732zm-25.074 7.078l.916 15.268 1.996-.12-.916-15.267-1.996.119zm1.919 16.208c9.855-.044 20.567-2.716 31.311-8.919l-1-1.732c-10.455 6.036-20.827 8.609-30.32 8.651l.009 2zm31.311-8.919c10.512-6.069 16.516-12.758 18.962-19.57 2.456-6.841 1.263-13.639-2.273-19.764l-1.732 1c3.304 5.722 4.342 11.907 2.123 18.089-2.23 6.21-7.807 12.582-18.08 18.513l1 1.732zm16.689-39.334c-3.569-6.182-8.239-9.595-13.549-10.796-5.274-1.193-11.042-.175-16.793 2.227l.771 1.845c5.525-2.307 10.852-3.191 15.58-2.122 4.691 1.062 8.928 4.076 12.259 9.846l1.732-1zm-29.09-8.147l-.12-.207-1.732 1 .12.207 1.732-1zm-.316 1.035c4.571-4.13 7.426-8.607 8.426-13.292 1.003-4.701.113-9.499-2.602-14.202l-1.732 1c2.505 4.339 3.263 8.635 2.378 12.784-.889 4.165-3.458 8.293-7.811 12.226l1.341 1.484zm5.824-27.494c-3.566-6.176-8.764-9.636-15.197-10.28-6.374-.638-13.832 1.499-21.982 6.204l1 1.732c7.958-4.595 14.986-6.526 20.782-5.946 5.737.574 10.391 3.62 13.665 9.29l1.732-1zm76.563-61.524l-.866.5.498.862.864-.494-.496-.868zm-3.9-6.755l.867-.5-.5-.866-.867.5.5.866zm-12.678 7.32l-.5-.866-.866.5.5.866.866-.5zm3.9 6.755l.504.864.859-.502-.497-.862-.866.5zm37.74 65.368l.866-.5-.495-.858-.863.487.492.871zm3.9 6.755l-.866.5.5.866.866-.5-.5-.866zm12.678-7.32l.5.866.867-.5-.5-.866-.867.5zm-3.9-6.755l-.508-.862-.853.504.495.858.866-.5zm-42.802-45.817l.866-.5-.5-.866-.866.5.5.866zm23.28 40.322l.5.866.866-.5-.5-.866-.866.5zm11.847-6.84l-.866.5.5.866.866-.5-.5-.866zm-23.28-40.322l-.5-.866-.866.5.5.866.866-.5zm47.112-.319c-5.93-10.272-14.08-16.734-23.538-19.029-9.449-2.294-20.058-.394-30.854 5.768l.991 1.737c10.464-5.973 20.551-7.708 29.392-5.562 8.832 2.144 16.568 8.197 22.277 18.086l1.732-1zm-53.03-12.892l-3.9-6.755-1.733 1 3.9 6.755 1.733-1zm-5.267-7.121l-12.678 7.32 1 1.732 12.678-7.32-1-1.732zm-13.044 8.686l3.9 6.755 1.732-1-3.9-6.755-1.732 1zm4.262 5.391c-10.735 6.269-17.685 14.507-20.424 23.837-2.74 9.338-1.219 19.627 4.711 29.899l1.732-1c-5.709-9.889-7.083-19.615-4.524-28.336 2.562-8.729 9.108-16.597 19.513-22.672l-1.008-1.728zm-15.713 53.736c5.931 10.272 14.08 16.733 23.544 19.042 9.456 2.306 20.079.434 30.904-5.676l-.983-1.741c-10.494 5.922-20.597 7.633-29.447 5.474-8.841-2.157-16.576-8.21-22.286-18.099l-1.732 1zm53.091 12.996l3.9 6.755 1.732-1-3.9-6.755-1.732 1zm5.266 7.121l12.678-7.32-1-1.732-12.678 7.32 1 1.732zm13.045-8.686l-3.9-6.755-1.733 1 3.9 6.755 1.733-1zm-4.258-5.394c10.704-6.321 17.637-14.584 20.367-23.926 2.732-9.351 1.212-19.639-4.719-29.911l-1.732 1c5.709 9.889 7.084 19.615 4.531 28.35-2.555 8.743-9.087 16.637-19.464 22.764l1.017 1.723zm-51.382-15.137c-3.782-6.551-4.769-12.358-3.327-17.393 1.444-5.042 5.383-9.521 11.898-13.282l-1-1.732c-6.788 3.919-11.187 8.757-12.821 14.464-1.636 5.714-.44 12.088 3.518 18.943l1.732-1zm7.205-31.041l23.28 40.322 1.732-1-23.28-40.322-1.732 1zm23.646 38.956c-6.612 3.817-12.503 4.914-17.589 3.593-5.082-1.321-9.569-5.111-13.262-11.508l-1.732 1c3.867 6.697 8.733 10.947 14.491 12.444 5.756 1.495 12.193.186 19.092-3.797l-1-1.732zm13.213-6.474l-23.28-40.322-1.732 1 23.28 40.322 1.732-1zm-23.646-38.956c6.514-3.761 12.363-4.934 17.452-3.663 5.08 1.269 9.616 5.027 13.399 11.578l1.732-1c-3.958-6.855-8.88-11.078-14.647-12.518-5.759-1.438-12.148-.048-18.936 3.871l1 1.732zm30.851 7.915c3.693 6.397 4.732 12.178 3.335 17.24-1.399 5.065-5.295 9.618-11.906 13.435l1 1.732c6.898-3.983 11.251-8.903 12.833-14.635 1.584-5.735.336-12.075-3.53-18.772l-1.732 1zm60.975-83.702l.866-.5-.5-.866-.866.5.5.866zm-55.911 32.28l-.5-.866-.866.5.5.866.866-.5zm25.567 65.883l-.5-.866-.866.5.5.866.866-.5zm7.32 12.679l-.866.5.5.866.866-.5-.5-.866zm-12.384-73.771l-.5-.866-.866.5.5.866.866-.5zm29.306-16.92l.866-.5-.5-.866-.866.5.5.866zm34.8 60.275l-.866.5.5.866.866-.5-.5-.866zm13.302-7.68l.5.866.866-.5-.5-.866-.866.5zm-42.5-73.612l-55.911 32.28 1 1.732 55.911-32.28-1-1.732zm-56.277 33.646l31.14 53.936 1.733-1-31.14-53.936-1.733 1zm31.14 53.936c1.364 2.363 1.703 4.008 1.469 5.2-.226 1.147-1.037 2.126-2.623 3.041l1 1.732c1.844-1.064 3.203-2.447 3.585-4.387.373-1.895-.242-4.064-1.698-6.586l-1.733 1zm-1.154 8.241l-4.053 2.34 1 1.732 4.053-2.34-1-1.732zm-4.419 3.706l7.32 12.679 1.732-1-7.32-12.679-1.732 1zm8.686 13.045l5.404-3.12-1-1.732-5.404 3.12 1 1.732zm5.404-3.12c5.904-3.408 9.628-7.546 10.823-12.622 1.19-5.059-.192-10.805-3.945-17.306l-1.732 1c3.626 6.281 4.756 11.486 3.73 15.848-1.022 4.344-4.244 8.096-9.876 11.348l1 1.732zm6.878-29.928l-24.3-42.089-1.732 1 24.3 42.089 1.732-1zm-24.666-40.723l29.306-16.92-1-1.732-29.306 16.92 1 1.732zm27.94-17.286l34.8 60.275 1.732-1-34.8-60.275-1.732 1zm36.166 60.641l13.302-7.68-1-1.732-13.302 7.68 1 1.732zm13.668-9.046l-42-72.746-1.732 1 42 72.746 1.732-1zm58.908-85.418l-.866.5.428.741.798-.308-.36-.933zm-.12-.208l-.736-.676-.497.541.367.635.866-.5zm-59.11-11.182l-.5-.866-.866.5.5.866.866-.5zm42 72.746l-.866.5.5.866.866-.5-.5-.866zm-11.538-50.704l-.866.5.5.866.866-.5-.5-.866zm-10.08-17.459l-.5-.866-.866.5.5.866.866-.5zm27.84 48.22l-.866.5.5.866.866-.5-.5-.866zm-11.16-19.33l-.5-.866-.866.5.5.866.866-.5zm23.034-22.583l-.12-.208-1.732 1 .12.208 1.732-1zm-.249.969c3.106-3.384 4.855-7.164 5.21-11.154.354-3.984-.688-8.095-3.021-12.135l-1.732 1c2.167 3.754 3.072 7.457 2.761 10.958-.312 3.496-1.843 6.875-4.691 9.978l1.473 1.353zm2.189-23.289c-3.618-6.267-8.77-9.735-14.727-10.622-5.918-.882-12.503.802-19.023 4.566l1 1.732c6.263-3.616 12.39-5.115 17.728-4.32 5.299.789 9.948 3.856 13.29 9.644l1.732-1zm-33.75-6.056l-28.786 16.62 1 1.732 28.786-16.62-1-1.732zm-29.152 17.986l42 72.746 1.732-1-42-72.746-1.732 1zm43.366 73.112l30.761-17.76-1-1.732-30.761 17.76 1 1.732zm30.761-17.76c6.419-3.706 11.564-8.832 14.029-14.944 2.48-6.152 2.196-13.193-2.057-20.559l-1.732 1c3.967 6.871 4.168 13.269 1.934 18.811-2.251 5.582-7.019 10.406-13.174 13.96l1 1.732zm11.972-35.503c-3.275-5.673-7.384-9.135-11.975-10.67-4.585-1.531-9.523-1.099-14.388.778l.72 1.866c4.541-1.752 8.991-2.098 13.034-.747 4.036 1.349 7.793 4.43 10.877 9.773l1.732-1zm-50.945-22.64c2.832-1.636 5.51-2.253 7.798-1.873 2.252.374 4.271 1.737 5.792 4.372l1.732-1c-1.778-3.08-4.276-4.86-7.196-5.345-2.885-.479-6.035.329-9.126 2.114l1 1.732zm13.59 2.499c1.502 2.602 1.767 5.044.975 7.251-.803 2.238-2.752 4.399-6.005 6.277l1 1.732c3.503-2.022 5.872-4.502 6.888-7.333 1.027-2.862.612-5.917-1.126-8.927l-1.732 1zm-5.03 13.528l-12.886 7.44 1 1.732 12.886-7.44-1-1.732zm-11.52 7.806l-10.08-17.459-1.732 1 10.08 17.459 1.732-1zm-10.446-16.093l13.406-7.74-1-1.732-13.406 7.74 1 1.732zm42.012 37.728l-15.172 8.76 1 1.732 15.172-8.76-1-1.732zm-13.806 9.126l-11.16-19.33-1.732 1 11.16 19.33 1.732-1zm-11.526-17.964l14.653-8.46-1-1.732-14.653 8.46 1 1.732zm14.653-8.46c3.884-2.243 7.213-2.985 9.905-2.549 2.654.429 4.852 2.029 6.468 4.828l1.732-1c-1.864-3.228-4.535-5.261-7.88-5.802-3.306-.535-7.108.414-11.225 2.791l1 1.732zm16.373 2.279c1.61 2.788 1.857 5.525.931 8.031-.936 2.535-3.121 4.965-6.625 6.988l1 1.732c3.772-2.178 6.356-4.926 7.501-8.027 1.156-3.129.795-6.485-1.075-9.724l-1.732 1zm37.433-89.37l-.5-.866-.547.316.051.63.996-.08zm3.986 49.383l-.573.819 1.741 1.219-.171-2.118-.997.08zm-40.463-28.323l.574-.819-.522-.366-.552.319.5.866zm-16.627 9.6l-.5-.866-1.41.814 1.363.889.547-.837zm58.695 38.304l.997-.085-.042-.486-.408-.267-.547.838zm2.011 23.642l-.997.085.134 1.568 1.363-.787-.5-.866zm14.861-8.58l.5.866.549-.317-.053-.632-.996.083zm-7.706-92.546l.997-.083-.131-1.572-1.366.789.5.866zm-15.753 8.6l3.985 49.384 1.994-.161-3.986-49.384-1.993.161zm5.555 48.484l-40.462-28.323-1.147 1.638 40.463 28.323 1.146-1.638zm-41.536-28.37l-16.627 9.6 1 1.732 16.627-9.6-1-1.732zm-16.674 11.303l58.696 38.304 1.093-1.675-58.696-38.304-1.093 1.675zm58.246 37.552l2.01 23.642 1.993-.17-2.01-23.642-1.993.17zm3.507 24.423l14.861-8.58-1-1.732-14.861 8.58 1 1.732zm15.357-9.529l-7.705-92.546-1.993.166 7.705 92.546 1.993-.166zm-9.202-93.329l-14.757 8.52 1 1.732 14.757-8.52-1-1.732zm6.231 3.515l-.815-.578-.571.805.797.582.589-.809zm12.2 8.892l-.588.808.853.621.574-.885-.839-.544zm15.766 7.386l-.5-.866-.866.5.5.866.866-.5zm7.08 12.263l-.866.5.5.866.866-.5-.5-.866zm-.685 19.933l-.011-.999-1.05.011.063 1.048.998-.06zm.916 15.268l-.998.06.057.944.946-.004-.005-1zm18.049-54.9l-.866.5.439.762.812-.339-.385-.923zm-.12-.207l-.671-.742-.6.541.405.701.866-.5zm-30.685-30.828c-11.18 6.454-18.624 14.971-23.336 21.615l1.631 1.157c4.607-6.496 11.853-14.775 22.705-21.04l-1-1.732zm-23.11 23.002l12.201 8.891 1.177-1.617-12.2-8.891-1.178 1.617zm13.628 8.627c3.695-5.692 9.41-12.512 16.806-16.782l-1-1.732c-7.775 4.489-13.698 11.593-17.483 17.425l1.677 1.089zm16.806-16.782c3.977-2.296 7.329-3.309 9.974-3.187 2.57.118 4.552 1.306 5.915 3.667l1.732-1c-1.697-2.94-4.289-4.515-7.555-4.665-3.191-.146-6.936 1.068-11.066 3.453l1 1.732zm15.889.48c1.595 2.761 1.484 5.688-.347 8.752-1.866 3.123-5.517 6.365-10.958 9.506l1 1.732c5.575-3.218 9.559-6.671 11.675-10.212 2.151-3.599 2.368-7.305.362-10.778l-1.732 1zm-11.305 18.258l-6.963 4.02 1 1.732 6.963-4.02-1-1.732zm-7.329 5.386l7.08 12.263 1.732-1-7.08-12.263-1.732 1zm8.446 12.629l6.963-4.02-1-1.732-6.963 4.02 1 1.732zm6.963-4.02c6.297-3.635 11.624-5.672 15.842-5.925 2.093-.126 3.878.19 5.372.935 1.488.742 2.752 1.941 3.761 3.688l1.732-1c-1.181-2.045-2.72-3.541-4.6-4.478-1.875-.935-4.024-1.283-6.384-1.142-4.688.282-10.341 2.506-16.723 6.19l1 1.732zm24.975-1.302c1.664 2.882 1.739 5.801.301 8.685-1.468 2.941-4.55 5.916-9.348 8.686l1 1.732c4.972-2.87 8.425-6.094 10.137-9.526 1.741-3.489 1.638-7.119-.358-10.577l-1.732 1zm-9.047 17.371c-7.195 4.154-15.403 5.921-24.087 6.019l.022 1.999c8.938-.1 17.503-1.92 25.065-6.286l-1-1.732zm-25.074 7.078l.916 15.268 1.996-.12-.916-15.267-1.996.119zm1.919 16.208c9.855-.044 20.567-2.716 31.311-8.919l-1-1.732c-10.455 6.036-20.827 8.608-30.32 8.651l.009 2zm31.311-8.919c10.512-6.069 16.516-12.758 18.962-19.57 2.456-6.841 1.263-13.639-2.273-19.764l-1.732 1c3.304 5.722 4.342 11.907 2.123 18.088-2.23 6.211-7.806 12.582-18.08 18.514l1 1.732zm16.689-39.334c-3.569-6.182-8.239-9.595-13.549-10.796-5.274-1.193-11.042-.175-16.793 2.227l.771 1.845c5.526-2.307 10.852-3.191 15.58-2.122 4.691 1.061 8.928 4.076 12.259 9.846l1.732-1zm-29.09-8.147l-.12-.207-1.732 1 .12.207 1.732-1zm-.316 1.035c4.571-4.13 7.426-8.607 8.426-13.292 1.003-4.701.113-9.499-2.602-14.202l-1.732 1c2.505 4.339 3.263 8.635 2.378 12.784-.889 4.165-3.458 8.293-7.811 12.226l1.341 1.484zm5.824-27.494c-3.566-6.177-8.764-9.636-15.197-10.28-6.374-.638-13.832 1.498-21.982 6.204l1 1.732c7.958-4.595 14.986-6.526 20.782-5.946 5.737.574 10.391 3.62 13.665 9.29l1.732-1zm76.564-61.524l-.866.5.497.862.864-.494-.495-.868zm-3.9-6.755l.866-.5-.5-.866-.866.5.5.866zm-12.679 7.32l-.5-.866-.866.5.5.866.866-.5zm3.9 6.755l.504.863.86-.501-.498-.862-.866.5zm37.74 65.367l.866-.5-.495-.857-.863.487.492.87zm3.9 6.755l-.866.5.5.866.866-.5-.5-.866zm12.679-7.32l.5.866.866-.5-.5-.866-.866.5zm-3.9-6.755l-.509-.861-.853.504.496.857.866-.5zm-42.803-45.816l.866-.5-.5-.866-.866.5.5.866zm23.28 40.322l.5.866.866-.5-.5-.866-.866.5zm11.847-6.84l-.866.5.5.866.866-.5-.5-.866zm-23.28-40.322l-.5-.866-.866.5.5.866.866-.5zm47.112-.319c-5.93-10.272-14.08-16.734-23.538-19.029-9.449-2.294-20.058-.394-30.854 5.768l.991 1.737c10.465-5.973 20.551-7.708 29.392-5.562 8.832 2.144 16.568 8.197 22.277 18.086l1.732-1zm-53.03-12.892l-3.9-6.755-1.732 1 3.9 6.755 1.732-1zm-5.266-7.121l-12.679 7.32 1 1.732 12.679-7.32-1-1.732zm-13.045 8.686l3.9 6.755 1.732-1-3.9-6.755-1.732 1zm4.262 5.391c-10.735 6.269-17.685 14.506-20.423 23.837-2.741 9.338-1.22 19.627 4.71 29.899l1.732-1c-5.709-9.889-7.083-19.615-4.523-28.336 2.562-8.729 9.107-16.597 19.512-22.673l-1.008-1.727zm-15.713 53.736c5.931 10.272 14.08 16.733 23.545 19.042 9.455 2.306 20.078.434 30.903-5.676l-.983-1.741c-10.494 5.922-20.597 7.632-29.446 5.474-8.842-2.157-16.577-8.21-22.287-18.099l-1.732 1zm53.091 12.995l3.9 6.755 1.732-1-3.9-6.755-1.732 1zm5.266 7.121l12.679-7.32-1-1.732-12.679 7.32 1 1.732zm13.045-8.686l-3.9-6.755-1.732 1 3.9 6.755 1.732-1zm-4.258-5.393c10.704-6.321 17.637-14.584 20.367-23.926 2.733-9.351 1.212-19.639-4.719-29.911l-1.732 1c5.71 9.889 7.084 19.615 4.531 28.35-2.555 8.743-9.087 16.637-19.464 22.764l1.017 1.723zm-51.382-15.137c-3.782-6.551-4.769-12.358-3.327-17.393 1.444-5.042 5.383-9.521 11.898-13.282l-1-1.732c-6.788 3.919-11.187 8.757-12.821 14.464-1.636 5.714-.44 12.088 3.518 18.943l1.732-1zm7.205-31.041l23.28 40.322 1.732-1-23.28-40.322-1.732 1zm23.646 38.956c-6.612 3.817-12.503 4.914-17.588 3.593-5.083-1.321-9.57-5.112-13.263-11.508l-1.732 1c3.867 6.697 8.733 10.947 14.492 12.443 5.755 1.496 12.192.187 19.091-3.796l-1-1.732zm13.213-6.474l-23.28-40.322-1.732 1 23.28 40.322 1.732-1zm-23.646-38.956c6.514-3.761 12.363-4.934 17.452-3.663 5.08 1.269 9.616 5.027 13.399 11.578l1.732-1c-3.958-6.855-8.879-11.078-14.647-12.518-5.759-1.439-12.148-.048-18.936 3.871l1 1.732zm30.851 7.915c3.693 6.396 4.732 12.178 3.335 17.239-1.399 5.066-5.294 9.619-11.906 13.436l1 1.732c6.898-3.983 11.251-8.903 12.833-14.635 1.584-5.735.337-12.075-3.53-18.772l-1.732 1zm60.975-83.702l.866-.5-.5-.866-.866.5.5.866zm-55.91 32.28l-.5-.866-.866.5.5.866.866-.5zm25.566 65.883l-.5-.866-.866.5.5.866.866-.5zm7.32 12.679l-.866.5.5.866.866-.5-.5-.866zm-12.384-73.771l-.5-.866-.866.5.5.866.866-.5zm29.306-16.92l.866-.5-.5-.866-.866.5.5.866zm34.8 60.275l-.866.5.5.866.866-.5-.5-.866zm13.302-7.68l.5.866.866-.5-.5-.866-.866.5zm-42.5-73.612l-55.91 32.28 1 1.732 55.91-32.28-1-1.732zm-56.276 33.646l31.14 53.936 1.732-1-31.14-53.936-1.732 1zm31.14 53.936c1.364 2.363 1.702 4.008 1.468 5.2-.226 1.147-1.037 2.126-2.623 3.041l1 1.732c1.844-1.064 3.203-2.447 3.585-4.387.373-1.896-.242-4.064-1.698-6.586l-1.732 1zm-1.155 8.241l-4.053 2.34 1 1.732 4.053-2.34-1-1.732zm-4.419 3.706l7.32 12.679 1.733-1-7.32-12.679-1.733 1zm8.686 13.045l5.404-3.12-1-1.732-5.404 3.12 1 1.732zm5.404-3.12c5.904-3.408 9.628-7.546 10.823-12.622 1.19-5.059-.192-10.805-3.945-17.306l-1.732 1c3.626 6.281 4.756 11.486 3.73 15.848-1.022 4.344-4.244 8.096-9.876 11.348l1 1.732zm6.878-29.928l-24.3-42.089-1.732 1 24.3 42.089 1.732-1zm-24.666-40.723l29.306-16.92-1-1.732-29.306 16.92 1 1.732zm27.94-17.286l34.8 60.275 1.732-1-34.8-60.275-1.732 1zm36.166 60.641l13.302-7.68-1-1.732-13.302 7.68 1 1.732zm13.668-9.046l-42-72.746-1.732 1 42 72.746 1.732-1zM165.218 457.124l-.866.5.428.741.798-.308-.36-.933zm-.12-.207l-.736-.677-.497.541.367.636.866-.5zm-59.111-11.183l-.5-.866-.866.5.5.866.866-.5zm42 72.746l-.866.5.5.866.866-.5-.5-.866zm-11.537-50.704l-.866.5.5.866.866-.5-.5-.866zm-10.08-17.459l-.5-.866-.866.5.5.866.866-.5zm27.84 48.22l-.866.5.5.866.866-.5-.5-.866zm-11.16-19.33l-.5-.866-.866.5.5.866.866-.5zm23.034-22.583l-.12-.207-1.732 1 .12.207 1.732-1zm-.249.969c3.106-3.384 4.855-7.164 5.21-11.154.354-3.984-.688-8.094-3.021-12.135l-1.732 1c2.167 3.754 3.072 7.457 2.761 10.958-.312 3.497-1.843 6.876-4.691 9.978l1.473 1.353zm2.189-23.289c-3.618-6.267-8.77-9.735-14.727-10.622-5.918-.882-12.503.802-19.023 4.566l1 1.732c6.263-3.616 12.39-5.115 17.728-4.32 5.299.789 9.948 3.856 13.29 9.644l1.732-1zm-33.75-6.056l-28.787 16.62 1 1.732 28.787-16.62-1-1.732zm-29.153 17.986l42 72.746 1.732-1-42-72.746-1.732 1zm43.366 73.112l30.762-17.76-1-1.732-30.762 17.76 1 1.732zm30.762-17.76c6.419-3.706 11.564-8.832 14.028-14.944 2.481-6.152 2.197-13.192-2.056-20.559l-1.732 1c3.967 6.871 4.168 13.269 1.934 18.811-2.251 5.582-7.019 10.406-13.174 13.96l1 1.732zm11.972-35.503c-3.275-5.673-7.384-9.135-11.975-10.67-4.585-1.531-9.523-1.098-14.388.778l.72 1.866c4.541-1.752 8.991-2.097 13.034-.747 4.036 1.349 7.793 4.43 10.877 9.773l1.732-1zm-50.945-22.64c2.832-1.636 5.51-2.253 7.798-1.873 2.252.374 4.271 1.737 5.792 4.372l1.732-1c-1.778-3.08-4.276-4.86-7.196-5.345-2.885-.479-6.035.329-9.126 2.114l1 1.732zm13.59 2.499c1.502 2.602 1.767 5.044.975 7.251-.803 2.238-2.752 4.399-6.005 6.277l1 1.732c3.502-2.022 5.871-4.502 6.888-7.333 1.027-2.862.612-5.917-1.126-8.927l-1.732 1zm-5.03 13.528l-12.886 7.44 1 1.732 12.886-7.44-1-1.732zm-11.52 7.806l-10.08-17.459-1.732 1 10.08 17.459 1.732-1zm-10.446-16.093l13.406-7.74-1-1.732-13.406 7.74 1 1.732zm42.012 37.728l-15.172 8.76 1 1.732 15.172-8.76-1-1.732zm-13.806 9.126l-11.16-19.33-1.732 1 11.16 19.33 1.732-1zm-11.526-17.964l14.653-8.46-1-1.732-14.653 8.46 1 1.732zm14.653-8.46c3.884-2.242 7.212-2.985 9.905-2.549 2.654.429 4.851 2.029 6.468 4.828l1.732-1c-1.864-3.228-4.535-5.261-7.88-5.802-3.306-.535-7.108.414-11.225 2.791l1 1.732zm16.373 2.279c1.609 2.788 1.856 5.525.931 8.031-.936 2.535-3.121 4.965-6.625 6.988l1 1.732c3.772-2.177 6.356-4.926 7.501-8.027 1.156-3.129.795-6.484-1.075-9.724l-1.732 1zm37.433-89.37l-.5-.866-.547.316.051.63.996-.08zm3.986 49.383l-.574.82 1.742 1.218-.171-2.118-.997.08zm-40.463-28.323l.574-.819-.522-.366-.552.319.5.866zm-16.627 9.6l-.5-.866-1.41.814 1.363.889.547-.837zm58.695 38.304l.997-.085-.042-.486-.408-.267-.547.838zm2.011 23.642l-.997.085.134 1.568 1.363-.787-.5-.866zm14.861-8.58l.5.866.549-.317-.053-.632-.996.083zm-7.706-92.546l.997-.083-.131-1.572-1.366.789.5.866zm-15.753 8.6l3.985 49.384 1.994-.161-3.986-49.383-1.993.16zm5.555 48.484l-40.462-28.323-1.147 1.638 40.462 28.324 1.147-1.639zm-41.536-28.37l-16.627 9.6 1 1.732 16.627-9.6-1-1.732zm-16.674 11.303l58.696 38.304 1.093-1.675-58.696-38.303-1.093 1.674zm58.246 37.552l2.01 23.642 1.993-.17-2.01-23.642-1.993.17zm3.507 24.423l14.861-8.58-1-1.732-14.861 8.58 1 1.732zm15.357-9.529l-7.705-92.546-1.993.166 7.705 92.546 1.993-.166zm-9.202-93.329l-14.757 8.52 1 1.732 14.757-8.52-1-1.732zm6.231 3.515l-.815-.578-.571.805.797.582.589-.809zm12.2 8.892l-.589.808.853.621.575-.885-.839-.544zm15.766 7.386l-.5-.866-.866.5.5.866.866-.5zm7.08 12.263l-.866.5.5.866.866-.5-.5-.866zm-.685 19.934l-.011-1-1.05.011.063 1.048.998-.059zm.916 15.267l-.998.06.057.944.946-.004-.005-1zm18.049-54.9l-.866.5.439.762.812-.339-.385-.923zm-.12-.207l-.671-.742-.6.542.405.7.866-.5zm-30.685-30.828c-11.18 6.454-18.624 14.971-23.336 21.615l1.631 1.157c4.607-6.496 11.853-14.775 22.705-21.04l-1-1.732zm-23.11 23.002l12.2 8.891 1.178-1.617-12.2-8.891-1.178 1.617zm13.628 8.627c3.695-5.692 9.409-12.512 16.806-16.782l-1-1.732c-7.775 4.489-13.698 11.594-17.483 17.425l1.677 1.089zm16.806-16.782c3.977-2.296 7.329-3.308 9.974-3.187 2.57.118 4.552 1.306 5.915 3.667l1.732-1c-1.697-2.939-4.29-4.515-7.555-4.665-3.191-.146-6.936 1.068-11.066 3.453l1 1.732zm15.889.48c1.595 2.761 1.484 5.688-.347 8.752-1.866 3.123-5.517 6.365-10.958 9.506l1 1.732c5.575-3.218 9.559-6.671 11.675-10.212 2.151-3.599 2.368-7.305.362-10.778l-1.732 1zm-11.305 18.258l-6.963 4.02 1 1.732 6.963-4.02-1-1.732zm-7.329 5.386l7.08 12.263 1.732-1-7.08-12.263-1.732 1zm8.446 12.629l6.963-4.02-1-1.732-6.963 4.02 1 1.732zm6.963-4.02c6.297-3.635 11.624-5.672 15.842-5.925 2.093-.126 3.878.19 5.372.935 1.488.742 2.752 1.941 3.761 3.688l1.732-1c-1.181-2.045-2.72-3.541-4.601-4.478-1.874-.935-4.023-1.283-6.384-1.142-4.687.282-10.341 2.506-16.722 6.19l1 1.732zm24.975-1.302c1.664 2.882 1.739 5.801.3 8.685-1.467 2.941-4.549 5.916-9.347 8.686l1 1.732c4.972-2.87 8.425-6.094 10.137-9.526 1.741-3.489 1.638-7.119-.358-10.577l-1.732 1zm-9.047 17.371c-7.195 4.154-15.403 5.921-24.087 6.019l.022 1.999c8.938-.1 17.503-1.92 25.065-6.286l-1-1.732zm-25.074 7.078l.916 15.268 1.996-.12-.916-15.267-1.996.119zm1.919 16.208c9.855-.044 20.567-2.716 31.311-8.919l-1-1.732c-10.455 6.036-20.827 8.609-30.32 8.651l.009 2zm31.311-8.919c10.512-6.069 16.516-12.758 18.962-19.57 2.456-6.841 1.263-13.639-2.273-19.764l-1.732 1c3.304 5.722 4.342 11.907 2.123 18.089-2.23 6.21-7.807 12.582-18.08 18.513l1 1.732zm16.689-39.334c-3.569-6.182-8.239-9.595-13.549-10.796-5.274-1.193-11.042-.175-16.793 2.227l.771 1.845c5.525-2.307 10.852-3.191 15.58-2.122 4.691 1.062 8.928 4.076 12.259 9.846l1.732-1zm-29.09-8.147l-.12-.207-1.732 1 .12.207 1.732-1zm-.316 1.035c4.571-4.13 7.426-8.607 8.426-13.292 1.003-4.701.113-9.499-2.602-14.202l-1.732 1c2.505 4.339 3.263 8.635 2.378 12.784-.889 4.165-3.458 8.293-7.811 12.226l1.341 1.484zm5.824-27.494c-3.566-6.176-8.764-9.636-15.197-10.28-6.374-.638-13.832 1.499-21.982 6.204l1 1.732c7.958-4.595 14.986-6.526 20.782-5.946 5.737.574 10.391 3.62 13.665 9.29l1.732-1zm76.563-61.524l-.866.5.498.862.864-.494-.496-.868zm-3.9-6.755l.867-.5-.5-.866-.867.5.5.866zm-12.678 7.32l-.5-.866-.866.5.5.866.866-.5zm3.9 6.755l.504.864.859-.502-.497-.862-.866.5zm37.74 65.368l.866-.5-.495-.858-.863.487.492.871zm3.9 6.755l-.866.5.5.866.866-.5-.5-.866zm12.678-7.32l.5.866.867-.5-.5-.866-.867.5zm-3.9-6.755l-.508-.862-.853.504.495.858.866-.5zm-42.802-45.817l.866-.5-.5-.866-.866.5.5.866zm23.28 40.322l.5.866.866-.5-.5-.866-.866.5zm11.847-6.84l-.866.5.5.866.866-.5-.5-.866zm-23.28-40.322l-.5-.866-.866.5.5.866.866-.5zm47.112-.319c-5.93-10.272-14.08-16.734-23.538-19.029-9.449-2.294-20.058-.394-30.854 5.768l.991 1.737c10.464-5.973 20.551-7.708 29.392-5.562 8.832 2.144 16.568 8.197 22.277 18.086l1.732-1zm-53.03-12.892l-3.9-6.755-1.733 1 3.9 6.755 1.733-1zm-5.267-7.121l-12.678 7.32 1 1.732 12.678-7.32-1-1.732zm-13.044 8.686l3.9 6.755 1.732-1-3.9-6.755-1.732 1zm4.262 5.391c-10.735 6.269-17.685 14.507-20.424 23.837-2.74 9.338-1.219 19.627 4.711 29.899l1.732-1c-5.709-9.889-7.083-19.615-4.524-28.336 2.562-8.729 9.108-16.597 19.513-22.672l-1.008-1.728zm-15.713 53.736c5.931 10.272 14.08 16.733 23.544 19.042 9.456 2.306 20.079.434 30.904-5.676l-.983-1.741c-10.494 5.922-20.597 7.633-29.447 5.474-8.841-2.157-16.576-8.21-22.286-18.099l-1.732 1zm53.091 12.996l3.9 6.755 1.732-1-3.9-6.755-1.732 1zm5.266 7.121l12.678-7.32-1-1.732-12.678 7.32 1 1.732zm13.045-8.686l-3.9-6.755-1.733 1 3.9 6.755 1.733-1zm-4.258-5.394c10.704-6.321 17.637-14.584 20.367-23.926 2.732-9.351 1.212-19.639-4.719-29.911l-1.732 1c5.709 9.889 7.084 19.615 4.531 28.35-2.555 8.743-9.087 16.637-19.464 22.764l1.017 1.723zm-51.382-15.137c-3.782-6.551-4.769-12.358-3.327-17.393 1.444-5.042 5.383-9.521 11.898-13.282l-1-1.732c-6.788 3.919-11.187 8.757-12.821 14.464-1.636 5.714-.44 12.088 3.518 18.943l1.732-1zm7.205-31.041l23.28 40.322 1.732-1-23.28-40.322-1.732 1zm23.646 38.956c-6.612 3.817-12.503 4.914-17.589 3.593-5.082-1.321-9.569-5.111-13.262-11.508l-1.732 1c3.867 6.697 8.733 10.947 14.491 12.444 5.756 1.495 12.193.186 19.092-3.797l-1-1.732zm13.213-6.474l-23.28-40.322-1.732 1 23.28 40.322 1.732-1zm-23.646-38.956c6.514-3.761 12.363-4.934 17.452-3.663 5.08 1.269 9.616 5.027 13.399 11.578l1.732-1c-3.958-6.855-8.88-11.078-14.647-12.518-5.759-1.438-12.148-.048-18.936 3.871l1 1.732zm30.851 7.915c3.693 6.397 4.732 12.178 3.335 17.24-1.399 5.065-5.295 9.618-11.906 13.435l1 1.732c6.898-3.983 11.251-8.903 12.833-14.635 1.584-5.735.336-12.075-3.53-18.772l-1.732 1zm60.975-83.702l.866-.5-.5-.866-.866.5.5.866zm-55.911 32.28l-.5-.866-.866.5.5.866.866-.5zm25.567 65.883l-.5-.866-.866.5.5.866.866-.5zm7.32 12.679l-.866.5.5.866.866-.5-.5-.866zm-12.384-73.771l-.5-.866-.866.5.5.866.866-.5zm29.306-16.92l.866-.5-.5-.866-.866.5.5.866zm34.8 60.275l-.866.5.5.866.866-.5-.5-.866zm13.302-7.68l.5.866.866-.5-.5-.866-.866.5zm-42.5-73.612l-55.911 32.28 1 1.732 55.911-32.28-1-1.732zm-56.277 33.646l31.14 53.936 1.733-1-31.14-53.936-1.733 1zm31.14 53.936c1.364 2.363 1.703 4.008 1.469 5.2-.226 1.147-1.037 2.126-2.623 3.041l1 1.732c1.844-1.064 3.203-2.447 3.585-4.387.373-1.895-.242-4.064-1.698-6.586l-1.733 1zm-1.154 8.241l-4.053 2.34 1 1.732 4.053-2.34-1-1.732zm-4.419 3.706l7.32 12.679 1.732-1-7.32-12.679-1.732 1zm8.686 13.045l5.404-3.12-1-1.732-5.404 3.12 1 1.732zm5.404-3.12c5.904-3.408 9.628-7.546 10.823-12.622 1.19-5.059-.192-10.805-3.945-17.306l-1.732 1c3.626 6.281 4.756 11.486 3.73 15.848-1.022 4.344-4.244 8.096-9.876 11.348l1 1.732zm6.878-29.928l-24.3-42.089-1.732 1 24.3 42.089 1.732-1zm-24.666-40.723l29.306-16.92-1-1.732-29.306 16.92 1 1.732zm27.94-17.286l34.8 60.275 1.732-1-34.8-60.275-1.732 1zm36.166 60.641l13.302-7.68-1-1.732-13.302 7.68 1 1.732zm13.668-9.046l-42-72.746-1.732 1 42 72.746 1.732-1zm58.908-85.418l-.866.5.428.741.798-.308-.36-.933zm-.12-.208l-.736-.676-.497.541.367.635.866-.5zm-59.11-11.182l-.5-.866-.866.5.5.866.866-.5zm42 72.746l-.866.5.5.866.866-.5-.5-.866zm-11.538-50.704l-.866.5.5.866.866-.5-.5-.866zm-10.08-17.459l-.5-.866-.866.5.5.866.866-.5zm27.84 48.22l-.866.5.5.866.866-.5-.5-.866zm-11.16-19.33l-.5-.866-.866.5.5.866.866-.5zm23.034-22.583l-.12-.208-1.732 1 .12.208 1.732-1zm-.249.969c3.106-3.384 4.855-7.164 5.21-11.154.354-3.984-.688-8.095-3.021-12.135l-1.732 1c2.167 3.754 3.072 7.457 2.761 10.958-.312 3.496-1.843 6.875-4.691 9.978l1.473 1.353zm2.189-23.289c-3.618-6.267-8.77-9.735-14.727-10.622-5.918-.882-12.503.802-19.023 4.566l1 1.732c6.263-3.616 12.39-5.115 17.728-4.32 5.299.789 9.948 3.856 13.29 9.644l1.732-1zm-33.75-6.056l-28.786 16.62 1 1.732 28.786-16.62-1-1.732zm-29.152 17.986l42 72.746 1.732-1-42-72.746-1.732 1zm43.366 73.112l30.761-17.76-1-1.732-30.761 17.76 1 1.732zm30.761-17.76c6.419-3.706 11.564-8.832 14.029-14.944 2.48-6.152 2.196-13.193-2.057-20.559l-1.732 1c3.967 6.871 4.168 13.269 1.934 18.811-2.251 5.582-7.019 10.406-13.174 13.96l1 1.732zm11.972-35.503c-3.275-5.673-7.384-9.135-11.975-10.67-4.585-1.531-9.523-1.099-14.388.778l.72 1.866c4.541-1.752 8.991-2.098 13.034-.747 4.036 1.349 7.793 4.43 10.877 9.773l1.732-1zm-50.945-22.64c2.832-1.636 5.51-2.253 7.798-1.873 2.252.374 4.271 1.737 5.792 4.372l1.732-1c-1.778-3.08-4.276-4.86-7.196-5.345-2.885-.479-6.035.329-9.126 2.114l1 1.732zm13.59 2.499c1.502 2.602 1.767 5.044.975 7.251-.803 2.238-2.752 4.399-6.005 6.277l1 1.732c3.503-2.022 5.872-4.502 6.888-7.333 1.027-2.862.612-5.917-1.126-8.927l-1.732 1zm-5.03 13.528l-12.886 7.44 1 1.732 12.886-7.44-1-1.732zm-11.52 7.806l-10.08-17.459-1.732 1 10.08 17.459 1.732-1zm-10.446-16.093l13.406-7.74-1-1.732-13.406 7.74 1 1.732zm42.012 37.728l-15.172 8.76 1 1.732 15.172-8.76-1-1.732zm-13.806 9.126l-11.16-19.33-1.732 1 11.16 19.33 1.732-1zm-11.526-17.964l14.653-8.46-1-1.732-14.653 8.46 1 1.732zm14.653-8.46c3.884-2.243 7.213-2.985 9.905-2.549 2.654.429 4.852 2.029 6.468 4.828l1.732-1c-1.864-3.228-4.535-5.261-7.88-5.802-3.306-.535-7.108.414-11.225 2.791l1 1.732zm16.373 2.279c1.61 2.788 1.857 5.525.931 8.031-.936 2.535-3.121 4.965-6.625 6.988l1 1.732c3.772-2.178 6.356-4.926 7.501-8.027 1.156-3.129.795-6.485-1.075-9.724l-1.732 1zm37.433-89.37l-.5-.866-.547.316.051.63.996-.08zm3.986 49.383l-.573.819 1.741 1.219-.171-2.118-.997.08zm-40.463-28.323l.574-.819-.522-.366-.552.319.5.866zm-16.627 9.6l-.5-.866-1.41.814 1.363.889.547-.837zm58.695 38.304l.997-.085-.042-.486-.408-.267-.547.838zm2.011 23.642l-.997.085.134 1.568 1.363-.787-.5-.866zm14.861-8.58l.5.866.549-.317-.053-.632-.996.083zm-7.706-92.546l.997-.083-.131-1.572-1.366.789.5.866zm-15.753 8.6l3.985 49.384 1.994-.161-3.986-49.384-1.993.161zm5.555 48.484l-40.462-28.323-1.147 1.638 40.463 28.323 1.146-1.638zm-41.536-28.37l-16.627 9.6 1 1.732 16.627-9.6-1-1.732zm-16.674 11.303l58.696 38.304 1.093-1.675-58.696-38.304-1.093 1.675zm58.246 37.552l2.01 23.642 1.993-.17-2.01-23.642-1.993.17zm3.507 24.423l14.861-8.58-1-1.732-14.861 8.58 1 1.732zm15.357-9.529l-7.705-92.546-1.993.166 7.705 92.546 1.993-.166zm-9.202-93.329l-14.757 8.52 1 1.732 14.757-8.52-1-1.732zm6.231 3.515l-.815-.578-.571.805.797.582.589-.809zm12.2 8.892l-.588.808.853.621.574-.885-.839-.544zm15.766 7.386l-.5-.866-.866.5.5.866.866-.5zm7.08 12.263l-.866.5.5.866.866-.5-.5-.866zm-.685 19.933l-.011-.999-1.05.011.063 1.048.998-.06zm.916 15.268l-.998.06.057.944.946-.004-.005-1zm18.049-54.9l-.866.5.439.762.812-.339-.385-.923zm-.12-.207l-.671-.742-.6.541.405.701.866-.5zm-30.685-30.828c-11.18 6.454-18.624 14.971-23.336 21.615l1.631 1.157c4.607-6.496 11.853-14.775 22.705-21.04l-1-1.732zm-23.11 23.002l12.201 8.891 1.177-1.617-12.2-8.891-1.178 1.617zm13.628 8.627c3.695-5.692 9.41-12.512 16.806-16.782l-1-1.732c-7.775 4.489-13.698 11.593-17.483 17.425l1.677 1.089zm16.806-16.782c3.977-2.296 7.329-3.309 9.974-3.187 2.57.118 4.552 1.306 5.915 3.667l1.732-1c-1.697-2.94-4.289-4.515-7.555-4.665-3.191-.146-6.936 1.068-11.066 3.453l1 1.732zm15.889.48c1.595 2.761 1.484 5.688-.347 8.752-1.866 3.123-5.517 6.365-10.958 9.506l1 1.732c5.575-3.218 9.559-6.671 11.675-10.212 2.151-3.599 2.368-7.305.362-10.778l-1.732 1zm-11.305 18.258l-6.963 4.02 1 1.732 6.963-4.02-1-1.732zm-7.329 5.386l7.08 12.263 1.732-1-7.08-12.263-1.732 1zm8.446 12.629l6.963-4.02-1-1.732-6.963 4.02 1 1.732zm6.963-4.02c6.297-3.635 11.624-5.672 15.842-5.925 2.093-.126 3.878.19 5.372.935 1.488.742 2.752 1.941 3.761 3.688l1.732-1c-1.181-2.045-2.72-3.541-4.6-4.478-1.875-.935-4.024-1.283-6.384-1.142-4.688.282-10.341 2.506-16.723 6.19l1 1.732zm24.975-1.302c1.664 2.882 1.739 5.801.301 8.685-1.468 2.941-4.55 5.916-9.348 8.686l1 1.732c4.972-2.87 8.425-6.094 10.137-9.526 1.741-3.489 1.638-7.119-.358-10.577l-1.732 1zm-9.047 17.371c-7.195 4.154-15.403 5.921-24.087 6.019l.022 1.999c8.938-.1 17.503-1.92 25.065-6.286l-1-1.732zm-25.074 7.078l.916 15.268 1.996-.12-.916-15.267-1.996.119zm1.919 16.208c9.855-.044 20.567-2.716 31.311-8.919l-1-1.732c-10.455 6.036-20.827 8.608-30.32 8.651l.009 2zm31.311-8.919c10.512-6.069 16.516-12.758 18.962-19.57 2.456-6.841 1.263-13.639-2.273-19.764l-1.732 1c3.304 5.722 4.342 11.907 2.123 18.088-2.23 6.211-7.806 12.582-18.08 18.514l1 1.732zm16.689-39.334c-3.569-6.182-8.239-9.595-13.549-10.796-5.274-1.193-11.042-.175-16.793 2.227l.771 1.845c5.526-2.307 10.852-3.191 15.58-2.122 4.691 1.061 8.928 4.076 12.259 9.846l1.732-1zm-29.09-8.147l-.12-.207-1.732 1 .12.207 1.732-1zm-.316 1.035c4.571-4.13 7.426-8.607 8.426-13.292 1.003-4.701.113-9.499-2.602-14.202l-1.732 1c2.505 4.339 3.263 8.635 2.378 12.784-.889 4.165-3.458 8.293-7.811 12.226l1.341 1.484zm5.824-27.494c-3.566-6.177-8.764-9.636-15.197-10.28-6.374-.638-13.832 1.498-21.982 6.204l1 1.732c7.958-4.595 14.986-6.526 20.782-5.946 5.737.574 10.391 3.62 13.665 9.29l1.732-1zm76.564-61.524l-.866.5.497.862.864-.494-.495-.868zm-3.9-6.755l.866-.5-.5-.866-.866.5.5.866zm-12.679 7.32l-.5-.866-.866.5.5.866.866-.5zm3.9 6.755l.504.863.86-.501-.498-.862-.866.5zm37.74 65.367l.866-.5-.495-.857-.863.487.492.87zm3.9 6.755l-.866.5.5.866.866-.5-.5-.866zm12.679-7.32l.5.866.866-.5-.5-.866-.866.5zm-3.9-6.755l-.509-.861-.853.504.496.857.866-.5zm-42.803-45.816l.866-.5-.5-.866-.866.5.5.866zm23.28 40.322l.5.866.866-.5-.5-.866-.866.5zm11.847-6.84l-.866.5.5.866.866-.5-.5-.866zm-23.28-40.322l-.5-.866-.866.5.5.866.866-.5zm47.112-.32c-5.93-10.271-14.08-16.733-23.538-19.028-9.449-2.294-20.058-.394-30.854 5.768l.991 1.737c10.465-5.973 20.551-7.708 29.392-5.562 8.832 2.144 16.568 8.197 22.277 18.086l1.732-1zm-53.03-12.891l-3.9-6.755-1.732 1 3.9 6.755 1.732-1zm-5.266-7.121l-12.679 7.32 1 1.732 12.679-7.32-1-1.732zm-13.045 8.686l3.9 6.755 1.732-1-3.9-6.755-1.732 1zm4.262 5.391c-10.735 6.269-17.685 14.507-20.423 23.837-2.741 9.338-1.22 19.627 4.71 29.899l1.732-1c-5.709-9.889-7.083-19.615-4.523-28.336 2.562-8.73 9.107-16.597 19.512-22.673l-1.008-1.727zm-15.713 53.736c5.931 10.272 14.08 16.733 23.545 19.042 9.455 2.306 20.078.434 30.903-5.676l-.983-1.741c-10.494 5.922-20.597 7.632-29.446 5.474-8.842-2.157-16.577-8.21-22.287-18.099l-1.732 1zm53.091 12.995l3.9 6.755 1.732-1-3.9-6.755-1.732 1zm5.266 7.121l12.679-7.32-1-1.732-12.679 7.32 1 1.732zm13.045-8.686l-3.9-6.755-1.732 1 3.9 6.755 1.732-1zm-4.258-5.393c10.704-6.321 17.637-14.584 20.367-23.926 2.733-9.351 1.212-19.64-4.719-29.911l-1.732 1c5.71 9.888 7.084 19.615 4.531 28.35-2.555 8.743-9.087 16.637-19.464 22.764l1.017 1.723zm-51.382-15.137c-3.782-6.551-4.769-12.358-3.327-17.393 1.444-5.042 5.383-9.521 11.898-13.282l-1-1.732c-6.788 3.919-11.187 8.757-12.821 14.464-1.636 5.714-.44 12.088 3.518 18.943l1.732-1zm7.205-31.041l23.28 40.322 1.732-1-23.28-40.322-1.732 1zm23.646 38.956c-6.612 3.817-12.503 4.914-17.588 3.593-5.083-1.321-9.57-5.112-13.263-11.508l-1.732 1c3.867 6.697 8.733 10.947 14.492 12.443 5.755 1.496 12.192.187 19.091-3.796l-1-1.732zm13.213-6.474l-23.28-40.322-1.732 1 23.28 40.322 1.732-1zm-23.646-38.956c6.514-3.761 12.363-4.934 17.452-3.663 5.08 1.269 9.616 5.027 13.399 11.578l1.732-1c-3.958-6.855-8.879-11.078-14.647-12.518-5.759-1.439-12.148-.048-18.936 3.87l1 1.733zm30.851 7.915c3.693 6.397 4.732 12.178 3.335 17.239-1.399 5.066-5.294 9.619-11.906 13.436l1 1.732c6.898-3.983 11.251-8.903 12.833-14.635 1.584-5.735.337-12.075-3.53-18.772l-1.732 1zm60.975-83.702l.866-.5-.5-.866-.866.5.5.866zm-55.91 32.28l-.5-.866-.866.5.5.866.866-.5zm25.566 65.883l-.5-.866-.866.5.5.866.866-.5zm7.32 12.679l-.866.5.5.866.866-.5-.5-.866zM836.89 40.375l-.5-.866-.866.5.5.866.866-.5zm29.306-16.92l.866-.5-.5-.866-.866.5.5.866zm34.8 60.275l-.866.5.5.866.866-.5-.5-.866zm13.302-7.68l.5.866.866-.5-.5-.866-.866.5zm-42.5-73.612l-55.91 32.28 1 1.732 55.91-32.28-1-1.732zm-56.276 33.646l31.14 53.936 1.732-1-31.14-53.936-1.732 1zm31.14 53.936c1.364 2.363 1.702 4.008 1.468 5.2-.226 1.147-1.037 2.126-2.623 3.041l1 1.732c1.844-1.064 3.203-2.447 3.585-4.387.373-1.896-.242-4.064-1.698-6.586l-1.732 1zm-1.155 8.241l-4.053 2.34 1 1.732 4.053-2.34-1-1.732zm-4.419 3.706l7.32 12.679 1.733-1-7.32-12.679-1.733 1zm8.686 13.045l5.404-3.12-1-1.732-5.404 3.12 1 1.732zm5.404-3.12c5.904-3.408 9.628-7.546 10.823-12.622 1.19-5.06-.192-10.805-3.945-17.306l-1.732 1c3.626 6.28 4.756 11.486 3.73 15.848-1.022 4.344-4.244 8.096-9.876 11.348l1 1.732zm6.878-29.928l-24.3-42.09-1.732 1 24.3 42.09 1.732-1zM837.39 41.24l29.306-16.92-1-1.732-29.306 16.92 1 1.732zm27.94-17.286l34.8 60.275 1.732-1-34.8-60.275-1.732 1zm36.166 60.641l13.302-7.68-1-1.732-13.302 7.68 1 1.732zm13.668-9.046l-42-72.746-1.732 1 42 72.746 1.732-1z" fill="#252525"/></svg>