<svg width="206" height="45" fill="none" xmlns="http://www.w3.org/2000/svg"><path d="M8.096 5.104c4.434 0 8 3.263 8 7.72 0 4.394-3.63 7.754-7.775 7.754-1.928 0-3.823-.55-5.237-2.165h-.128v11.21H0v-15.57c0-5.46 3.116-8.949 8.096-8.949zm-.032 12.857c2.924 0 4.915-2.326 4.915-5.136S11.02 7.72 8.064 7.72c-2.988 0-5.012 2.293-5.012 5.071 0 2.843 2.056 5.17 5.012 5.17zm10.794-5.136c0-4.458 3.695-7.721 8.064-7.721 4.37 0 8.064 3.295 8.064 7.72 0 4.459-3.694 7.722-8.064 7.722-4.369.032-8.064-3.263-8.064-7.721zm8.064 5.136c2.956 0 4.948-2.293 4.948-5.136s-1.992-5.137-4.948-5.137c-2.955 0-4.947 2.262-4.947 5.137 0 2.843 1.992 5.136 4.947 5.136zm18.956 2.617c-4.626 0-8.16-3.263-8.16-7.72 0-4.459 3.437-7.722 8.032-7.722 3.534 0 6.843 1.939 7.678 5.59h-3.02c-.739-1.971-2.506-2.973-4.562-2.973-3.116 0-5.012 2.326-5.012 5.169 0 2.875 1.96 5.072 5.076 5.072 2.024 0 3.856-.937 4.562-3.07h3.052c-1.092 3.845-4.24 5.654-7.646 5.654zm18.601-2.165L59.628 8.237h-.097v12.018h-2.827V5.427h4.53l4.787 10.144h.096l4.787-10.144h4.53v14.828h-2.827V8.237h-.096l-4.852 10.176h-3.18zm14.104-5.588c0-4.458 3.695-7.721 8.064-7.721 4.37 0 8.064 3.295 8.064 7.72 0 4.459-3.695 7.722-8.064 7.722-4.337.032-8.064-3.263-8.064-7.721zm8.064 5.136c2.956 0 4.948-2.293 4.948-5.136s-1.992-5.137-4.948-5.137c-2.956 0-4.948 2.262-4.948 5.137 0 2.843 2.024 5.136 4.948 5.136zm9.575 2.423v-3.069h.064c.578 0 1.253-.258 1.67-.743.547-.614.836-1.712 1.125-3.327l.418-2.358c.482-2.746 1.445-5.492 5.526-5.492h5.75v14.892h-2.955V8.108h-2.281c-2.281 0-2.795.646-3.342 3.78l-.385 2.229c-.321 2.035-.835 3.78-1.896 4.91-.803.84-1.927 1.325-3.405 1.325h-.29v.032zm17.83-7.559c0-4.458 3.694-7.721 8.064-7.721 4.369 0 8.064 3.295 8.064 7.72 0 4.459-3.695 7.722-8.064 7.722-4.337.032-8.064-3.263-8.064-7.721zm8.064 5.136c2.955 0 4.947-2.293 4.947-5.136s-1.992-5.137-4.947-5.137c-2.956 0-4.948 2.262-4.948 5.137 0 2.843 2.024 5.136 4.948 5.136zm11.501 5.879h-2.859v-6.363h1.927c.836-.937 1.286-2.359 1.671-4.103l.643-2.746c.61-2.649 1.734-5.298 5.397-5.298h5.719v12.147h2.12v6.363h-2.859v-3.585h-11.791v3.585h.032zm9.606-6.299V8.076h-2.763c-1.799 0-2.409 1.454-2.763 2.972l-.642 2.843c-.354 1.583-.9 2.907-1.446 3.456v.226h7.614v-.032zm15.325 3.037c-4.69 0-8.096-3.263-8.096-7.72 0-4.459 3.438-7.722 8-7.722 3.534 0 7.807 2.326 7.807 7.947v.614h-12.851c.321 2.488 2.217 4.264 5.14 4.264 1.735 0 3.791-.646 4.37-2.132h3.019c-.963 3.263-4.369 4.749-7.389 4.749zM153.44 0h3.052v3.069h-3.052V0zm9.702 11.403c-.449-2.229-2.184-3.747-4.754-3.747-2.571 0-4.338 1.615-4.884 3.747h9.638zM160.058 0h3.052v3.069h-3.052V0zm20.08 5.427v5.88h2.473l3.47-5.88h3.245l-4.305 7.075 4.691 7.753h-3.31l-3.726-6.235h-2.506v6.235h-2.827v-6.267h-2.506l-3.727 6.235h-3.309l4.69-7.754-4.305-7.074h3.245l3.47 5.912h2.474v-5.88h2.763zm11.597 8.141l-.032-8.14h2.956l.032 4.199h.096c1.253-1.518 2.828-2.261 4.723-2.261 3.63 0 6.554 2.713 6.554 6.493 0 3.844-2.988 6.687-7.1 6.687-4.177.032-7.197-2.94-7.229-6.978zm7.133 4.393c2.345 0 4.048-1.647 4.048-3.973 0-2.326-1.703-4.006-4.048-4.006-2.314 0-4.016 1.68-4.016 4.006 0 2.326 1.67 3.973 4.016 3.973zM77.137 31.917h-4.915v8.69h-1.575V30.398h6.49v1.519zm1.349-1.519h1.575v1.81h.032c.706-1.293 1.992-2.133 3.823-2.133 2.795 0 5.012 2.036 5.012 5.428 0 3.36-2.25 5.427-5.012 5.427-1.831 0-3.149-.873-3.823-2.132h-.032v6.234h-1.575V30.4zm8.835 5.105c0-2.262-1.445-3.845-3.662-3.845-2.217 0-3.663 1.616-3.663 3.845 0 2.26 1.446 3.844 3.663 3.844 2.184 0 3.662-1.583 3.662-3.844zm2.988 0c0-3.36 2.249-5.428 5.011-5.428 1.832 0 3.149.873 3.824 2.133h.032v-1.81h1.574v10.176h-1.574v-1.809h-.032c-.707 1.292-1.992 2.132-3.824 2.132-2.795.033-5.011-2.035-5.011-5.394zm8.995 0c0-2.262-1.445-3.845-3.662-3.845-2.217 0-3.663 1.616-3.663 3.845 0 2.26 1.446 3.844 3.663 3.844 2.217 0 3.662-1.583 3.662-3.844zm13.077-5.105v10.176h-1.574v-4.651h-5.911v4.651h-1.575V30.398h1.575v4.07h5.911v-4.07h1.574zm10.731 1.454h-3.92v8.722h-1.574v-8.722h-3.888v-1.454h9.382v1.454zm9.67 5.524c0 1.906-1.349 3.23-3.47 3.23h-4.819V30.399h1.574v3.78h3.245c2.089 0 3.47 1.228 3.47 3.198zm-1.671.032c0-1.163-.642-1.776-1.959-1.776h-3.085v3.553h3.085c1.317-.032 1.959-.678 1.959-1.777zm4.273-7.01v10.176h-1.574V30.398h1.574z" fill="#fff"/></svg>