<svg width="587" height="619" fill="none" xmlns="http://www.w3.org/2000/svg"><path d="M18 315.5l9.26-23.222-26.434 41.39L18 315.5zM568.5 535l-9.259 23.222 27.241-40.59L568.5 535zM74 23L85.845.984 56.018 40.368 74 23zm460 247.5l-11.845 22.016 34.09-33.424L534 270.5zM336.674 582.332l-301.5-285L.825 333.668l301.5 285 34.348-36.336zM8.741 338.722l550.5 219.5 18.518-46.444-550.5-219.5-18.518 46.444zm577.741 178.91l-494.5-512-35.964 34.736 494.5 512 35.964-34.736zM62.155 45.016l460 247.5 23.69-44.032-460-247.5-23.69 44.032zm494.09 214.076l-20-39-44.49 22.816 20 39 44.49-22.816z" fill="#DAEF14"/></svg>