<svg width="203" height="45" fill="none" xmlns="http://www.w3.org/2000/svg"><path d="M7.978 5.44c4.37 0 7.883 3.2 7.883 7.572 0 4.308-3.577 7.603-7.661 7.603-1.9 0-3.768-.538-5.16-2.122h-.127v10.992H0v-15.27C0 8.863 3.071 5.44 7.978 5.44zm-.031 12.61c2.88 0 4.843-2.281 4.843-5.037s-1.93-5.006-4.843-5.006c-2.945 0-4.94 2.25-4.94 4.974 0 2.788 2.027 5.069 4.94 5.069zm10.637-5.038c0-4.372 3.64-7.572 7.947-7.572 4.305 0 7.946 3.232 7.946 7.572 0 4.372-3.64 7.571-7.946 7.571-4.306.032-7.947-3.2-7.947-7.571zm7.947 5.037c2.912 0 4.875-2.25 4.875-5.037 0-2.788-1.963-5.037-4.875-5.037-2.913 0-4.876 2.217-4.876 5.037 0 2.788 1.963 5.037 4.875 5.037zm18.679 2.566c-4.56 0-8.042-3.2-8.042-7.571 0-4.372 3.388-7.572 7.915-7.572 3.482 0 6.743 1.9 7.566 5.48h-2.976c-.728-1.932-2.469-2.914-4.495-2.914-3.071 0-4.94 2.281-4.94 5.069 0 2.82 1.932 4.974 5.003 4.974 1.995 0 3.8-.92 4.496-3.01h3.007c-1.076 3.77-4.179 5.544-7.535 5.544zm18.33-2.123l-4.78-9.979h-.095v11.785h-2.786V5.758h4.464l4.717 9.947h.095l4.717-9.948h4.464v14.541H71.55V8.513h-.095l-4.78 9.98H63.54zm13.9-5.48c0-4.372 3.64-7.572 7.946-7.572 4.306 0 7.947 3.232 7.947 7.572 0 4.372-3.641 7.571-7.947 7.571-4.274.032-7.947-3.2-7.947-7.571zm7.946 5.037c2.913 0 4.876-2.25 4.876-5.037 0-2.788-1.963-5.037-4.876-5.037-2.913 0-4.876 2.217-4.876 5.037 0 2.788 1.995 5.037 4.876 5.037zm9.434 2.376v-3.01h.064c.57 0 1.234-.253 1.646-.728.538-.602.823-1.68 1.108-3.263l.412-2.313c.475-2.693 1.424-5.386 5.445-5.386h5.667V20.33h-2.913V8.386h-2.247c-2.248 0-2.755.634-3.293 3.707l-.38 2.186c-.317 1.996-.823 3.707-1.868 4.815-.791.824-1.9 1.3-3.356 1.3h-.285v.03zm17.571-7.413c0-4.372 3.64-7.572 7.946-7.572 4.306 0 7.947 3.232 7.947 7.572 0 4.372-3.641 7.571-7.947 7.571-4.274.032-7.946-3.2-7.946-7.571zm7.946 5.037c2.913 0 4.876-2.25 4.876-5.037 0-2.788-1.963-5.037-4.876-5.037-2.913 0-4.875 2.217-4.875 5.037 0 2.788 1.994 5.037 4.875 5.037zm11.334 5.766h-2.817v-6.241h1.899c.823-.919 1.266-2.313 1.646-4.024l.634-2.693c.601-2.597 1.709-5.195 5.318-5.195h5.636v11.912h2.089v6.24h-2.817v-3.516H131.64v3.517h.031zm9.466-6.178V8.355h-2.722c-1.773 0-2.375 1.425-2.723 2.914l-.633 2.788c-.348 1.553-.887 2.851-1.425 3.39v.222h7.503v-.032zm15.102 2.978c-4.622 0-7.978-3.2-7.978-7.572 0-4.371 3.387-7.571 7.883-7.571 3.482 0 7.693 2.28 7.693 7.793v.602h-12.664c.317 2.44 2.185 4.182 5.066 4.182 1.71 0 3.736-.634 4.306-2.091h2.976c-.95 3.2-4.306 4.657-7.282 4.657zM151.205.435h3.008v3.01h-3.008V.434zm9.561 11.183c-.443-2.186-2.153-3.675-4.685-3.675-2.533 0-4.274 1.584-4.813 3.675h9.498zM157.727.435h3.008v3.01h-3.008V.434zm19.787 5.322v5.766h2.437l3.42-5.766h3.197l-4.242 6.938 4.622 7.603h-3.261l-3.672-6.114h-2.47v6.114h-2.786v-6.146h-2.469l-3.673 6.115h-3.261l4.623-7.604-4.243-6.938h3.198l3.419 5.798h2.438V5.757h2.723zm11.429 7.983l-.032-7.983h2.913l.031 4.119h.095c1.235-1.49 2.786-2.218 4.654-2.218 3.578 0 6.459 2.661 6.459 6.368 0 3.77-2.944 6.557-6.997 6.557-4.116.032-7.092-2.882-7.123-6.842zm7.028 4.309c2.311 0 3.989-1.616 3.989-3.897 0-2.28-1.678-3.928-3.989-3.928-2.279 0-3.957 1.647-3.957 3.928 0 2.281 1.646 3.897 3.957 3.897zM76.014 31.735h-4.843v8.522h-1.552V30.246h6.395v1.489zm1.33-1.489h1.551v1.774h.032c.696-1.267 1.963-2.091 3.767-2.091 2.755 0 4.939 1.996 4.939 5.322 0 3.295-2.216 5.323-4.939 5.323-1.804 0-3.102-.856-3.767-2.091h-.032v6.114h-1.551V30.246zm8.706 5.005c0-2.217-1.425-3.77-3.61-3.77-2.184 0-3.608 1.584-3.608 3.77 0 2.218 1.424 3.77 3.609 3.77 2.153 0 3.61-1.552 3.61-3.77zm2.944 0c0-3.294 2.216-5.322 4.939-5.322 1.805 0 3.103.855 3.767 2.09h.032v-1.773h1.551v9.98h-1.55V38.45H97.7c-.697 1.267-1.963 2.09-3.768 2.09-2.754.033-4.939-1.995-4.939-5.29zm8.865 0c0-2.217-1.425-3.77-3.61-3.77-2.184 0-3.609 1.584-3.609 3.77 0 2.218 1.425 3.77 3.61 3.77 2.184 0 3.609-1.552 3.609-3.77zm12.885-5.005v9.979h-1.551v-4.562h-5.825v4.562h-1.552v-9.98h1.552v3.992h5.825v-3.991h1.551zm10.575 1.425h-3.863v8.554h-1.551v-8.554h-3.831v-1.425h9.245v1.425zm9.53 5.418c0 1.869-1.33 3.168-3.419 3.168h-4.749V30.246h1.551v3.706h3.198c2.057 0 3.419 1.204 3.419 3.137zm-1.646.031c0-1.14-.634-1.742-1.932-1.742h-3.039v3.485h3.039c1.298-.032 1.932-.666 1.932-1.743zm4.21-6.874v9.979h-1.551v-9.98h1.551z" fill="#8C64D8"/></svg>