<svg width="43" height="25" fill="none" xmlns="http://www.w3.org/2000/svg"><path fill-rule="evenodd" clip-rule="evenodd" d="M23.56 24.633s.756-.084 1.145-.51c.357-.388.346-1.12.346-1.12S25 19.58 26.563 19.076c1.544-.5 3.52 3.307 5.618 4.772 1.588 1.108 2.793.866 2.793.866l5.61-.079s2.931-.186 1.54-2.53c-.113-.192-.808-1.735-4.168-4.909-3.518-3.318-3.045-2.78 1.189-8.52 2.58-3.497 3.612-5.631 3.289-6.545-.307-.871-2.205-.64-2.205-.64l-6.316.04s-.467-.066-.813.146c-.342.208-.557.688-.557.688s-1.003 2.704-2.336 5.006c-2.809 4.856-3.935 5.113-4.395 4.809-1.068-.701-.8-2.822-.8-4.326 0-4.707.7-6.668-1.368-7.174-.688-.17-1.191-.281-2.948-.3-2.252-.023-4.16.008-5.24.546-.718.357-1.272 1.155-.934 1.2.418.058 1.363.26 1.864.953.646.895.622 2.906.622 2.906s.373 5.539-.866 6.224c-.853.472-2.021-.491-4.528-4.896-1.284-2.255-2.255-4.751-2.255-4.751s-.184-.462-.52-.714c-.404-.302-.971-.397-.971-.397l-6 .04s-.901.026-1.232.422C.342 2.268.612 3 .612 3s4.7 11.177 10.02 16.808c4.877 5.163 10.416 4.825 10.416 4.825h2.512z" fill="#3F3F55"/></svg>