<svg width="895" height="520" viewBox="0 0 895 520" fill="none" xmlns="http://www.w3.org/2000/svg">
<path d="M895 415.834H847.375C764.533 415.834 697.375 348.676 697.375 265.834V155.377C697.375 125.267 685.407 96.3918 664.105 75.111V75.111C619.806 30.8544 548.028 30.8544 503.728 75.111V75.111C482.427 96.3918 470.458 125.267 470.458 155.377V371.371C470.458 399.838 459.142 427.139 439.002 447.259V447.259C397.119 489.101 329.256 489.101 287.373 447.259V447.259C267.234 427.139 255.918 399.838 255.918 371.371V155.377C255.918 125.267 243.949 96.3918 222.647 75.111V75.111C178.348 30.8544 106.57 30.8544 62.2702 75.111L29 108.349" stroke="#DAEF14" stroke-width="82"/>
</svg>
