<svg width="206" height="45" viewBox="0 0 206 45" fill="none" xmlns="http://www.w3.org/2000/svg">
<path d="M8.09607 5.104C12.5296 5.104 16.0958 8.36675 16.0958 12.8248C16.0958 17.2181 12.4654 20.5778 8.32096 20.5778C6.39332 20.5778 4.49782 20.0286 3.08422 18.4134H2.95571V29.623H0V14.0523C0 8.59288 3.11634 5.104 8.09607 5.104ZM8.06394 17.9611C10.9875 17.9611 12.9794 15.6352 12.9794 12.8248C12.9794 10.0143 11.0196 7.72066 8.06394 7.72066C5.07611 7.72066 3.05209 10.0143 3.05209 12.7924C3.05209 15.6352 5.10823 17.9611 8.06394 17.9611Z" fill="white"/>
<path d="M18.8584 12.8248C18.8584 8.36675 22.553 5.104 26.9223 5.104C31.2916 5.104 34.9863 8.39905 34.9863 12.8248C34.9863 17.2828 31.2916 20.5455 26.9223 20.5455C22.553 20.5778 18.8584 17.2828 18.8584 12.8248ZM26.9223 17.9611C29.878 17.9611 31.8699 15.6675 31.8699 12.8248C31.8699 9.98197 29.878 7.68835 26.9223 7.68835C23.9666 7.68835 21.9747 9.94966 21.9747 12.8248C21.9747 15.6675 23.9666 17.9611 26.9223 17.9611Z" fill="white"/>
<path d="M45.8781 20.578C41.2518 20.578 37.7178 17.3152 37.7178 12.8572C37.7178 8.39922 41.1554 5.13647 45.7496 5.13647C49.2836 5.13647 52.5927 7.07474 53.428 10.7251H50.408C49.6691 8.75457 47.9021 7.75313 45.846 7.75313C42.7296 7.75313 40.8341 10.079 40.8341 12.9218C40.8341 15.7969 42.7939 17.9936 45.9102 17.9936C47.9342 17.9936 49.7655 17.0568 50.4723 14.9247H53.5244C52.4321 18.7689 49.2836 20.578 45.8781 20.578Z" fill="white"/>
<path d="M64.4789 18.4134L59.6277 8.23748H59.5313V20.2547H56.7041V5.427H61.234L66.021 15.5706H66.1174L70.9044 5.427H75.4343V20.2547H72.6071V8.23748H72.5107L67.6595 18.4134H64.4789Z" fill="white"/>
<path d="M78.583 12.8248C78.583 8.36675 82.2776 5.104 86.647 5.104C91.0163 5.104 94.7109 8.39905 94.7109 12.8248C94.7109 17.2828 91.0163 20.5455 86.647 20.5455C82.3098 20.5778 78.583 17.2828 78.583 12.8248ZM86.647 17.9611C89.6027 17.9611 91.5946 15.6675 91.5946 12.8248C91.5946 9.98197 89.6027 7.68835 86.647 7.68835C83.6912 7.68835 81.6994 9.94966 81.6994 12.8248C81.6994 15.6675 83.7234 17.9611 86.647 17.9611Z" fill="white"/>
<path d="M96.2217 20.384V17.3151H96.2859C96.8642 17.3151 97.5389 17.0567 97.9565 16.5721C98.5027 15.9583 98.7919 14.86 99.081 13.2447L99.4987 10.8865C99.9806 8.14065 100.944 5.39478 105.025 5.39478H110.775V20.2871H107.82V8.10834H105.539C103.258 8.10834 102.744 8.75443 102.197 11.888L101.812 14.117C101.491 16.1521 100.977 17.8966 99.9163 19.0272C99.1131 19.8671 97.9887 20.3517 96.5108 20.3517H96.2217V20.384Z" fill="white"/>
<path d="M114.052 12.8248C114.052 8.36675 117.746 5.104 122.116 5.104C126.485 5.104 130.18 8.39905 130.18 12.8248C130.18 17.2828 126.485 20.5455 122.116 20.5455C117.779 20.5778 114.052 17.2828 114.052 12.8248ZM122.116 17.9611C125.071 17.9611 127.063 15.6675 127.063 12.8248C127.063 9.98197 125.071 7.68835 122.116 7.68835C119.16 7.68835 117.168 9.94966 117.168 12.8248C117.168 15.6675 119.192 17.9611 122.116 17.9611Z" fill="white"/>
<path d="M133.617 23.8405H130.758V17.4765H132.685C133.521 16.5397 133.971 15.1183 134.356 13.3739L134.999 10.628C135.609 7.97904 136.733 5.33008 140.396 5.33008H146.115V17.4765H148.235V23.8405H145.376V20.2547H133.585V23.8405H133.617ZM143.223 17.5411V8.07595H140.46C138.661 8.07595 138.051 9.52965 137.697 11.048L137.055 13.8907C136.701 15.4737 136.155 16.7981 135.609 17.3473V17.5734H143.223V17.5411Z" fill="white"/>
<path d="M158.548 20.5779C153.858 20.5779 150.452 17.3151 150.452 12.8571C150.452 8.39914 153.89 5.1364 158.452 5.1364C161.986 5.1364 166.259 7.46231 166.259 13.0833V13.6971H153.408C153.729 16.1845 155.625 17.9612 158.548 17.9612C160.283 17.9612 162.339 17.3151 162.918 15.8291H165.937C164.974 19.0919 161.568 20.5779 158.548 20.5779ZM153.44 0H156.492V3.06892H153.44V0ZM163.142 11.4034C162.693 9.17444 160.958 7.65614 158.388 7.65614C155.817 7.65614 154.05 9.27136 153.504 11.4034H163.142ZM160.058 0H163.11V3.06892H160.058V0Z" fill="white"/>
<path d="M180.138 5.42708V11.3065H182.611L186.081 5.42708H189.326L185.021 12.5017L189.712 20.2548H186.402L182.676 14.02H180.17V20.2548H177.343V13.9877H174.837L171.11 20.2225H167.801L172.491 12.4694L168.186 5.39478H171.431L174.901 11.3065H177.375V5.42708H180.138Z" fill="white"/>
<path d="M191.735 13.568L191.703 5.42725H194.659L194.691 9.62682H194.787C196.04 8.10851 197.615 7.36551 199.51 7.36551C203.14 7.36551 206.064 10.0791 206.064 13.8587C206.064 17.7029 203.076 20.5457 198.964 20.5457C194.787 20.578 191.767 17.606 191.735 13.568ZM198.868 17.9613C201.213 17.9613 202.916 16.3138 202.916 13.9879C202.916 11.662 201.213 9.98216 198.868 9.98216C196.554 9.98216 194.852 11.662 194.852 13.9879C194.852 16.3138 196.522 17.9613 198.868 17.9613Z" fill="white"/>
<path d="M77.1372 31.9167H72.2217V40.6066H70.6475V30.3984H77.1372V31.9167Z" fill="white"/>
<path d="M78.4863 30.3985H80.0606V32.2075H80.0927C80.7995 30.9154 82.0846 30.0754 83.9158 30.0754C86.7109 30.0754 88.9277 32.1106 88.9277 35.5026C88.9277 38.8622 86.6788 40.9297 83.9158 40.9297C82.0846 40.9297 80.7674 40.0575 80.0927 38.7976H80.0606V45.0324H78.4863V30.3985ZM87.3213 35.5026C87.3213 33.2413 85.8756 31.6584 83.6588 31.6584C81.442 31.6584 79.9963 33.2736 79.9963 35.5026C79.9963 37.7639 81.442 39.3468 83.6588 39.3468C85.8435 39.3468 87.3213 37.7639 87.3213 35.5026Z" fill="white"/>
<path d="M90.3086 35.5026C90.3086 32.1429 92.5575 30.0754 95.3204 30.0754C97.1517 30.0754 98.4689 30.9477 99.1436 32.2075H99.1757V30.3985H100.75V40.5744H99.1757V38.7653H99.1436C98.4368 40.0575 97.1517 40.8974 95.3204 40.8974C92.5254 40.9297 90.3086 38.8622 90.3086 35.5026ZM99.3042 35.5026C99.3042 33.2413 97.8585 31.6584 95.6417 31.6584C93.4249 31.6584 91.9792 33.2736 91.9792 35.5026C91.9792 37.7639 93.4249 39.3468 95.6417 39.3468C97.8585 39.3468 99.3042 37.7639 99.3042 35.5026Z" fill="white"/>
<path d="M112.381 30.3984V40.5743H110.807V35.9225H104.896V40.5743H103.321V30.3984H104.896V34.4688H110.807V30.3984H112.381Z" fill="white"/>
<path d="M123.112 31.8521H119.192V40.5743H117.618V31.8521H113.73V30.3984H123.112V31.8521Z" fill="white"/>
<path d="M132.782 37.3762C132.782 39.2821 131.433 40.6066 129.312 40.6066H124.493V30.3984H126.067V34.1781H129.312C131.401 34.1781 132.782 35.4056 132.782 37.3762ZM131.111 37.4085C131.111 36.2455 130.469 35.6317 129.152 35.6317H126.067V39.1852H129.152C130.469 39.1529 131.111 38.5068 131.111 37.4085ZM135.384 30.3984V40.5743H133.81V30.3984H135.384Z" fill="white"/>
</svg>
